<?xml version="1.0" standalone="no"?>
<!DOCTYPE svg PUBLIC "-//W3C//DTD SVG 1.1//EN" "http://www.w3.org/Graphics/SVG/1.1/DTD/svg11.dtd" >
<svg xmlns="http://www.w3.org/2000/svg">
<metadata></metadata>
<defs>
<font id="livorybold_italic" horiz-adv-x="1007" >
<font-face units-per-em="2048" ascent="1536" descent="-512" />
<missing-glyph horiz-adv-x="491" />
<glyph unicode="&#xfb01;" horiz-adv-x="1271" d="M-201 -285q0 48 32 74.5t71 26.5q27 0 48.5 -13t32.5 -28t26 -28t30 -13q62 0 80 84q31 143 75.5 480t47.5 429q1 48 -8.5 63t-36.5 15q-14 0 -57 -1t-52 -1q-33 0 -43.5 36.5t5.5 72.5t48 36l121 -6q29 0 39.5 12.5t24.5 56.5q3 7 4 11q24 112 66.5 200t94.5 145.5 t116.5 94.5t130.5 52.5t139 15.5q147 0 242 -53.5t95 -147.5q0 -63 -37.5 -101t-95.5 -38q-37 0 -62 20.5t-40 50t-32.5 59.5t-50 50.5t-81.5 20.5q-54 0 -101 -41t-75 -101t-45 -119t-19 -104q-3 -49 8.5 -65.5t47.5 -16.5l205 4q179 0 251 23q30 10 56 -16t33 -60 q-2 -8 -18.5 -94.5t-30.5 -160.5t-30.5 -168t-26 -165.5t-9.5 -103.5q0 -21 6.5 -29t24.5 -8q15 0 35.5 8t39.5 18t23 11q22 6 40.5 -30t6.5 -58q-18 -27 -128 -86.5t-171 -59.5q-62 0 -99.5 41.5t-37.5 102.5q0 63 48 342t48 313q0 23 -24 33.5t-89 13.5q-86 4 -161 -2 q-2 0 -9.5 -0.5t-10.5 -0.5t-10 -1.5t-10.5 -3t-9.5 -4.5t-9.5 -7.5t-8.5 -11t-8 -14.5t-5.5 -19t-4.5 -24q-7 -52 -31.5 -282t-52 -389t-66.5 -244q-36 -76 -101 -130.5t-128 -77t-119 -22.5q-48 0 -85 10t-57.5 24.5t-33.5 34t-17 35t-4 29.5z" />
<glyph unicode="&#xfb02;" horiz-adv-x="1331" d="M-201 -285q0 48 32 74.5t71 26.5q27 0 48.5 -13t32.5 -28t26 -28t30 -13q62 0 80 84q31 143 75.5 480t47.5 429q1 48 -8.5 63t-36.5 15q-14 0 -57 -1t-52 -1q-33 0 -43.5 36.5t5.5 72.5t48 36l121 -6q33 0 45 15.5t23 64.5q26 112 70.5 200t100 145t123.5 94.5t136.5 53 t144.5 15.5q40 0 64.5 -3t55 -10.5t38.5 -9.5q69 -14 164 19q26 9 52 -14.5t30 -61.5q1 -13 -44.5 -288t-92 -580.5t-46.5 -382.5q0 -31 10 -44.5t35 -13.5q16 0 27 3.5t19.5 9t11.5 6.5q23 4 34 -25.5t-3 -52.5q-15 -28 -99 -70.5t-160 -42.5q-58 0 -95.5 43t-37.5 105 q0 84 26.5 274t69.5 451.5t52 326.5q16 107 -33 157t-147 50q-53 0 -97.5 -26t-73 -65.5t-49 -88.5t-30 -91.5t-11.5 -78.5q-4 -48 8 -65t44 -17q147 4 192 4q35 0 35 -63q0 -36 -17 -61t-46 -25q-4 0 -57 6t-113 6q-38 0 -54 -12q-24 -19 -32 -72q-8 -56 -31 -283.5 t-50.5 -387t-66.5 -244.5q-36 -76 -101 -130.5t-128 -77t-119 -22.5q-48 0 -85 10t-57.5 24.5t-33.5 34t-17 35t-4 29.5z" />
<glyph horiz-adv-x="0" />
<glyph horiz-adv-x="682" />
<glyph unicode=" "  horiz-adv-x="491" />
<glyph unicode="&#x09;" horiz-adv-x="491" />
<glyph unicode="&#xa0;" horiz-adv-x="491" />
<glyph unicode="!" horiz-adv-x="585" d="M53 152q0 85 47 131.5t125 46.5q168 0 168 -170q0 -79 -43 -132t-123 -53q-82 0 -128 49.5t-46 127.5zM213 1174q0 93 58.5 167t152.5 74q71 0 111 -43.5t40 -114.5q0 -43 -18 -90.5t-47.5 -102.5t-61.5 -121.5t-64.5 -173.5t-51.5 -232q-2 -18 -16 -33t-42 -15 q-41 0 -41 37v6q23 147 23 263q0 111 -21.5 229.5t-21.5 149.5z" />
<glyph unicode="&#x22;" horiz-adv-x="612" d="M180 1358q0 87 38.5 129.5t98.5 42.5q35 0 54.5 -19.5t19.5 -56.5q0 -54 -20 -117t-53.5 -160.5t-55.5 -201.5q-3 -16 -16.5 -26.5t-34.5 -10.5q-29 0 -29 31q0 22 5.5 70t5.5 79q0 50 -6.5 130t-6.5 110zM465 967q0 25 6 81.5t6 92.5q0 38 -3 101.5t-3 90.5 q0 197 129 197q36 0 60 -22t24 -64q0 -46 -24.5 -108t-60 -157t-54.5 -202q-2 -15 -16.5 -27t-34.5 -12q-29 0 -29 29z" />
<glyph unicode="#" horiz-adv-x="1114" d="M39 467q0 32 15.5 60t41.5 24q20 -2 174 -2q14 0 20 5.5t13 20.5q11 23 38 111.5t30 110.5q0 15 -4 20t-17 6q-48 2 -82 1.5t-76.5 -2t-50.5 -1.5q-14 0 -14 33q0 34 14.5 63t40.5 29q6 0 80.5 -1t120.5 -1q14 0 22.5 5.5t16.5 25.5q16 39 56.5 184.5t45.5 177.5 q6 25 26.5 41t49.5 17q24 1 35 -19t4 -39q-2 -9 -24.5 -79t-44.5 -147t-33 -130q-6 -12 -3 -24.5t17 -12.5q129 0 184 2q25 0 39 35q2 9 55 175t56 181q3 21 23.5 39.5t49.5 18.5q22 0 35 -21t4 -37q-11 -24 -62.5 -188.5t-51.5 -177.5q-4 -27 20 -27q27 0 73.5 0.5t75 0.5 t40.5 -1q10 0 10 -26q0 -32 -13.5 -63t-37.5 -30q-25 2 -185 2q-23 0 -35 -36q-8 -18 -39 -114t-30 -106q-1 -13 4.5 -17.5t19.5 -6.5q35 -4 105 -3.5t96 3.5q14 3 21.5 -9t7.5 -32q0 -31 -14.5 -58t-36.5 -26q-112 6 -213 2q-7 0 -12 -2t-9.5 -7t-7 -8t-7 -10.5t-5.5 -9.5 q-2 -8 -48.5 -162t-48.5 -168q-3 -23 -25.5 -42t-49.5 -19q-24 0 -36.5 17.5t-2.5 41.5l50 156q49 156 50 176q1 9 1.5 17.5t-5 14.5t-18.5 7q-89 6 -175 0q-12 -1 -18.5 -7.5t-15.5 -25.5q-15 -40 -58.5 -179.5t-46.5 -158.5q-18 -59 -78 -59q-26 0 -38.5 20.5t-4.5 40.5 q11 24 59 169.5t52 172.5v4q0 7 -0.5 10t-3.5 6t-10 5q-20 4 -179 4q-22 0 -22 39zM420 573q-1 -13 5.5 -21.5t18.5 -8.5q7 0 48 -1t72.5 -0.5t49.5 3.5q28 5 37 35q1 6 33.5 102.5t34.5 112.5q3 29 -27 32q-3 0 -38.5 0.5t-70 0.5t-53.5 -1q-23 -1 -31.5 -8t-13.5 -24 q-1 -4 -30 -100t-35 -122z" />
<glyph unicode="$" horiz-adv-x="946" d="M-2 115q0 32 7.5 77.5t22.5 96.5t45 86t68 35q22 0 35.5 -12t9.5 -33q-14 -88 14 -156.5t87 -83.5q37 -7 53 9.5t22 45.5q26 122 46 256q10 74 7.5 90t-26.5 35q-54 48 -92.5 89t-75 93t-55.5 109.5t-19 120.5q0 159 108 283.5t275 150.5q29 6 35 37l6 45q4 19 11.5 28.5 t13.5 11t18 1.5q15 0 24.5 -10.5t6.5 -28.5q-1 -7 -4.5 -22t-5.5 -27q-1 -9 -1 -15t8 -9.5t28 -4.5q96 -6 178.5 -30t93.5 -44q6 -6 6 -39q0 -70 -28 -235q-4 -35 -33.5 -56.5t-61.5 -21.5q-24 0 -37.5 13.5t-9.5 41.5q10 91 -38 161.5t-103 70.5q-13 1 -21 -12t-16 -48 q-30 -152 -43 -262q-8 -35 -3.5 -58.5t8.5 -30t16 -17.5q8 -7 39.5 -32.5t43 -36t39.5 -35.5t41 -40.5t34.5 -41t32 -47t22.5 -49t17 -56t5 -59.5q0 -165 -114 -299t-287 -166q-28 -5 -39.5 -14t-14.5 -31q-8 -41 -8 -58q-3 -26 -13 -36.5t-34 -10.5q-20 0 -28.5 12.5 t-2.5 32.5q0 1 2 7.5t4.5 18t4.5 25.5t1 23t-10.5 15t-31.5 9q-117 12 -200 53t-83 85zM401 1087q0 -64 54 -118q17 -16 26 -9.5t15 39.5q22 109 32 199q6 39 2.5 54t-26.5 5q-46 -23 -74.5 -69.5t-28.5 -100.5zM438 203q-5 -29 0.5 -44t13 -17t19.5 -1q47 10 73.5 58.5 t26.5 105.5q0 88 -65 146q-14 17 -24 -7q-6 -16 -13 -53q-29 -163 -31 -188z" />
<glyph unicode="%" horiz-adv-x="1593" d="M129 993q0 125 58.5 222.5t148.5 146.5t192 49q123 0 204 -74.5t81 -203.5q0 -187 -117.5 -307.5t-277.5 -120.5q-126 0 -207.5 77t-81.5 211zM268 53q0 45 21 62q16 18 159.5 206.5t370.5 499t383 543.5q34 53 86 53q29 0 50.5 -19.5t21.5 -47.5q0 -25 -21 -52 q-84 -103 -307 -405t-404.5 -553.5t-189.5 -265.5q-18 -29 -31.5 -46t-35 -32.5t-43.5 -15.5q-27 0 -43.5 21t-16.5 52zM317 1137q0 -85 70 -166.5t150 -81.5q40 0 64 26.5t24 73.5q0 85 -67 166.5t-148 81.5q-38 0 -65.5 -26t-27.5 -74zM815 266q0 125 58.5 222.5 t148.5 146.5t192 49q122 0 202.5 -74.5t80.5 -203.5q0 -94 -33 -175.5t-87.5 -136.5t-126 -86t-148.5 -31q-124 0 -205.5 77.5t-81.5 211.5zM1004 410q0 -85 69.5 -166.5t147.5 -81.5q41 0 65.5 26t24.5 72q0 86 -67 168t-150 82q-37 0 -63.5 -26t-26.5 -74z" />
<glyph unicode="&#x26;" horiz-adv-x="1886" d="M51 532q0 124 39 222.5t103 157t140.5 88.5t158.5 30q93 0 170 -43q15 -10 27.5 -10t31.5 22q124 147 217 310q45 92 61 137q28 88 84 88q31 0 56.5 -22t25.5 -54q0 -38 -28 -82q-555 -757 -674 -956q-29 -49 -2 -96q34 -55 116 -99.5t197 -44.5q86 0 164 27t133 70 t96.5 95.5t61.5 105t20 97.5q0 96 -57 150.5t-135 54.5q-43 0 -67.5 -18.5t-24.5 -38.5q0 -19 15.5 -34t34.5 -24.5t34.5 -29t15.5 -45.5q0 -36 -25.5 -59t-74.5 -23q-51 0 -92.5 48t-41.5 138q0 30 7.5 64t28 73t51 70t82 51.5t116.5 20.5q60 0 125.5 -25t123.5 -61 t115.5 -72t120.5 -61t119 -25q35 0 50 20.5t24 59.5q5 18 33 18q26 0 45.5 -15.5t19.5 -45.5q0 -94 -64 -176t-157 -82q-80 0 -217 70q-46 20 -59 -25q-18 -58 -51 -124.5t-98 -151t-146 -150.5t-203.5 -112t-261.5 -46q-176 0 -310.5 77.5t-204 204.5t-69.5 281zM299 698 q0 -62 7.5 -108.5t18.5 -68t23 -21.5q17 0 55 52.5t70.5 128.5t32.5 130q0 49 -24 71.5t-60 22.5q-34 0 -59.5 -21.5t-38.5 -55t-19 -66.5t-6 -64z" />
<glyph unicode="'" horiz-adv-x="327" d="M180 1358q0 87 38.5 129.5t98.5 42.5q35 0 54.5 -19.5t19.5 -56.5q0 -54 -20 -117t-53.5 -160.5t-55.5 -201.5q-3 -16 -16.5 -26.5t-34.5 -10.5q-29 0 -29 31q0 22 5.5 70t5.5 79q0 50 -6.5 130t-6.5 110z" />
<glyph unicode="(" horiz-adv-x="624" d="M59 453q0 204 68 404t201 373t313 286q12 6 25 6q20 0 32.5 -16.5t12.5 -39.5q0 -33 -31 -61q-190 -171 -284.5 -453t-94.5 -579q0 -326 135 -502q15 -18 15 -41q0 -30 -20.5 -54t-45.5 -24q-11 0 -23 8q-135 106 -219 286t-84 407z" />
<glyph unicode=")" horiz-adv-x="628" d="M-68 -193q0 37 31 64q99 94 174.5 221t119.5 268.5t65.5 286t21.5 291.5q0 302 -139 467q-19 22 -19 43q0 30 22 53t46 23q16 0 27 -8q136 -111 219.5 -288.5t83.5 -400.5q0 -204 -68 -405t-201 -375.5t-313 -286.5q-11 -8 -25 -8q-19 0 -32 16t-13 39z" />
<glyph unicode="*" horiz-adv-x="749" d="M156 1217q0 54 40.5 95t88.5 19q22 -12 51 -36.5t57 -41.5q12 -6 23.5 0.5t13.5 18.5q6 37 -3 86t-7 67q3 47 32 74t66 27q35 0 57.5 -27t12.5 -72q-4 -24 -27 -69.5t-31 -95.5q-3 -21 5 -27.5t24 -3.5q34 14 74 49t59 43q44 22 71.5 -3t27.5 -69q0 -35 -20 -65.5 t-56 -40.5q-23 -7 -66.5 -7t-79.5 -8q-11 -3 -14.5 -16t0.5 -20q10 -31 45 -65t41 -44q33 -49 -3.5 -102.5t-86.5 -53.5q-40 0 -57 45q-5 14 -12.5 63.5t-22.5 84.5q-3 7 -16.5 6.5t-18.5 -6.5q-23 -28 -49.5 -80.5t-34.5 -64.5q-36 -50 -76 -50q-30 0 -51 23t-20.5 60.5 t30.5 72.5q17 19 57 48t64 59q11 14 9 28t-15 19q-28 11 -70 8.5t-61 3.5q-51 11 -51 68z" />
<glyph unicode="+" horiz-adv-x="1228" d="M219 567q0 36 16 62.5t41 25.5q7 1 37 0t77.5 -2t86.5 0q17 1 27 5t14.5 13t5 16t0.5 23v3.5v3.5q0 32 -2 118t-2 123q-1 31 25.5 48.5t60.5 17.5q32 0 60 -15t28 -38q-8 -164 -8 -258q0 -62 39 -62q103 0 211 17q32 6 53 -22.5t21 -67.5q0 -33 -18.5 -57t-55.5 -25 q-148 0 -207 -4q-29 -1 -36 -12t-5 -38q0 -170 6 -235q0 -30 -28.5 -49t-61.5 -19t-59.5 16.5t-26.5 45.5q6 171 6 227q0 41 -11.5 52.5t-39.5 13.5q-93 3 -182 -7q-34 -4 -53 20t-19 60z" />
<glyph unicode="," horiz-adv-x="544" d="M14 111q0 88 60 148t135 60q92 0 136 -60.5t44 -162.5q0 -173 -82 -303.5t-221 -202.5q-8 -4 -20 -4q-18 0 -34 18.5t-16 39.5q0 40 43 59q77 46 124.5 115.5t47.5 136.5q0 47 -32 47q-11 0 -41 -11t-47 -11q-50 0 -73.5 37.5t-23.5 93.5z" />
<glyph unicode="-" horiz-adv-x="718" d="M80 563q0 38 17.5 69t47.5 34q36 2 104.5 0t166 1t143.5 13q29 6 48.5 -26.5t19.5 -75.5q0 -41 -19.5 -69t-60.5 -28q-295 6 -395 -8q-35 -4 -53.5 22.5t-18.5 67.5z" />
<glyph unicode="." horiz-adv-x="516" d="M25 152q0 84 46.5 131t121.5 47q169 0 169 -170q0 -80 -43 -132.5t-124 -52.5q-79 0 -124.5 50t-45.5 127z" />
<glyph unicode="/" horiz-adv-x="634" d="M-33 23q0 20 15 45q9 13 77.5 160t210.5 469t293 685q18 45 72 45q27 0 46 -13.5t19 -35.5q0 -11 -20 -47q-6 -13 -270.5 -614.5t-284.5 -646.5q-17 -46 -40.5 -68t-70.5 -22t-47 43z" />
<glyph unicode="0" horiz-adv-x="1179" d="M92 489q0 134 27.5 262.5t82 241t129.5 198t177.5 134.5t218.5 49q186 0 285.5 -142.5t99.5 -375.5q0 -183 -49 -348t-131 -281.5t-193 -185t-231 -68.5q-204 0 -310 140t-106 376zM373 518q0 -189 54 -289t142 -100q56 0 102 49t75 125t49 173.5t28 189t8 176.5 q0 114 -17.5 198.5t-59 136.5t-103.5 52q-69 0 -124.5 -72t-87.5 -182.5t-49 -229.5t-17 -227z" />
<glyph unicode="1" horiz-adv-x="874" d="M-23 55q0 32 14.5 55.5t39.5 20.5q48 -3 84 -3t62.5 2.5t45.5 10.5t31.5 16.5t21.5 24.5t14 30.5t11 39.5q20 85 64.5 379.5t54.5 394.5q7 42 -28.5 49t-196.5 -2q-22 -1 -33.5 17t-11.5 45q0 29 13.5 49t39.5 20q77 0 145.5 19.5t112.5 47t77 55.5t53 47.5t27 19.5 q11 0 24.5 -1.5t40 -7t40 -21.5t6.5 -40q-31 -135 -100 -575.5t-74 -516.5q-3 -56 2 -69q11 -30 83 -33q40 -1 112 4q19 1 31 -16t12 -41q0 -32 -18 -56.5t-50 -23.5q-406 21 -713 0q-18 -1 -27.5 16.5t-9.5 42.5z" />
<glyph unicode="2" d="M-20 98q0 70 22 92q86 59 163.5 118t175 148t166.5 173.5t117 187t48 195.5q0 85 -41 130.5t-123 45.5q-74 0 -140.5 -55t-101.5 -117q-12 -21 -35 -21q-22 0 -40.5 18t-18.5 44q0 15 10 35q14 30 39.5 64.5t68 73.5t91.5 70.5t115.5 52.5t136.5 21q138 0 231.5 -82 t93.5 -223q0 -62 -15.5 -123t-38.5 -110.5t-63.5 -103.5t-75.5 -92.5t-90.5 -89t-93.5 -81.5t-99 -80t-93 -76q-31 -28 -17.5 -48.5t56.5 -22.5q128 -4 188 8q74 9 106.5 31.5t72.5 87.5q16 26 49 26q23 0 35 -13.5t2 -37.5q-112 -286 -123 -311q-7 -16 -23.5 -31.5 t-42.5 -15.5q-8 0 -63 6.5t-84 7.5q-304 11 -508 -4q-29 -1 -43 28.5t-14 73.5z" />
<glyph unicode="3" horiz-adv-x="995" d="M-6 133q0 56 37 99.5t94 43.5q36 0 58 -16.5t32 -40t21.5 -47.5t37.5 -40.5t70 -16.5q107 0 182.5 80.5t75.5 191.5q0 116 -92 170.5t-240 54.5q-41 0 -41 50q0 26 14 50t33 27q60 7 120.5 33t112 66.5t84 100t32.5 126.5q0 64 -38 102.5t-112 38.5q-47 0 -91 -17 t-69.5 -36t-47.5 -39.5t-25 -21.5q-12 -9 -25 -9q-18 0 -27.5 17.5t-9.5 42.5q0 22 13 45q6 17 35 45.5t77 62t124.5 57t160.5 23.5q144 0 229.5 -69t85.5 -177q0 -106 -68.5 -198t-172.5 -144q-18 -10 -21 -24t16 -21q86 -28 125 -54q110 -72 111 -206q0 -110 -53 -207 t-139 -162.5t-196 -103t-224 -37.5q-126 0 -207.5 43.5t-81.5 116.5z" />
<glyph unicode="4" horiz-adv-x="1015" d="M6 477q0 79 19 98q165 166 388 416t234 293q5 18 18.5 38.5t32.5 20.5q21 0 47.5 7t49 17t41.5 20t31 17l12 7q19 0 32 -13t9 -32q-79 -391 -125 -760q-4 -27 5.5 -37t33.5 -10q6 0 31 1t42 1q18 0 26.5 -7t8.5 -26q0 -41 -20 -89t-56 -48q-6 0 -40.5 1t-47.5 1 q-17 0 -26.5 -34.5t-20.5 -106.5q-2 -19 -4 -29q-6 -36 -11.5 -93t-6.5 -64q-12 -66 -74 -66h-148q-32 0 -42.5 12.5t-4.5 46.5q7 42 18.5 107.5t19 113.5t11.5 80q1 11 -1.5 19t-5 12t-11.5 6t-13 2.5t-18 0t-18 -0.5q-235 0 -371 -8q-45 0 -45 86zM223 592 q-4 -20 11.5 -24.5t62.5 -4.5h174q30 0 46 23t28 80q16 66 35 204l12 93q3 13 -2 24.5t-15 11.5t-22 -12q-82 -78 -181 -192t-126 -158q-20 -28 -23 -45z" />
<glyph unicode="5" horiz-adv-x="956" d="M-8 123q0 53 30.5 103t83.5 50q31 0 51.5 -16t34 -38.5t30 -45.5t49 -39t81.5 -16q108 0 178 88.5t70 202.5q0 72 -35 125t-95 81t-127.5 41t-145.5 13q-28 0 -38 14t-7 28l4 13q102 340 149 588q8 39 55 39q202 -9 332 -8.5t205 22.5q16 3 33.5 4.5t27.5 -10.5t3 -37 q-5 -16 -19 -58.5t-25.5 -78.5t-13.5 -43q-9 -29 -29.5 -40t-68.5 -11q-56 -2 -184 -1t-181 3q-26 1 -40 -9t-23 -36q-14 -35 -29 -125q-4 -19 0 -26t23 -7q65 0 128.5 -10t129 -35.5t114.5 -64.5t80 -102.5t31 -143.5q0 -109 -44.5 -212t-120.5 -180.5t-183 -124.5 t-225 -47q-137 0 -213 38t-76 112z" />
<glyph unicode="6" horiz-adv-x="1091" d="M80 449q0 116 30 242.5t92 248t146 218.5t203 156.5t252 59.5q250 0 250 -112q0 -42 -27.5 -74.5t-69.5 -32.5q-30 0 -53 11.5t-37.5 24.5t-46 24.5t-76.5 11.5q-110 0 -202 -121.5t-140.5 -300.5t-48.5 -363q0 -164 51 -242.5t125 -78.5q57 0 100.5 34.5t66.5 89.5 t34.5 112t11.5 112q0 118 -48 192t-120 74q-5 0 -22 -1t-25 -1q-47 0 -47 45q0 31 20 54t51 34t60 16t56 5q143 0 240.5 -86t97.5 -246q0 -107 -39 -211t-107 -186.5t-170 -133.5t-219 -51q-185 0 -287 130.5t-102 345.5z" />
<glyph unicode="7" horiz-adv-x="905" d="M109 1018q0 10 2 16q16 34 34.5 89.5t42.5 133.5t29 95q11 28 37 28q14 0 40 -10.5t28 -11.5q44 -7 274 -9t373 5q43 3 43 -33q0 -22 -15 -51.5t-28 -44.5q-436 -574 -506 -1030q-15 -93 -67 -157.5t-138 -64.5q-58 0 -88.5 37.5t-30.5 104.5q0 89 37.5 188.5t103 199 t130.5 184.5t145.5 187t122.5 164q34 50 25 67t-70 17q-55 2 -143 1.5t-115 -3.5q-74 -9 -113.5 -34t-81.5 -91q-13 -16 -30 -16q-16 0 -28.5 10.5t-12.5 28.5z" />
<glyph unicode="8" horiz-adv-x="1073" d="M57 246q0 222 222 332q40 22 40 38q0 12 -28 37q-131 106 -131 265q0 86 33.5 166t95 144t158.5 102t215 38q169 0 265.5 -78t96.5 -198q0 -67 -19.5 -122.5t-48 -89.5t-62.5 -61.5t-62.5 -43t-48 -29t-19.5 -23.5q0 -18 24 -31q156 -110 156 -276q0 -192 -146.5 -319.5 t-367.5 -127.5q-184 0 -278.5 77.5t-94.5 199.5zM291 303q0 -79 44.5 -130.5t129.5 -51.5t139.5 55t54.5 141q0 93 -68.5 161.5t-129.5 68.5q-18 0 -45 -15.5t-56 -43.5t-49 -77.5t-20 -107.5zM432 1022q0 -90 66.5 -162t117.5 -72q19 0 49.5 21.5t62 55.5t54.5 86.5 t23 105.5q0 74 -43.5 120t-128.5 46q-86 0 -143.5 -58t-57.5 -143z" />
<glyph unicode="9" horiz-adv-x="1093" d="M53 109q0 47 36.5 87t86.5 40q24 0 42.5 -12t32.5 -29t30 -34.5t45.5 -29.5t70.5 -12q95 0 181 120t136 301t50 363q0 159 -49 241.5t-133 82.5q-51 0 -92.5 -36.5t-65 -91.5t-35.5 -113t-12 -109q0 -97 50 -170.5t144 -73.5q7 0 19.5 1.5t22.5 3.5l10 1q34 0 34 -53 q0 -41 -32.5 -67.5t-71 -35t-80.5 -8.5q-162 0 -259 86t-97 244q0 86 26 169.5t75 155t115.5 126.5t153 86.5t181.5 31.5q172 0 271 -133t99 -340q0 -117 -28 -243t-88 -249t-142.5 -220.5t-201.5 -157.5t-256 -60q-50 0 -96 8t-85.5 24t-63.5 43.5t-24 62.5z" />
<glyph unicode=":" horiz-adv-x="606" d="M63 152q0 84 46.5 131t121.5 47q172 0 172 -170q0 -80 -44 -132.5t-126 -52.5q-79 0 -124.5 50t-45.5 127zM164 797q0 84 46.5 130t123.5 46q170 0 170 -170q0 -79 -43.5 -130.5t-124.5 -51.5q-80 0 -126 49.5t-46 126.5z" />
<glyph unicode=";" horiz-adv-x="616" d="M61 111q0 89 53 148.5t126 59.5q95 0 143.5 -65.5t48.5 -171.5q0 -149 -85.5 -287t-215.5 -205q-4 -4 -16 -4q-19 0 -35.5 17.5t-16.5 38.5q0 23 9 35t34 26q77 45 126 115t49 137q0 47 -35 47q-9 0 -39 -11t-47 -11q-50 0 -74.5 38t-24.5 93zM168 797q0 84 47 130 t125 46q82 0 126 -41.5t44 -122.5q0 -82 -43 -135t-125 -53t-128 49t-46 127z" />
<glyph unicode="&#x3c;" horiz-adv-x="1228" d="M260 494q0 44 27 59q18 12 237 141t346 219q27 17 41 17q26 0 41 -25.5t15 -60.5q0 -66 -39 -86q-40 -23 -168 -88.5t-193 -107t-65 -66.5q0 -34 82 -93.5t178.5 -109t159.5 -70.5q21 -7 32 -31.5t11 -52.5q0 -36 -16 -61t-44 -25q-21 0 -45 15l-567 352q-33 20 -33 74z " />
<glyph unicode="=" horiz-adv-x="1228" d="M248 365q0 29 11 50.5t30 22.5q12 1 282 3.5t342 9.5q25 3 45.5 -31.5t20.5 -73.5q0 -31 -15.5 -50.5t-48.5 -19.5q-4 0 -124 2t-231 -0.5t-251 -11.5q-29 -1 -45 29.5t-16 69.5zM248 797q0 33 13 57.5t36 24.5q84 0 212 -1t184.5 -1t120 3t99.5 9q25 3 45.5 -30 t20.5 -71q0 -32 -17 -53.5t-51 -21.5q-38 -1 -258 0.5t-350 -2.5q-26 -1 -40.5 25t-14.5 61z" />
<glyph unicode="&#x3e;" horiz-adv-x="1228" d="M262 139q0 28 11 52.5t32 31.5q62 21 158.5 70.5t179 109.5t82.5 93q0 25 -66 67t-193.5 107.5t-166.5 87.5q-37 21 -37 86q0 35 13 60.5t38 25.5q14 0 41 -17q128 -90 353 -221t237 -139q23 -14 23 -55q0 -55 -33 -78q-428 -264 -567 -352q-24 -15 -45 -15q-28 0 -44 25 t-16 61z" />
<glyph unicode="?" horiz-adv-x="964" d="M139 1094q0 61 26.5 119t74.5 104.5t122.5 75t163.5 28.5q111 0 198.5 -28.5t141 -78t81.5 -112t28 -133.5q0 -65 -26 -121.5t-67 -95.5t-90.5 -72t-99.5 -57t-91 -44t-67 -38t-26 -35q0 -21 26 -32t56 -13q22 -3 22 -45q0 -28 -10 -35q-15 -12 -65 -12q-39 0 -79 6.5 t-83 21.5t-69.5 46.5t-26.5 74.5q0 34 23.5 67.5t60.5 63t82 60.5t90.5 65t82.5 70.5t60.5 83.5t23.5 98q0 34 -9.5 64t-32 59.5t-68.5 46.5t-111 17q-100 0 -162.5 -53t-62.5 -121q0 -47 51 -47q9 0 26.5 3t26.5 3q38 0 65.5 -29t27.5 -70q0 -46 -40 -80t-91 -34 q-72 0 -127.5 58.5t-55.5 150.5zM229 152q0 85 47 131.5t125 46.5q168 0 168 -170q0 -79 -43 -132t-123 -53q-81 0 -127.5 50t-46.5 127z" />
<glyph unicode="@" horiz-adv-x="1609" d="M20 299q0 152 44.5 305t128 286t194.5 236.5t255 163.5t298 60q147 0 264.5 -50.5t190.5 -136.5t111 -194.5t38 -229.5q0 -84 -22.5 -180.5t-67 -191t-104.5 -171.5t-143.5 -125t-174.5 -48q-71 0 -126.5 51t-55.5 145q0 21 -10 21t-25 -19q-106 -158 -223 -158 q-63 0 -106 39.5t-60.5 97t-17.5 128.5q0 107 31 207.5t88.5 182t150 130.5t205.5 49q19 0 46.5 14.5t35.5 14.5q26 0 77.5 -28.5t51.5 -53.5q0 -21 -18 -104t-36 -195.5t-18 -206.5q0 -103 20 -141.5t62 -38.5q32 0 73.5 26t84.5 78t79.5 120.5t60 162.5t23.5 194 q0 224 -133 362t-372 138q-122 0 -232 -40.5t-194.5 -110.5t-153 -162.5t-112.5 -197.5t-67.5 -214.5t-23.5 -214.5q0 -260 133.5 -413.5t378.5 -153.5q74 0 143 20.5t108.5 45t72 47t37.5 24.5q22 6 41 -21.5t6 -48.5q-34 -48 -164 -110t-260 -62q-144 0 -260.5 51 t-193 141t-118 212.5t-41.5 267.5zM637 395q0 -153 49 -153q40 0 74 53t51 123q19 74 35 174.5t16 136.5q0 56 -39 59q-54 0 -97.5 -60t-66 -149t-22.5 -184z" />
<glyph unicode="A" horiz-adv-x="1327" d="M-94 63q0 27 14.5 46t40.5 16h6q33 0 61 31q31 34 68 96q154 263 479 932q19 40 21.5 80t7.5 51q5 12 16 17.5t18.5 6t25.5 0.5q109 0 159 60q15 18 39 18q36 0 41 -37q14 -137 100 -596.5t121 -578.5q7 -20 12 -30.5t15.5 -25t25.5 -20t35 -2.5q27 3 42.5 -17t15.5 -49 q0 -28 -15 -48q-13 -17 -34 -17h-7q-44 4 -220 4q-16 0 -32 1q-153 0 -229 -5h-3q-24 0 -38 14q-14 16 -14 41q0 30 17 53.5t42 22.5q10 -1 18 -1q41 0 57 16q20 18 19 73q0 31 -26 191q-6 25 -14.5 36.5t-24.5 12.5q-71 8 -164 8h-20q-106 -1 -164 -8q-43 -3 -70 -43 q-19 -31 -50 -96l-32 -66q-18 -45 -18.5 -75t29.5 -42q18 -7 48 -7q20 0 46 3q25 3 38 -13t13 -42q0 -30 -17 -54q-16 -24 -43 -24h-2q-113 6 -212.5 6t-186.5 -6h-6q-21 0 -35 18q-14 20 -14 49zM453 612q5 -13 32 -18q19 -5 83 -5q6 1 13 1q75 0 140 8q33 6 45 20 q8 10 8 28q0 9 -2 20q-9 66 -31 189t-34 177q-9 28 -19 30h-1q-10 0 -28 -24q-35 -57 -94.5 -172t-101.5 -209q-11 -24 -11 -37q0 -5 1 -8z" />
<glyph unicode="B" horiz-adv-x="1257" d="M25 61q0 31 18.5 52.5t52.5 17.5q36 -3 56.5 13t29.5 55q44 216 92.5 516.5t69.5 470.5q2 15 2.5 26t-2 18.5t-5 13t-9.5 8.5t-11.5 4.5t-15 1.5h-17t-20.5 -1.5t-22 -1.5q-23 -1 -36 18.5t-13 47.5q0 29 13 50t36 20h30q37 0 103 1q98 2 223 5t188 4h11q179 0 284 -66 q109 -68 109 -213q0 -127 -73 -229t-197 -152q-19 -6 -21 -18t23 -23q200 -75 200 -266q0 -108 -42.5 -193t-116.5 -138t-171 -80t-210 -27q-39 0 -135 3.5t-189.5 3.5t-183.5 -7h-2q-22 0 -36 18q-14 19 -13 47zM449 217v-8q1 -43 29 -64q32 -22 128 -22q74 0 128 42 t79 107t25 142q0 100 -50 157.5t-147 57.5h-78q-23 0 -37.5 -14.5t-19 -28t-8.5 -35.5q-43 -253 -49 -334zM545 858q-2 -16 -2 -29q1 -25 7 -35q10 -16 44 -16h65q121 0 197 96t76 226q0 172 -162 172q-89 0 -124 -19t-46 -67q-11 -50 -30.5 -167t-24.5 -161z" />
<glyph unicode="C" horiz-adv-x="1259" d="M94 551q0 132 36.5 259.5t107.5 236.5t168.5 192t228 130.5t276.5 47.5q104 0 188 -25.5t137.5 -81t53.5 -134.5q0 -52 -36 -87.5t-91 -35.5q-49 0 -81.5 22.5t-50 54.5t-34.5 64.5t-48.5 55t-78.5 22.5q-91 0 -170 -42.5t-134 -111.5t-94.5 -157t-58 -179.5 t-18.5 -177.5q0 -109 32 -194t86 -136.5t121 -77.5t142 -26q153 0 258 68q26 18 37 18q20 0 31.5 -18t11.5 -45q0 -38 -31 -74q-8 -8 -24.5 -21t-57 -36t-86.5 -42t-116 -33t-144 -14q-133 0 -240 44t-177 121.5t-107 183t-37 229.5z" />
<glyph unicode="D" horiz-adv-x="1458" d="M18 66q0 28 15 47.5t39 15.5q15 -3 27 -3q27 0 43 12q24 16 38 71q37 129 97 503.5t63 491.5q1 21 -3.5 34t-17.5 18.5t-22.5 7t-31.5 1.5t-32 1q-19 0 -29.5 17t-10.5 42q0 27 13.5 46.5t39.5 19.5h506q299 0 469 -132.5t170 -394.5q0 -188 -56 -346t-161 -273.5 t-265 -180t-358 -64.5h-475q-28 0 -43 19.5t-15 46.5zM480 252q2 -26 5 -46t14 -33.5t22 -22t29 -13.5t35.5 -6.5t41.5 -1.5q72 0 134.5 25.5t109 69t84 103t62.5 125.5t41.5 138.5t24 140t7.5 131.5q0 400 -353 400q-60 0 -86 -20.5t-35 -74.5q-18 -64 -63 -362.5 t-70 -491.5q-4 -25 -4 -45q0 -8 1 -16z" />
<glyph unicode="E" horiz-adv-x="1175" d="M14 63q0 30 15 51t39 17q28 -5 50.5 4t36 27t20.5 35.5t11 35.5q60 297 110 621q48 312 48 367q0 33 -22 40q-12 4 -31 4q-16 0 -37 -3q-25 -3 -39 17.5t-14 49.5t14 48q13 18 38 18h3q117 -7 399 -9q40 0 78 -1q225 0 350 8h12q68 0 67 -45q0 -10 -3 -23 q-6 -28 -28 -114t-25 -101q-7 -30 -28.5 -45.5t-47.5 -15.5q-23 0 -37 13t-10 36q5 24 5 45q0 63 -48 87q-64 34 -238 34q-88 0 -100 -97q-11 -40 -31.5 -164t-23.5 -165q-3 -30 2.5 -46.5t28.5 -19.5q13 -2 59 -1q11 -1 25 -1q68 0 86 4q42 5 62 26.5t30 80.5q4 28 23 43.5 t42 15.5q25 0 40 -18t9 -50q-31 -157 -53 -327q-6 -40 -27 -60t-47 -20q-25 0 -41 16.5t-10 44.5q4 22 4 39q0 65 -55 72q-21 3 -85 3q-13 0 -24 1q-44 0 -59 -2q-42 -6 -51 -68q-41 -256 -47 -327q-1 -14 -1 -25q0 -42 16 -63q21 -27 85 -27q83 0 121 6q78 7 143 66.5 t97 152.5q10 31 28.5 46.5t38.5 15.5q23 0 40 -18t17 -48q0 -16 -10 -43q-62 -162 -96 -272q-16 -37 -57 -39q-97 0 -276.5 5t-373.5 5q-34 0 -90.5 -5t-70.5 -5q-28 0 -42 19.5t-14 47.5z" />
<glyph unicode="F" horiz-adv-x="1091" d="M14 59q0 30 14.5 51.5t37.5 18.5q9 -1 17 -1q46 0 67 24q24 28 34 77q52 248 158 981q6 38 -14 48q-14 7 -42 8q-13 0 -30 -2q-25 -4 -39 16t-14 49q1 29 15 49q13 17 33 17h7q63 -6 304 -6q197 0 513 4h6q48 0 60 -16q8 -11 8 -30q0 -10 -2 -22q-3 -12 -26 -106 t-31 -127q-7 -25 -28 -38.5t-46 -13.5t-40 13.5t-11 38.5q7 29 7 52q0 58 -44 84q-62 36 -226 36q-52 0 -72.5 -24t-29.5 -71q-15 -61 -68 -387q-1 -8 -1 -15q0 -38 40 -38q14 -2 134 -2q71 1 96.5 25.5t34.5 91.5q3 22 22 34.5t43 12.5q26 0 40 -16t7 -48 q-33 -170 -55 -333q-3 -37 -23.5 -55.5t-48.5 -18.5q-24 0 -39 13.5t-12 35.5q4 25 4 45q0 32 -9 50q-14 30 -63 30q-126 0 -149 -2q-49 0 -59 -57q-13 -64 -27 -173t-16 -143v-10q0 -47 25 -65q19 -13 64 -12q23 0 54 3q27 3 42 -16.5t15 -48.5q0 -31 -17 -54 q-15 -20 -41 -20h-7q-62 6 -250 6h-28q-166 0 -242 -6h-3q-23 0 -35 18q-14 18 -14 45z" />
<glyph unicode="G" horiz-adv-x="1378" d="M96 553q0 176 59 333.5t164.5 275t263.5 186.5t345 69q75 0 142.5 -13.5t125 -41t91.5 -75.5t34 -111q0 -53 -38 -90t-95 -37q-46 0 -78.5 23t-52.5 55.5t-41.5 65.5t-58 56t-87.5 23q-93 0 -173 -45t-133.5 -117t-91.5 -164t-55.5 -184.5t-17.5 -179.5q0 -213 93 -330 t237 -117q83 0 137 41q18 18 28 41t17 70q8 37 19 123q2 13 2 23q0 36 -27 40q-7 2 -29 2q-33 0 -100 -4q-23 -1 -37 20.5t-14 51.5q0 31 15.5 52.5t43.5 18.5q113 -10 229 -10h21q128 1 211 8q30 1 46 -16.5t16 -44.5q0 -28 -13 -48.5t-32 -19.5q-39 4 -54 -10.5t-24 -50.5 q-7 -28 -14.5 -77t-14.5 -104.5t-8 -62.5q-8 -46 -25 -68t-63 -44q-79 -38 -193.5 -65.5t-226.5 -27.5q-250 0 -396.5 160t-146.5 420z" />
<glyph unicode="H" horiz-adv-x="1595" d="M6 61q0 27 13 46t36 18h50t47.5 20.5t29.5 61.5q152 907 152 1002q0 33 -18 49q-16 14 -56 8q-22 -4 -35.5 16.5t-13.5 48.5q0 27 12 45.5t35 18.5q128 -4 236 -4.5t196 4.5h3q28 0 42 -16q15 -17 15 -44q0 -29 -15.5 -51.5t-36.5 -19.5q-15 2 -27 2q-26 0 -38 -9 q-18 -13 -25 -65l-57 -342q-5 -39 2.5 -60.5t38.5 -25.5q20 -2 89 -3q51 0 130 2q184 3 248 11q28 4 48.5 23.5t25.5 42.5q53 298 53 366q1 37 -18 52t-60 10q-22 -1 -34.5 17.5t-12.5 45.5q-1 27 13 47q12 17 32 17h6q31 -3 63 -5t56 -3t58.5 -0.5t50.5 0.5t53.5 1.5 t45 1.5t48 2.5t41.5 2.5h3q27 -1 41 -17q14 -18 15 -45q0 -26 -11 -46t-28 -19q-11 1 -20 1q-31 0 -43 -8q-16 -10 -29 -44q-12 -63 -82 -496t-78 -524q0 -43 16 -57q12 -10 47 -10q11 0 23 1q27 3 41.5 -15.5t14.5 -47.5q0 -30 -15 -52q-13 -20 -35 -20h-6q-54 4 -171.5 4 t-299.5 -4q-26 0 -40.5 18t-14.5 45q0 28 14.5 48.5t36.5 17.5q26 -1 49.5 -1t44.5 24t29 71q46 265 53 328q4 38 -8.5 52t-42.5 19q-51 7 -166 7q-21 -1 -45 -1q-150 -2 -239 -10q-33 -3 -51.5 -20t-28.5 -57q-17 -76 -32 -185.5t-19 -161.5q-3 -44 11 -56q9 -8 39 -9 q14 0 34 2q26 3 39.5 -14.5t13.5 -44.5q0 -29 -15 -51q-14 -21 -39 -21h-2q-156 5 -273 5t-196 -5h-3q-27 0 -40 18q-14 19 -14 47z" />
<glyph unicode="I" horiz-adv-x="770" d="M8 66q0 28 13.5 47t37.5 18l46 -2t44.5 14t30.5 47q24 80 94 528q68 435 68 487q0 32 -25 51q-16 12 -41 12q-10 0 -22 -2q-22 -3 -33.5 15.5t-11.5 45.5q-1 29 13 50q12 18 34 18h6q76 -6 186 -5.5t254 5.5h4q30 -1 44 -17q16 -18 16 -45q0 -29 -13.5 -50.5t-33.5 -18.5 q-14 2 -26 2q-62 0 -75 -60q-15 -47 -83 -479t-72 -534q-1 -41 19 -53q17 -10 59 -10q10 0 22 1q25 1 38 -17.5t13 -45.5q0 -30 -14 -52q-13 -21 -37 -20h-2q-136 8 -258.5 8t-232.5 -8h-7q-25 0 -39 18q-16 22 -16 52z" />
<glyph unicode="J" horiz-adv-x="727" d="M-254 -279q0 48 34 98t83 50q29 0 52.5 -20t36.5 -43.5t30.5 -43.5t35.5 -20q31 0 61.5 43t47.5 115q38 167 114 690.5t81 595.5q0 47 -18 66q-15 15 -60 15q-10 0 -21 -1q-23 -1 -37 18.5t-14 46.5t14 47q13 17 34 17h7q133 -11 253 -11t227 11h9q24 0 37 -13 q15 -17 15 -43q0 -28 -14 -50.5t-35 -22.5q-57 0 -82 -11.5t-39 -54.5q-11 -36 -39.5 -249.5t-68.5 -491.5t-76 -441q-29 -131 -108 -233t-175.5 -152.5t-191.5 -50.5q-75 0 -134 37.5t-59 101.5z" />
<glyph unicode="K" horiz-adv-x="1390" d="M6 66q0 28 13.5 47t37.5 18q23 -1 46.5 -2t45.5 14t31 47q25 79 94.5 526t67.5 490q0 32 -24 48q-17 12 -42 12q-10 0 -22 -2q-22 -3 -33.5 14.5t-11.5 44.5q-1 31 13 53q12 19 34 19h6q74 -6 185 -5.5t258 5.5h4q29 0 43 -16q14 -17 14 -44q0 -29 -14.5 -52.5 t-32.5 -20.5q-15 2 -28 2q-26 0 -42 -9q-24 -14 -33 -51q-14 -48 -82 -479t-73 -532q1 -41 21 -53q17 -10 58 -10q10 0 21 1q26 1 39.5 -17.5t13.5 -45.5q0 -30 -15 -51.5t-40 -20.5q-136 8 -259.5 8t-233.5 -8q-29 -3 -44.5 19t-15.5 51zM600 684q0 37 27 64 q60 52 191.5 193t187.5 216q25 34 25 61q-1 10 -3 18q-10 27 -46 27q-7 0 -15 -1q-25 -3 -39.5 17.5t-14.5 49.5t16 49q14 17 38 17h8q43 -4 89 -6q30 -1 65 -1h37q57 1 85 1.5t95 3t73 2.5q27 0 41.5 -19.5t14.5 -46.5q0 -30 -17.5 -51.5t-46.5 -17.5q-5 1 -11 1 q-69 0 -177 -102q-169 -147 -332 -352q-9 -11 -13 -16t-11 -17t-9 -20t-2 -20t4 -23q124 -299 223.5 -447.5t163.5 -150.5q23 0 23 -41q0 -25 -9.5 -48t-25.5 -30q-17 -9 -68.5 -20t-101.5 -11q-30 0 -54 5.5t-53.5 22.5t-56 46.5t-59.5 78.5t-67.5 118.5t-75.5 167.5 t-87 223q-12 30 -12 59z" />
<glyph unicode="L" horiz-adv-x="1132" d="M4 63q0 30 22 51q18 16 45 16q8 0 17 -1q28 -5 55 13.5t39 66.5q24 78 95 513t73 486q0 61 -65 61q-13 0 -29 -3q-25 -4 -38 14t-13 47t14 50q12 18 33 19q3 0 6 -1q98 -8 224 -8.5t278 8.5h4q30 0 45 -16q16 -17 16 -44q0 -28 -15.5 -50t-37.5 -21q-18 1 -35 1 q-45 0 -73 -10q-38 -14 -48 -51q-22 -76 -88 -490q-65 -407 -65 -510q0 -37 35 -55q35 -17 85 -19q10 0 20 -1q40 0 79 5q49 6 82 18q32 11 63.5 43t55.5 73.5t41 78.5t28 69q15 45 58 45q24 0 41.5 -18.5t17.5 -51.5q0 -18 -6 -39q-7 -22 -37 -126t-45 -144 q-19 -54 -35 -70t-51 -16h-4q-29 0 -213 2t-351 2t-251 -4h-3q-31 0 -49 19q-20 20 -20 48z" />
<glyph unicode="M" horiz-adv-x="1796" d="M8 61q0 28 14.5 48t40.5 20h5q38 0 64 26q28 28 43 71t28 112q24 128 63.5 378t61.5 443q5 41 5 62q0 13 -2 19q-8 27 -49 27q-7 0 -14 -1q-22 -1 -34.5 18t-12.5 47q-1 29 15 49q13 16 36 16q5 0 9 -1q41 -5 128 -5t153 2l67 3q61 -2 76 -78q31 -242 153 -791 q8 -30 27 -28t37 32q92 152 225 410t186 375q11 22 20 35t30 27t47 14h290q36 0 53 -18t17 -44t-12 -45t-29 -18q-10 1 -18 1q-45 0 -59 -18q-18 -21 -34 -100q-92 -523 -141 -928q-2 -15 -2 -27q0 -32 13 -48q13 -17 50 -17q13 0 29 2q26 3 39.5 -14.5t13.5 -44.5 q0 -30 -15 -53t-40 -23q-2 0 -88.5 4.5t-193.5 4.5t-203 -9q-21 -1 -33 17t-12 46q0 29 13 51t36 21q12 -1 23 -1q51 0 76 19q30 23 44 103q21 111 60.5 361t54.5 372q3 18 -2.5 25.5t-15 2t-17.5 -21.5l-514 -973q-12 -24 -63 -24t-54 24q-131 630 -207 979 q-5 14 -13.5 18.5t-16 -3t-10.5 -25.5q-64 -424 -89 -651q-5 -53 -5 -93v-21q3 -46 27 -71q23 -22 67 -22h8q25 0 38 -19.5t13 -46.5q0 -28 -13.5 -49t-35.5 -18q-72 6 -172.5 6t-229.5 -6q-22 -1 -35.5 18t-13.5 47z" />
<glyph unicode="N" horiz-adv-x="1458" d="M16 61q0 29 15.5 50t42.5 20q27 -2 47.5 8t33.5 25.5t24.5 45.5t17.5 55t14 67q30 167 104 682q10 77 10 130q0 38 -5 62q-12 54 -51 54h-7q-25 -3 -41 17t-16 48q0 29 18.5 49.5t52.5 16.5q24 -4 87.5 -3.5t166.5 3.5q23 1 44 -20.5t31.5 -43t25.5 -57.5q3 -7 4 -10 q113 -267 393 -717q6 -11 17 -15t21.5 4t14.5 29q18 87 46 277t34 266q3 32 3 57q0 53 -14 75q-19 30 -96 30h-5q-23 -1 -37.5 18.5t-14.5 46.5t15.5 45.5t44.5 18.5q90 -4 181 -3.5t183 3.5h3q30 0 45 -17q16 -18 16 -45q0 -26 -14.5 -46.5t-36.5 -20.5q-52 0 -73 -37 t-40 -135q-96 -527 -166 -1074q-4 -22 -37.5 -34.5t-75.5 -12.5q-29 0 -52 7.5t-29 19.5q-90 200 -236 481t-236 434q-5 9 -11.5 14.5t-13.5 8t-13.5 -6.5t-10.5 -30q-19 -117 -46.5 -318.5t-31.5 -260.5q-6 -56 -6 -95q0 -17 1 -31q4 -44 28 -58q16 -9 49 -9q16 0 37 2 q30 4 45.5 -16.5t15.5 -51.5q0 -28 -13.5 -48t-35.5 -19q-86 8 -191 8t-229 -8q-22 -1 -34.5 18t-12.5 47z" />
<glyph unicode="O" horiz-adv-x="1480" d="M98 537q0 106 23 211.5t66 203.5t110 182.5t150 147.5t191 99t228 36q262 0 405.5 -143.5t143.5 -401.5q0 -187 -60.5 -354t-164 -286.5t-247.5 -189t-306 -69.5q-258 0 -398.5 150.5t-140.5 413.5zM391 602q0 -219 87.5 -348t226.5 -129q119 0 214.5 93t147 249.5 t51.5 343.5q0 215 -86.5 336t-226.5 121q-89 0 -162 -45t-118.5 -115.5t-77 -161t-44 -176.5t-12.5 -168z" />
<glyph unicode="P" horiz-adv-x="1167" d="M27 59q0 28 13.5 50t35.5 22q6 0 22 -2t24 -1t20 6.5t20 22.5t14 44q34 171 85.5 513t64.5 462q3 20 3 35q0 32 -12 43q-13 11 -46 11q-11 0 -25 -1q-22 -1 -33.5 16.5t-11.5 44.5q0 29 13.5 49.5t39.5 20.5q2 0 39 -2.5t98.5 -4.5t122.5 -2q45 0 124.5 3.5t123.5 3.5 q58 0 114.5 -12t111 -39t95.5 -66.5t66 -100t25 -133.5q0 -140 -70 -265t-196 -203t-275 -78q-43 0 -43 53q0 30 13.5 46t45.5 23q77 20 136 82t88.5 142t29.5 164q0 112 -53.5 186t-151.5 74q-43 0 -74 -22.5t-38 -65.5q-111 -620 -144 -957q-1 -10 -1 -19q1 -34 13 -48 q16 -18 44 -23q10 -2 24.5 -2t31.5 1t24 1q23 0 35 -18t12 -45q0 -30 -14 -52q-13 -21 -36 -20h-2q-132 8 -256 8t-239 -8h-3q-23 0 -35 18q-13 18 -13 45z" />
<glyph unicode="Q" horiz-adv-x="1478" d="M98 541q0 127 32.5 252.5t98 237.5t156 198.5t216 137t269.5 50.5q263 0 404 -148t141 -401q0 -115 -27 -231t-78.5 -225t-136 -201.5t-190.5 -149.5q-17 -10 -16.5 -31.5t16.5 -47.5q31 -50 110.5 -112.5t118.5 -62.5q22 0 87 43.5t81 43.5q29 0 43 -34q8 -19 8 -35 q0 -12 -4 -22q-4 -14 -69 -63.5t-151.5 -96t-133.5 -46.5q-33 0 -73.5 22.5t-74 50t-80 78.5t-70.5 80.5t-67 82.5l-12 15q-13 20 -55.5 36.5t-89.5 21.5q-215 22 -334 170t-119 387zM393 602q0 -219 88 -348t226 -129q87 0 159.5 47.5t118.5 121t78 167t45.5 181 t13.5 167.5q0 215 -87.5 337t-227.5 122q-89 0 -162 -45t-118.5 -115.5t-77 -161t-44 -176.5t-12.5 -168z" />
<glyph unicode="R" horiz-adv-x="1277" d="M16 59q0 30 17.5 53t44.5 19q13 -4 29 -2.5t30.5 7.5t28.5 27t22 56q35 170 87.5 505.5t66.5 453.5q4 39 -6.5 54.5t-33.5 14.5t-56 -4q-23 -3 -37 18t-14 50q0 27 12 47t35 20q215 17 485 17q222 0 343.5 -80t121.5 -230q0 -139 -79 -245.5t-214 -177.5q-36 -20 -36 -48 q0 -13 7 -28q11 -21 49 -111.5t71 -161.5t81 -132.5t90 -61.5q11 0 18 -11.5t7 -27.5q0 -27 -13.5 -53.5t-33.5 -32.5q-3 -1 -23.5 -5.5t-38.5 -8.5t-46 -7.5t-52 -3.5q-44 0 -85.5 32t-72 79.5t-60 111t-49 118.5t-39.5 110t-32 78q-19 44 -39 51q-24 4 -65 4 q-17 0 -28.5 -9.5t-16.5 -41.5q-3 -27 -19 -139.5t-18 -137.5q-1 -10 -1 -19q0 -52 20 -65q16 -10 50 -10q16 0 37 2q25 1 38 -18t13 -47q0 -30 -14 -51.5t-39 -20.5q-110 7 -231.5 7t-255.5 -7q-26 -1 -41 17.5t-15 45.5zM530 772q-1 -16 -1 -28q0 -20 3 -31q5 -17 27 -17 h55q87 0 156.5 55t105 137t35.5 171q0 108 -63.5 158.5t-171.5 50.5q-68 0 -82 -62q-12 -44 -36 -214.5t-28 -219.5z" />
<glyph unicode="S" horiz-adv-x="1062" d="M47 270q0 59 31 100.5t92 41.5q46 0 76 -22.5t43 -55.5t28.5 -72.5t31.5 -72.5t53 -55.5t92 -22.5q64 0 113.5 48.5t49.5 121.5q0 48 -26 98.5t-67.5 97.5t-92 96.5t-100.5 104t-91.5 111t-67.5 127t-26 143.5q0 108 68 191t171 124t218 41q40 0 88 -9t99 -28.5 t92.5 -47.5t68.5 -70.5t27 -92.5q0 -51 -32 -89t-89 -38q-47 0 -80 25.5t-52 61.5t-37.5 72t-50 61.5t-77.5 25.5q-62 0 -110 -46.5t-48 -113.5q0 -50 27.5 -102t71.5 -100t97 -98t106 -104t97 -110t71.5 -124t27.5 -138q0 -111 -66.5 -198.5t-173 -133t-231.5 -45.5 q-176 0 -299 86t-123 211z" />
<glyph unicode="T" horiz-adv-x="1208" d="M119 1017q0 27 53 308q5 15 12.5 29t29.5 28q19 13 45 13h7q140 -7 406 -7h68q317 1 468 7h4q57 0 57 -57q0 -6 -1 -13q-15 -156 -43 -299q-3 -23 -24 -37t-46 -14q-24 0 -37.5 13.5t-9.5 41.5t4 52q0 76 -35 124q-44 61 -138 60h-9q-55 -1 -74 -24t-31 -81 q-29 -143 -71 -430.5t-68 -517.5q-1 -9 -1 -16q-1 -33 17 -51q16 -16 55 -17q12 0 27 2q25 3 38.5 -15t13.5 -46q0 -30 -15 -52q-14 -22 -39 -22h-2q-92 4 -231 4h-35q-164 0 -242 -4h-3q-27 0 -40 18q-14 18 -14 47t13.5 51t35.5 19q11 -1 21 -1q43 0 71 14q36 16 47 69 q89 412 160 938q4 26 4 45q0 30 -9 44q-14 24 -73 24h-6q-93 0 -158 -61q-67 -63 -90 -181q-4 -22 -22.5 -34.5t-40.5 -12.5q-49 0 -49 42z" />
<glyph unicode="U" horiz-adv-x="1392" d="M172 1329q0 29 14 49q12 17 33 17h6q51 -5 103 -7q35 -1 72 -1h36q55 1 90 2t92 3t72 3h3q27 -1 41 -17q14 -18 14 -43q0 -28 -16 -50t-38 -19q-10 1 -20 1q-74 0 -92 -69q-72 -368 -103 -635q-8 -63 -8 -133q0 -135 52 -207.5t175 -72.5q139 0 214.5 98.5t113.5 312.5 q12 63 22 114.5t19.5 113.5t14 90.5t17 115t17.5 117.5q5 29 5 52q-1 44 -17 68q-23 33 -96 32h-13q-23 -1 -36 18.5t-13 46.5q0 29 16 49q13 17 35 17h7q72 -6 167 -6.5t215 6.5h3q30 0 45 -17q16 -18 16 -45q0 -28 -14.5 -49t-36.5 -20h-3q-53 0 -79 -38q-27 -39 -39 -108 q-24 -121 -56 -322t-38 -237q-94 -586 -590 -586q-193 0 -298.5 107t-105.5 321q0 56 15 170q8 59 98 625q5 39 -17 58q-18 15 -47 15q-8 0 -16 -1q-23 -3 -37 15.5t-14 45.5z" />
<glyph unicode="V" horiz-adv-x="1312" d="M88 1327q0 29 14 49q13 20 35 19h2q54 -5 205 -5q113 0 279 3q47 0 47 -58q0 -28 -13 -50t-32 -21q-8 1 -16 1q-38 0 -54.5 -21.5t-16.5 -67.5q0 -9 1 -19q2 -60 40.5 -292t75.5 -384q5 -22 16.5 -30.5t26 -1t27.5 29.5q89 161 201 380.5t145 303.5q13 36 11.5 60.5 t-32.5 35.5q-20 7 -54 7q-18 0 -40 -2q-28 -3 -43.5 17t-15.5 48q0 27 14 47q13 19 37 19h2q151 -7 233.5 -7t207.5 7h3q23 0 34 -17q12 -18 12 -45q0 -29 -12.5 -50.5t-34.5 -18.5q-9 1 -18 1q-42 0 -68 -24q-32 -29 -76 -104q-166 -288 -578 -1125q-18 -37 -104 -37 q-30 0 -53 7.5t-23 19.5q-84 508 -144.5 815.5t-86.5 386.5q-16 61 -79 61q-7 0 -16 -1q-29 -3 -44 15.5t-15 47.5z" />
<glyph unicode="W" horiz-adv-x="1929" d="M96 1327q0 28 15 48.5t39 19.5q83 -5 263 -7h69q130 0 204 5q29 1 43 -15t14 -41q0 -28 -16.5 -51t-40.5 -22h-25q-72 0 -101 -15q-34 -18 -34 -86q0 -66 23 -286.5t49 -360.5q6 -28 20 -29t33 31q84 152 204.5 404.5t193.5 435.5q10 25 50.5 40t82.5 15q60 0 63 -33 q6 -91 50 -398.5t73 -469.5q8 -29 24.5 -31.5t30.5 31.5q57 133 141.5 344.5t116.5 302.5q11 34 11 57q0 24 -12 35q-17 17 -73 17q-18 0 -40 -2q-23 -3 -37 17.5t-14 47.5t13 45t38 17q152 -8 202 -8h9q42 1 225 10q26 1 39.5 -17t13.5 -45q0 -28 -14 -48t-37 -19h-8 q-86 0 -135 -103q-182 -381 -488 -1145q-7 -21 -42 -33t-75 -12q-28 0 -48 8t-21 21q-101 656 -141 840q-10 38 -30 36t-40 -36q-80 -143 -198.5 -379t-213.5 -445q-10 -22 -40 -32.5t-66 -10.5q-30 0 -51 7.5t-21 19.5q-90 850 -158 1204q-7 32 -24 48t-55 12 q-25 -1 -39.5 17t-14.5 44z" />
<glyph unicode="X" horiz-adv-x="1388" d="M-55 59q0 30 15.5 52.5t39.5 19.5q9 -1 18 -1q38 0 82 23q54 29 90 70q225 251 324 381q29 38 33 58.5t-12 60.5q-122 294 -218 471q-2 3 -6 11.5t-5.5 11.5t-6 11t-7.5 10.5t-8.5 9t-10 7.5t-12.5 6t-15.5 4t-18.5 2t-22 -1q-22 -3 -34.5 16t-12.5 47q0 27 14 47 q13 19 38 19h3q120 -8 240.5 -8.5t242.5 8.5h3q28 0 42 -16q15 -17 15 -44q0 -29 -16 -51t-38 -18q-14 2 -25 2q-31 0 -51 -16q-15 -13 -15 -33q0 -14 7 -33q64 -168 121 -264q14 -21 28 -24.5t26 4.5t32 28q124 138 203 256q19 23 21.5 42.5t-19.5 31.5q-15 8 -43 8 q-12 0 -26 -2q-25 -3 -38.5 16.5t-13.5 46.5t13.5 46.5t38.5 19.5q138 -4 244 -4t179 4h3q28 0 43 -17q16 -18 16 -45q0 -28 -14.5 -48t-36.5 -19h-6q-33 0 -61 -11q-30 -12 -48 -26.5t-55 -50.5q-58 -62 -157.5 -178t-164.5 -199q-14 -20 -18.5 -27.5t-10.5 -23t-4 -30 t9 -34.5q43 -112 109.5 -251t141.5 -253q24 -35 44 -46q13 -7 36 -7q12 0 27 2q27 3 42 -16.5t15 -48.5q0 -31 -15 -52q-13 -18 -35 -18h-7q-109 9 -251 10h-24q-130 0 -262 -10h-2q-23 0 -37 18q-14 19 -14 47q0 29 15.5 50t42.5 18q11 -1 21 -1q32 0 52 12q15 10 15 32 q0 15 -7 37q-17 53 -51.5 131.5t-62.5 128.5q-15 23 -25 26q-21 8 -55 -24q-45 -43 -104.5 -117.5t-98.5 -134.5q-27 -40 -27 -63q0 -29 44 -28q10 0 22 1q27 4 42 -16.5t15 -49.5q0 -28 -12.5 -47.5t-34.5 -19.5q-152 4 -259 4t-169 -4h-4q-30 0 -45 16q-16 18 -16 47z" />
<glyph unicode="Y" horiz-adv-x="1200" d="M106 1333q0 27 14 46q12 16 33 16h7q76 -8 187 -8t257 8h3q30 0 45 -17q16 -18 16 -45q0 -28 -14 -50t-33 -19q-9 1 -16 1q-39 0 -57 -25q-15 -19 -15 -45q0 -14 4 -30q47 -170 112 -295q13 -26 30 -26t38 28q45 52 110 139t103 150q18 31 20.5 56.5t-17.5 40.5 q-14 10 -40 10q-10 0 -23 -2q-23 -3 -38 18t-15 49q0 27 13 44.5t38 17.5q130 -5 232 -5t178 5h4q29 0 44 -16q15 -17 15 -44q0 -28 -15.5 -49t-39.5 -20h-7l-65 -18q-36 -20 -54.5 -39t-41.5 -48q-80 -91 -205.5 -265.5t-150.5 -236.5q-17 -38 -43 -197t-31 -253 q-1 -8 -1 -15q0 -34 21 -50q18 -15 55 -15q14 0 30 2q28 3 42.5 -15.5t14.5 -47.5q0 -30 -16 -52.5t-43 -19.5q-88 8 -230 8h-19q-155 -1 -268 -10h-7q-25 0 -39 18q-17 21 -17 51q0 28 14 48.5t39 19.5q25 0 51 -1t51 15t33 50q20 76 43 229q19 134 19 181v11 q-17 75 -94.5 277.5t-112.5 275.5q-11 26 -17.5 39t-18.5 29.5t-26.5 23t-33.5 5.5q-24 -1 -38 19t-14 48z" />
<glyph unicode="Z" horiz-adv-x="1163" d="M4 53q0 50 25 82q117 142 310 422.5t384 581.5q32 51 32 82q0 34 -40 41q-21 4 -78 4q-8 0 -16 1q-46 0 -72 -3q-91 -9 -147 -62t-87 -160q-9 -28 -29.5 -42.5t-43.5 -14.5t-36.5 13.5t-10.5 37.5q21 184 41 289q21 70 83 70h3q118 -5 312 -5t462 5q26 0 39.5 -21.5 t13.5 -50.5q0 -38 -19 -61q-156 -204 -304.5 -419t-211.5 -314t-168 -267q-17 -29 -25 -45.5t-12.5 -35.5t4 -30t29.5 -16q28 -4 69 -4q50 0 120 6q104 9 172.5 78.5t122.5 202.5q20 51 61 51q29 -1 45 -29q10 -17 10 -40q0 -16 -4 -35q-11 -44 -43.5 -157t-44.5 -145 q-16 -39 -28 -49q-21 -18 -75 -18h-16q-36 0 -160 1t-281.5 1t-348.5 -2q-37 0 -37 57z" />
<glyph unicode="[" horiz-adv-x="630" d="M27 -213q0 10 2 14q5 21 38 216t98 601.5t130 839.5q4 28 21 39.5t36 11.5h84t97 -0.5t88.5 -1t68 -0.5h27.5q17 1 25 -10t8 -31q0 -14 -2 -22q-5 -27 -20.5 -51t-31.5 -21q-4 1 -64 3.5t-81 2.5q-20 0 -26.5 -14t-10.5 -45q-13 -73 -117 -725.5t-104 -669.5 q-3 -25 9 -35t28 -10q103 0 123 4q16 3 23.5 -18t4.5 -47q-5 -31 -19.5 -51t-33.5 -19q-306 0 -367 -2q-34 0 -34 41z" />
<glyph unicode="\" horiz-adv-x="641" d="M184 1362q0 28 28 46.5t60 18.5q51 0 56 -45q38 -360 76.5 -675.5t57.5 -445.5t23 -152q2 -9 4.5 -23t4.5 -23.5t2 -13.5q0 -26 -15 -47.5t-49 -21.5q-45 0 -60 20.5t-22 69.5q-13 90 -82.5 637.5t-77.5 603.5q-6 37 -6 51z" />
<glyph unicode="]" horiz-adv-x="634" d="M-96 -213q0 17 2 25q5 26 19 46t30 17q12 -4 119 -4q17 0 32.5 11t20.5 36q3 11 55.5 343.5t107 679t60.5 378.5q5 44 -1 52q-6 7 -19 7q-23 0 -83.5 -2.5t-64.5 -3.5q-10 -2 -17 10t-9 28.5t0 33.5q10 66 51 63h27t67.5 0.5t88.5 1t96 0.5h83q43 0 43 -39v-12 q-73 -441 -136 -842.5t-92.5 -604t-29.5 -218.5q-2 -20 -17 -37.5t-36 -17.5q-61 2 -367 2q-14 -1 -22 12.5t-8 34.5z" />
<glyph unicode="^" horiz-adv-x="806" d="M197 887q0 23 24 57q45 65 109 170t115 192t59 99q16 26 48 40.5t66 14.5t56.5 -15t34.5 -41t25 -73.5t24.5 -100t37 -134t58.5 -162.5q8 -24 8 -35q0 -29 -24 -46t-54 -17q-53 0 -61 38q-10 36 -26 99.5t-28 110.5t-26 94.5t-27 73.5t-24 26q-13 0 -36.5 -28.5 t-58.5 -85t-57.5 -96.5t-61 -110t-42.5 -77q-23 -41 -78 -41q-25 0 -43 12.5t-18 34.5z" />
<glyph unicode="_" horiz-adv-x="819" d="M-96 -88q0 32 11.5 58.5t29.5 27.5q14 1 167.5 1.5t316 3t222.5 7.5q21 3 35 -27t14 -67q0 -32 -12 -53t-37 -21q-389 6 -688 -8q-30 0 -44.5 22t-14.5 56z" />
<glyph unicode="`" horiz-adv-x="555" d="M303 1438q0 35 43 35q3 0 60.5 1t76.5 1q14 0 20.5 -7.5t10.5 -31.5q52 -191 78 -246q20 -46 20 -51q0 -22 -26 -37t-56 -15q-28 0 -38 17q-62 116 -177 297q-12 21 -12 37z" />
<glyph unicode="a" d="M23 270q0 114 45 235t122 221.5t191 165t240 64.5q21 0 53.5 15.5t44.5 15.5q32 0 92 -34q55 -31 55 -58l-60 -349q-32 -208 -36 -341q-2 -34 7 -44t34 -3q13 4 30 10t27 9t17 3q19 0 33 -19.5t14 -41.5q0 -12 -8 -23q-15 -20 -109 -73.5t-147 -53.5q-111 0 -111 131 q0 11 0.5 25t1.5 23t1 17.5t-2 12.5t-5 4q-6 0 -11.5 -3.5t-12 -11.5t-7.5 -9q-44 -71 -120 -130t-162 -59q-110 0 -163.5 87t-53.5 214zM283 324q0 -75 19.5 -114.5t51.5 -39.5q42 0 82.5 45.5t68 112t49.5 140t32.5 130t11.5 82.5q0 127 -90 127q-35 0 -75.5 -42.5 t-73 -108.5t-54.5 -155.5t-22 -176.5z" />
<glyph unicode="b" horiz-adv-x="1021" d="M53 1446q0 25 61.5 33t162 17.5t161.5 33.5q12 4 15 4q35 0 55 -30q14 -22 14 -46q0 -10 -2 -20q-5 -28 -39 -196t-49.5 -251.5t-39.5 -222t-35 -236t-11 -165.5q0 -41 0.5 -64t3.5 -58.5t9.5 -55t17.5 -40.5t29 -30.5t43 -9.5q93 0 154 128.5t61 329.5q0 252 -93 252 q-4 0 -14 -1t-14 -1q-24 0 -40 20.5t-16 47.5q0 20 29 39q66 49 154 49q50 0 95 -17t85.5 -53t65 -103.5t24.5 -158.5q0 -184 -62.5 -335.5t-186.5 -244t-288 -92.5q-154 0 -231.5 93t-77.5 264q0 125 36 350t72 416.5t36 236.5t-117 45q-40 0 -54 16.5t-14 55.5z" />
<glyph unicode="c" horiz-adv-x="841" d="M41 360q0 121 37.5 232.5t103.5 195.5t164.5 134.5t212.5 50.5q125 0 207 -49q18 -13 18 -111q0 -59 -8 -89.5t-20.5 -38t-34.5 -7.5q-52 0 -57 18q-7 32 -10 45.5t-11.5 36.5t-19 32.5t-28.5 17.5t-42 8q-95 0 -168.5 -119.5t-73.5 -280.5q0 -48 7 -93t24 -91t51 -74 t82 -28q33 0 66.5 20t55 44.5t42.5 44.5t33 20q26 0 52 -17.5t26 -36.5q0 -15 -9 -28q-20 -34 -46.5 -66.5t-72 -72.5t-111.5 -64.5t-142 -24.5q-108 0 -184 54.5t-110 141t-34 195.5z" />
<glyph unicode="d" horiz-adv-x="1058" d="M39 326q0 113 40 225t110 202t175 146.5t224 56.5q49 0 65 9.5t25 40.5q11 31 25.5 143.5t15.5 179.5q1 25 -29 35t-100 10q-37 0 -51.5 16t-14.5 48q0 27 27 30q79 7 166 23.5t141.5 29.5t63.5 13q34 0 54 -30q15 -23 14 -50q0 -8 -1 -16q-160 -902 -160 -1219 q0 -35 9 -47t28 -12q16 0 42 11t34 11q22 0 36.5 -21.5t14.5 -45.5q0 -14 -14 -25q-41 -32 -119.5 -76.5t-126.5 -44.5t-74 33.5t-29 73t-5.5 73t-8.5 33.5t-11.5 -3.5t-11.5 -11.5t-7 -9q-41 -70 -119.5 -129.5t-167.5 -59.5q-123 0 -191.5 101t-68.5 256zM295 377 q0 -109 32.5 -158t71.5 -49q60 0 109 68.5t75 165t40 181t14 134.5q0 67 -20 91t-66 24q-58 0 -118 -70t-99 -177.5t-39 -209.5z" />
<glyph unicode="e" horiz-adv-x="864" d="M41 379q1 86 22.5 171.5t63.5 161t98 134t132 93t159 34.5q129 0 193.5 -56.5t64.5 -128.5q0 -37 -13.5 -71.5t-33 -60.5t-51.5 -52.5t-58 -43.5t-65 -36t-59.5 -27.5t-53.5 -21t-37 -14.5q-51 -22 -72.5 -55t-21.5 -89q0 -48 15.5 -84t40.5 -55t51.5 -28t54.5 -9 q38 0 78 21t67 45.5t54 45.5t41 21q21 0 40 -16t19 -41q0 -22 -12 -39q-23 -34 -56 -68t-78.5 -67t-104.5 -53.5t-120 -20.5q-114 0 -196.5 56.5t-122 148t-39.5 205.5zM342 600q0 -25 14 -25q32 0 87 29t100 75.5t45 86.5q0 34 -22 60t-58 26q-43 0 -83 -47.5t-61.5 -105.5 t-21.5 -99z" />
<glyph unicode="f" horiz-adv-x="770" d="M-201 -285q0 48 32 74.5t71 26.5q27 0 48.5 -13t32.5 -28t26 -28t30 -13q62 0 80 84q31 143 75.5 480t47.5 429v9q0 40 -8 54q-10 15 -37 15q-14 0 -57 -1t-52 -1q-23 0 -35 18t-12 45q0 32 15.5 57t41.5 25q92 -6 121 -6q33 0 46 16t22 64q27 137 79 238.5t120 158.5 t141 84t153 27q45 0 86 -12t73 -45t32 -82q0 -47 -29.5 -76t-81.5 -29q-38 0 -66 14t-41 31t-31 31t-38 14q-42 0 -74 -39t-48 -97.5t-24 -113t-8 -100.5q0 -47 11.5 -64.5t42.5 -17.5q147 4 192 4q35 0 35 -63q0 -36 -17 -61t-46 -25q-4 0 -57 6t-113 6q-38 0 -54 -12 q-24 -19 -32 -72q-10 -66 -32.5 -285.5t-49.5 -382t-66 -247.5q-36 -76 -101 -130.5t-128 -77t-119 -22.5q-48 0 -85 10t-57.5 24.5t-33.5 34t-17 35t-4 29.5z" />
<glyph unicode="g" horiz-adv-x="954" d="M-31 -184q0 31 13.5 58t29.5 43.5t47.5 34t47.5 24.5t49 20q34 14 34 35q0 15 -26 28q-33 15 -52.5 26t-45.5 30t-39 42t-13 50q0 38 32.5 68t71 44.5t70.5 32.5t31 35q-1 10 -15 32t-30 46.5t-29.5 67.5t-13.5 90q0 159 95.5 254.5t260.5 95.5q63 0 149.5 -16.5 t123.5 -16.5q33 0 72 1t57 1q19 0 29 -23t10 -55q0 -47 -23.5 -63.5t-64.5 -16.5q-5 0 -16.5 1t-16.5 1q-20 2 -29.5 -9.5t-9.5 -37.5q0 -27 8 -63q8 -39 8 -84q0 -132 -86 -210.5t-235 -78.5q-39 0 -80 6q-9 1 -19 1q-34 0 -72 -14q-48 -18 -48 -52q0 -14 49.5 -30t124 -31 t161 -40.5t161 -56t124 -80.5t49.5 -110q0 -142 -142.5 -228t-354.5 -86q-199 0 -323 64.5t-124 169.5zM262 -135q0 -70 77.5 -116t162.5 -46q59 0 99 25t40 77q0 71 -80 120.5t-162 49.5q-61 0 -97.5 -28.5t-39.5 -81.5zM362 707q0 -26 9 -69.5t25 -90.5t43.5 -81t58.5 -34 q34 0 52.5 35.5t18.5 85.5q0 46 -16.5 111.5t-50.5 121.5t-74 56q-20 0 -34 -14t-20.5 -37t-9 -43t-2.5 -41z" />
<glyph unicode="h" horiz-adv-x="1058" d="M61 158q0 25 7 65q30 151 100.5 574.5t79.5 537.5q1 23 -27.5 29t-63.5 4q-4 0 -8 -1q-31 0 -57 16q-30 18 -29 63q0 30 35 33q30 2 190 28.5t167 26.5q35 0 55 -30q13 -21 13 -44q0 -11 -3 -22q-29 -121 -63.5 -311t-44.5 -287q-3 -41 16 -41q8 0 29 28q117 146 274 146 q109 0 175.5 -79.5t66.5 -248.5q0 -136 -39.5 -269t-100.5 -228.5t-136.5 -154.5t-145.5 -59q-42 0 -66 36t-24 81q0 43 65 47q7 1 26 2.5t28 3t21.5 5.5t19.5 10q34 32 66 127.5t32 218.5q0 307 -121 307q-60 0 -117.5 -71.5t-96 -179t-54.5 -224.5q-8 -60 -13 -124 t-6 -95.5t-7 -60t-19.5 -38.5t-38.5 -10q-29 0 -59.5 10.5t-59.5 31.5t-47.5 59.5t-18.5 87.5z" />
<glyph unicode="i" horiz-adv-x="628" d="M59 872q0 45 35 50q3 0 47.5 6t88 11.5t93.5 14.5t76 17q6 2 15 2q26 0 46 -24t27 -54q0 -3 -18 -94t-31 -162t-29.5 -166.5t-26 -166.5t-9.5 -103q0 -22 6.5 -29.5t23.5 -7.5q9 0 20.5 3t23 7.5t20 8.5t17.5 9l8 5q8 4 14 4q17 0 32 -23.5t15 -46.5q0 -10 -4 -18 q-18 -27 -128 -86.5t-171 -59.5q-62 0 -99.5 41.5t-37.5 102.5q0 63 48 342t48 313q0 24 -24.5 35.5t-88.5 11.5q-18 0 -27.5 16.5t-9.5 40.5zM244 1270q0 57 45.5 105t103.5 48q59 0 103.5 -36.5t44.5 -100.5q0 -59 -43.5 -106t-98.5 -47q-58 0 -106.5 41.5t-48.5 95.5z " />
<glyph unicode="j" horiz-adv-x="581" d="M-283 -299q0 90 90 90q44 0 96 -31.5t74 -31.5t52.5 33.5t42.5 88.5q31 150 82 487.5t51 412.5q0 36 -22 49.5t-87 13.5q-17 0 -28 17t-11 38q0 47 35 52q3 1 48 6.5t89 11t94 14.5t74 17q4 2 17 2q28 0 50.5 -23t18.5 -55q-24 -193 -51 -371.5t-49 -311.5t-25 -155 q-18 -113 -67.5 -204.5t-116 -149t-142.5 -88.5t-153 -31q-71 0 -116.5 31.5t-45.5 87.5zM211 1268q0 58 43.5 106.5t103.5 48.5q59 0 103.5 -36.5t44.5 -98.5q0 -61 -42.5 -108t-98.5 -47q-58 0 -106 41t-48 94z" />
<glyph unicode="k" horiz-adv-x="1112" d="M68 1440q0 36 34 39q49 3 171 19t167 32q12 4 19 4q35 0 51 -30q10 -18 10 -39q0 -13 -4 -27q-2 -12 -34 -193t-63.5 -371.5t-61.5 -427.5t-35 -385q-4 -61 -52 -61h-153q-19 0 -31 14.5t-12 40.5q0 122 85 681.5t85 598.5t-140 39q-18 0 -27 21t-9 45zM436 487 q0 23 21 58q269 428 497 428q67 0 101.5 -32t34.5 -89q0 -56 -35.5 -86.5t-93.5 -30.5q-14 0 -52.5 6.5t-62.5 6.5q-56 0 -109 -29t-80 -80q-4 -8 -4 -27q0 -30 31 -90q98 -212 131 -270q64 -109 109 -109q17 0 32.5 9.5t22.5 9.5q18 0 28.5 -23t10.5 -43q0 -15 -38.5 -42.5 t-101.5 -50.5t-118 -23q-21 0 -38.5 4t-34 15.5t-29.5 23.5t-28.5 37t-27 45.5t-29.5 59t-31 69.5t-36.5 84.5t-42.5 95.5q-3 5 -9 17.5t-9 19t-6 16.5t-3 20z" />
<glyph unicode="l" horiz-adv-x="581" d="M76 117q0 106 42 387.5t84 534t42 286.5q0 22 -24 32.5t-87 10.5q-18 0 -28.5 15t-12.5 36q0 53 35 58q5 1 48 6.5t85.5 11t90 13.5t69.5 14q18 6 29 6q20 0 40 -17q28 -28 33 -61q-1 -6 -19 -112t-37 -217t-43.5 -264.5t-43.5 -277t-32 -231t-13 -149.5q0 -58 41 -58 q14 0 37.5 9.5t27.5 9.5q15 0 25 -15t10 -34q0 -13 -8 -29q-16 -28 -99 -70.5t-159 -42.5q-58 0 -95.5 43t-37.5 105z" />
<glyph unicode="m" horiz-adv-x="1679" d="M41 872q0 22 10 37.5t29 16.5q59 3 162 16.5t157 26.5q16 4 23 4q49 0 49 -72q0 -15 -7 -43.5t-7 -46.5q0 -19 14 -23q4 1 6 -0.5t5 1.5l4.5 4.5t4 6.5l4 8t4.5 10.5l5 12.5q28 54 94 98t166 44q81 0 132.5 -47t51.5 -117q0 -10 5 -16.5t10 -6.5q13 0 26 19 q7 11 17.5 25.5t38 41.5t59.5 48t82 37t104 16q96 0 157.5 -51.5t61.5 -169.5q0 -109 -44 -334t-44 -244q0 -16 15 -16q31 0 74.5 20.5t45.5 20.5q15 0 29 -20.5t14 -43.5q0 -21 -14 -35q-39 -37 -127.5 -84t-163.5 -47q-56 0 -92.5 42t-36.5 100q0 34 41 242t41 296 q0 67 -22 97t-70 30q-162 0 -223 -479q-6 -43 -11 -92t-7.5 -77t-7 -58.5t-9.5 -46t-13 -30t-20 -19.5t-30 -5q-76 0 -127.5 54.5t-51.5 132.5q0 49 19 104q5 18 25.5 81.5t30 96t19 85.5t9.5 98q0 155 -109 155q-44 0 -82.5 -38t-64.5 -92.5t-46.5 -124.5t-31 -124 t-16.5 -100q-6 -43 -11 -92t-7.5 -77t-7 -58.5t-9 -46t-13 -30t-21 -19.5t-30.5 -5q-75 0 -125.5 52.5t-50.5 130.5q0 49 19 108q88 308 88 457q0 22 -2.5 37.5t-11.5 25.5t-15 15.5t-23.5 7.5t-26 2.5t-34 0t-35.5 -0.5q-23 0 -37 20t-14 47z" />
<glyph unicode="n" horiz-adv-x="1171" d="M43 885q0 23 49.5 32t136.5 19.5t144 32.5q16 4 24 4q26 0 43 -18t17 -48q0 -15 -5.5 -45t-5.5 -43q0 -28 17 -28q6 0 20 14q55 64 93 94q98 74 215 74q38 0 72.5 -11t65.5 -35t49.5 -69t18.5 -106q0 -104 -43 -326.5t-43 -237.5q0 -24 17 -24q18 0 66 18.5t55 18.5 q17 0 31 -22t14 -46q0 -6 -4 -18q-15 -25 -127.5 -85.5t-169.5 -60.5q-58 0 -97 42t-39 100q0 35 41 247t41 279q0 73 -22.5 106t-67.5 33q-46 0 -86.5 -38t-67 -92t-48.5 -124t-32.5 -123.5t-17.5 -101.5q-6 -43 -11.5 -92t-8.5 -77t-7.5 -58.5t-9.5 -46.5t-13 -30t-20 -19 t-30 -5q-76 0 -126 53.5t-50 133.5q0 48 16 104q38 134 66 281t28 231q0 41 -149 41q-21 0 -30 23.5t-9 48.5z" />
<glyph unicode="o" horiz-adv-x="968" d="M43 369q0 166 65 303t188.5 219t281.5 82q69 0 123.5 -24.5t89 -63t57.5 -90t32 -102.5t9 -103q0 -138 -42 -255t-115 -197t-174 -124.5t-218 -44.5q-67 0 -121 29t-86 72.5t-53 99.5t-29 105t-8 94zM295 496q0 -36 6.5 -87t21.5 -117.5t49 -111.5t81 -45 q80 0 121.5 88.5t41.5 229.5q0 49 -6 101t-20.5 114.5t-47 102.5t-79.5 40q-67 0 -117.5 -83.5t-50.5 -231.5z" />
<glyph unicode="p" horiz-adv-x="1095" d="M45 885q0 27 37 30q40 3 140 18.5t145 33.5q15 6 28 6q27 0 43.5 -18t16.5 -50q0 -14 -7.5 -50t-7.5 -48q0 -31 19 -31q4 0 22 21q1 1 13 16.5t16.5 21t19 22t23 24t25 22.5t29.5 22.5t32 18t36.5 16t39 9.5t43.5 4q51 0 94.5 -18t79.5 -55.5t57 -102.5t21 -152 q0 -183 -61.5 -339.5t-163 -246.5t-216.5 -90q-52 0 -85 28.5t-33 74.5q0 30 16.5 48.5t48.5 18.5q18 0 57.5 -5.5t55.5 -6.5q19 -1 41.5 24.5t42.5 70t33.5 115.5t13.5 152q0 139 -40 213t-99 74q-60 0 -107 -80.5t-80 -208.5q-81 -331 -123 -798q-3 -35 -13 -49t-36 -17 l-151 -20q-5 -1 -10 -1q-19 0 -29 14q-13 17 -11 42q11 163 89.5 616.5t78.5 497.5q0 41 -143 41q-22 0 -31.5 23t-9.5 49z" />
<glyph unicode="q" horiz-adv-x="985" d="M33 287q0 101 25.5 198.5t79 186t128.5 155.5t183 106.5t235 39.5q111 0 156 -26t45 -111q0 -21 -13 -101q-125 -740 -129 -874v-9q0 -57 23 -57q12 0 48 16.5t48 16.5q17 0 26 -22t9 -44q0 -29 -68.5 -72.5t-151.5 -75.5t-126 -32q-35 0 -55 22q-17 20 -17 55v11 q10 174 75 574.5t75 498.5q2 15 2 27q0 29 -10 42q-14 20 -43 22q-57 0 -105.5 -38.5t-79.5 -96.5t-53 -128t-31.5 -131t-9.5 -108q0 -105 13 -148t42 -43q7 0 21.5 3t23.5 3q15 0 30 -15.5t15 -33.5q0 -14 -16 -35q-82 -94 -178 -94q-77 0 -127.5 47t-70 115.5t-19.5 155.5 z" />
<glyph unicode="r" horiz-adv-x="847" d="M43 885q0 23 38.5 30.5t125.5 18t160 35.5q16 4 24 4q26 0 43 -18.5t17 -49.5q0 -15 -6.5 -53t-6.5 -53q0 -31 15 -31q8 0 20 20q104 185 268 185q60 0 98 -35t38 -102q0 -59 -35.5 -98.5t-81.5 -39.5q-30 0 -74.5 19.5t-79.5 19.5q-49 0 -90 -63.5t-68 -167t-42.5 -194 t-26.5 -185.5q-10 -91 -25 -124.5t-57 -33.5q-92 0 -140 49t-48 142q0 12 3 28t6.5 28.5t10 35t10.5 35.5q44 143 66 256t22 229q0 41 -145 41q-21 0 -30 23.5t-9 48.5z" />
<glyph unicode="s" horiz-adv-x="768" d="M-27 143q0 43 26 74t73 31q34 0 57.5 -18t35.5 -43.5t23 -51t29.5 -43.5t46.5 -18q35 0 59.5 28t24.5 74q0 47 -33 114t-72.5 125t-72.5 135t-33 142q0 119 96.5 200t249.5 81q101 0 175.5 -48.5t74.5 -121.5q0 -51 -26.5 -80t-71.5 -29q-29 0 -49.5 17t-32 41.5 t-21.5 49t-26.5 41.5t-40.5 17q-31 0 -51.5 -30.5t-20.5 -61.5q0 -48 34.5 -117t76 -130.5t76 -144t34.5 -153.5q0 -129 -96 -191.5t-260 -62.5q-48 0 -96 9.5t-91.5 29.5t-70.5 55t-27 80z" />
<glyph unicode="t" horiz-adv-x="745" d="M63 866q0 7 5 27q5 25 17 38t36 13q100 0 169.5 52t90.5 120q18 47 61 47h66q12 0 19 -1.5t12.5 -8.5t5.5 -20q0 -20 -16 -80t-19 -78q0 -31 41 -31q163 0 188 2q21 1 32 -11.5t11 -33.5q0 -35 -16 -66.5t-49 -31.5q-14 0 -81 1t-91 1q-34 0 -48 -11.5t-20 -31.5 q-19 -55 -50.5 -273.5t-31.5 -289.5q0 -58 43 -58q37 0 119 37q8 4 14 4q19 0 34.5 -19.5t15.5 -41.5q0 -12 -17 -29q-24 -30 -122 -76.5t-193 -46.5q-67 0 -114.5 40t-47.5 122q0 127 43 375t43 262q0 40 -61 40q-10 0 -23 -1q-33 -3 -49.5 14t-16.5 45z" />
<glyph unicode="u" horiz-adv-x="1179" d="M47 872q0 22 9.5 39t27.5 17q31 2 144.5 15.5t152.5 21.5q8 1 20.5 4.5t14.5 3.5q28 0 53.5 -25.5t22.5 -52.5q-4 -21 -18 -91t-21 -107.5t-20 -103.5t-20 -108t-15 -90.5t-11.5 -81t-3.5 -51.5q0 -104 68 -104q166 0 254 397q10 44 24.5 128t23.5 146l9 62q3 31 13 42 t30 11h184q38 0 38 -37q0 -7 -1 -14q-31 -138 -64.5 -355.5t-37.5 -328.5q-1 -35 4 -43t24 -2q17 4 54 22.5t45 18.5q17 0 32 -22t15 -48q0 -14 -6 -26q-5 -10 -52.5 -43t-114 -65t-108.5 -32q-36 0 -59.5 11.5t-34 32.5t-14.5 41t-4 46q0 9 0.5 24.5t0.5 23t-1 16.5 t-3.5 12.5t-7.5 3.5q-10 0 -26 -22q-53 -73 -143.5 -131t-186.5 -58q-113 0 -166 56.5t-53 148.5q0 74 46.5 304.5t45.5 291.5q-2 49 -90 49q-9 0 -21 -1t-14 -1q-19 0 -29 16t-10 39z" />
<glyph unicode="v" horiz-adv-x="1046" d="M43 874q0 18 8.5 32.5t22.5 15.5q4 1 50 6t91 10.5t96.5 14t77.5 16.5q12 4 17 4q28 0 54 -25.5t25 -52.5q-1 -5 -45.5 -258t-44.5 -346q0 -75 19.5 -114.5t79.5 -39.5q70 0 140 65.5t114.5 168t44.5 202.5q0 37 -11 86q-4 18 -21.5 35.5t-39 32.5t-43 32.5t-35.5 44.5 t-14 60q0 48 42.5 78.5t102.5 30.5q100 0 154.5 -79.5t54.5 -199.5q0 -100 -28 -203t-83.5 -196.5t-130 -166.5t-175.5 -116t-212 -43q-219 0 -219 242q0 80 36 296.5t36 258.5q0 13 -5 23t-15.5 15.5t-20.5 9t-24.5 4.5t-22.5 1.5t-21 0t-14 -0.5q-19 0 -30 16.5t-11 38.5z " />
<glyph unicode="w" horiz-adv-x="1574" d="M43 864v10q5 43 39 48q3 0 51 6t93 11.5t97 14.5t78 17q7 2 15 2q22 0 48 -19q31 -24 30 -54v-5q-12 -80 -37 -222.5t-41 -242.5t-19 -139q0 -7 -1 -21t-1 -20q0 -62 16 -87.5t52 -25.5q74 0 143.5 106t102.5 283q35 193 55 361q4 26 7 35t18 15.5t47 6.5h127 q38 0 48 -16t5 -51q-75 -512 -78 -609v-6q0 -68 24 -96q24 -30 78 -29q67 0 126 59t92.5 151.5t33.5 191.5q0 49 -8 88q-5 26 -24.5 54t-39 50t-35.5 59t-16 80q0 48 39.5 75.5t89.5 27.5q68 0 113.5 -48t63.5 -116t18 -152q0 -99 -23.5 -198t-71 -187t-112.5 -156 t-154 -107.5t-190 -39.5q-85 0 -132 47.5t-62 102.5q-8 26 -16 36.5t-21 10.5q-16 0 -78 -53q-2 -2 -18 -14.5t-24 -19t-27 -20t-33.5 -22t-35.5 -20.5t-40.5 -19t-42 -14.5t-46 -11t-47.5 -3.5q-100 0 -146 54t-46 143q0 76 42 320.5t42 283.5q0 45 -121 45q-47 0 -47 49z " />
<glyph unicode="x" horiz-adv-x="999" d="M-16 102q0 53 32 86t78 33q27 0 61.5 -15.5t47.5 -15.5q40 0 98.5 77t58.5 149q0 17 -12 67q-98 328 -174 328q-17 0 -39 -10t-26 -10q-21 0 -32 22.5t-11 42.5t64 55t136 52q42 10 72 10q24 0 46 -13.5t38 -34t32 -52t27.5 -60.5t25.5 -66q3 -10 5 -14q5 -15 11 -24 t16.5 -8t21.5 20q2 4 16.5 33.5t27 52.5t37 56t49 55t60.5 38.5t74 16.5q54 0 98 -33t44 -94q0 -52 -27.5 -83.5t-65.5 -31.5q-26 0 -62 15.5t-52 15.5q-37 0 -97.5 -65.5t-60.5 -147.5q0 -23 6 -47q27 -109 86.5 -238t100.5 -129q13 0 38 8.5t31 8.5q22 0 30.5 -21.5 t8.5 -42.5q0 -19 -64 -54.5t-137 -53.5q-42 -11 -75 -11q-21 0 -39.5 11t-32 26t-27.5 42.5t-23 49t-23 57.5t-23 56q-14 32 -30.5 33.5t-27.5 -23.5q-1 -2 -10.5 -20t-14.5 -27.5t-17 -30.5t-21.5 -34.5t-24.5 -33.5t-28.5 -33.5t-31.5 -28.5t-35 -23.5t-37.5 -14.5 t-41.5 -6q-54 0 -104.5 35.5t-50.5 97.5z" />
<glyph unicode="y" horiz-adv-x="1105" d="M-82 -264q0 47 32 86t81 39q42 0 78.5 -19.5t56.5 -43t41 -43t35 -19.5q85 0 148 79t63 183q0 23 -2 35q-18 133 -80.5 315.5t-129.5 311t-98 128.5q-19 0 -45 -13t-32 -13q-27 0 -39.5 19t-12.5 44q0 19 9 33q18 23 103.5 69t154.5 46q63 0 128 -87t113 -214t82 -253.5 t47 -223.5q4 -24 7.5 -33.5t11 -8t17.5 13.5t30 40q40 65 73 165t33 187q0 36 -12.5 66.5t-30.5 53t-36.5 46t-31 55.5t-12.5 70q0 56 37 89.5t94 33.5q82 0 125 -71.5t43 -196.5q0 -113 -35 -243t-94.5 -253.5t-143.5 -238t-177 -200t-199.5 -137t-206.5 -51.5 q-110 0 -167.5 43.5t-57.5 110.5z" />
<glyph unicode="z" horiz-adv-x="978" d="M41 104q0 72 61 113q37 22 180.5 214t209.5 300q12 21 12 35q0 22 -31 27q-11 2 -48 8.5t-66.5 11t-45.5 4.5q-19 0 -35 -11t-29 -32.5t-20.5 -37.5t-17.5 -42q-8 -25 -16 -35t-21 -10q-24 0 -57 13t-33 36q-1 4 -1 13q0 25 6 91q8 90 13 116q15 55 86 55 q56 -7 188.5 -31t190.5 -31q34 -4 57.5 4.5t34 21.5t28.5 24.5t42 11.5q67 0 111.5 -36.5t44.5 -84.5q0 -51 -58 -88q-54 -35 -193 -215.5t-228 -323.5q-16 -25 -12.5 -37.5t30.5 -21.5q16 -7 75.5 -13t94.5 -6q43 0 78.5 45.5t54.5 120.5q6 28 16 38.5t31 10.5 q36 0 65 -13.5t29 -45.5q0 -17 -13 -132t-19 -138q-9 -33 -30.5 -48.5t-64.5 -15.5q-59 0 -208 38t-216 38q-30 0 -73.5 -38t-77.5 -38q-54 0 -89.5 41t-35.5 94z" />
<glyph unicode="{" horiz-adv-x="651" d="M53 608q0 51 17.5 96.5t44.5 45.5q65 0 104 58t53 144q7 40 10.5 150t12.5 172q11 68 40.5 117.5t73.5 78.5t95 42.5t110 13.5q54 0 84 -6q21 -5 21 -27q0 -29 -11 -55t-32 -25q-68 3 -105 -42t-49 -118q-12 -76 -18 -184t-15 -176q-7 -44 -24.5 -79t-34 -55t-44.5 -38 t-42.5 -24t-42.5 -16q-5 -2 -8 -3q-24 -7 -28.5 -26t22.5 -27q23 -10 39.5 -19.5t40 -29.5t36.5 -52.5t13 -74.5q0 -44 -41 -210t-41 -264q0 -114 115 -114q9 0 14.5 -13t5.5 -32q0 -54 -35 -62q-52 -12 -102 -12q-108 0 -175 54t-67 161q0 87 47 255t47 210q0 108 -102 115 q-29 3 -29 71z" />
<glyph unicode="|" horiz-adv-x="532" d="M178 -360q2 17 6 274.5t5.5 665t-3.5 899.5q0 29 19.5 40t56.5 11q32 0 48 -15.5t16 -33.5q-3 -68 -3.5 -946.5t1.5 -892.5q2 -25 -15 -42.5t-53 -17.5q-45 0 -63.5 17.5t-14.5 40.5z" />
<glyph unicode="}" horiz-adv-x="653" d="M-63 -213q0 25 11 49.5t23 24.5q141 0 168 170q9 65 20 180t23 195q7 44 26 80.5t38 57.5t48.5 40t44 25.5t38.5 15.5q29 7 31.5 27t-19.5 26q-29 11 -44.5 19t-40 26.5t-36.5 48t-12 70.5q0 62 43 233t43 225q0 113 -106 113q-13 0 -21 13t-8 32q0 22 8 40.5t18 19.5 q44 8 95 8q109 0 179.5 -49.5t70.5 -151.5q0 -83 -44.5 -233.5t-44.5 -204.5q0 -63 23.5 -100.5t75.5 -36.5q33 0 33 -60q0 -48 -21 -100t-45 -53q-44 -4 -74.5 -21.5t-46.5 -49t-22.5 -55t-12.5 -61.5q-4 -31 -9 -162t-13 -178q-21 -132 -112 -200t-210 -68q-51 0 -100 12 q-18 5 -18 33z" />
<glyph unicode="~" horiz-adv-x="1021" d="M78 553q0 19 6 50t22.5 72t40 75.5t63 59t87.5 24.5q57 0 122.5 -30t114 -66.5t101.5 -66.5t88 -30q38 0 62 23t44 69q11 25 39 25q27 0 53.5 -20.5t26.5 -41.5q0 -22 -6 -55t-24 -79.5t-46 -85t-78 -66t-114 -27.5q-50 0 -101 21t-92 50.5t-78.5 59.5t-74 51t-64.5 21 q-11 0 -20.5 -3.5t-15.5 -7t-12.5 -13.5t-9 -14t-9 -18t-8.5 -18q-11 -23 -41 -23q-27 0 -51.5 20t-24.5 44z" />
<glyph unicode="&#xa1;" horiz-adv-x="563" d="M-31 -264q0 43 18.5 90.5t48 102t62 121.5t64.5 173.5t51 231.5q5 47 59 47q16 0 28 -12t9 -31q-20 -130 -20 -260q0 -111 21.5 -229.5t21.5 -149.5q0 -93 -57 -168.5t-152 -75.5q-72 0 -113 44t-41 116zM141 836q0 86 46 133t124 47q170 0 170 -172q0 -78 -43.5 -130 t-124.5 -52t-126.5 49t-45.5 125z" />
<glyph unicode="&#xa2;" horiz-adv-x="888" d="M27 360q0 214 134.5 387t352.5 218q18 0 25 41q11 86 14 106q5 40 47 51q36 9 53 -8q7 -7 6 -16q-1 -10 -6 -38.5t-10.5 -57.5t-5.5 -31q-6 -35 22 -35q45 0 90 -16t66 -37q7 -13 4.5 -68.5t-8.5 -118.5l-6 -63q-3 -23 -27 -39q-17 -11 -36.5 -2.5t-20.5 37.5 q0 39 -22 89t-68 72q-9 2 -15 -2.5t-8 -9t-2 -6.5q-3 -10 -21.5 -110t-44 -248.5t-44.5 -268.5q-2 -17 0 -28t5.5 -16t7 -7t6.5 -2h3q79 0 172 107q19 23 41 20.5t29.5 -23.5t-4.5 -51q-23 -42 -60.5 -79.5t-76 -62.5t-69.5 -40.5t-52 -21.5q-29 -10 -35 -45 q-13 -105 -14 -121q-3 -31 -40 -39.5t-55 13.5q-9 11 -6 28q10 66 21 110q4 13 0.5 26.5t-19.5 16.5q-159 13 -241 122t-82 267zM313 393q0 -119 41 -180q14 -20 23.5 -28t17 -3.5t12.5 17.5t11 37q23 117 57.5 335t32.5 240q0 13 -3 15q-8 5 -32 -9q-60 -36 -98 -113 t-50 -152t-12 -159z" />
<glyph unicode="&#xa3;" horiz-adv-x="1239" d="M-29 47q0 105 176 184q26 13 47.5 35t36.5 52t26 61t19.5 72.5t14 75.5t12.5 80q3 19 4 28q6 26 1 36.5t-29 10.5q-7 0 -109 -4q-33 0 -33 37q0 26 13.5 48.5t31.5 22.5q78 0 101 2q34 3 43 15t14 55q8 73 37 150t81.5 151t119.5 132.5t158 94t190 35.5q100 0 175 -42.5 t75 -106.5q0 -47 -50 -103q-35 -32 -63 -32q-27 0 -55.5 25t-49 55.5t-49 55.5t-55.5 25q-61 0 -112 -67.5t-79.5 -167t-35.5 -209.5q-3 -36 8 -48.5t35 -12.5q22 -2 90.5 0.5t109.5 1.5q29 0 29 -35q0 -29 -18 -53t-47 -23q-19 0 -56 1t-65 1t-47 -2q-39 -4 -52 -17 t-18 -46q-27 -167 -111 -306q-31 -38 -25 -49q4 -6 13 -8q33 -7 76 -35.5t78.5 -57.5t81 -52t84.5 -23q46 0 67 16.5t23.5 44.5t2.5 59t13.5 66.5t46.5 59.5q39 29 90 29q41 0 60.5 -39t19.5 -95q0 -62 -29.5 -113t-78 -83t-108.5 -49t-124 -17q-71 0 -145.5 22.5t-126 49.5 t-112.5 49.5t-109 22.5q-33 0 -56 -17.5t-26 -42.5q-11 -71 -140 -71q-90 0 -90 65z" />
<glyph unicode="&#xa4;" horiz-adv-x="1089" d="M119.5 971q13.5 43 47.5 57.5t66 -8.5l117 -131q25 -36 70 -23q55 25 121 25q64 0 116 -25q26 -11 40 -7.5t34 28.5q59 73 119 133q30 27 66.5 8.5t46.5 -57t-15 -76.5q-7 -9 -22 -25t-38.5 -40t-41.5 -44q-24 -23 -29.5 -37t4.5 -38q33 -56 33 -136q0 -89 -23 -145 q-11 -34 -10 -47t15 -29q79 -91 118 -123q23 -33 6 -75t-51 -53t-65 18q-26 20 -105 117q-15 22 -26 24.5t-45 -8.5q-58 -25 -131 -25t-134 25q-22 9 -31 7t-28 -23q-59 -72 -104 -117q-29 -33 -67 -18t-50.5 53t6.5 75q5 4 18.5 18t38 40.5t45.5 48.5q20 23 23 34.5 t-6 33.5q-25 64 -25 155q0 83 31 150q11 25 9 37.5t-19 29.5q-24 26 -62 66.5t-47 50.5q-29 33 -15.5 76zM395 563q0 -72 39 -114.5t101 -42.5q66 0 105.5 43.5t39.5 121.5q0 59 -40 100.5t-101 41.5q-63 0 -103.5 -42t-40.5 -108z" />
<glyph unicode="&#xa5;" horiz-adv-x="1347" d="M164 573q5 26 18.5 42.5t30.5 13.5q2 0 29.5 -1t60 -2.5t72 -1.5t65.5 1q34 2 43.5 9t5.5 32q-10 43 -22 65q-11 20 -24 24.5t-48 4.5q-148 0 -162 -2q-19 -2 -26.5 12t-3.5 43q5 24 18.5 40t28.5 15q24 -4 121 -4q34 0 46.5 8.5t6.5 30.5q-89 229 -105 266 q-29 62 -45 77q-22 21 -53 20q-32 -2 -44 31.5t3.5 67t48.5 30.5q96 -8 230 -7.5t227 7.5q43 2 55 -31.5t-5 -67.5t-44 -32q-48 7 -72 -23.5t-10 -75.5q51 -161 115 -295q24 -52 68 2q43 50 108 137.5t103 151.5q19 31 21.5 56.5t-17.5 40t-64 8.5q-32 -4 -44 36 q-12 42 10 73q14 21 40 20q30 -1 99 -3.5t104 -3.5t91 0.5t106 6.5q35 3 47.5 -30.5t-2.5 -67t-45 -31.5q-35 2 -70.5 -18t-54 -39t-41.5 -48q-102 -118 -195 -258q-14 -17 -12.5 -28t24.5 -11q136 0 164 4q18 1 27 -15t4 -40q-5 -30 -16.5 -43t-32.5 -12q-18 2 -89 2.5 t-114 -2.5q-51 -7 -63 -27q-39 -56 -43 -82q-2 -14 6 -19.5t37 -6.5q78 -5 252 0q23 0 26.5 -19.5t-2.5 -36.5q-2 -19 -14.5 -37t-28.5 -18q-22 2 -113 2.5t-147 -0.5q-23 -1 -34 -3t-20.5 -10.5t-13.5 -25.5q-25 -130 -34 -266q-3 -46 21 -65.5t85 -12.5q41 5 50 -38 q9 -41 -17 -75q-19 -24 -45 -22q-93 8 -248 7.5t-268 -9.5q-38 -2 -52 33t2 70.5t50 33.5q25 0 50.5 -1t50.5 15t34 50q37 148 47 272q3 22 -7 34.5t-30 12.5h-278q-40 -3 -33 59z" />
<glyph unicode="&#xa6;" horiz-adv-x="471" d="M178 -350q3 62 8 301.5t4 335.5q0 51 68 51q27 0 47.5 -16.5t20.5 -32.5q-4 -66 -5 -345t1 -292q3 -27 -14.5 -46.5t-59.5 -19.5q-34 0 -53 20.5t-17 43.5zM178 868q4 54 8 283.5t4 325.5q0 53 68 53q27 0 47.5 -17t20.5 -34q-4 -66 -5 -332t1 -277q7 -59 -74 -59 q-35 0 -53.5 17t-16.5 40z" />
<glyph unicode="&#xa7;" horiz-adv-x="1138" d="M80 -285q0 47 29.5 90t76.5 43q41 0 76.5 -20.5t55.5 -45t45 -45t47 -20.5q97 0 172.5 57t85.5 117q2 15 1 26t-10 22.5t-28 23.5q-69 44 -133 93.5t-141 128t-132.5 161.5t-93 193.5t-37.5 224.5q0 127 51.5 247t139 210t211.5 144t260 54q132 0 197 -42.5t65 -110.5 q0 -53 -35 -93t-90 -40q-32 0 -57 15.5t-42.5 37.5t-34 44.5t-39.5 38t-52 15.5q-93 0 -160 -62.5t-78 -125.5q-5 -32 51 -70q531 -375 531 -811q0 -189 -92 -334t-250.5 -222t-356.5 -77q-118 0 -175.5 35.5t-57.5 97.5zM350 729q0 -184 91 -362t243 -269q12 -4 23 -4 q55 0 55 160q0 95 -28 194t-70.5 176.5t-91 141t-92.5 97.5t-72 34t-43 -46t-15 -122z" />
<glyph unicode="&#xa8;" horiz-adv-x="800" d="M293 1280q1 18 7 37.5t20.5 42t44 37t69.5 14.5q51 0 91 -39t40 -102q0 -58 -39.5 -93.5t-93.5 -35.5q-21 0 -42.5 6.5t-44 21t-37 43.5t-15.5 68zM633 1280q1 17 8.5 37t23 42.5t46.5 37t71 14.5q49 0 86 -39t37 -102q0 -58 -36.5 -93.5t-90.5 -35.5q-22 0 -44.5 6.5 t-46 21t-38.5 43.5t-16 68z" />
<glyph unicode="&#xa9;" horiz-adv-x="1632" d="M84 696q0 145 58.5 277t158 228t239 153t294.5 57q207 0 379 -96.5t270 -260.5t98 -358t-98 -358.5t-270 -261t-379 -96.5q-155 0 -294.5 57t-239 153.5t-158 228.5t-58.5 277zM221 696q0 -119 48 -227t130 -186.5t195.5 -125t239.5 -46.5t239.5 46.5t194.5 125 t128.5 186.5t47.5 227q0 159 -80.5 293t-221 212.5t-308.5 78.5t-309 -78.5t-222.5 -212.5t-81.5 -293zM424 698q0 177 120 286.5t326 109.5q107 0 184.5 -24.5t80.5 -57.5q1 -22 -2.5 -100.5t-6.5 -108.5q-3 -27 -31.5 -37.5t-56 -2t-28.5 27.5q-2 33 -8 58t-21.5 52 t-48 42t-80.5 15q-83 0 -139 -65t-56 -170q0 -125 75.5 -195.5t172.5 -70.5q77 0 133 35q24 13 52.5 -2.5t36 -44t-14.5 -60.5q-4 -4 -14 -12t-32.5 -20.5t-50.5 -22.5t-71.5 -17.5t-91.5 -7.5q-199 0 -313.5 106t-114.5 287z" />
<glyph unicode="&#xaa;" horiz-adv-x="557" d="M131 948q0 52 33.5 85.5t74.5 44.5t84.5 24t55.5 26q22 22 22 74q0 39 -39 39q-34 0 -49 -24q-5 0 -4.5 -22.5t0.5 -25.5q-3 -19 -24.5 -35t-51.5 -16q-24 0 -38.5 15t-14.5 36q0 43 39.5 78t91 51.5t99.5 16.5q64 0 92.5 -39t17.5 -107q-2 -11 -12 -60t-14 -79 q-10 -45 -6 -67t40 -17q7 1 11 -6t4 -18q0 -35 -23 -45q-14 -7 -53 -16.5t-64 -12.5q-10 -1 -17.5 7.5t-10.5 21.5q-3 20 -21 6l-8 -5q-8 -5 -17 -9.5t-22 -9.5t-30 -8t-35 -3q-56 0 -83.5 28t-27.5 72zM264 967q0 -15 9.5 -27t29.5 -12q34 0 53 31t19 69q0 6 -1 10t-3 7 t-6 2q-23 -4 -42.5 -11t-39 -25.5t-19.5 -43.5z" />
<glyph unicode="&#xab;" horiz-adv-x="915" d="M37 473q0 20 24.5 57t67 84t82.5 87.5t89.5 89.5t68.5 69q25 25 61 25q27 0 45.5 -13t18.5 -36q0 -19 -23 -52q-186 -256 -186 -325q0 -21 7.5 -54.5t16.5 -63t28 -88.5t30 -97q2 -6 2 -19q0 -29 -26.5 -48t-57.5 -19q-40 0 -54 26q-194 298 -194 377zM406 471 q0 21 23.5 57.5t67.5 85t80 86.5t90.5 91t69.5 69q25 25 62 25q25 0 42 -12.5t17 -36.5q0 -23 -20 -52q-187 -262 -187 -325q0 -21 7.5 -54t17.5 -64t28.5 -87.5t30.5 -97.5q2 -6 2 -19q0 -29 -26.5 -48t-59.5 -19q-39 0 -53 26q-192 295 -192 375z" />
<glyph unicode="&#xac;" horiz-adv-x="1028" d="M73 593q-19 44 0.5 89t65.5 41q96 -7 342 -5t340 11q38 4 54 -20.5t14 -65.5q0 -326 2 -367q5 -50 -39 -67q-43 -17 -80 9q-33 23 -33 69q0 10 1 49t0.5 74.5t-3.5 74.5q-3 73 -65 76q-408 8 -533 -6q-47 -6 -66 38z" />
<glyph unicode="&#xad;" horiz-adv-x="692" d="M117 499q-17 61 1 122q13 43 38 45q10 1 99.5 2t180 7t135.5 19q27 8 44 -43q20 -62 3 -120q-16 -54 -59 -54q-250 -3 -395 -24q-32 -6 -47 46z" />
<glyph unicode="&#xae;" horiz-adv-x="1153" d="M133 1047q0 96 39.5 185t106.5 154.5t161 104.5t197 39q142 0 261 -66.5t186 -177t67 -239.5q0 -201 -149 -344.5t-365 -143.5q-138 0 -254 66t-183 178.5t-67 243.5zM233 1047q0 -160 118.5 -275t285.5 -115q173 0 292.5 114.5t119.5 275.5q0 160 -119.5 273.5 t-292.5 113.5q-167 0 -285.5 -114t-118.5 -273zM391 835q-7 19 0.5 38t24.5 18q9 -1 17 -1t13.5 7.5t6.5 22.5q10 108 2 284q-1 18 -8.5 21t-24.5 0q-19 0 -26.5 18.5t1 37t29.5 19.5q96 7 197 7q116 0 174.5 -32t58.5 -101q0 -37 -21.5 -69.5t-38.5 -44.5t-32 -20 q-22 -10 -6 -26q13 -12 40 -47.5t50 -58.5t41 -23q22 0 23 -30.5t-15 -35.5q-30 -12 -82 -12q-21 0 -42 10t-35.5 22t-32 34.5t-25.5 35t-22.5 36.5t-16.5 28q-9 15 -15 19.5t-16 4.5q-8 0 -11.5 -0.5t-7 -6t-3.5 -17.5q0 -31 2 -49q3 -26 8.5 -31t24.5 -2q18 1 26 -18 t0.5 -38t-26.5 -18q-91 3 -207 0q-18 -1 -25 18zM585 1175.5q0 -19.5 0.5 -41.5t0.5 -26q0 -31 20 -31h19q84 0 84 82q0 42 -18 58t-70 16q-16 0 -23.5 -3.5t-9 -8t-2.5 -15.5t-1 -30.5z" />
<glyph unicode="&#xaf;" horiz-adv-x="782" d="M307 1212q0 34 15 70t30 37q10 0 111 -0.5t209 2t166 10.5q26 3 26 -63q0 -38 -13.5 -69.5t-37.5 -31.5q-37 -1 -96.5 1t-144.5 0.5t-226 -9.5q-39 0 -39 53z" />
<glyph unicode="&#xb0;" horiz-adv-x="768" d="M133 1081q0 132 96.5 215.5t229.5 83.5q132 0 225.5 -83t93.5 -197q0 -151 -93 -233.5t-230 -82.5q-142 0 -232 79.5t-90 217.5zM285 1087q0 -76 47 -120.5t121 -44.5q76 0 124 45t48 125q0 63 -49 107t-119 44q-72 0 -122 -45t-50 -111z" />
<glyph unicode="&#xb1;" horiz-adv-x="1228" d="M226 801.5q16 44.5 50 42.5q6 1 38.5 0t82.5 -2t88 0q17 1 27 4.5t14.5 13t5 16t0.5 22.5v7q1 47 -4 242q-1 43 38 58.5t78 0.5t38 -47q-7 -135 -4 -258q0 -61 37 -61q121 0 219 16q42 7 64 -39q24 -46 4 -89q-19 -41 -68 -44q-158 0 -217 -4q-19 -1 -27.5 -7t-10 -14 t-1.5 -28q0 -64 4 -150q1 -24 -15 -41.5t-38.5 -22.5t-45.5 -2t-39 19t-16 41q4 114 4 141q1 41 -11 52.5t-42 13.5q-106 4 -188 -6q-46 -5 -63.5 38t-1.5 87.5zM236 283.5q15 43.5 55 46.5q14 1 155 -0.5t288.5 0.5t193.5 12q36 8 59 -38q24 -49 5 -93q-18 -40 -66 -41 q-43 0 -163 0.5t-198.5 0.5t-160 -1t-107.5 -4q-40 -6 -58 34t-3 83.5z" />
<glyph unicode="&#xb2;" horiz-adv-x="600" d="M104 1017.5q3 37.5 13 41.5q152 94 220 155q130 115 130 216q0 81 -84 81q-32 0 -63.5 -26.5t-49.5 -57.5q-10 -21 -39 -10q-30 12 -33 41q-1 15 7 31q27 50 100.5 103t167.5 53q83 0 141 -45t58 -125q0 -55 -21 -103t-70.5 -95t-78.5 -69t-96 -68q-11 -8 -17 -12 q-19 -15 -19 -29.5t23 -17.5q14 -2 68 -2q20 0 35 3t23.5 6t17 13t11.5 15t10.5 21t10.5 22q4 10 21 14t30.5 -3.5t8.5 -24.5q0 -11 -28 -105t-42 -129q-8 -3 -18 -2.5t-39 4.5q-1 0 -11 0.5t-28 1t-37 0.5q-166 4 -272 -4q-29 -2 -41 33.5t-9 73z" />
<glyph unicode="&#xb3;" horiz-adv-x="598" d="M106 1004q0 35 25 65.5t62 30.5q28 0 44 -14.5t21 -31.5t22 -31.5t46 -14.5q42 0 73 29t31 75q0 54 -44.5 80.5t-121.5 26.5q-13 0 -20.5 9.5t-8 23t2.5 27.5t11 24.5t17 11.5q67 12 121.5 48t54.5 99q0 32 -19 47t-48 15q-14 0 -28 -2.5t-26 -7.5t-22 -10t-19.5 -12 t-15 -11.5t-11.5 -10t-7 -6.5q-19 -16 -32 -3.5t-13 38.5q0 28 14 45q88 101 236 101q86 0 139 -39t53 -97q0 -52 -34 -96t-95 -74q-14 -6 -17 -17.5t11 -16.5q33 -11 48.5 -17.5t40 -22t35.5 -38.5t11 -56q0 -81 -56 -145.5t-137.5 -96.5t-166.5 -32q-78 0 -127.5 29 t-49.5 78z" />
<glyph unicode="&#xb4;" horiz-adv-x="555" d="M324 1135q0 9 6 18q121 165 184 283q24 39 55 39q19 0 87 -1t71 -1q35 0 35 -27q0 -19 -23 -45q-3 -4 -61.5 -65.5t-111 -120t-95.5 -111.5q-14 -14 -53 -14q-37 0 -65.5 12t-28.5 33z" />
<glyph unicode="&#xb5;" horiz-adv-x="1286" d="M88 -373q55 253 105 551q3 19 23.5 134t32.5 184t23.5 154t10.5 120q0 14 -8.5 24t-19 14.5t-27.5 7t-27.5 2.5t-26 -0.5t-16.5 -0.5q-24 0 -34 27.5t-0.5 55t32.5 28.5q43 3 155.5 16.5t161.5 26.5q29 9 60.5 -18t27.5 -58q-7 -36 -25 -130t-29 -155.5t-24.5 -139 t-20.5 -130t-7 -78.5q0 -104 67 -104q166 0 254 397q10 44 24 128t22 146l9 62q4 31 15 42t31 11h184q24 0 32 -15t3 -36q-31 -143 -64 -359t-37 -325q-1 -34 4 -42.5t23 -2.5q18 4 55 22.5t45 18.5q23 0 38.5 -34t2.5 -62q-5 -10 -52 -43t-113.5 -65t-108.5 -32 q-49 0 -75.5 21.5t-32 52.5t-5 62.5t0 53t-10.5 21.5t-27 -22q-55 -76 -139.5 -137t-161.5 -56q-43 3 -49 -41l-45 -278q-3 -21 -9.5 -30.5t-25.5 -12.5q-4 -1 -38.5 -4.5t-84.5 -8.5l-80 -8q-29 -3 -18 45z" />
<glyph unicode="&#xb6;" horiz-adv-x="1085" d="M115 883q0 100 36.5 184.5t99 144t146.5 101t179.5 61t197.5 19.5q90 0 162 2.5t111.5 5t50.5 2.5q23 0 35 -17.5t12 -44.5q0 -40 -21 -71.5t-53 -28.5q-71 3 -98 -19.5t-39 -88.5q-41 -181 -76.5 -425.5t-60 -429.5t-43.5 -251q-26 -86 -79 -161.5t-115 -126t-129 -87 t-124 -53.5t-98 -17q-31 0 -48.5 22.5t-17.5 53.5q0 49 40.5 88t117.5 39q51 0 78 12t50 52.5t44 125.5q63 286 74 467q8 84 -55 84q-171 0 -274 98.5t-103 258.5z" />
<glyph unicode="&#xb7;" horiz-adv-x="559" d="M92 582q0 84 51 131t133 47q183 0 183 -170q0 -79 -48 -131.5t-135 -52.5t-135.5 49t-48.5 127z" />
<glyph unicode="&#xb8;" horiz-adv-x="495" d="M104 -178q-10 15 5 53q23 44 94 125q19 27 65 27q33 0 51.5 -5.5t10.5 -19.5q-6 -9 -54 -65q-15 -23 -14.5 -31.5t19.5 -11.5q64 -10 87 -37t15 -76q-9 -62 -81.5 -116.5t-166.5 -61.5q-22 -2 -29.5 22.5t0 50.5t21.5 27q79 6 86 59q4 24 -17 34.5t-55 10.5q-27 0 -37 15 z" />
<glyph unicode="&#xb9;" horiz-adv-x="561" d="M102 939q-4 29 8 57.5t31 27.5q30 -3 52.5 -3t38.5 1.5t27.5 7t18 9.5t11.5 14.5t7 17.5t5 21q9 36 29 173t24 154q3 22 -17.5 25t-107.5 -1q-5 -1 -8.5 -1h-7.5q-22 -1 -27.5 26.5t7 55.5t34.5 28q59 0 109 16t76 34.5t45.5 34.5t23.5 16q8 0 18 -1t30 -3.5t30.5 -11 t5.5 -21.5q-16 -81 -48.5 -292.5t-35.5 -252.5q0 -3 -0.5 -12t0 -12t2.5 -9.5t6 -8t12.5 -4.5t20.5 -3t30 0.5t42 3.5q19 0 23 -29t-10 -58t-40 -28q-243 11 -442 0q-19 -1 -23 28z" />
<glyph unicode="&#xba;" horiz-adv-x="561" d="M135 1028q0 126 78 208.5t178 82.5q79 0 131.5 -53.5t52.5 -132.5q0 -90 -40.5 -157.5t-97 -98.5t-115.5 -31q-83 0 -135 48.5t-52 133.5zM244 1057q0 -45 24 -70.5t66 -25.5q49 0 91 41t42 110q0 38 -27 65t-67 27q-53 0 -91 -43t-38 -104z" />
<glyph unicode="&#xbb;" horiz-adv-x="911" d="M29 121q0 20 10 35q18 28 45.5 70.5t41.5 64.5t33.5 53t29.5 49t20 38.5t14 34.5t4 26q0 62 -90 292q-8 16 -8 33q0 31 24.5 49.5t55.5 18.5q34 0 53 -25q121 -184 167 -262.5t46 -110.5q0 -37 -74 -126.5t-243 -264.5q-23 -26 -62 -26q-27 0 -47 14t-20 37zM395 121 q0 12 13 35q22 35 59.5 95t53.5 86t36 61.5t27.5 56.5t7.5 37q0 72 -90 292q-6 18 -6 33q0 31 23.5 49.5t53.5 18.5q38 0 54 -25q121 -184 167 -262.5t46 -110.5q0 -37 -74.5 -127t-241.5 -264q-23 -26 -61 -26q-27 0 -47.5 14.5t-20.5 36.5z" />
<glyph unicode="&#xbc;" horiz-adv-x="1417" d="M86 701.5q-4 28.5 8 57t31 27.5q30 -3 52.5 -3t38.5 1.5t27.5 7t18 9.5t11.5 14.5t7 17.5t5 21q9 36 29 173.5t24 154.5q3 21 -16 24.5t-99 -1.5q-17 -1 -26 -1q-22 -1 -27.5 27t7 56t34.5 28q59 0 109 15.5t76 34.5t45.5 34.5t23.5 15.5q8 0 18 -1t30 -3.5t30.5 -11 t5.5 -21.5q-16 -81 -48.5 -292t-35.5 -252q0 -4 -0.5 -11.5t0 -10.5t1.5 -8.5t4 -7.5t8 -5.5t13.5 -4.5t20.5 -2t28.5 0.5t37.5 3.5q19 0 23 -29t-10 -57.5t-40 -27.5q-243 11 -442 0q-19 -1 -23 27.5zM225 53q0 41 21 62q12 12 158.5 205t371 501.5t381.5 542.5 q37 53 86 53q29 0 50.5 -19.5t21.5 -45.5q0 -27 -21 -54q-84 -103 -305.5 -404t-403.5 -554.5t-188 -265.5q-22 -31 -33.5 -45t-33.5 -30.5t-43 -16.5q-32 0 -47 20t-15 51zM748 252.5q1 24.5 5 45.5t7 24q98 90 221 218t127 152q2 10 11 20t22 11q21 0 65.5 9.5t57.5 21.5 q12 8 26 -2.5t10 -30.5l-11 -61q-11 -60 -26 -152.5t-26 -173.5q-3 -23 16 -23h31q14 0 23.5 -9.5t5.5 -27.5q-5 -26 -16.5 -53.5t-26.5 -27.5h-45q-13 0 -13 -15q-3 -15 -10.5 -68t-11.5 -75q-5 -35 -39 -35h-123q-20 0 -24.5 11t2.5 36q15 100 18 129q3 15 -12 17 q-99 8 -232 0q-17 -2 -25 16.5t-7 43zM906.5 339q-3.5 -10 0.5 -17.5t15 -8.5h98q28 2 35 37q16 61 16 111q2 15 -9 18.5t-30 -10.5q-62 -54 -112 -111q-10 -9 -13.5 -19z" />
<glyph unicode="&#xbd;" horiz-adv-x="1396" d="M75 701.5q-4 28.5 8.5 57t31.5 27.5q30 -3 52.5 -2.5t38.5 1.5t27 6.5t17.5 9.5t11.5 14.5t7 17t5 21.5q9 36 29.5 173t24.5 155q3 21 -16.5 24.5t-99.5 -1.5q-17 -1 -26 -1q-22 -1 -27.5 27t7.5 56t35 28q59 0 109 15.5t76 34.5t45.5 34.5t23.5 15.5q8 0 18 -1t30 -3.5 t30.5 -11t5.5 -21.5q-16 -81 -48.5 -292t-35.5 -252q0 -3 -0.5 -14t0 -13t3.5 -9.5t10.5 -8.5t20 -3.5t32 -1.5t46.5 4q19 0 23 -29t-9.5 -57.5t-39.5 -27.5q-243 11 -443 0q-19 -1 -23 27.5zM217 53q0 41 21 62q12 12 158.5 205t371 501.5t381.5 542.5q37 53 86 53 q29 0 50.5 -19.5t21.5 -45.5q0 -27 -21 -54q-84 -103 -305.5 -404t-403.5 -554.5t-188 -265.5q-22 -31 -33.5 -45t-33.5 -30.5t-43 -16.5q-32 0 -47 20t-15 51zM745 104q3 37 13 41q152 94 220 155q129 115 130 216q0 82 -84 82q-32 0 -63.5 -26.5t-49.5 -57.5 q-10 -21 -39 -10q-29 12 -33 40q-1 16 7 31q27 50 100.5 103t167.5 53q83 0 141 -45t58 -125q0 -32 -9.5 -63t-21 -55t-36.5 -52.5t-42 -45t-51.5 -43t-50 -37.5t-53.5 -37q-4 -3 -6.5 -4.5t-6 -4t-6.5 -4.5q-19 -15 -19 -29.5t23 -17.5q14 -2 68 -2q20 0 35 3t23.5 6t17 13 t11.5 15t10.5 21t10.5 22q4 10 21 13.5t30.5 -4t8.5 -24.5q0 -11 -28 -104.5t-42 -128.5q-8 -3 -18 -2.5t-39 4.5q-1 0 -11 0.5t-28 1t-37 0.5q-166 4 -272 -4q-29 -2 -41 33.5t-9 72.5z" />
<glyph unicode="&#xbe;" horiz-adv-x="1404" d="M92 766q0 35 24.5 65.5t61.5 30.5q28 0 44 -14.5t21 -31.5t22 -31.5t46 -14.5q42 0 73.5 29.5t31.5 74.5q0 54 -44.5 80.5t-121.5 26.5q-13 0 -20.5 9.5t-8 23t2.5 27.5t11 24.5t17 11.5q67 12 121.5 48.5t54.5 99.5q0 31 -19.5 46t-48.5 15q-14 0 -28 -2.5t-26 -7.5 t-22 -10t-19.5 -12t-15 -11t-11.5 -10t-7 -6q-19 -16 -32 -3.5t-13 38.5q0 27 15 45q88 100 235 100q86 0 139.5 -38.5t53.5 -96.5q0 -52 -34 -96t-95 -74q-14 -6 -17 -18t11 -17q28 -9 38.5 -13t34 -16t33.5 -23.5t19.5 -33t9.5 -47.5q0 -81 -56.5 -145.5t-138 -97 t-166.5 -32.5q-78 0 -127 29t-49 78zM211 53q0 42 20 62q12 12 159 205t371.5 501.5t381.5 542.5q37 53 86 53q29 0 50 -19.5t21 -45.5q0 -28 -20 -54q-84 -103 -305.5 -404t-403.5 -554.5t-188 -265.5q-21 -30 -33.5 -45t-34.5 -31t-43 -16q-32 0 -46.5 20t-14.5 51z M734 252.5q1 24.5 4.5 45.5t6.5 24q99 91 222 218.5t127 151.5q2 10 10.5 20t21.5 11q21 0 65.5 9.5t57.5 21.5q12 8 26.5 -2.5t10.5 -30.5l-11 -61q-11 -60 -26 -152.5t-26 -173.5q-3 -23 16 -23h31q14 0 23 -9t5 -28q-5 -26 -16.5 -53.5t-26.5 -27.5h-45q-12 0 -12 -15 q-3 -15 -10.5 -68t-11.5 -75q-5 -35 -39 -35h-123q-20 0 -25 11t2 36q18 120 19 129q3 14 -13 17q-99 8 -231 0q-17 -2 -25 16.5t-7 43zM891.5 339q-3.5 -10 0.5 -17.5t15 -8.5h99q27 2 34 37q17 65 17 111q2 15 -9 18.5t-30 -10.5q-66 -57 -113 -111q-10 -9 -13.5 -19z" />
<glyph unicode="&#xbf;" horiz-adv-x="964" d="M-45 -68q0 65 26 121.5t67 95.5t90.5 72t99.5 57t91 44t67 38t26 35q0 34 -82 45q-23 3 -23 45q0 28 11 35q15 12 65 12q75 0 146 -24q60 -19 86 -47t26 -78q0 -34 -23.5 -67.5t-61 -63t-82.5 -60.5t-90 -65t-82.5 -70.5t-61 -83.5t-23.5 -98q0 -34 9.5 -64t32.5 -59 t69 -46t111 -17q100 0 162.5 53t62.5 121q0 47 -51 47q-9 0 -27.5 -4t-28.5 -4q-39 0 -64.5 29t-25.5 71q0 46 40.5 80.5t90.5 34.5q70 0 126.5 -59.5t56.5 -151.5q0 -60 -26.5 -117.5t-74.5 -104.5t-123 -75.5t-164 -28.5q-218 0 -333 101t-115 251zM360 842q0 79 43 131.5 t123 52.5q81 0 126.5 -49t45.5 -127q0 -84 -46.5 -131t-123.5 -47q-168 0 -168 170z" />
<glyph unicode="&#xc0;" horiz-adv-x="1327" d="M-94 63q0 27 14.5 46t40.5 16q36 -3 67 31t68 96q154 263 479 932q19 40 21.5 80t7.5 51q5 12 16 17.5t18.5 6t25.5 0.5q109 0 159 60q15 18 39 18q36 0 41 -37q14 -137 100 -596.5t121 -578.5q7 -20 12 -30.5t15.5 -25t25.5 -20t35 -2.5q27 3 42.5 -17t15.5 -49 q0 -28 -15 -48t-41 -17q-44 4 -220.5 4.5t-260.5 -4.5q-28 -1 -41.5 14.5t-13.5 40.5q0 30 17 53.5t42 22.5q55 -4 74.5 14.5t19.5 73.5q0 31 -26 191q-6 25 -14.5 36.5t-24.5 12.5q-79 9 -184.5 8t-163.5 -8q-43 -3 -70 -43q-19 -31 -50 -96l-32 -66q-18 -45 -18.5 -75 t29.5 -42t94 -4q25 3 38 -13t13 -42q0 -30 -17 -54.5t-45 -23.5q-226 12 -399 0q-26 -3 -40.5 17.5t-14.5 49.5zM453 612q5 -13 32 -18q21 -5 96 -4.5t140 8.5q32 5 44.5 19.5t6.5 48.5q-9 66 -31 189t-34 177q-8 27 -18.5 29.5t-29.5 -23.5q-35 -57 -94.5 -172t-101.5 -209 q-15 -32 -10 -45zM506 1749q0 18 15.5 30.5t43.5 12.5h113q57 0 82 -37q84 -122 145 -186q19 -25 19 -41q0 -19 -15.5 -29t-36.5 -10h-32q-47 0 -70 20q-59 57 -244 203q-20 14 -20 37z" />
<glyph unicode="&#xc1;" horiz-adv-x="1327" d="M-94 63q0 27 14.5 46t40.5 16q36 -3 67 31t68 96q154 263 479 932q19 40 21.5 80t7.5 51q5 12 16 17.5t18.5 6t25.5 0.5q109 0 159 60q15 18 39 18q36 0 41 -37q14 -137 100 -596.5t121 -578.5q7 -20 12 -30.5t15.5 -25t25.5 -20t35 -2.5q27 3 42.5 -17t15.5 -49 q0 -28 -15 -48t-41 -17q-44 4 -220.5 4.5t-260.5 -4.5q-28 -1 -41.5 14.5t-13.5 40.5q0 30 17 53.5t42 22.5q55 -4 74.5 14.5t19.5 73.5q0 31 -26 191q-6 25 -14.5 36.5t-24.5 12.5q-79 9 -184.5 8t-163.5 -8q-43 -3 -70 -43q-19 -31 -50 -96l-32 -66q-18 -45 -18.5 -75 t29.5 -42t94 -4q25 3 38 -13t13 -42q0 -30 -17 -54.5t-45 -23.5q-226 12 -399 0q-26 -3 -40.5 17.5t-14.5 49.5zM453 612q5 -13 32 -18q21 -5 96 -4.5t140 8.5q32 5 44.5 19.5t6.5 48.5q-9 66 -31 189t-34 177q-8 27 -18.5 29.5t-29.5 -23.5q-35 -57 -94.5 -172t-101.5 -209 q-15 -32 -10 -45zM631 1522q0 23 31 47q28 27 93 94t91 92q40 37 98 37h139q24 0 37 -10.5t13 -24.5q0 -26 -31 -45q-231 -145 -309 -203q-29 -20 -80 -20h-33q-19 0 -34 8.5t-15 24.5z" />
<glyph unicode="&#xc2;" horiz-adv-x="1327" d="M-94 63q0 27 14.5 46t40.5 16q36 -3 67 31t68 96q154 263 479 932q19 40 21.5 80t7.5 51q5 12 16 17.5t18.5 6t25.5 0.5q109 0 159 60q15 18 39 18q36 0 41 -37q14 -137 100 -596.5t121 -578.5q7 -20 12 -30.5t15.5 -25t25.5 -20t35 -2.5q27 3 42.5 -17t15.5 -49 q0 -28 -15 -48t-41 -17q-44 4 -220.5 4.5t-260.5 -4.5q-28 -1 -41.5 14.5t-13.5 40.5q0 30 17 53.5t42 22.5q55 -4 74.5 14.5t19.5 73.5q0 31 -26 191q-6 25 -14.5 36.5t-24.5 12.5q-79 9 -184.5 8t-163.5 -8q-43 -3 -70 -43q-19 -31 -50 -96l-32 -66q-18 -45 -18.5 -75 t29.5 -42t94 -4q25 3 38 -13t13 -42q0 -30 -17 -54.5t-45 -23.5q-226 12 -399 0q-26 -3 -40.5 17.5t-14.5 49.5zM453 612q5 -13 32 -18q21 -5 96 -4.5t140 8.5q32 5 44.5 19.5t6.5 48.5q-9 66 -31 189t-34 177q-8 27 -18.5 29.5t-29.5 -23.5q-35 -57 -94.5 -172t-101.5 -209 q-15 -32 -10 -45zM502 1526q0 23 18 41q54 45 93 79.5t84.5 76.5t66.5 61q29 26 80 26q52 0 71 -26q110 -145 170 -215q11 -11 11 -27q0 -28 -26.5 -43.5t-59.5 -15.5q-31 0 -49 18q-10 10 -24.5 25t-23 23.5t-22.5 22t-31 27.5q-35 35 -88 0q-26 -18 -47.5 -34t-44 -34 t-39.5 -30q-24 -18 -70 -18q-69 0 -69 43z" />
<glyph unicode="&#xc3;" horiz-adv-x="1327" d="M-94 63q0 27 14.5 46t40.5 16q36 -3 67 31t68 96q154 263 479 932q19 40 21.5 80t7.5 51q5 12 16 17.5t18.5 6t25.5 0.5q109 0 159 60q15 18 39 18q36 0 41 -37q14 -137 100 -596.5t121 -578.5q7 -20 12 -30.5t15.5 -25t25.5 -20t35 -2.5q27 3 42.5 -17t15.5 -49 q0 -28 -15 -48t-41 -17q-44 4 -220.5 4.5t-260.5 -4.5q-28 -1 -41.5 14.5t-13.5 40.5q0 30 17 53.5t42 22.5q55 -4 74.5 14.5t19.5 73.5q0 31 -26 191q-6 25 -14.5 36.5t-24.5 12.5q-79 9 -184.5 8t-163.5 -8q-43 -3 -70 -43q-19 -31 -50 -96l-32 -66q-18 -45 -18.5 -75 t29.5 -42t94 -4q25 3 38 -13t13 -42q0 -30 -17 -54.5t-45 -23.5q-226 12 -399 0q-26 -3 -40.5 17.5t-14.5 49.5zM453 612q5 -13 32 -18q21 -5 96 -4.5t140 8.5q32 5 44.5 19.5t6.5 48.5q-9 66 -31 189t-34 177q-8 27 -18.5 29.5t-29.5 -23.5q-35 -57 -94.5 -172t-101.5 -209 q-15 -32 -10 -45zM465 1550q0 22 15 59.5t42 79.5t73 72t99 31q41 0 83.5 -20.5t71.5 -45t59 -45t48 -20.5t32 16.5t22 36.5t26.5 36.5t44.5 16.5q25 0 44.5 -11.5t19.5 -26.5q0 -21 -15.5 -58.5t-42.5 -79.5t-72.5 -72t-96.5 -30q-42 0 -85.5 20.5t-72 45t-55.5 45 t-41 20.5q-20 0 -36.5 -17t-26.5 -37.5t-29.5 -37.5t-45.5 -17q-23 0 -42 12t-19 27z" />
<glyph unicode="&#xc4;" horiz-adv-x="1327" d="M-94 63q0 27 14.5 46t40.5 16q36 -3 67 31t68 96q154 263 479 932q19 40 21.5 80t7.5 51q5 12 16 17.5t18.5 6t25.5 0.5q109 0 159 60q15 18 39 18q36 0 41 -37q14 -137 100 -596.5t121 -578.5q7 -20 12 -30.5t15.5 -25t25.5 -20t35 -2.5q27 3 42.5 -17t15.5 -49 q0 -28 -15 -48t-41 -17q-44 4 -220.5 4.5t-260.5 -4.5q-28 -1 -41.5 14.5t-13.5 40.5q0 30 17 53.5t42 22.5q55 -4 74.5 14.5t19.5 73.5q0 31 -26 191q-6 25 -14.5 36.5t-24.5 12.5q-79 9 -184.5 8t-163.5 -8q-43 -3 -70 -43q-19 -31 -50 -96l-32 -66q-18 -45 -18.5 -75 t29.5 -42t94 -4q25 3 38 -13t13 -42q0 -30 -17 -54.5t-45 -23.5q-226 12 -399 0q-26 -3 -40.5 17.5t-14.5 49.5zM434 1640q0 19 8 41.5t25 46t50.5 39t78.5 15.5q55 0 97 -42t42 -108q0 -62 -40.5 -100.5t-98.5 -38.5q-24 0 -50 7t-52 22.5t-43 46t-17 71.5zM453 612 q5 -13 32 -18q21 -5 96 -4.5t140 8.5q32 5 44.5 19.5t6.5 48.5q-9 66 -31 189t-34 177q-8 27 -18.5 29.5t-29.5 -23.5q-35 -57 -94.5 -172t-101.5 -209q-15 -32 -10 -45zM885 1640q0 19 8.5 41.5t26 46t51.5 39t78 15.5q56 0 96.5 -41.5t40.5 -108.5q0 -63 -40 -101t-97 -38 q-25 0 -51 7t-52.5 22.5t-43.5 46t-17 71.5z" />
<glyph unicode="&#xc5;" horiz-adv-x="1325" d="M-94 63q0 27 14.5 46t40.5 16q36 -3 67 31t68 96q154 263 479 932q4 9 11 23t10 20.5t7.5 17t5.5 16t1 13t-3 12.5t-9 10q-47 44 -47 127q0 104 83 182t193 78q89 0 145 -51.5t56 -130.5q0 -50 -20 -99.5t-58 -80.5q-26 -22 -29.5 -41.5t5.5 -65.5q37 -233 103 -574.5 t95 -434.5q7 -20 12 -30.5t15.5 -25t25.5 -20t35 -2.5q28 3 43 -16t15 -48t-15 -49.5t-41 -17.5q-44 4 -220.5 4.5t-260.5 -4.5q-29 -1 -44 16.5t-15 44.5q0 28 15 49.5t38 20.5q55 -4 75.5 15t20.5 73q0 18 -28 191q-6 25 -14.5 36.5t-22.5 12.5q-81 9 -186.5 8t-163.5 -8 q-38 -3 -70 -43q-19 -31 -50 -96l-32 -66q-17 -45 -17.5 -75t28.5 -42t93 -4q26 3 41 -16t15 -47q0 -29 -15 -50t-41 -20q-226 12 -399 0q-26 -3 -40.5 17.5t-14.5 49.5zM443 612q5 -13 32 -18q21 -5 96.5 -4.5t139.5 8.5q33 5 45 19.5t6 48.5q-17 150 -66 366q-13 56 -47 6 q-35 -57 -94.5 -172t-101.5 -209q-15 -32 -10 -45zM668 1440q0 -44 27 -68t75 -24q56 0 97.5 40.5t41.5 98.5q0 39 -28 65.5t-70 26.5q-55 0 -99 -39.5t-44 -99.5z" />
<glyph unicode="&#xc6;" horiz-adv-x="1742" d="M-106 61q0 28 14 47.5t39 16.5q33 -3 74 31.5t94 95.5q229 282 714 932q23 29 27 49t-2.5 26.5t-17.5 6.5q-18 0 -50 -4q-24 -3 -36.5 15t-12.5 46q0 29 15 51t41 21q155 -9 461.5 -8.5t396.5 6.5q51 3 68.5 -15t6.5 -53q-6 -27 -27 -113t-24 -102q-7 -30 -28.5 -45.5 t-47.5 -15.5q-23 0 -37 13t-10 36q18 101 -34.5 133.5t-221.5 32.5q-83 0 -100 -97q-9 -40 -30 -164t-25 -165q-7 -61 33 -66q16 -2 69 -1.5t72 3.5q42 5 62 26.5t30 80.5q4 28 23.5 43.5t42.5 15.5q25 0 40.5 -18t8.5 -50q-24 -122 -54 -327q-6 -40 -26.5 -60t-46.5 -20 q-25 0 -40 16.5t-9 44.5q19 102 -54 111q-20 3 -71 3.5t-68 -1.5q-38 -6 -53 -68q-32 -146 -45 -327q-5 -62 15 -88.5t83 -26.5q57 0 94 6q79 7 143 66.5t97 152.5q23 62 69 62q32 0 49 -31t-1 -78q-41 -101 -99 -272q-16 -37 -59 -39q-95 0 -249 5t-349 5q-34 0 -101 -5 t-81 -5q-27 -3 -41.5 15.5t-14.5 47.5q0 30 15.5 53t38.5 19q54 -9 78.5 9.5t35.5 56.5q7 25 16.5 79t15.5 95l5 41q4 19 -2.5 30t-17.5 13q-78 9 -169.5 8t-150.5 -8q-37 -3 -80 -43q-24 -29 -71.5 -92t-53.5 -70q-49 -68 -33.5 -100t111.5 -21q26 3 40.5 -14.5t14.5 -44.5 q0 -30 -16.5 -52.5t-42.5 -21.5q-226 12 -395 0q-26 -3 -40.5 16.5t-14.5 48.5zM552.5 612q2.5 -13 27.5 -18q75 -13 206 4q34 5 50.5 19t23.5 49q53 265 53 366q2 26 -10 29t-35 -23q-159 -189 -295 -381q-23 -32 -20.5 -45z" />
<glyph unicode="&#xc7;" horiz-adv-x="1259" d="M94 551q0 132 36.5 259.5t107.5 236.5t168.5 192t228 130.5t276.5 47.5q104 0 188 -25.5t137.5 -81t53.5 -134.5q0 -52 -36 -87.5t-91 -35.5q-49 0 -81.5 22.5t-50 54.5t-34.5 64.5t-48.5 55t-78.5 22.5q-91 0 -170 -42.5t-134 -111.5t-94.5 -157t-58 -179.5 t-18.5 -177.5q0 -109 32 -194t86 -136.5t121 -77.5t142 -26q153 0 271 78q11 8 24 8q20 0 31.5 -18t11.5 -45q0 -38 -31 -74q-8 -8 -33.5 -26t-69.5 -44t-105.5 -46t-120.5 -23q-41 -2 -62.5 -17.5t-21.5 -56.5q0 -9 20 -12q56 -9 80.5 -31t24.5 -58q0 -81 -82 -141.5 t-170 -60.5q-31 0 -31 45q0 21 7.5 37.5t17.5 17.5q32 2 59 18t27 48q0 38 -72 38q-39 0 -39 33q0 23 16 56q19 34 19 63q0 24 -23 27q-206 37 -318 190t-112 375z" />
<glyph unicode="&#xc8;" horiz-adv-x="1175" d="M14 63q0 30 15 51t39 17q28 -5 50.5 4t36 27t20.5 35.5t11 35.5q60 297 110 621t48 371q-1 29 -22.5 36t-67.5 1q-25 -3 -39 17.5t-14 49.5t14 48t41 18q117 -8 399 -9.5t428 7.5q96 5 76 -68q-6 -28 -28 -114t-25 -101q-7 -30 -28.5 -45.5t-47.5 -15.5q-23 0 -37 13 t-10 36q21 99 -43.5 132.5t-237.5 33.5q-88 0 -100 -97q-11 -40 -31.5 -164t-23.5 -165q-3 -30 2.5 -46.5t28.5 -19.5q16 -2 83.5 -1.5t86.5 3.5q42 5 62 26.5t30 80.5q4 28 23 43.5t42 15.5q25 0 40 -18t9 -50q-31 -157 -53 -327q-6 -40 -27 -60t-47 -20q-25 0 -41 16.5 t-10 44.5q19 102 -51 111q-22 3 -85.5 3.5t-82.5 -1.5q-42 -6 -51 -68q-41 -256 -47 -327q-6 -61 15 -88t85 -27q83 0 121 6q78 7 143 66.5t97 152.5q10 31 28.5 46.5t38.5 15.5q23 0 40 -18t17 -48q0 -16 -10 -43q-62 -162 -96 -272q-16 -37 -57 -39q-97 0 -276.5 5 t-373.5 5q-34 0 -90.5 -5t-70.5 -5q-28 0 -42 19.5t-14 47.5zM449 1749q0 18 15.5 30.5t43.5 12.5h113q56 0 81 -37q81 -119 146 -186q18 -24 18 -41q0 -19 -15 -29t-36 -10h-33q-46 0 -69 20q-59 57 -244 203q-20 14 -20 37z" />
<glyph unicode="&#xc9;" horiz-adv-x="1175" d="M14 63q0 30 15 51t39 17q28 -5 50.5 4t36 27t20.5 35.5t11 35.5q60 297 110 621t48 371q-1 29 -22.5 36t-67.5 1q-25 -3 -39 17.5t-14 49.5t14 48t41 18q117 -8 399 -9.5t428 7.5q96 5 76 -68q-6 -28 -28 -114t-25 -101q-7 -30 -28.5 -45.5t-47.5 -15.5q-23 0 -37 13 t-10 36q21 99 -43.5 132.5t-237.5 33.5q-88 0 -100 -97q-11 -40 -31.5 -164t-23.5 -165q-3 -30 2.5 -46.5t28.5 -19.5q16 -2 83.5 -1.5t86.5 3.5q42 5 62 26.5t30 80.5q4 28 23 43.5t42 15.5q25 0 40 -18t9 -50q-31 -157 -53 -327q-6 -40 -27 -60t-47 -20q-25 0 -41 16.5 t-10 44.5q19 102 -51 111q-22 3 -85.5 3.5t-82.5 -1.5q-42 -6 -51 -68q-41 -256 -47 -327q-6 -61 15 -88t85 -27q83 0 121 6q78 7 143 66.5t97 152.5q10 31 28.5 46.5t38.5 15.5q23 0 40 -18t17 -48q0 -16 -10 -43q-62 -162 -96 -272q-16 -37 -57 -39q-97 0 -276.5 5 t-373.5 5q-34 0 -90.5 -5t-70.5 -5q-28 0 -42 19.5t-14 47.5zM586 1522q0 24 30 47q28 27 93.5 94t91.5 92q40 37 98 37h139q23 0 36 -10t13 -25q0 -27 -30 -45q-231 -145 -309 -203q-29 -20 -80 -20h-33q-19 0 -34 8.5t-15 24.5z" />
<glyph unicode="&#xca;" horiz-adv-x="1175" d="M14 63q0 30 15 51t39 17q28 -5 50.5 4t36 27t20.5 35.5t11 35.5q60 297 110 621t48 371q-1 29 -22.5 36t-67.5 1q-25 -3 -39 17.5t-14 49.5t14 48t41 18q117 -8 399 -9.5t428 7.5q96 5 76 -68q-6 -28 -28 -114t-25 -101q-7 -30 -28.5 -45.5t-47.5 -15.5q-23 0 -37 13 t-10 36q21 99 -43.5 132.5t-237.5 33.5q-88 0 -100 -97q-11 -40 -31.5 -164t-23.5 -165q-3 -30 2.5 -46.5t28.5 -19.5q16 -2 83.5 -1.5t86.5 3.5q42 5 62 26.5t30 80.5q4 28 23 43.5t42 15.5q25 0 40 -18t9 -50q-31 -157 -53 -327q-6 -40 -27 -60t-47 -20q-25 0 -41 16.5 t-10 44.5q19 102 -51 111q-22 3 -85.5 3.5t-82.5 -1.5q-42 -6 -51 -68q-41 -256 -47 -327q-6 -61 15 -88t85 -27q83 0 121 6q78 7 143 66.5t97 152.5q10 31 28.5 46.5t38.5 15.5q23 0 40 -18t17 -48q0 -16 -10 -43q-62 -162 -96 -272q-16 -37 -57 -39q-97 0 -276.5 5 t-373.5 5q-34 0 -90.5 -5t-70.5 -5q-28 0 -42 19.5t-14 47.5zM438 1526q0 22 19 41q53 45 93 80.5t83 75.5t67 61q29 26 80 26q52 0 72 -26q110 -145 170 -215q10 -10 10 -27q0 -28 -26.5 -43.5t-59.5 -15.5q-31 0 -49 18q-11 11 -30 30.5t-34 34.5t-36 33q-35 35 -88 0 q-26 -18 -47.5 -34t-44 -34t-39.5 -30q-24 -18 -70 -18q-70 0 -70 43z" />
<glyph unicode="&#xcb;" horiz-adv-x="1175" d="M14 63q0 30 15 51t39 17q28 -5 50.5 4t36 27t20.5 35.5t11 35.5q60 297 110 621t48 371q-1 29 -22.5 36t-67.5 1q-25 -3 -39 17.5t-14 49.5t14 48t41 18q117 -8 399 -9.5t428 7.5q96 5 76 -68q-6 -28 -28 -114t-25 -101q-7 -30 -28.5 -45.5t-47.5 -15.5q-23 0 -37 13 t-10 36q21 99 -43.5 132.5t-237.5 33.5q-88 0 -100 -97q-11 -40 -31.5 -164t-23.5 -165q-3 -30 2.5 -46.5t28.5 -19.5q16 -2 83.5 -1.5t86.5 3.5q42 5 62 26.5t30 80.5q4 28 23 43.5t42 15.5q25 0 40 -18t9 -50q-31 -157 -53 -327q-6 -40 -27 -60t-47 -20q-25 0 -41 16.5 t-10 44.5q19 102 -51 111q-22 3 -85.5 3.5t-82.5 -1.5q-42 -6 -51 -68q-41 -256 -47 -327q-6 -61 15 -88t85 -27q83 0 121 6q78 7 143 66.5t97 152.5q10 31 28.5 46.5t38.5 15.5q23 0 40 -18t17 -48q0 -16 -10 -43q-62 -162 -96 -272q-16 -37 -57 -39q-97 0 -276.5 5 t-373.5 5q-34 0 -90.5 -5t-70.5 -5q-28 0 -42 19.5t-14 47.5zM358 1640q0 19 8 41.5t25 46t50.5 39t78.5 15.5q55 0 97 -42t42 -108q0 -62 -40.5 -100.5t-98.5 -38.5q-24 0 -50 7t-52 22.5t-43 46t-17 71.5zM809 1640q0 19 8.5 41.5t26 46t51.5 39t78 15.5q56 0 96.5 -41.5 t40.5 -108.5q0 -63 -40 -101t-97 -38q-25 0 -51 7t-52.5 22.5t-43.5 46t-17 71.5z" />
<glyph unicode="&#xcc;" horiz-adv-x="770" d="M8 66q0 28 13.5 47t37.5 18l46 -2t44.5 14t30.5 47q24 80 94 527.5t68 490.5q-2 31 -25 48t-63 10q-22 -3 -33.5 15.5t-11.5 45.5q0 29 13.5 50t39.5 18q152 -11 440 0q33 1 48.5 -16.5t15.5 -45.5q0 -29 -13.5 -50.5t-33.5 -18.5q-86 14 -101 -58q-15 -47 -83 -479 t-72 -534q-2 -40 18.5 -52.5t81.5 -9.5q25 1 38 -17.5t13 -45.5q0 -30 -14 -51.5t-39 -20.5q-272 17 -491 0q-29 -3 -45.5 18.5t-16.5 51.5zM233 1749q0 18 16 30.5t44 12.5h113q56 0 81 -37q81 -119 146 -186q18 -24 18 -41q0 -19 -15 -29t-36 -10h-33q-47 0 -69 20 q-59 57 -244 203q-21 15 -21 37z" />
<glyph unicode="&#xcd;" horiz-adv-x="770" d="M8 66q0 28 13.5 47t37.5 18l46 -2t44.5 14t30.5 47q24 80 94 527.5t68 490.5q-2 31 -25 48t-63 10q-22 -3 -33.5 15.5t-11.5 45.5q0 29 13.5 50t39.5 18q152 -11 440 0q33 1 48.5 -16.5t15.5 -45.5q0 -29 -13.5 -50.5t-33.5 -18.5q-86 14 -101 -58q-15 -47 -83 -479 t-72 -534q-2 -40 18.5 -52.5t81.5 -9.5q25 1 38 -17.5t13 -45.5q0 -30 -14 -51.5t-39 -20.5q-272 17 -491 0q-29 -3 -45.5 18.5t-16.5 51.5zM383 1522q0 23 31 47q28 27 93 94t91 92q40 37 98 37h140q23 0 36 -10t13 -25q0 -26 -31 -45q-231 -145 -309 -203q-29 -20 -80 -20 h-33q-19 0 -34 8.5t-15 24.5z" />
<glyph unicode="&#xce;" horiz-adv-x="770" d="M8 66q0 28 13.5 47t37.5 18l46 -2t44.5 14t30.5 47q24 80 94 527.5t68 490.5q-2 31 -25 48t-63 10q-22 -3 -33.5 15.5t-11.5 45.5q0 29 13.5 50t39.5 18q152 -11 440 0q33 1 48.5 -16.5t15.5 -45.5q0 -29 -13.5 -50.5t-33.5 -18.5q-86 14 -101 -58q-15 -47 -83 -479 t-72 -534q-2 -40 18.5 -52.5t81.5 -9.5q25 1 38 -17.5t13 -45.5q0 -30 -14 -51.5t-39 -20.5q-272 17 -491 0q-29 -3 -45.5 18.5t-16.5 51.5zM238 1526q0 23 18 41q54 45 93 79.5t84.5 76.5t66.5 61q29 26 80 26q52 0 71 -26q110 -145 170 -215q10 -10 10 -27 q0 -28 -26.5 -43.5t-59.5 -15.5q-31 0 -49 18q-11 11 -30 30.5t-34 34.5t-36 33q-35 35 -88 0q-26 -18 -47.5 -34t-44 -34t-39.5 -30q-24 -18 -70 -18q-69 0 -69 43z" />
<glyph unicode="&#xcf;" horiz-adv-x="770" d="M8 66q0 28 13.5 47t37.5 18l46 -2t44.5 14t30.5 47q24 80 94 527.5t68 490.5q-2 31 -25 48t-63 10q-22 -3 -33.5 15.5t-11.5 45.5q0 29 13.5 50t39.5 18q152 -11 440 0q33 1 48.5 -16.5t15.5 -45.5q0 -29 -13.5 -50.5t-33.5 -18.5q-86 14 -101 -58q-15 -47 -83 -479 t-72 -534q-2 -40 18.5 -52.5t81.5 -9.5q25 1 38 -17.5t13 -45.5q0 -30 -14 -51.5t-39 -20.5q-272 17 -491 0q-29 -3 -45.5 18.5t-16.5 51.5zM158 1640q0 19 8 41.5t24.5 46t50 39t78.5 15.5q55 0 97.5 -42t42.5 -108q0 -62 -41 -100.5t-99 -38.5q-19 0 -39 4t-42.5 14.5 t-39.5 26.5t-28.5 42.5t-11.5 59.5zM608 1640q0 19 8.5 41.5t26 46t51.5 39t78 15.5q56 0 96.5 -41.5t40.5 -108.5q0 -63 -40 -101t-97 -38q-25 0 -51 7t-52.5 22.5t-43.5 46t-17 71.5z" />
<glyph unicode="&#xd0;" horiz-adv-x="1445" d="M8 63q0 28 15 49t38 17q46 -6 70.5 10t38.5 70q41 138 76 375q4 12 1 19.5t-3 11.5t-6.5 6t-8 2h-8.5l-71 -5q-22 -1 -33 15t-11 41q0 29 12 53.5t29 24.5h93q7 0 11 1t10.5 4.5t11.5 13.5t8 26q49 309 49 407q1 22 -1.5 34.5t-12.5 18t-17 7t-26.5 1.5t-28.5 1 q-19 0 -30 17t-11 42q0 27 13.5 46.5t39.5 19.5h465q117 0 217 -20t182 -62.5t139.5 -105t89 -150t31.5 -195.5q0 -176 -55 -331t-156.5 -273t-258.5 -186.5t-349 -67.5h-495q-28 -1 -43 17.5t-15 45.5zM468.5 243q-1.5 -29 8.5 -49.5t21 -33t31.5 -19.5t40.5 -9.5t48 -2.5 q99 0 180 49t132 125.5t86.5 176t50 195t14.5 187.5q0 400 -354 400q-60 0 -85 -20.5t-36 -74.5q-16 -61 -63 -364q-6 -25 -1 -36t9.5 -13t15.5 -2q119 0 246 10q18 0 27.5 -18t9.5 -44q0 -30 -12.5 -52.5t-34.5 -22.5q-34 -1 -114.5 1.5t-133.5 2.5q-11 0 -18 -1 t-15.5 -10.5t-11.5 -27.5l-37 -277q-3 -41 -4.5 -70z" />
<glyph unicode="&#xd1;" horiz-adv-x="1458" d="M16 61q0 29 15.5 50t42.5 20q27 -2 47.5 8t33.5 25.5t24.5 45.5t17.5 55t14 67q30 167 104 682q18 133 5 192t-58 54q-25 -3 -41 17t-16 48q0 29 18.5 49.5t52.5 16.5q48 -7 254 0q23 1 44 -20.5t31.5 -43t25.5 -57.5q3 -7 4 -10q113 -267 393 -717q6 -11 17 -15t21.5 4 t14.5 29q18 87 46 277t34 266q9 102 -10.5 132.5t-101.5 29.5q-23 -1 -37.5 18.5t-14.5 46.5t15.5 45.5t44.5 18.5q180 -7 364 0q32 1 48 -17t16 -45q0 -26 -14.5 -46.5t-36.5 -20.5q-52 0 -73 -37t-40 -135q-96 -527 -166 -1074q-4 -22 -37.5 -34.5t-75.5 -12.5 q-29 0 -52 7.5t-29 19.5q-90 200 -236 481t-236 434q-5 9 -11.5 14.5t-13.5 8t-13.5 -6.5t-10.5 -30q-19 -117 -46.5 -318.5t-31.5 -260.5q-9 -81 -5 -125.5t28 -58.5t86 -7q30 4 45.5 -16.5t15.5 -51.5q0 -28 -13.5 -48t-35.5 -19q-172 15 -420 0q-22 -1 -34.5 18t-12.5 47 zM559 1550q0 22 15 59.5t42 79.5t73 72t99 31q41 0 84 -20.5t72 -45t59 -45t48 -20.5t32 16.5t22 36.5t26.5 36.5t44.5 16.5q25 0 44 -11.5t19 -26.5q0 -21 -15.5 -58.5t-42.5 -79.5t-72.5 -72t-96.5 -30q-42 0 -85.5 20.5t-72 45t-55.5 45t-41 20.5q-20 0 -36 -17 t-26 -37.5t-29.5 -37.5t-45.5 -17q-23 0 -42.5 12t-19.5 27z" />
<glyph unicode="&#xd2;" horiz-adv-x="1480" d="M98 537q0 106 23 211.5t66 203.5t110 182.5t150 147.5t191 99t228 36q262 0 405.5 -143.5t143.5 -401.5q0 -187 -60.5 -354t-164 -286.5t-247.5 -189t-306 -69.5q-258 0 -398.5 150.5t-140.5 413.5zM391 602q0 -219 87.5 -348t226.5 -129q119 0 214.5 93t147 249.5 t51.5 343.5q0 215 -86.5 336t-226.5 121q-89 0 -162 -45t-118.5 -115.5t-77 -161t-44 -176.5t-12.5 -168zM657 1749q0 18 16 30.5t44 12.5h112q57 0 82 -37q81 -119 146 -186q18 -24 18 -41q0 -19 -15 -29t-36 -10h-33q-47 0 -69 20q-59 57 -244 203q-21 15 -21 37z" />
<glyph unicode="&#xd3;" horiz-adv-x="1480" d="M98 537q0 106 23 211.5t66 203.5t110 182.5t150 147.5t191 99t228 36q262 0 405.5 -143.5t143.5 -401.5q0 -187 -60.5 -354t-164 -286.5t-247.5 -189t-306 -69.5q-258 0 -398.5 150.5t-140.5 413.5zM391 602q0 -219 87.5 -348t226.5 -129q119 0 214.5 93t147 249.5 t51.5 343.5q0 215 -86.5 336t-226.5 121q-89 0 -162 -45t-118.5 -115.5t-77 -161t-44 -176.5t-12.5 -168zM725 1522q0 23 31 47q28 27 93 94t91 92q40 37 98 37h140q23 0 36 -10t13 -25q0 -26 -31 -45q-231 -145 -309 -203q-29 -20 -80 -20h-33q-19 0 -34 8.5t-15 24.5z" />
<glyph unicode="&#xd4;" horiz-adv-x="1480" d="M98 537q0 106 23 211.5t66 203.5t110 182.5t150 147.5t191 99t228 36q262 0 405.5 -143.5t143.5 -401.5q0 -187 -60.5 -354t-164 -286.5t-247.5 -189t-306 -69.5q-258 0 -398.5 150.5t-140.5 413.5zM391 602q0 -219 87.5 -348t226.5 -129q119 0 214.5 93t147 249.5 t51.5 343.5q0 215 -86.5 336t-226.5 121q-89 0 -162 -45t-118.5 -115.5t-77 -161t-44 -176.5t-12.5 -168zM600 1526q0 23 18 41q54 45 93 79.5t84.5 76.5t66.5 61q29 26 80 26q52 0 72 -26q110 -145 170 -215q10 -10 10 -27q0 -28 -26.5 -43.5t-59.5 -15.5q-31 0 -49 18 q-10 10 -24.5 25t-23 23.5t-22.5 22t-31 27.5q-35 35 -88 0q-26 -18 -47.5 -34t-44 -34t-39.5 -30q-24 -18 -69 -18q-70 0 -70 43z" />
<glyph unicode="&#xd5;" horiz-adv-x="1480" d="M98 537q0 106 23 211.5t66 203.5t110 182.5t150 147.5t191 99t228 36q262 0 405.5 -143.5t143.5 -401.5q0 -187 -60.5 -354t-164 -286.5t-247.5 -189t-306 -69.5q-258 0 -398.5 150.5t-140.5 413.5zM391 602q0 -219 87.5 -348t226.5 -129q119 0 214.5 93t147 249.5 t51.5 343.5q0 215 -86.5 336t-226.5 121q-89 0 -162 -45t-118.5 -115.5t-77 -161t-44 -176.5t-12.5 -168zM573 1550q0 17 9 45t28.5 62t45.5 64t65 50t82 21q41 0 83.5 -20.5t71.5 -45t59 -45t48 -20.5t32 16.5t22 36.5t26.5 36.5t44.5 16.5q25 0 44 -11.5t19 -26.5 q0 -21 -15.5 -58.5t-42.5 -79.5t-72.5 -72t-96.5 -30q-42 0 -85.5 20.5t-72 45t-55.5 45t-41 20.5q-20 0 -36 -17t-26 -37.5t-29.5 -37.5t-45.5 -17q-23 0 -42.5 12t-19.5 27z" />
<glyph unicode="&#xd6;" horiz-adv-x="1480" d="M98 537q0 106 23 211.5t66 203.5t110 182.5t150 147.5t191 99t228 36q262 0 405.5 -143.5t143.5 -401.5q0 -187 -60.5 -354t-164 -286.5t-247.5 -189t-306 -69.5q-258 0 -398.5 150.5t-140.5 413.5zM391 602q0 -219 87.5 -348t226.5 -129q119 0 214.5 93t147 249.5 t51.5 343.5q0 215 -86.5 336t-226.5 121q-89 0 -162 -45t-118.5 -115.5t-77 -161t-44 -176.5t-12.5 -168zM535 1640q0 19 8 41.5t24.5 46t50 39t78.5 15.5q55 0 97.5 -42t42.5 -108q0 -62 -41 -100.5t-99 -38.5q-19 0 -39 4t-42.5 14.5t-39.5 26.5t-28.5 42.5t-11.5 59.5z M985 1640q0 19 8.5 41.5t26 46t51.5 39t78 15.5q56 0 96.5 -41.5t40.5 -108.5q0 -63 -40 -101t-97 -38q-25 0 -51 7t-52.5 22.5t-43.5 46t-17 71.5z" />
<glyph unicode="&#xd7;" horiz-adv-x="1228" d="M297 278q-6 35 12 56q4 6 34 39.5t71.5 80.5t68.5 81q9 10 13 19.5t5.5 15t-1.5 13.5t-4.5 11t-9 12t-9.5 12q-17 20 -82.5 93.5t-87.5 101.5q-40 47 -9 104q23 42 61 51q31 6 49 -16q19 -27 77.5 -98.5t98.5 -116.5q36 -45 61 -14q113 129 168 221q28 42 74 26 q39 -13 53 -54q15 -47 -20 -93q-33 -38 -179 -211q-11 -17 -12.5 -29t1 -17.5t13.5 -20.5q32 -35 96.5 -108t73.5 -83q35 -40 9 -97q-21 -44 -58 -54q-32 -10 -55 20q-15 19 -74.5 91.5t-81.5 99.5q-18 21 -32 25t-22.5 -1.5t-23.5 -21.5q-70 -80 -155 -189q-34 -48 -78 -19 q-36 24 -45 70z" />
<glyph unicode="&#xd8;" horiz-adv-x="1480" d="M113 709q50 315 258 511.5t495 196.5q113 0 217 -33q15 -9 35 -8t33 21l23 35q27 45 81 39q42 -5 55 -32q9 -19 -5 -38l-41 -58q-15 -20 -14 -37t6.5 -22t17.5 -16q185 -188 127 -559q-34 -211 -139.5 -378t-268.5 -262.5t-356 -95.5q-184 0 -272 60q-14 6 -26.5 1 t-20.5 -14l-9 -10q-29 -43 -61 -64.5t-60 -2.5q-17 11 -18.5 34.5t7 44t18.5 31.5l22 31q25 31 0 68q-160 198 -104 557zM401 467q6 -38 20.5 -63.5t33.5 -0.5q213 276 503 711q18 25 22 47.5t0 33t-11 17.5q-78 56 -164 56q-149 0 -255.5 -130t-141.5 -354 q-29 -174 -7 -317zM499 262q-5 -25 3 -39q76 -98 203 -98q149 0 256.5 141t142.5 363q39 243 -17 407q-16 41 -59 -14q-384 -522 -508 -711q-16 -24 -21 -49z" />
<glyph unicode="&#xd9;" horiz-adv-x="1392" d="M172 1329q0 29 14 49t39 17q51 -5 103.5 -7t107.5 -1t90 2t92 3t72 3q29 1 43.5 -16.5t14.5 -43.5q0 -28 -16 -50t-38 -19q-91 10 -112 -68q-72 -368 -103 -635q-8 -63 -8 -133q0 -135 52 -207.5t175 -72.5q139 0 214.5 98.5t113.5 312.5q12 63 22 114.5t19.5 113.5 t14 90.5t17 115t17.5 117.5q13 84 -11.5 119.5t-109.5 32.5q-23 -1 -36 18.5t-13 46.5q0 29 15.5 49t42.5 17q143 -13 382 0q32 1 48 -17t16 -45q0 -28 -14.5 -49t-36.5 -20q-55 1 -82 -38t-39 -108q-24 -121 -56 -322t-38 -237q-94 -586 -590 -586q-193 0 -298.5 107 t-105.5 321q0 56 15 170q8 59 98 625q6 39 -16.5 58t-63.5 14q-23 -3 -37 15.5t-14 45.5zM584 1749q0 18 15.5 30.5t43.5 12.5h113q57 0 82 -37q84 -122 145 -186q18 -24 18 -41q0 -19 -15 -29t-36 -10h-32q-48 0 -70 20q-59 57 -244 203q-20 14 -20 37z" />
<glyph unicode="&#xda;" horiz-adv-x="1392" d="M172 1329q0 29 14 49t39 17q51 -5 103.5 -7t107.5 -1t90 2t92 3t72 3q29 1 43.5 -16.5t14.5 -43.5q0 -28 -16 -50t-38 -19q-91 10 -112 -68q-72 -368 -103 -635q-8 -63 -8 -133q0 -135 52 -207.5t175 -72.5q139 0 214.5 98.5t113.5 312.5q12 63 22 114.5t19.5 113.5 t14 90.5t17 115t17.5 117.5q13 84 -11.5 119.5t-109.5 32.5q-23 -1 -36 18.5t-13 46.5q0 29 15.5 49t42.5 17q143 -13 382 0q32 1 48 -17t16 -45q0 -28 -14.5 -49t-36.5 -20q-55 1 -82 -38t-39 -108q-24 -121 -56 -322t-38 -237q-94 -586 -590 -586q-193 0 -298.5 107 t-105.5 321q0 56 15 170q8 59 98 625q6 39 -16.5 58t-63.5 14q-23 -3 -37 15.5t-14 45.5zM731 1522q0 23 31 47q28 27 93 94t91 92q40 37 98 37h140q23 0 36 -10t13 -25q0 -26 -31 -45q-231 -145 -309 -203q-29 -20 -80 -20h-33q-19 0 -34 8.5t-15 24.5z" />
<glyph unicode="&#xdb;" horiz-adv-x="1392" d="M172 1329q0 29 14 49t39 17q51 -5 103.5 -7t107.5 -1t90 2t92 3t72 3q29 1 43.5 -16.5t14.5 -43.5q0 -28 -16 -50t-38 -19q-91 10 -112 -68q-72 -368 -103 -635q-8 -63 -8 -133q0 -135 52 -207.5t175 -72.5q139 0 214.5 98.5t113.5 312.5q12 63 22 114.5t19.5 113.5 t14 90.5t17 115t17.5 117.5q13 84 -11.5 119.5t-109.5 32.5q-23 -1 -36 18.5t-13 46.5q0 29 15.5 49t42.5 17q143 -13 382 0q32 1 48 -17t16 -45q0 -28 -14.5 -49t-36.5 -20q-55 1 -82 -38t-39 -108q-24 -121 -56 -322t-38 -237q-94 -586 -590 -586q-193 0 -298.5 107 t-105.5 321q0 56 15 170q8 59 98 625q6 39 -16.5 58t-63.5 14q-23 -3 -37 15.5t-14 45.5zM578 1526q0 23 18 41q54 45 93 79.5t84.5 76.5t66.5 61q29 26 80 26q52 0 71 -26q110 -145 170 -215q10 -10 10 -27q0 -28 -26.5 -43.5t-59.5 -15.5q-31 0 -49 18q-11 11 -30 30.5 t-34 34.5t-36 33q-35 35 -88 0q-26 -18 -47.5 -34t-44 -34t-39.5 -30q-24 -18 -70 -18q-69 0 -69 43z" />
<glyph unicode="&#xdc;" horiz-adv-x="1392" d="M172 1329q0 29 14 49t39 17q51 -5 103.5 -7t107.5 -1t90 2t92 3t72 3q29 1 43.5 -16.5t14.5 -43.5q0 -28 -16 -50t-38 -19q-91 10 -112 -68q-72 -368 -103 -635q-8 -63 -8 -133q0 -135 52 -207.5t175 -72.5q139 0 214.5 98.5t113.5 312.5q12 63 22 114.5t19.5 113.5 t14 90.5t17 115t17.5 117.5q13 84 -11.5 119.5t-109.5 32.5q-23 -1 -36 18.5t-13 46.5q0 29 15.5 49t42.5 17q143 -13 382 0q32 1 48 -17t16 -45q0 -28 -14.5 -49t-36.5 -20q-55 1 -82 -38t-39 -108q-24 -121 -56 -322t-38 -237q-94 -586 -590 -586q-193 0 -298.5 107 t-105.5 321q0 56 15 170q8 59 98 625q6 39 -16.5 58t-63.5 14q-23 -3 -37 15.5t-14 45.5zM504 1640q0 19 8 41.5t25 46t50.5 39t78.5 15.5q55 0 97 -42t42 -108q0 -62 -40.5 -100.5t-98.5 -38.5q-24 0 -50 7t-52 22.5t-43 46t-17 71.5zM954 1640q0 19 8.5 41.5t26 46 t51.5 39t78 15.5q56 0 96.5 -41.5t40.5 -108.5q0 -63 -40 -101t-97 -38q-25 0 -51 7t-52.5 22.5t-43.5 46t-17 71.5z" />
<glyph unicode="&#xdd;" horiz-adv-x="1200" d="M106 1333q0 27 14 46t40 16q152 -16 444 0q32 1 48 -17t16 -45q0 -28 -14 -50t-33 -19q-51 6 -73.5 -23.5t-10.5 -75.5q47 -170 112 -295q27 -52 68 2q45 52 110 139t103 150q18 31 20.5 56.5t-17.5 40t-63 8.5q-23 -3 -38 18t-15 49q0 27 13 44.5t38 17.5q259 -11 410 0 q32 1 47.5 -16t15.5 -44q0 -28 -15.5 -49t-39.5 -20q-36 2 -72 -18t-54.5 -39t-41.5 -48q-80 -91 -205.5 -265.5t-150.5 -236.5q-17 -38 -43 -197t-31 -253q-5 -46 19.5 -65.5t85.5 -12.5q28 3 42.5 -15.5t14.5 -47.5q0 -30 -16 -52.5t-43 -19.5q-93 8 -248.5 7.5 t-268.5 -9.5q-30 -3 -46.5 18t-16.5 51q0 28 14 48.5t39 19.5q25 0 51 -1t51 15t33 50q20 76 42.5 228.5t19.5 192.5q-17 75 -94.5 277.5t-112.5 275.5q-11 26 -17.5 39t-18.5 29.5t-26.5 23t-33.5 5.5q-24 -1 -38 19t-14 48zM606 1522q0 23 31 47q28 27 93 94t91 92 q40 37 99 37h139q23 0 36 -10t13 -25q0 -26 -31 -45q-231 -145 -309 -203q-29 -20 -80 -20h-33q-19 0 -34 8.5t-15 24.5z" />
<glyph unicode="&#xde;" horiz-adv-x="1120" d="M35 61q0 29 12.5 50t34.5 20q6 0 22 -2t24.5 -1t20.5 6.5t20 22.5t13 44q40 190 89 531t57 476q2 30 -22 47.5t-64 10.5q-22 -3 -34.5 15.5t-12.5 45.5q0 29 14.5 50t40.5 18q233 -17 457 0q32 0 47.5 -18.5t15.5 -45.5t-13.5 -47.5t-33.5 -19.5q-13 0 -37 2t-33 2 q-18 0 -31 -18t-16 -44q-6 -34 14 -48.5t66 -14.5q81 0 149.5 -16.5t127.5 -52t93 -100t34 -151.5q0 -140 -62 -262t-180 -198t-266 -76q-26 0 -36 12t-7 43q3 27 16 43t43 23q77 20 129 84t73 141.5t21 165.5q0 104 -46.5 163.5t-145.5 53.5q-37 -1 -52 -22.5t-24 -65.5 q-68 -331 -109 -727q-1 -15 0 -26.5t5 -18.5t7 -11.5t10.5 -7t11 -3.5t13.5 -2t13 -1q6 -3 23 -1.5t24 1.5q23 0 35 -19t12 -46q0 -29 -13 -50t-36 -20q-248 16 -463 0q-25 -1 -38 18t-13 47z" />
<glyph unicode="&#xdf;" horiz-adv-x="1196" d="M-197 -283q0 43 27 66.5t59 23.5q33 0 62 -18.5t52 -36.5t40 -18q30 0 46.5 19t23.5 65q27 187 58 501.5t42 464.5q3 58 -41 58q-12 0 -42 -1t-38 -1q-24 0 -37.5 17.5t-13.5 37.5q0 26 20.5 48t49.5 22q40 0 73.5 15.5t58 44.5t41 53.5t35.5 61.5t27 50q31 51 62 93.5 t79 90t99.5 79.5t122.5 53.5t149 21.5q156 0 246 -64.5t90 -167.5q0 -58 -29.5 -110.5t-73 -89.5t-95 -73.5t-95 -64.5t-73 -60t-29.5 -62q0 -41 32.5 -95t79.5 -109t93.5 -114t79 -129t32.5 -135q0 -129 -109 -207t-270 -78q-82 0 -132 19.5t-50 60.5q0 26 16 40.5t43 14.5 q20 0 67.5 -12t63.5 -12q42 0 65.5 22t23.5 64q0 48 -26 109t-63.5 119t-75 115.5t-63.5 116t-26 103.5q0 66 35 125t84.5 102t99 84t84.5 87t35 94q0 70 -44 116.5t-120 46.5q-128 0 -196.5 -140.5t-96.5 -444.5q-12 -122 -33 -465t-31 -418q-9 -66 -41 -123t-75.5 -95 t-95.5 -65t-101.5 -39t-93.5 -12q-54 0 -93.5 15t-58.5 38t-27 43.5t-8 38.5z" />
<glyph unicode="&#xe0;" d="M23 270q0 114 45 235t122 221.5t191 165t240 64.5q21 0 53.5 15.5t44.5 15.5q32 0 92 -34t55 -62q-27 -137 -59.5 -344.5t-36.5 -341.5q-2 -34 7 -44t34 -3q13 4 30 10t27 9t17 3q19 0 33 -19.5t14 -41.5q0 -12 -8 -23q-15 -20 -109 -73.5t-147 -53.5q-111 0 -111 131 q0 11 0.5 25t1.5 23t1 17.5t-2 12.5t-5 4q-6 0 -11.5 -3.5t-12 -11.5t-7.5 -9q-44 -71 -120 -130t-162 -59q-110 0 -163.5 87t-53.5 214zM283 324q0 -75 19.5 -114.5t51.5 -39.5q42 0 82.5 45.5t68 112t49.5 140t32.5 130t11.5 82.5q0 127 -90 127q-35 0 -75.5 -42.5 t-73 -108.5t-54.5 -155.5t-22 -176.5zM473 1438q0 35 43 35q3 0 60.5 1t76.5 1q14 0 20.5 -7.5t10.5 -31.5q52 -191 78 -246q20 -46 20 -51q0 -22 -26 -37t-56 -15q-28 0 -38 17q-62 116 -177 297q-12 21 -12 37z" />
<glyph unicode="&#xe1;" d="M23 270q0 114 45 235t122 221.5t191 165t240 64.5q21 0 53.5 15.5t44.5 15.5q32 0 92 -34t55 -62q-27 -137 -59.5 -344.5t-36.5 -341.5q-2 -34 7 -44t34 -3q13 4 30 10t27 9t17 3q19 0 33 -19.5t14 -41.5q0 -12 -8 -23q-15 -20 -109 -73.5t-147 -53.5q-111 0 -111 131 q0 11 0.5 25t1.5 23t1 17.5t-2 12.5t-5 4q-6 0 -11.5 -3.5t-12 -11.5t-7.5 -9q-44 -71 -120 -130t-162 -59q-110 0 -163.5 87t-53.5 214zM283 324q0 -75 19.5 -114.5t51.5 -39.5q42 0 82.5 45.5t68 112t49.5 140t32.5 130t11.5 82.5q0 127 -90 127q-35 0 -75.5 -42.5 t-73 -108.5t-54.5 -155.5t-22 -176.5zM500 1135q0 9 6 18q121 165 184 283q24 39 55 39q19 0 87 -1t71 -1q35 0 35 -27q0 -19 -23 -45q-3 -4 -61.5 -65.5t-111 -120t-95.5 -111.5q-14 -14 -53 -14q-37 0 -65.5 12t-28.5 33z" />
<glyph unicode="&#xe2;" d="M23 270q0 114 45 235t122 221.5t191 165t240 64.5q21 0 53.5 15.5t44.5 15.5q32 0 92 -34t55 -62q-27 -137 -59.5 -344.5t-36.5 -341.5q-2 -34 7 -44t34 -3q13 4 30 10t27 9t17 3q19 0 33 -19.5t14 -41.5q0 -12 -8 -23q-15 -20 -109 -73.5t-147 -53.5q-111 0 -111 131 q0 11 0.5 25t1.5 23t1 17.5t-2 12.5t-5 4q-6 0 -11.5 -3.5t-12 -11.5t-7.5 -9q-44 -71 -120 -130t-162 -59q-110 0 -163.5 87t-53.5 214zM283 324q0 -75 19.5 -114.5t51.5 -39.5q42 0 82.5 45.5t68 112t49.5 140t32.5 130t11.5 82.5q0 127 -90 127q-35 0 -75.5 -42.5 t-73 -108.5t-54.5 -155.5t-22 -176.5zM371 1135q0 14 10 24q83 102 209 293q21 27 74 27q51 0 57 -25q73 -205 115 -295q4 -8 4 -14q0 -22 -25 -40t-51 -18q-30 0 -41 23q-42 90 -76 137q-17 23 -37 0q-50 -50 -127 -141q-16 -19 -47 -19q-25 0 -45 14t-20 34z" />
<glyph unicode="&#xe3;" d="M23 270q0 114 45 235t122 221.5t191 165t240 64.5q21 0 53.5 15.5t44.5 15.5q32 0 92 -34t55 -62q-27 -137 -59.5 -344.5t-36.5 -341.5q-2 -34 7 -44t34 -3q13 4 30 10t27 9t17 3q19 0 33 -19.5t14 -41.5q0 -12 -8 -23q-15 -20 -109 -73.5t-147 -53.5q-111 0 -111 131 q0 11 0.5 25t1.5 23t1 17.5t-2 12.5t-5 4q-6 0 -11.5 -3.5t-12 -11.5t-7.5 -9q-44 -71 -120 -130t-162 -59q-110 0 -163.5 87t-53.5 214zM283 324q0 -75 19.5 -114.5t51.5 -39.5q42 0 82.5 45.5t68 112t49.5 140t32.5 130t11.5 82.5q0 127 -90 127q-35 0 -75.5 -42.5 t-73 -108.5t-54.5 -155.5t-22 -176.5zM334 1190q0 20 14.5 57.5t40 79t69 72t91.5 31.5q38 0 78 -20.5t67 -45.5t54 -45.5t43 -20.5q15 0 28 16.5t21 37t26 37t43 16.5q22 0 39 -11t17 -28q0 -15 -8.5 -42.5t-27 -61.5t-43 -64t-61 -50t-75.5 -20q-38 0 -78 20.5t-66.5 45.5 t-53 45.5t-42.5 20.5q-15 0 -28.5 -17t-22.5 -37.5t-27.5 -37.5t-42.5 -17q-22 0 -38.5 11t-16.5 28z" />
<glyph unicode="&#xe4;" d="M23 270q0 114 45 235t122 221.5t191 165t240 64.5q21 0 53.5 15.5t44.5 15.5q32 0 92 -34t55 -62q-27 -137 -59.5 -344.5t-36.5 -341.5q-2 -34 7 -44t34 -3q13 4 30 10t27 9t17 3q19 0 33 -19.5t14 -41.5q0 -12 -8 -23q-15 -20 -109 -73.5t-147 -53.5q-111 0 -111 131 q0 11 0.5 25t1.5 23t1 17.5t-2 12.5t-5 4q-6 0 -11.5 -3.5t-12 -11.5t-7.5 -9q-44 -71 -120 -130t-162 -59q-110 0 -163.5 87t-53.5 214zM283 324q0 -75 19.5 -114.5t51.5 -39.5q42 0 82.5 45.5t68 112t49.5 140t32.5 130t11.5 82.5q0 127 -90 127q-35 0 -75.5 -42.5 t-73 -108.5t-54.5 -155.5t-22 -176.5zM354 1280q1 18 7.5 37.5t20.5 42t44 37t70 14.5q51 0 91 -39t40 -102q0 -58 -39.5 -93.5t-93.5 -35.5q-21 0 -43 6.5t-44.5 21t-37 43.5t-15.5 68zM694 1280q1 17 8.5 37t23.5 42.5t47 37t71 14.5q49 0 86 -39t37 -102 q0 -58 -36.5 -93.5t-90.5 -35.5q-22 0 -44.5 6.5t-46.5 21t-39 43.5t-16 68z" />
<glyph unicode="&#xe5;" d="M23 270q0 114 45 235t122 221.5t191 165t240 64.5q21 0 53.5 15.5t44.5 15.5q32 0 92 -34t55 -62q-27 -137 -59.5 -344.5t-36.5 -341.5q-2 -34 7 -44t34 -3q13 4 30 10t27 9t17 3q19 0 33 -19.5t14 -41.5q0 -12 -8 -23q-15 -20 -109 -73.5t-147 -53.5q-111 0 -111 131 q0 11 0.5 25t1.5 23t1 17.5t-2 12.5t-5 4q-6 0 -11.5 -3.5t-12 -11.5t-7.5 -9q-44 -71 -120 -130t-162 -59q-110 0 -163.5 87t-53.5 214zM283 324q0 -75 19.5 -114.5t51.5 -39.5q42 0 82.5 45.5t68 112t49.5 140t32.5 130t11.5 82.5q0 127 -90 127q-35 0 -75.5 -42.5 t-73 -108.5t-54.5 -155.5t-22 -176.5zM434 1251q0 104 72 187.5t174 83.5q85 0 137.5 -52t52.5 -129q0 -103 -69 -184.5t-172 -81.5q-87 0 -141 47t-54 129zM541 1276q0 -42 25 -67t65 -25q53 0 93 41t40 96q0 39 -26.5 65.5t-65.5 26.5q-53 0 -92 -39.5t-39 -97.5z" />
<glyph unicode="&#xe6;" horiz-adv-x="1372" d="M4 182q0 71 34 128t85.5 90t115.5 61t121 43t106 33.5t66 35.5q21 24 29 72q12 87 -9 131.5t-71 44.5q-41 0 -77.5 -17.5t-49.5 -45.5q-7 -14 -6.5 -45t-1.5 -51q-7 -42 -39.5 -71.5t-89.5 -29.5q-52 0 -79 29t-27 74q0 67 48 126.5t119.5 97t150 59.5t144.5 22 q56 0 95 -23.5t77 -77.5q11 -16 17.5 -17t25.5 13q58 54 114 81.5t132 27.5q123 0 185.5 -57t62.5 -128q0 -37 -13.5 -71.5t-33.5 -61t-52 -52.5t-58.5 -43t-65 -35.5t-59.5 -27.5t-54 -21.5t-37 -14.5q-52 -22 -76 -55.5t-24 -88.5q0 -91 52.5 -133.5t115.5 -42.5 q38 0 78.5 21t67.5 45.5t54 45.5t42 21q24 0 40.5 -17.5t18.5 -31.5q4 -22 -12 -47q-23 -34 -56 -67.5t-78.5 -67t-105 -54t-121.5 -20.5q-29 0 -56.5 4t-49 9t-42.5 15t-35.5 17.5t-30.5 21t-25 21.5t-21 22.5t-16 20t-13 19t-10 14.5q-13 21 -28 6q-27 -28 -44 -43.5 t-51.5 -41t-67.5 -39t-82.5 -24.5t-105.5 -11q-110 0 -166.5 56t-56.5 146zM258 231q0 -41 22 -71.5t68 -30.5q49 0 89.5 46.5t59.5 102.5t19 101q0 8 -0.5 12t-2 12t-6.5 11t-13 2q-38 -7 -74.5 -19.5t-75.5 -34t-62.5 -55.5t-23.5 -76zM848 600q0 -25 14 -25q32 0 87 29 t100 75.5t45 86.5q0 35 -21 60.5t-57 25.5q-64 0 -116 -91.5t-52 -160.5z" />
<glyph unicode="&#xe7;" horiz-adv-x="841" d="M41 360q0 121 37.5 232.5t103.5 195.5t164.5 134.5t212.5 50.5q125 0 207 -49q18 -13 18 -111q0 -59 -8.5 -89.5t-20.5 -38t-34 -7.5q-52 0 -57 18q-7 32 -10 45.5t-11.5 36.5t-19 32.5t-28.5 17.5t-42 8q-95 0 -168.5 -119.5t-73.5 -280.5q0 -48 7 -93t24 -91t51 -74 t82 -28q33 0 66.5 20t55 44.5t42.5 44.5t33 20q30 0 57.5 -21t18.5 -41q-6 -15 -21.5 -40t-44.5 -62.5t-77.5 -71.5t-104.5 -51q-73 -24 -90 -55q-13 -23 -13 -31q0 -9 19 -12q64 -10 87 -37t15 -76q-9 -62 -81.5 -116.5t-166.5 -61.5q-22 -2 -29.5 22.5t0 50.5t21.5 27 q79 6 86 59q4 24 -17 34.5t-55 10.5q-27 0 -37 15t5 53q1 4 37 53q14 17 14 31q0 17 -33 27q-110 35 -165.5 136t-55.5 238z" />
<glyph unicode="&#xe8;" horiz-adv-x="864" d="M41 379q1 86 22.5 171.5t63.5 161t98 134t132 93t159 34.5q129 0 193.5 -56.5t64.5 -128.5q0 -37 -13.5 -71.5t-33 -60.5t-51.5 -52.5t-58 -43.5t-65 -36t-59.5 -27.5t-53.5 -21t-37 -14.5q-51 -22 -72.5 -55t-21.5 -89q0 -48 15.5 -84t40.5 -55t51.5 -28t54.5 -9 q38 0 78 21t67 45.5t54 45.5t41 21q21 0 40 -16t19 -41q0 -22 -12 -39q-23 -34 -56 -68t-78.5 -67t-104.5 -53.5t-120 -20.5q-114 0 -196.5 56.5t-122 148t-39.5 205.5zM342 600q0 -25 14 -25q32 0 87 29t100 75.5t45 86.5q0 34 -22 60t-58 26q-43 0 -83 -47.5t-61.5 -105.5 t-21.5 -99zM406 1438q0 35 43 35q3 0 60.5 1t76.5 1q14 0 20 -7.5t10 -31.5q52 -191 78 -246q21 -48 21 -51q0 -22 -26 -37t-56 -15q-29 0 -39 17q-68 126 -176 297q-12 21 -12 37z" />
<glyph unicode="&#xe9;" horiz-adv-x="864" d="M41 379q1 86 22.5 171.5t63.5 161t98 134t132 93t159 34.5q129 0 193.5 -56.5t64.5 -128.5q0 -37 -13.5 -71.5t-33 -60.5t-51.5 -52.5t-58 -43.5t-65 -36t-59.5 -27.5t-53.5 -21t-37 -14.5q-51 -22 -72.5 -55t-21.5 -89q0 -48 15.5 -84t40.5 -55t51.5 -28t54.5 -9 q38 0 78 21t67 45.5t54 45.5t41 21q21 0 40 -16t19 -41q0 -22 -12 -39q-23 -34 -56 -68t-78.5 -67t-104.5 -53.5t-120 -20.5q-114 0 -196.5 56.5t-122 148t-39.5 205.5zM342 600q0 -25 14 -25q32 0 87 29t100 75.5t45 86.5q0 34 -22 60t-58 26q-43 0 -83 -47.5t-61.5 -105.5 t-21.5 -99zM371 1135q0 9 6 18q121 165 184 283q24 39 55 39q19 0 87 -1t71 -1q35 0 35 -27q0 -19 -23 -45q-3 -4 -61.5 -65.5t-111 -120t-95.5 -111.5q-14 -14 -53 -14q-37 0 -65.5 12t-28.5 33z" />
<glyph unicode="&#xea;" horiz-adv-x="864" d="M41 379q1 86 22.5 171.5t63.5 161t98 134t132 93t159 34.5q129 0 193.5 -56.5t64.5 -128.5q0 -37 -13.5 -71.5t-33 -60.5t-51.5 -52.5t-58 -43.5t-65 -36t-59.5 -27.5t-53.5 -21t-37 -14.5q-51 -22 -72.5 -55t-21.5 -89q0 -48 15.5 -84t40.5 -55t51.5 -28t54.5 -9 q38 0 78 21t67 45.5t54 45.5t41 21q21 0 40 -16t19 -41q0 -22 -12 -39q-23 -34 -56 -68t-78.5 -67t-104.5 -53.5t-120 -20.5q-114 0 -196.5 56.5t-122 148t-39.5 205.5zM313 1135q0 13 11 24q77 95 208 293q21 27 74 27q21 0 38 -6.5t20 -18.5q77 -215 114 -295q4 -8 4 -14 q0 -22 -24.5 -40t-50.5 -18q-29 0 -41 23q-43 90 -76 137q-17 23 -37 0q-50 -50 -127 -141q-16 -19 -47 -19q-25 0 -45.5 14t-20.5 34zM342 600q0 -25 14 -25q32 0 87 29t100 75.5t45 86.5q0 34 -22 60t-58 26q-43 0 -83 -47.5t-61.5 -105.5t-21.5 -99z" />
<glyph unicode="&#xeb;" horiz-adv-x="864" d="M41 379q1 86 22.5 171.5t63.5 161t98 134t132 93t159 34.5q129 0 193.5 -56.5t64.5 -128.5q0 -37 -13.5 -71.5t-33 -60.5t-51.5 -52.5t-58 -43.5t-65 -36t-59.5 -27.5t-53.5 -21t-37 -14.5q-51 -22 -72.5 -55t-21.5 -89q0 -48 15.5 -84t40.5 -55t51.5 -28t54.5 -9 q38 0 78 21t67 45.5t54 45.5t41 21q21 0 40 -16t19 -41q0 -22 -12 -39q-23 -34 -56 -68t-78.5 -67t-104.5 -53.5t-120 -20.5q-114 0 -196.5 56.5t-122 148t-39.5 205.5zM266 1280q1 18 7.5 37.5t20.5 42t44 37t70 14.5q51 0 91 -39t40 -102q0 -58 -39.5 -93.5t-93.5 -35.5 q-21 0 -43 6.5t-44.5 21t-37 43.5t-15.5 68zM342 600q0 -25 14 -25q32 0 87 29t100 75.5t45 86.5q0 34 -22 60t-58 26q-43 0 -83 -47.5t-61.5 -105.5t-21.5 -99zM606 1280q1 17 8.5 37t23.5 42.5t47 37t71 14.5q49 0 86 -39t37 -102q0 -58 -36.5 -93.5t-90.5 -35.5 q-22 0 -44.5 6.5t-46.5 21t-39 43.5t-16 68z" />
<glyph unicode="&#xec;" horiz-adv-x="628" d="M59 864q-2 19 6 37t29 21q3 0 47.5 6t88 11.5t93.5 14.5t76 17q30 10 55.5 -16t32.5 -60q0 -3 -18 -94t-31 -162t-29.5 -166.5t-26 -166.5t-9.5 -103q0 -22 6.5 -29.5t23.5 -7.5q15 0 36 8t40 18t23 11q22 6 40.5 -30t6.5 -58q-18 -27 -128 -86.5t-171 -59.5 q-62 0 -99.5 41.5t-37.5 102.5q0 63 48 342t48 313q0 24 -24.5 35.5t-88.5 11.5q-16 0 -25.5 14.5t-11.5 34.5zM178 1438q0 35 43 35q3 0 60.5 1t76.5 1q14 0 20.5 -7.5t10.5 -31.5q52 -191 78 -246q20 -46 20 -51q0 -22 -25.5 -37t-55.5 -15q-29 0 -39 17q-62 116 -177 297 q-12 21 -12 37z" />
<glyph unicode="&#xed;" horiz-adv-x="628" d="M59 864q-2 19 6 37t29 21q3 0 47.5 6t88 11.5t93.5 14.5t76 17q30 10 55.5 -16t32.5 -60q0 -3 -18 -94t-31 -162t-29.5 -166.5t-26 -166.5t-9.5 -103q0 -22 6.5 -29.5t23.5 -7.5q15 0 36 8t40 18t23 11q22 6 40.5 -30t6.5 -58q-18 -27 -128 -86.5t-171 -59.5 q-62 0 -99.5 41.5t-37.5 102.5q0 63 48 342t48 313q0 24 -24.5 35.5t-88.5 11.5q-16 0 -25.5 14.5t-11.5 34.5zM197 1135q0 9 6 18q121 165 184 283q24 39 55 39q19 0 87 -1t71 -1q35 0 35 -27q0 -19 -23 -45q-3 -4 -61.5 -65.5t-111 -120t-95.5 -111.5q-14 -14 -53 -14 q-37 0 -65.5 12t-28.5 33z" />
<glyph unicode="&#xee;" horiz-adv-x="628" d="M59 864q-2 19 6 37t29 21q3 0 47.5 6t88 11.5t93.5 14.5t76 17q30 10 55.5 -16t32.5 -60q0 -3 -18 -94t-31 -162t-29.5 -166.5t-26 -166.5t-9.5 -103q0 -22 6.5 -29.5t23.5 -7.5q15 0 36 8t40 18t23 11q22 6 40.5 -30t6.5 -58q-18 -27 -128 -86.5t-171 -59.5 q-62 0 -99.5 41.5t-37.5 102.5q0 63 48 342t48 313q0 24 -24.5 35.5t-88.5 11.5q-16 0 -25.5 14.5t-11.5 34.5zM135 1135q0 14 10 24q83 102 209 293q21 27 74 27q51 0 57 -25q73 -205 115 -295q4 -8 4 -14q0 -22 -25 -40t-51 -18q-30 0 -41 23q-44 94 -75 137q-17 23 -37 0 q-50 -50 -127 -141q-16 -19 -47 -19q-25 0 -45.5 14t-20.5 34z" />
<glyph unicode="&#xef;" horiz-adv-x="628" d="M59 864q-2 19 6 37t29 21q3 0 47.5 6t88 11.5t93.5 14.5t76 17q30 10 55.5 -16t32.5 -60q0 -3 -18 -94t-31 -162t-29.5 -166.5t-26 -166.5t-9.5 -103q0 -22 6.5 -29.5t23.5 -7.5q15 0 36 8t40 18t23 11q22 6 40.5 -30t6.5 -58q-18 -27 -128 -86.5t-171 -59.5 q-62 0 -99.5 41.5t-37.5 102.5q0 63 48 342t48 313q0 24 -24.5 35.5t-88.5 11.5q-16 0 -25.5 14.5t-11.5 34.5zM72 1280q1 18 7 37.5t20.5 42t44 37t69.5 14.5q51 0 91 -39t40 -102q0 -58 -39.5 -93.5t-93.5 -35.5q-21 0 -42.5 6.5t-44 21t-37 43.5t-15.5 68zM412 1280 q1 17 8.5 37t23 42.5t46.5 37t71 14.5q49 0 86 -39t37 -102q0 -58 -36.5 -93.5t-90.5 -35.5q-22 0 -44.5 6.5t-46 21t-38.5 43.5t-16 68z" />
<glyph unicode="&#xf0;" horiz-adv-x="1064" d="M37 354q0 92 33.5 196t91.5 195.5t149.5 152t196.5 60.5q25 0 48.5 -5.5t45.5 -19.5t28 -37.5t-3 -59.5q-12 -31 -33.5 -53t-46.5 -21q-25 0 -56 18.5t-51 18.5q-43 0 -72.5 -43.5t-41.5 -111.5t-16.5 -118.5t-4.5 -97.5q0 -145 44.5 -226t117.5 -81q64 0 113.5 65.5 t75.5 165t38.5 195.5t12.5 178q0 232 -70 391q-15 35 -49 14q-36 -20 -77 -46t-52 -31q-30 -16 -53 9t-21.5 61.5t31.5 50.5q57 28 94 53q21 13 23.5 30.5t-13.5 30.5q-4 5 -10.5 11.5t-14.5 14t-12 11.5q-51 50 -61 88.5t16 75.5q23 37 58 37q32 0 86 -31q17 -9 125 -82 q34 -25 75 -4q19 9 48.5 26.5t49.5 30.5l19 13q32 19 60 -6.5t28 -63.5q0 -41 -33 -55q-83 -40 -100 -51q-30 -16 -6 -48q143 -213 143 -491q0 -82 -16 -170t-47 -177t-81 -168.5t-113 -141t-148.5 -98t-182.5 -36.5q-166 0 -266 100t-100 281z" />
<glyph unicode="&#xf1;" horiz-adv-x="1171" d="M43 885q0 23 49.5 31.5t136.5 19.5t144 33q16 4 24 4q26 0 43 -18t17 -48q0 -15 -5.5 -45t-5.5 -43q0 -28 17 -28q6 0 20 14q55 64 93 94q98 74 215 74q38 0 72.5 -11t65.5 -35t49.5 -69t18.5 -106q0 -104 -43 -326.5t-43 -237.5q0 -24 17 -24q18 0 66 18.5t55 18.5 q17 0 31 -22t14 -46q0 -6 -4 -18q-15 -25 -127.5 -85.5t-169.5 -60.5q-58 0 -97 42t-39 100q0 35 41 247t41 279q0 73 -22.5 106t-67.5 33q-46 0 -86.5 -38t-67 -92t-48.5 -124t-32.5 -123.5t-17.5 -101.5q-6 -43 -11.5 -92t-8.5 -77t-7.5 -58.5t-9.5 -46.5t-13 -30t-20 -19 t-30 -5q-76 0 -126 53.5t-50 133.5q0 48 16 104q38 134 66 281t28 231q0 41 -149 41q-21 0 -30 23.5t-9 48.5zM391 1190q0 20 14.5 57.5t40 79t69 72t91.5 31.5q38 0 78 -20.5t67 -45.5t54 -45.5t43 -20.5q15 0 28 16.5t21.5 37t26.5 37t43 16.5q22 0 38.5 -11t16.5 -28 q0 -15 -8.5 -42.5t-27 -61.5t-43 -64t-61 -50t-75.5 -20q-38 0 -78 20.5t-66.5 45.5t-53 45.5t-42.5 20.5q-15 0 -28.5 -17t-22.5 -37.5t-27.5 -37.5t-42.5 -17q-22 0 -38.5 11t-16.5 28z" />
<glyph unicode="&#xf2;" horiz-adv-x="968" d="M43 369q0 166 65 303t188.5 219t281.5 82q69 0 123.5 -24.5t89 -63t57.5 -90t32 -102.5t9 -103q0 -138 -42 -255t-115 -197t-174 -124.5t-218 -44.5q-67 0 -121 29t-86 72.5t-53 99.5t-29 105t-8 94zM295 496q0 -36 6.5 -87t21.5 -117.5t49 -111.5t81 -45 q80 0 121.5 88.5t41.5 229.5q0 49 -6 101t-20.5 114.5t-47 102.5t-79.5 40q-67 0 -117.5 -83.5t-50.5 -231.5zM385 1438q0 35 43 35q3 0 60.5 1t76.5 1q14 0 20.5 -7.5t10.5 -31.5q52 -191 78 -246q20 -46 20 -51q0 -22 -26 -37t-56 -15q-29 0 -39 17q-68 126 -176 297 q-12 21 -12 37z" />
<glyph unicode="&#xf3;" horiz-adv-x="968" d="M43 369q0 166 65 303t188.5 219t281.5 82q69 0 123.5 -24.5t89 -63t57.5 -90t32 -102.5t9 -103q0 -138 -42 -255t-115 -197t-174 -124.5t-218 -44.5q-67 0 -121 29t-86 72.5t-53 99.5t-29 105t-8 94zM295 496q0 -36 6.5 -87t21.5 -117.5t49 -111.5t81 -45 q80 0 121.5 88.5t41.5 229.5q0 49 -6 101t-20.5 114.5t-47 102.5t-79.5 40q-67 0 -117.5 -83.5t-50.5 -231.5zM389 1135q0 9 6 18q125 170 185 283q24 39 55 39q19 0 87 -1t71 -1q34 0 34 -27q0 -20 -22 -45q-3 -4 -61.5 -65.5t-111 -120t-95.5 -111.5q-14 -14 -54 -14 q-37 0 -65.5 12t-28.5 33z" />
<glyph unicode="&#xf4;" horiz-adv-x="968" d="M43 369q0 166 65 303t188.5 219t281.5 82q69 0 123.5 -24.5t89 -63t57.5 -90t32 -102.5t9 -103q0 -138 -42 -255t-115 -197t-174 -124.5t-218 -44.5q-67 0 -121 29t-86 72.5t-53 99.5t-29 105t-8 94zM295 496q0 -36 6.5 -87t21.5 -117.5t49 -111.5t81 -45 q80 0 121.5 88.5t41.5 229.5q0 49 -6 101t-20.5 114.5t-47 102.5t-79.5 40q-67 0 -117.5 -83.5t-50.5 -231.5zM328 1135q0 14 10 24q83 102 209 293q21 27 74 27q51 0 57 -25q73 -205 115 -295q4 -8 4 -14q0 -22 -25 -40t-51 -18q-29 0 -41 23q-42 90 -76 137q-17 23 -37 0 q-50 -50 -127 -141q-16 -19 -47 -19q-25 0 -45 14t-20 34z" />
<glyph unicode="&#xf5;" horiz-adv-x="968" d="M43 369q0 166 65 303t188.5 219t281.5 82q69 0 123.5 -24.5t89 -63t57.5 -90t32 -102.5t9 -103q0 -138 -42 -255t-115 -197t-174 -124.5t-218 -44.5q-67 0 -121 29t-86 72.5t-53 99.5t-29 105t-8 94zM272 1190q0 20 14.5 57.5t40 79t69 72t91.5 31.5q38 0 78 -20.5 t67 -45.5t54 -45.5t43 -20.5q15 0 28 16.5t21.5 37t26.5 37t43 16.5q22 0 38.5 -11t16.5 -28q0 -15 -8.5 -42.5t-27 -61.5t-43 -64t-61 -50t-75.5 -20q-38 0 -77.5 20.5t-66 45.5t-53 45.5t-42.5 20.5q-15 0 -28.5 -17t-22.5 -37.5t-27.5 -37.5t-42.5 -17q-22 0 -39 11 t-17 28zM295 496q0 -36 6.5 -87t21.5 -117.5t49 -111.5t81 -45q80 0 121.5 88.5t41.5 229.5q0 49 -6 101t-20.5 114.5t-47 102.5t-79.5 40q-67 0 -117.5 -83.5t-50.5 -231.5z" />
<glyph unicode="&#xf6;" horiz-adv-x="968" d="M43 369q0 166 65 303t188.5 219t281.5 82q69 0 123.5 -24.5t89 -63t57.5 -90t32 -102.5t9 -103q0 -138 -42 -255t-115 -197t-174 -124.5t-218 -44.5q-67 0 -121 29t-86 72.5t-53 99.5t-29 105t-8 94zM283 1280q1 18 7 37.5t20.5 42t44 37t69.5 14.5q51 0 91 -39t40 -102 q0 -58 -39.5 -93.5t-93.5 -35.5q-21 0 -42.5 6.5t-44 21t-37 43.5t-15.5 68zM295 496q0 -36 6.5 -87t21.5 -117.5t49 -111.5t81 -45q80 0 121.5 88.5t41.5 229.5q0 49 -6 101t-20.5 114.5t-47 102.5t-79.5 40q-67 0 -117.5 -83.5t-50.5 -231.5zM623 1280q1 17 8.5 37 t23 42.5t46.5 37t71 14.5q49 0 86 -39t37 -102q0 -58 -36.5 -93.5t-90.5 -35.5q-22 0 -44.5 6.5t-46 21t-38.5 43.5t-16 68z" />
<glyph unicode="&#xf7;" horiz-adv-x="1228" d="M235.5 602.5q15.5 43.5 55.5 46.5q45 2 163 0t273 0.5t201 12.5q36 8 59 -37q24 -48 6 -92q-19 -40 -67 -41q-577 0 -629 -7q-41 -6 -59 34t-2.5 83.5zM471 201q0 71 37.5 112t97.5 41q133 0 133 -145q0 -68 -35 -113t-98 -45q-62 0 -98.5 42t-36.5 108zM471 954 q0 70 37.5 110t97.5 40q133 0 133 -143q0 -68 -35 -113t-98 -45q-62 0 -98.5 42.5t-36.5 108.5z" />
<glyph unicode="&#xf8;" horiz-adv-x="964" d="M45 350q0 85 20.5 171.5t63 167t101 143t142.5 100t181 37.5q31 0 68 -6q46 -7 63 30l10 25q23 48 66 51q33 2 44 -24q6 -19 -5 -41l-31 -48q-8 -28 -1.5 -45t28.5 -39q94 -101 94 -274q0 -85 -19.5 -171t-61 -168t-99.5 -145.5t-141.5 -102t-180.5 -38.5q-28 0 -72 7 q-29 6 -42.5 1t-26.5 -28q-32 -88 -96 -72q-51 14 2 92q28 55 -11 97q-96 111 -96 280zM285 426q0 -64 8 -100q4 -18 7.5 -27t11.5 -8.5t20 18.5q10 17 53 93t68 120.5t54 102t40 86.5q37 82 -6 100q-16 8 -54 8q-54 -2 -96 -44t-63.5 -105t-32 -125.5t-10.5 -118.5z M375 221q-20 -55 18 -76q31 -17 60 -14q56 3 97.5 44.5t62 104.5t29.5 122.5t9 115.5q0 42 -8 92q-3 17 -5.5 25.5t-7.5 14t-14 -2.5t-22 -29q-39 -64 -115.5 -202.5t-103.5 -194.5z" />
<glyph unicode="&#xf9;" horiz-adv-x="1179" d="M47 872q0 22 9.5 39t27.5 17q31 2 144.5 15.5t152.5 21.5q8 1 20.5 4.5t14.5 3.5q28 0 53.5 -25.5t22.5 -52.5q-4 -21 -18 -91t-21 -107.5t-20 -103.5t-20 -108t-15 -90.5t-11.5 -81t-3.5 -51.5q0 -104 68 -104q166 0 254 397q10 44 24.5 128t23.5 146l9 62q3 31 13 42 t30 11h184q45 0 37 -51q-31 -138 -64.5 -355.5t-37.5 -328.5q-1 -35 4 -43t24 -2q17 4 54 22.5t45 18.5q17 0 32 -22t15 -48q0 -14 -6 -26q-5 -10 -52.5 -43t-114 -65t-108.5 -32q-36 0 -59.5 11.5t-34 32.5t-14.5 41t-4 46q0 9 0.5 24.5t0.5 23t-1 16.5t-3.5 12.5t-7.5 3.5 q-10 0 -26 -22q-53 -73 -143.5 -131t-186.5 -58q-113 0 -166 56.5t-53 148.5q0 74 46.5 304.5t45.5 291.5q-2 49 -90 49q-9 0 -21 -1t-14 -1q-19 0 -29 16t-10 39zM432 1438q0 35 43 35q3 0 60.5 1t76.5 1q14 0 20.5 -7.5t10.5 -31.5q52 -191 78 -246q20 -46 20 -51 q0 -22 -26 -37t-56 -15q-28 0 -38 17q-62 116 -177 297q-12 21 -12 37z" />
<glyph unicode="&#xfa;" horiz-adv-x="1179" d="M47 872q0 22 9.5 39t27.5 17q31 2 144.5 15.5t152.5 21.5q8 1 20.5 4.5t14.5 3.5q28 0 53.5 -25.5t22.5 -52.5q-4 -21 -18 -91t-21 -107.5t-20 -103.5t-20 -108t-15 -90.5t-11.5 -81t-3.5 -51.5q0 -104 68 -104q166 0 254 397q10 44 24.5 128t23.5 146l9 62q3 31 13 42 t30 11h184q45 0 37 -51q-31 -138 -64.5 -355.5t-37.5 -328.5q-1 -35 4 -43t24 -2q17 4 54 22.5t45 18.5q17 0 32 -22t15 -48q0 -14 -6 -26q-5 -10 -52.5 -43t-114 -65t-108.5 -32q-36 0 -59.5 11.5t-34 32.5t-14.5 41t-4 46q0 9 0.5 24.5t0.5 23t-1 16.5t-3.5 12.5t-7.5 3.5 q-10 0 -26 -22q-53 -73 -143.5 -131t-186.5 -58q-113 0 -166 56.5t-53 148.5q0 74 46.5 304.5t45.5 291.5q-2 49 -90 49q-9 0 -21 -1t-14 -1q-19 0 -29 16t-10 39zM532 1135q0 7 7 18q121 165 184 283q24 39 55 39q19 0 87 -1t71 -1q35 0 35 -27q0 -19 -23 -45 q-3 -4 -61.5 -65.5t-111 -120t-95.5 -111.5q-14 -14 -53 -14q-37 0 -66 12.5t-29 32.5z" />
<glyph unicode="&#xfb;" horiz-adv-x="1179" d="M47 872q0 22 9.5 39t27.5 17q31 2 144.5 15.5t152.5 21.5q8 1 20.5 4.5t14.5 3.5q28 0 53.5 -25.5t22.5 -52.5q-4 -21 -18 -91t-21 -107.5t-20 -103.5t-20 -108t-15 -90.5t-11.5 -81t-3.5 -51.5q0 -104 68 -104q166 0 254 397q10 44 24.5 128t23.5 146l9 62q3 31 13 42 t30 11h184q45 0 37 -51q-31 -138 -64.5 -355.5t-37.5 -328.5q-1 -35 4 -43t24 -2q17 4 54 22.5t45 18.5q17 0 32 -22t15 -48q0 -14 -6 -26q-5 -10 -52.5 -43t-114 -65t-108.5 -32q-36 0 -59.5 11.5t-34 32.5t-14.5 41t-4 46q0 9 0.5 24.5t0.5 23t-1 16.5t-3.5 12.5t-7.5 3.5 q-10 0 -26 -22q-53 -73 -143.5 -131t-186.5 -58q-113 0 -166 56.5t-53 148.5q0 74 46.5 304.5t45.5 291.5q-2 49 -90 49q-9 0 -21 -1t-14 -1q-19 0 -29 16t-10 39zM422 1135q0 14 10 24q83 102 209 293q21 27 74 27q51 0 57 -25q73 -205 115 -295q4 -8 4 -14q0 -22 -25 -40 t-51 -18q-29 0 -41 23q-42 90 -76 137q-17 22 -36 0q-50 -50 -127 -141q-16 -19 -48 -19q-25 0 -45 14t-20 34z" />
<glyph unicode="&#xfc;" horiz-adv-x="1179" d="M47 872q0 22 9.5 39t27.5 17q31 2 144.5 15.5t152.5 21.5q8 1 20.5 4.5t14.5 3.5q28 0 53.5 -25.5t22.5 -52.5q-4 -21 -18 -91t-21 -107.5t-20 -103.5t-20 -108t-15 -90.5t-11.5 -81t-3.5 -51.5q0 -104 68 -104q166 0 254 397q10 44 24.5 128t23.5 146l9 62q3 31 13 42 t30 11h184q45 0 37 -51q-31 -138 -64.5 -355.5t-37.5 -328.5q-1 -35 4 -43t24 -2q17 4 54 22.5t45 18.5q17 0 32 -22t15 -48q0 -14 -6 -26q-5 -10 -52.5 -43t-114 -65t-108.5 -32q-36 0 -59.5 11.5t-34 32.5t-14.5 41t-4 46q0 9 0.5 24.5t0.5 23t-1 16.5t-3.5 12.5t-7.5 3.5 q-10 0 -26 -22q-53 -73 -143.5 -131t-186.5 -58q-113 0 -166 56.5t-53 148.5q0 74 46.5 304.5t45.5 291.5q-2 49 -90 49q-9 0 -21 -1t-14 -1q-19 0 -29 16t-10 39zM371 1280q1 18 7 37.5t20.5 42t44 37t69.5 14.5q51 0 91 -39t40 -102q0 -58 -39.5 -93.5t-93.5 -35.5 q-21 0 -42.5 6.5t-44 21t-37 43.5t-15.5 68zM711 1280q1 17 8.5 37t23 42.5t46.5 37t71 14.5q49 0 86 -39t37 -102q0 -58 -36.5 -93.5t-90.5 -35.5q-22 0 -44.5 6.5t-46 21t-38.5 43.5t-16 68z" />
<glyph unicode="&#xfd;" horiz-adv-x="1105" d="M-82 -264q0 47 32 86t81 39q42 0 78.5 -19.5t56.5 -43t41 -43t35 -19.5q85 0 148 79t63 183q0 23 -2 35q-18 133 -80.5 315.5t-129.5 311t-98 128.5q-19 0 -45 -13t-32 -13q-27 0 -39.5 19t-12.5 44q0 19 9 33q18 23 103.5 69t154.5 46q63 0 128 -87t113 -214t82 -253.5 t47 -223.5q4 -24 7.5 -33.5t11 -8t17.5 13.5t30 40q40 65 73 165t33 187q0 36 -12.5 66.5t-30.5 53t-36.5 46t-31 55.5t-12.5 70q0 56 37 89.5t94 33.5q82 0 125 -71.5t43 -196.5q0 -113 -35 -243t-94.5 -253.5t-143.5 -238t-177 -200t-199.5 -137t-206.5 -51.5 q-110 0 -167.5 43.5t-57.5 110.5zM457 1135q0 9 6 18q121 165 184 283q24 39 55 39q19 0 87 -1t71 -1q35 0 35 -27q0 -19 -23 -45q-3 -4 -61.5 -65.5t-111 -120t-95.5 -111.5q-14 -14 -53 -14q-37 0 -65.5 12t-28.5 33z" />
<glyph unicode="&#xfe;" horiz-adv-x="1038" d="M6 -342q19 155 78.5 551t105.5 717.5t46 398.5q0 22 -24 32.5t-87 10.5q-18 0 -28.5 15t-12.5 36q0 53 35 58q4 1 49.5 6t91.5 10.5t97 14.5t75 18q27 9 55 -15q28 -28 33 -61q-106 -441 -129 -639q-3 -31 19 -31q6 0 20 21q2 2 19.5 24t27 32t30 31.5t39 33t43 25.5 t53 20t58.5 6q51 0 94.5 -18t80.5 -55.5t58 -102.5t21 -152q0 -183 -61 -339.5t-162.5 -246.5t-216.5 -90q-53 0 -86 28.5t-33 74.5q0 43 29 59q26 8 41.5 7.5t53 -5.5t54.5 -6q19 -1 41 24.5t42 70t33 115.5t13 152q0 139 -40 213t-99 74q-60 0 -112.5 -82.5t-83.5 -206.5 q-13 -52 -24.5 -109.5t-19.5 -103.5t-16.5 -109t-13.5 -99.5t-12 -104t-9 -93t-8.5 -95.5t-7.5 -84q-3 -35 -13 -49t-36 -17l-152 -20q-27 -4 -39.5 13.5t-9.5 41.5z" />
<glyph unicode="&#xff;" horiz-adv-x="1105" d="M-82 -264q0 47 32 86t81 39q42 0 78.5 -19.5t56.5 -43t41 -43t35 -19.5q85 0 148 79t63 183q0 23 -2 35q-18 133 -80.5 315.5t-129.5 311t-98 128.5q-19 0 -45 -13t-32 -13q-27 0 -39.5 19t-12.5 44q0 19 9 33q18 23 103.5 69t154.5 46q63 0 128 -87t113 -214t82 -253.5 t47 -223.5q4 -24 7.5 -33.5t11 -8t17.5 13.5t30 40q40 65 73 165t33 187q0 36 -12.5 66.5t-30.5 53t-36.5 46t-31 55.5t-12.5 70q0 56 37 89.5t94 33.5q82 0 125 -71.5t43 -196.5q0 -113 -35 -243t-94.5 -253.5t-143.5 -238t-177 -200t-199.5 -137t-206.5 -51.5 q-110 0 -167.5 43.5t-57.5 110.5zM317 1280q1 18 7.5 37.5t20.5 42t44 37t70 14.5q51 0 91 -39t40 -102q0 -58 -39.5 -93.5t-93.5 -35.5q-21 0 -43 6.5t-44.5 21t-37 43.5t-15.5 68zM657 1280q1 17 8.5 37t23.5 42.5t47 37t71 14.5q49 0 86 -39t37 -102q0 -58 -36.5 -93.5 t-90.5 -35.5q-22 0 -44.5 6.5t-46.5 21t-39 43.5t-16 68z" />
<glyph unicode="&#x152;" horiz-adv-x="1800" d="M98 539q0 101 22 204.5t64 201.5t107 183.5t145 150t185 101.5t221 37q50 0 139 -16.5t129 -20.5q156 -15 598 13q49 3 67 -15t9 -53q-48 -187 -53 -215q-11 -48 -57 -60q-38 -10 -58 14q-12 14 -8 34q20 101 -33 133.5t-221 32.5q-84 0 -101 -97q-11 -40 -31.5 -164 t-23.5 -165q-3 -30 2.5 -46.5t28.5 -19.5q16 -2 70 -1.5t73 3.5q41 5 61.5 26.5t30.5 80.5q6 39 38 54t58.5 -3.5t18.5 -59.5q-31 -157 -53 -327q-9 -63 -55 -78q-36 -12 -59 13q-16 18 -11 46q22 101 -49 111q-23 3 -74 3.5t-70 -1.5q-39 -6 -51 -68q-26 -107 -47 -327 q-6 -61 15 -88t85 -27q60 0 95 6q77 7 141 66.5t98 152.5q18 51 55 60t58 -24t2 -83q-36 -87 -98 -272q-10 -37 -58 -39q-104 0 -253.5 5t-305.5 5q-72 0 -163.5 -16.5t-143.5 -16.5q-258 0 -398.5 151.5t-140.5 414.5zM391 602q0 -219 88 -348t226 -129q62 0 99 51t58 160 q22 107 62.5 357.5t52.5 375.5q5 56 -10 97t-43 62t-57.5 30.5t-61.5 9.5q-89 0 -162 -45t-118.5 -115.5t-77 -161t-44 -176.5t-12.5 -168z" />
<glyph unicode="&#x153;" horiz-adv-x="1445" d="M43 369q0 124 38 234.5t105.5 192t165.5 129.5t211 48q121 0 201 -109q22 -29 43 -31t51 23q135 117 270 117q109 0 168.5 -57.5t59.5 -127.5q0 -37 -13.5 -71.5t-33.5 -61t-52 -52.5t-58.5 -43t-65 -35.5t-59.5 -27.5t-54 -21.5t-37 -14.5q-50 -22 -71 -55t-21 -89 q0 -48 15 -84t40 -55t51 -28t54 -9q38 0 78 21t66.5 45.5t53.5 45.5t41 21q26 0 43 -17.5t19 -31.5q4 -21 -13 -47q-23 -34 -56 -67.5t-78.5 -67t-104.5 -54t-121 -20.5q-57 0 -110.5 21.5t-88.5 56.5q-12 12 -29.5 32.5t-24 26t-19.5 9.5t-26 -4t-34 -27 q-127 -115 -307 -115q-67 0 -121 29t-86 72.5t-53 99.5t-29 105t-8 94zM295 496q0 -36 6.5 -87t21.5 -117.5t49 -111.5t81 -45q80 0 121.5 88.5t41.5 229.5q0 49 -6 101t-20.5 114.5t-47 102.5t-79.5 40q-67 0 -117.5 -83.5t-50.5 -231.5zM922 600q0 -25 14 -25 q32 0 86.5 29t99.5 75.5t45 86.5q0 35 -20.5 60.5t-56.5 25.5q-64 0 -116 -91.5t-52 -160.5z" />
<glyph unicode="&#x178;" horiz-adv-x="1200" d="M106 1333q0 27 14 46t40 16q152 -16 444 0q32 1 48 -17t16 -45q0 -28 -14 -50t-33 -19q-51 6 -73.5 -23.5t-10.5 -75.5q47 -170 112 -295q27 -52 68 2q45 52 110 139t103 150q18 31 20.5 56.5t-17.5 40t-63 8.5q-23 -3 -38 18t-15 49q0 27 13 44.5t38 17.5q259 -11 410 0 q32 1 47.5 -16t15.5 -44q0 -28 -15.5 -49t-39.5 -20q-36 2 -72 -18t-54.5 -39t-41.5 -48q-80 -91 -205.5 -265.5t-150.5 -236.5q-17 -38 -43 -197t-31 -253q-5 -46 19.5 -65.5t85.5 -12.5q28 3 42.5 -15.5t14.5 -47.5q0 -30 -16 -52.5t-43 -19.5q-93 8 -248.5 7.5 t-268.5 -9.5q-30 -3 -46.5 18t-16.5 51q0 28 14 48.5t39 19.5q25 0 51 -1t51 15t33 50q20 76 42.5 228.5t19.5 192.5q-17 75 -94.5 277.5t-112.5 275.5q-11 26 -17.5 39t-18.5 29.5t-26.5 23t-33.5 5.5q-24 -1 -38 19t-14 48zM381 1640q0 19 8 41.5t25 46t50.5 39t78.5 15.5 q55 0 97 -42t42 -108q0 -62 -40.5 -100.5t-98.5 -38.5q-24 0 -50 7t-52 22.5t-43 46t-17 71.5zM831 1640q0 19 8.5 41.5t26 46t51.5 39t78 15.5q56 0 97 -41.5t41 -108.5q0 -63 -40 -101t-98 -38q-25 0 -51 7t-52.5 22.5t-43.5 46t-17 71.5z" />
<glyph unicode="&#x2c6;" horiz-adv-x="704" d="M299 1135q0 14 10 24q83 102 209 293q21 27 74 27q51 0 57 -25q73 -205 115 -295q4 -8 4 -14q0 -22 -25 -40t-51 -18q-30 0 -41 23q-43 90 -76 137q-17 22 -36 0q-50 -50 -127 -141q-16 -19 -47 -19q-25 0 -45.5 14t-20.5 34z" />
<glyph unicode="&#x2dc;" horiz-adv-x="817" d="M287 1190q0 20 14.5 57.5t40 79t69 72t91.5 31.5q38 0 78 -20.5t66.5 -45.5t53.5 -45.5t43 -20.5q15 0 28 16.5t21.5 37t26.5 37t43 16.5q22 0 39 -11t17 -28q0 -20 -15 -57.5t-40.5 -79t-69 -71.5t-91.5 -30q-38 0 -77.5 20.5t-66 45.5t-53 45.5t-42.5 20.5 q-15 0 -28.5 -17t-22.5 -37.5t-27.5 -37.5t-42.5 -17q-22 0 -38.5 11t-16.5 28z" />
<glyph unicode="&#x2000;" horiz-adv-x="905" />
<glyph unicode="&#x2001;" horiz-adv-x="1810" />
<glyph unicode="&#x2002;" horiz-adv-x="905" />
<glyph unicode="&#x2003;" horiz-adv-x="1810" />
<glyph unicode="&#x2004;" horiz-adv-x="603" />
<glyph unicode="&#x2005;" horiz-adv-x="452" />
<glyph unicode="&#x2006;" horiz-adv-x="301" />
<glyph unicode="&#x2007;" horiz-adv-x="301" />
<glyph unicode="&#x2008;" horiz-adv-x="226" />
<glyph unicode="&#x2009;" horiz-adv-x="362" />
<glyph unicode="&#x200a;" horiz-adv-x="100" />
<glyph unicode="&#x2010;" horiz-adv-x="718" d="M80 563q0 38 17.5 69t47.5 34q36 2 104.5 0t166 1t143.5 13q29 6 48.5 -26.5t19.5 -75.5q0 -41 -19.5 -69t-60.5 -28q-295 6 -395 -8q-35 -4 -53.5 22.5t-18.5 67.5z" />
<glyph unicode="&#x2011;" horiz-adv-x="718" d="M80 563q0 38 17.5 69t47.5 34q36 2 104.5 0t166 1t143.5 13q29 6 48.5 -26.5t19.5 -75.5q0 -41 -19.5 -69t-60.5 -28q-295 6 -395 -8q-35 -4 -53.5 22.5t-18.5 67.5z" />
<glyph unicode="&#x2012;" horiz-adv-x="718" d="M80 563q0 38 17.5 69t47.5 34q36 2 104.5 0t166 1t143.5 13q29 6 48.5 -26.5t19.5 -75.5q0 -41 -19.5 -69t-60.5 -28q-295 6 -395 -8q-35 -4 -53.5 22.5t-18.5 67.5z" />
<glyph unicode="&#x2013;" horiz-adv-x="1236" d="M86 580q0 40 12.5 71.5t34.5 32.5q11 1 233 -3.5t449 -3.5t272 15q24 7 41 -30t17 -84q0 -89 -55 -89q-62 -1 -298.5 0.5t-431.5 1.5t-225 -4q-23 -6 -36 22.5t-13 70.5z" />
<glyph unicode="&#x2014;" horiz-adv-x="1783" d="M88 580q0 41 11.5 72t33.5 32q11 1 370.5 -3.5t722.5 -3.5t406 15q24 7 42 -30t18 -84q0 -37 -14.5 -63t-43.5 -26q-59 -1 -432 0.5t-704 1.5t-361 -4q-23 -6 -36 22.5t-13 70.5z" />
<glyph unicode="&#x2018;" horiz-adv-x="454" d="M131 952q0 75 30 163.5t91 171t137 122.5q8 4 19 4q17 0 29 -17t12 -38q0 -19 -7.5 -30t-27.5 -23q-69 -40 -112.5 -103t-43.5 -123q0 -43 29 -43q8 0 33 10.5t40 10.5q40 0 58 -33t18 -82q0 -82 -48 -136t-109 -54q-75 0 -111.5 54.5t-36.5 145.5z" />
<glyph unicode="&#x2019;" horiz-adv-x="444" d="M152 805q0 30 38 53q68 38 112 100.5t44 120.5q0 47 -33 47q-8 0 -31 -10t-38 -10q-40 0 -60 35t-20 84q0 79 49 133.5t111 54.5q74 0 109.5 -54t35.5 -145q0 -77 -29 -165t-89 -170.5t-138 -122.5q-8 -4 -18 -4q-18 0 -30.5 16t-12.5 37z" />
<glyph unicode="&#x201a;" horiz-adv-x="481" d="M4 -324q0 31 39 54q66 38 111 100t45 119q0 49 -35 49q-7 0 -31 -10.5t-39 -10.5q-40 0 -59 34.5t-19 84.5q0 80 48 134.5t110 54.5q76 0 112 -55t36 -146q0 -120 -72 -259.5t-187 -197.5q-6 -4 -18 -4q-15 0 -28 16.5t-13 36.5z" />
<glyph unicode="&#x201c;" horiz-adv-x="837" d="M131 952q0 75 30 163.5t91 171t137 122.5q8 4 19 4q17 0 29 -17t12 -38q0 -19 -7.5 -30t-27.5 -23q-69 -40 -112.5 -103t-43.5 -123q0 -43 29 -43q8 0 33 10.5t40 10.5q40 0 58 -33t18 -82q0 -82 -48 -136t-109 -54q-75 0 -111.5 54.5t-36.5 145.5zM514 950 q0 75 29.5 163.5t90.5 172t138 123.5q8 4 19 4q18 0 29 -16.5t11 -38.5q0 -20 -6.5 -30.5t-27.5 -22.5q-70 -39 -113 -102t-43 -124q0 -43 29 -43q9 0 34 10.5t39 10.5q40 0 59 -33.5t19 -81.5q0 -81 -49 -135.5t-110 -54.5q-75 0 -111.5 53.5t-36.5 144.5z" />
<glyph unicode="&#x201d;" horiz-adv-x="827" d="M152 805q0 30 38 53q68 38 112 100.5t44 120.5q0 47 -33 47q-8 0 -31 -10t-38 -10q-40 0 -60 35t-20 84q0 79 49 133.5t111 54.5q74 0 109.5 -54t35.5 -145q0 -77 -29 -165t-89 -170.5t-138 -122.5q-8 -4 -18 -4q-18 0 -30.5 16t-12.5 37zM535 805q0 30 38 53 q67 39 111.5 101t44.5 120q0 47 -33 47q-7 0 -31 -10t-38 -10q-40 0 -59 34.5t-19 84.5q0 79 48 133.5t110 54.5q74 0 109.5 -55t35.5 -146q0 -76 -28.5 -164t-89 -170.5t-138.5 -121.5q-8 -4 -18 -4q-17 0 -30 16.5t-13 36.5z" />
<glyph unicode="&#x201e;" horiz-adv-x="862" d="M2 -324q0 31 39 54q68 38 112 100.5t44 120.5q0 47 -33 47q-7 0 -31 -10.5t-39 -10.5q-40 0 -59 34.5t-19 84.5q0 80 48 134.5t110 54.5q74 0 109.5 -54t35.5 -145q0 -77 -29 -165t-89 -171t-138 -123q-8 -4 -18 -4q-17 0 -30 16.5t-13 36.5zM385 -324q0 18 9 30t32 24 q66 39 110 101t44 120q0 47 -31 47q-8 0 -33.5 -10.5t-38.5 -10.5q-39 0 -58.5 35t-19.5 84q0 79 49 134t111 55q73 0 108 -55t35 -146q0 -76 -28.5 -164t-89 -171t-138.5 -122q-8 -4 -18 -4q-17 0 -30 16.5t-13 36.5z" />
<glyph unicode="&#x2022;" horiz-adv-x="788" d="M74 559q0 129 88.5 207t226.5 78q149 0 230 -68.5t81 -185.5q0 -136 -82 -222.5t-229 -86.5q-143 0 -229 80.5t-86 197.5z" />
<glyph unicode="&#x2026;" horiz-adv-x="1398" d="M25 152q0 84 46.5 131t121.5 47q169 0 169 -170q0 -80 -43 -132.5t-124 -52.5q-79 0 -124.5 50t-45.5 127zM463 152q0 84 46.5 131t121.5 47q172 0 172 -170q0 -80 -44 -132.5t-126 -52.5q-79 0 -124.5 50t-45.5 127zM905 152q0 84 46.5 131t123.5 47q170 0 170 -170 q0 -80 -43.5 -132.5t-124.5 -52.5t-126.5 49.5t-45.5 127.5z" />
<glyph unicode="&#x202f;" horiz-adv-x="362" />
<glyph unicode="&#x2039;" horiz-adv-x="546" d="M37 473q0 20 24.5 57t67 84t82.5 87.5t89.5 89.5t68.5 69q25 25 61 25q26 0 44 -12.5t18 -36.5q0 -22 -21 -52q-186 -256 -186 -325q0 -21 7.5 -54.5t16.5 -63t28 -88.5t30 -97q2 -6 2 -19q0 -29 -26.5 -48t-57.5 -19q-42 0 -56 26q-192 299 -192 377z" />
<glyph unicode="&#x203a;" horiz-adv-x="546" d="M29 121q0 14 12 35q19 29 45 70t41 64.5t33.5 53.5t28.5 48.5t20 39t14 34.5t4 26q0 62 -90 292q-6 18 -6 33q0 31 23.5 49.5t54.5 18.5q34 0 53 -25q121 -184 167 -262.5t46 -110.5q0 -38 -74.5 -128.5t-240.5 -262.5q-23 -26 -64 -26q-26 0 -46.5 14.5t-20.5 36.5z" />
<glyph unicode="&#x205f;" horiz-adv-x="452" />
<glyph unicode="&#x20ac;" horiz-adv-x="1126" d="M45 573q6 36 18.5 51.5t30.5 12.5q16 -4 35 -4q30 0 33 35q0 25 6 49q3 33 -21 33h-36q-37 0 -27 59q6 37 18.5 54t26.5 14q35 -3 49 -5q32 -3 47 48q34 105 90 193t133 157t181.5 108t224.5 39q126 0 215 -46t84 -107q-3 -36 -36 -140.5t-58 -167.5q-11 -34 -39.5 -41.5 t-50.5 11t-15 47.5q33 148 -7 225.5t-142 77.5q-108 0 -195 -101t-139 -264q-12 -40 21 -43q109 -5 331 0q21 1 26 -20t-1 -41q-5 -28 -14.5 -44t-26.5 -15q-148 6 -356 2q-23 -3 -27 -39q-4 -28 -4 -49q0 -18 6.5 -25.5t24.5 -7.5h249q34 0 25 -64q-5 -25 -16.5 -41.5 t-24.5 -15.5q-43 2 -231 2q-19 -1 -24 -11t-3 -32q18 -142 91.5 -221.5t178.5 -79.5q17 0 33.5 1.5t30 3.5t28.5 6.5t25 8t23 9.5t19.5 9.5t18 10.5t15.5 9.5t14.5 9.5t11.5 8q29 21 46 -11q18 -37 -2 -84q-6 -15 -17 -28q-7 -8 -20.5 -21t-46 -36t-69 -42t-90.5 -33 t-110 -14q-212 0 -328.5 126t-125.5 362q-3 27 -11.5 38t-27.5 11h-41q-17 -2 -25 13.5t-2 49.5z" />
<glyph unicode="&#x2122;" horiz-adv-x="1624" d="M158 1104v16q1 15 1.5 36t0.5 44.5t-0.5 44t-1.5 29.5q-1 14 11.5 25.5t25.5 9.5q59 -12 277.5 -10t353 5.5t198.5 6.5q13 1 22.5 -9t12.5 -18q50 -156 86 -211q9 -18 24 -17.5t25 21.5q30 58 80 195q13 35 47 37h240q23 0 30.5 -21t-1 -41.5t-21.5 -19.5q-19 1 -32 0 t-19.5 -7.5t-6.5 -21.5q-6 -126 5 -283q2 -13 9.5 -17.5t33.5 -4.5q17 0 24.5 -19.5t1.5 -38t-22 -16.5q-23 3 -114 4t-163 -4q-16 -1 -24 17t-1.5 36.5t25.5 18.5q33 0 41 8.5t10 36.5q4 70 5 113t0 51l-1 8q0 25 -11.5 25t-20.5 -23l-113 -287q-3 -7 -62.5 -7t-60.5 7 q-92 181 -131 287q-10 23 -22.5 21.5t-12.5 -23.5q-2 -106 2 -186q1 -24 11 -28.5t51 -4.5q15 0 21.5 -18t1.5 -35.5t-19 -16.5q-4 0 -52 2.5t-99.5 2.5t-88.5 -5q-15 -2 -21 16t0 37t21 19q21 0 31 1t20 8.5t11 23.5q7 136 0 241q-3 17 -5 26t-10 17t-22 9q-52 3 -142 -3 q-41 -2 -45 -55q-10 -134 2 -237q3 -29 64 -29q16 0 22 -18.5t-0.5 -37t-21.5 -18.5q-51 6 -148 7t-167 -7q-21 0 -23 35.5t16 38.5h24t32.5 3t13.5 11q2 12 3.5 40.5t1.5 63.5v65.5t-0.5 57.5t-0.5 29q0 49 -33 49h-63q-26 0 -38.5 -17.5t-13.5 -39.5t-5.5 -42t-16.5 -23 q-24 -3 -43.5 0.5t-19.5 13.5z" />
<glyph unicode="&#x25fc;" horiz-adv-x="972" d="M0 0v973h973v-973h-973z" />
<glyph unicode="&#xfb03;" horiz-adv-x="1886" d="M-201 -285q0 48 32 74.5t71 26.5q27 0 48.5 -13t32.5 -28t26 -28t30 -13q62 0 80 84q31 143 75.5 480t47.5 429q1 48 -8.5 63t-36.5 15q-14 0 -57 -1t-52 -1q-33 0 -43.5 36.5t5.5 72.5t48 36l121 -6q7 0 13 1t11 1.5t8.5 3.5t6.5 4.5t5.5 7t4 8t3.5 10.5l3 12t3.5 15 t3.5 17q24 110 76.5 194t113 130.5t135.5 76t135.5 38.5t122.5 9q124 0 207 -38q21 -7 29 -7q24 0 67 29q38 26 121 51t160 25q147 0 242.5 -53.5t95.5 -147.5q0 -63 -37.5 -101t-95.5 -38q-37 0 -62 20.5t-40.5 50t-32.5 59.5t-50 50.5t-82 20.5q-44 0 -83 -27.5t-66 -69.5 t-47.5 -92.5t-30.5 -95.5t-12 -80q-3 -49 8 -65.5t47 -16.5l205 4q180 0 252 23q30 10 55.5 -16t32.5 -60q-2 -8 -18.5 -94.5t-30.5 -160.5t-30.5 -168t-26 -165.5t-9.5 -103.5q0 -21 6.5 -29t24.5 -8q15 0 35.5 8t39.5 18t23 11q22 6 40.5 -30t6.5 -58q-18 -27 -128 -86.5 t-171 -59.5q-62 0 -99.5 41.5t-37.5 102.5q0 63 48 342t48 313q0 23 -23.5 33.5t-88.5 13.5q-86 4 -162 -2q-2 0 -9.5 -0.5t-10.5 -0.5t-10 -1.5t-10.5 -3t-9.5 -4.5t-9.5 -7.5t-8.5 -11t-8 -14.5t-5.5 -19t-4.5 -24q-5 -36 -34 -284t-52 -369q-21 -110 -71.5 -195.5 t-118.5 -135.5t-144 -75.5t-156 -25.5q-91 0 -200 41q-16 8 -35 8q-25 0 -74 -29q-111 -80 -227 -80q-48 0 -85 10t-57.5 24.5t-33.5 34t-17 35t-4 29.5zM385 -70q-10 -39 0 -72t31 -46q72 -45 159 -45q62 0 108.5 39t64.5 120q29 134 69 424.5t43 376.5q1 47 -8.5 61 t-38.5 17q-98 11 -235 6q-2 0 -10.5 -0.5t-12.5 -1t-12 -2.5t-13 -5t-11.5 -9.5t-11 -15t-8.5 -21.5t-7 -29q-9 -67 -26.5 -235.5t-37 -315.5t-43.5 -246zM532 1026q-5 -78 58 -82q25 -2 246 -2q33 0 46 16t21 64q12 62 64 195q2 6 2 18q0 16 -29 45q-61 57 -168 57 q-51 0 -92.5 -22t-67 -55.5t-43.5 -77.5t-26 -81.5t-11 -74.5z" />
<glyph unicode="&#xfb04;" horiz-adv-x="1914" d="M-201 -285q0 48 32 74.5t71 26.5q27 0 48.5 -13t32.5 -28t26 -28t30 -13q62 0 80 84q31 143 75.5 480t47.5 429q1 48 -8.5 63t-36.5 15q-14 0 -57 -1t-52 -1q-33 0 -43.5 36.5t5.5 72.5t48 36l121 -6q7 0 13 1t11 1.5t8.5 3.5t6.5 4.5t5.5 7t4 8t3.5 10.5l3 12t3.5 15 t3.5 17q24 110 76.5 194t113 130.5t135.5 76t135.5 38.5t122.5 9q124 0 207 -38q21 -7 29 -7q24 0 67 29q38 26 121 51t160 25q40 0 64.5 -3t53 -10.5t38.5 -9.5q68 -13 163 19q26 9 52 -14.5t30 -61.5q1 -13 -44 -288t-91.5 -580.5t-46.5 -382.5q0 -31 10 -44.5t35 -13.5 q16 0 27 3.5t19 9t11 6.5q23 4 34 -25.5t-3 -52.5q-16 -28 -99 -70.5t-159 -42.5q-58 0 -95.5 43t-37.5 105q0 84 26 273.5t69 453.5t52 325q17 110 -29 166t-141 56q-44 0 -83 -27.5t-66 -69.5t-47.5 -92.5t-30.5 -95.5t-12 -80q-4 -48 8.5 -65t44.5 -17q148 4 193 4 q34 0 34 -63q0 -36 -17 -61t-46 -25q-4 0 -57 6t-113 6q-38 0 -54 -12q-24 -19 -32 -72q-5 -36 -34 -284t-52 -369q-21 -110 -71.5 -195.5t-118.5 -135.5t-144 -75.5t-156 -25.5q-91 0 -200 41q-16 8 -35 8q-25 0 -74 -29q-111 -80 -227 -80q-48 0 -85 10t-57.5 24.5 t-33.5 34t-17 35t-4 29.5zM385 -70q-10 -39 0 -72t31 -46q72 -45 159 -45q62 0 108.5 39t64.5 120q29 134 69 424.5t43 376.5q1 47 -8.5 61t-38.5 17q-98 11 -235 6q-2 0 -10.5 -0.5t-12.5 -1t-12 -2.5t-13 -5t-11.5 -9.5t-11 -15t-8.5 -21.5t-7 -29q-9 -67 -26.5 -235.5 t-37 -315.5t-43.5 -246zM532 1026q-5 -78 58 -82q25 -2 246 -2q33 0 46 16t21 64q12 62 64 195q2 6 2 18q0 16 -29 45q-61 57 -168 57q-51 0 -92.5 -22t-67 -55.5t-43.5 -77.5t-26 -81.5t-11 -74.5z" />
</font>
</defs>
</svg>
