<?xml version="1.0" standalone="no"?>
<!DOCTYPE svg PUBLIC "-//W3C//DTD SVG 1.1//EN" "http://www.w3.org/Graphics/SVG/1.1/DTD/svg11.dtd" >
<svg xmlns="http://www.w3.org/2000/svg">
<metadata></metadata>
<defs>
<font id="livoryregular_italic" horiz-adv-x="1269" >
<font-face units-per-em="2048" ascent="1536" descent="-512" />
<missing-glyph horiz-adv-x="491" />
<glyph unicode="&#xfb01;" horiz-adv-x="1136" d="M-156 -332q0 27 18.5 45.5t47.5 18.5q17 0 53 -7.5t57 -7.5q38 2 58.5 31t32.5 102q49 282 114 941q3 26 -1 36.5t-21 10.5q-14 0 -52 -1t-42 -1q-21 0 -21 45q0 24 8.5 42.5t22.5 18.5h102q10 0 16.5 2.5t10 9t4 7.5t2.5 8q2 16 7 46.5t7 41.5q18 102 52 185t88 149 t133.5 102.5t179.5 36.5q130 0 219.5 -67t89.5 -144q0 -36 -24.5 -62t-61.5 -26q-31 0 -59 16t-41 45q-10 21 -23 41t-36 44.5t-57.5 39.5t-74.5 15q-42 0 -75.5 -12.5t-65.5 -42.5t-55.5 -88t-36.5 -142l-25 -158q0 -9 -1 -18.5t7.5 -17.5t26.5 -9q183 -13 477 17 q27 0 52.5 -23t25.5 -53q-2 -19 -59 -327.5t-58 -377.5q0 -55 37 -55q19 0 43.5 11t30.5 11q16 0 23.5 -16.5t7.5 -32.5q0 -15 -35 -43t-85 -51.5t-85 -23.5q-86 0 -86 141q0 41 47 331t47 330q0 21 -18.5 31.5t-67.5 13.5q-129 9 -313 9q-21 0 -28.5 -4.5t-10.5 -26.5 q-61 -501 -109 -920q-10 -81 -45.5 -143t-83 -95t-92 -49t-82.5 -16q-43 0 -80 25.5t-37 60.5z" />
<glyph unicode="&#xfb02;" horiz-adv-x="1126" d="M-156 -332q0 23 17 43q16 21 49 21q17 0 53 -7.5t57 -7.5q38 2 58.5 31t32.5 102q49 282 114 941q3 26 -1 36.5t-21 10.5q-14 0 -52 -1t-42 -1q-21 0 -21 45q0 24 8.5 42.5t22.5 18.5h102q10 0 16.5 2.5t10 9t4 7.5t2.5 8q14 93 36 171t60 151.5t88 124.5t122.5 81.5 t160.5 30.5q47 0 121 -10.5t84 -10.5q17 0 44.5 11.5t41.5 11.5q17 0 27 -15.5t10 -39.5q0 -15 -2 -25q-3 -27 -50.5 -315t-92 -580t-48.5 -371v-8q0 -55 39 -55q20 0 45 9t31 9q11 0 18.5 -15t7.5 -26q0 -16 -26.5 -43t-74.5 -51t-97 -24q-86 0 -86 141q0 40 83 600.5 t83 626.5q0 34 -46.5 51.5t-125.5 17.5q-52 0 -80 -4t-72 -22q-65 -25 -95 -107t-65 -295q-6 -45 33 -45q39 -1 94 0t90 2l35 2q17 1 26 -14.5t9 -40.5q0 -30 -13.5 -53.5t-35.5 -20.5q-160 17 -221 17q-21 0 -28.5 -4.5t-10.5 -26.5q-61 -501 -109 -920q-10 -81 -45.5 -143 t-83 -95t-92 -49t-82.5 -16q-43 0 -80 25.5t-37 60.5z" />
<glyph horiz-adv-x="0" />
<glyph horiz-adv-x="682" />
<glyph unicode=" "  horiz-adv-x="491" />
<glyph unicode="&#x09;" horiz-adv-x="491" />
<glyph unicode="&#xa0;" horiz-adv-x="491" />
<glyph unicode="!" horiz-adv-x="563" d="M63 104q0 63 38.5 97.5t99.5 34.5q131 0 131 -115q0 -66 -33.5 -106t-97.5 -40q-65 0 -101.5 36.5t-36.5 92.5zM223 516q30 194 41.5 340t9.5 204.5t-9.5 121t-8.5 73.5q0 72 48.5 113t111.5 41q49 0 82.5 -26.5t33.5 -75.5q0 -31 -16 -70.5t-41.5 -94.5t-54.5 -128.5 t-59.5 -200.5t-51.5 -283q-7 -41 -51 -41q-13 0 -25 9.5t-10 17.5z" />
<glyph unicode="&#x22;" horiz-adv-x="567" d="M195 1026q9 58 13 114t3.5 88t-1.5 77t-1 61q0 164 106 164q26 0 40 -14t14 -52q0 -45 -47 -207t-60 -231q-4 -25 -49 -25q-8 0 -13.5 7.5t-4.5 17.5zM436 1026q9 58 13 114t4 87t-1 78t-1 61q0 164 106 164q26 0 39.5 -14t13.5 -52q0 -45 -46.5 -207.5t-59.5 -230.5 q-4 -25 -49 -25q-8 0 -14 7.5t-5 17.5z" />
<glyph unicode="#" horiz-adv-x="1017" d="M53 518q0 21 12.5 37.5t34.5 13.5q16 -2 162 -2q12 0 18 6.5t11 22.5q11 25 39.5 123.5t29.5 116.5q2 15 -1 20t-15 6q-45 3 -76 2.5t-70.5 -2.5t-45.5 -2q-7 0 -12 10t-5 23q0 21 10.5 37t30.5 16q6 0 75 -1t109 -1q14 0 22.5 5.5t16.5 25.5q14 44 53.5 189t43.5 173 q5 25 22 41.5t41 16.5q23 0 30 -20.5t-1 -37.5q-3 -9 -23.5 -79t-42.5 -147t-35 -130q-9 -37 13 -37q125 0 180 2q5 0 16.5 10.5t16.5 24.5q8 23 53.5 180.5t48.5 175.5q7 23 23.5 40.5t40.5 17.5q20 0 28.5 -21.5t-0.5 -36.5q-9 -24 -58 -188.5t-50 -177.5q-4 -27 18 -27 q25 0 67.5 0.5t69.5 0.5t39 -1q11 0 11 -26q0 -22 -9.5 -38.5t-29.5 -15.5q-20 2 -168 2q-19 0 -35 -37q-6 -12 -38.5 -119t-31.5 -118q0 -15 4.5 -20t16.5 -7q34 -3 96.5 -2.5t87.5 2.5q14 3 21.5 -5t7.5 -23q0 -21 -11.5 -39t-29.5 -17q-103 7 -195 2q-23 0 -37 -37 q-8 -24 -57.5 -198.5t-50.5 -190.5q-5 -24 -22 -42.5t-42 -18.5q-20 0 -29 17t-1 42q7 16 58 192t54 199v8.5v9.5t-0.5 7.5t-2.5 6.5t-5 4.5t-8 2.5q-107 8 -170 0q-20 -3 -29 -32q-15 -34 -63 -199t-56 -199q-14 -59 -63 -59q-23 0 -31 20.5t2 40.5q110 344 119 402 q0 12 -2 16.5t-12 7.5q-9 3 -28.5 4.5t-42 1.5t-42 -0.5t-36 -1t-17.5 -0.5q-23 0 -23 31zM385 594q-3 -31 25 -31q8 0 44 -1t66.5 -1t46.5 2q17 3 23 9t12 24q8 23 37.5 122t32.5 116q3 29 -23 32q-18 2 -69.5 2.5t-87.5 -2.5q-31 -3 -37 -32q-7 -20 -34.5 -114.5 t-35.5 -125.5z" />
<glyph unicode="$" horiz-adv-x="843" d="M29 209q0 35 19.5 58.5t51.5 23.5q23 0 40 -13.5t28.5 -35.5t22.5 -46t28 -50.5t39 -43.5q12 -9 20 -10t13 8.5t7.5 19t5.5 30.5q1 4 1 6q7 42 26 157t31 185q1 9 6 33.5t6.5 34t2.5 29t-2 30t-10 24t-19 23.5q-91 80 -140.5 162.5t-49.5 203.5q0 130 76.5 230.5 t209.5 130.5q44 7 56.5 17.5t17.5 41.5q1 5 2 16t2 15q3 22 13.5 31.5t35.5 9.5q19 0 29.5 -11t7.5 -28q-6 -12 -6 -37q0 -4 -0.5 -13.5t0 -13.5t3 -10.5t9.5 -11t19 -8.5q75 -25 124.5 -71t49.5 -83q0 -40 -20.5 -62t-55.5 -22q-34 0 -53.5 17t-38 53.5t-31.5 52.5 q-30 34 -43 -33q-27 -187 -63 -399q-4 -33 2 -50t28 -38q49 -43 81 -76.5t66 -81.5t51 -104.5t17 -120.5q0 -154 -85.5 -256.5t-229.5 -132.5q-5 -1 -17.5 -3t-16 -2.5t-11.5 -3t-11 -5t-7.5 -7t-6.5 -10.5t-4 -14q-6 -39 -6 -64q-3 -26 -15 -36.5t-40 -10.5q-23 0 -34 12.5 t-5 32.5q3 6 12 58q4 29 -1.5 38t-30.5 17q-74 22 -140.5 83t-66.5 134zM289 1120q0 -120 104 -231q15 -15 23.5 -8.5t15.5 39.5q31 190 55 354q2 20 1 33t-9.5 18t-27.5 2q-68 -11 -115 -66.5t-47 -140.5zM385 121q-6 -33 3 -46t36 -7q75 16 123.5 75.5t48.5 147.5 q0 129 -96 239q-14 16 -24 20t-16.5 -6.5t-10.5 -24.5t-9 -42q-25 -145 -55 -356z" />
<glyph unicode="%" horiz-adv-x="1474" d="M127 971q0 103 34 188.5t89.5 139t121 83t132.5 29.5q109 0 178.5 -72t69.5 -198t-54 -227.5t-138.5 -155t-180.5 -53.5q-111 0 -181.5 72.5t-70.5 193.5zM231 20q0 27 29 56q14 16 123 169.5t325 475t425 653.5q22 35 53 35q22 0 38.5 -15.5t16.5 -35.5q0 -14 -12 -29 q-16 -18 -430.5 -635t-429.5 -641q-23 -37 -40.5 -55t-41.5 -18q-21 0 -38.5 10t-17.5 30zM238 1044q0 -101 60 -167t136 -66q91 0 148 80.5t57 179.5q0 52 -22.5 105.5t-69 92t-103.5 38.5q-74 0 -140 -74.5t-66 -188.5zM754 246q0 102 34.5 187.5t90 139t121.5 82.5 t133 29q108 0 177.5 -72t69.5 -198q0 -190 -112 -313.5t-262 -123.5q-110 0 -181 74t-71 195zM866 317q0 -102 60 -167.5t139 -65.5q90 0 146.5 80.5t56.5 179.5q0 52 -23 105.5t-69.5 92t-104.5 38.5q-73 0 -139 -74.5t-66 -188.5z" />
<glyph unicode="&#x26;" horiz-adv-x="1798" d="M72 526q0 80 18 152.5t45.5 123t62 92.5t64 66t55.5 37q75 41 144 41q31 0 59 -9t45 -21.5t26.5 -22.5t12.5 -16q11 -16 20 -18t23 12q49 58 111.5 153.5t107.5 192.5q26 60 54 137q31 84 71 84q25 0 44.5 -22t19.5 -48q0 -34 -31 -84q-132 -209 -266 -402.5t-217.5 -303 t-147 -194.5t-78.5 -114q-28 -63 11 -112q41 -51 132.5 -90t194.5 -39q99 0 189 39.5t151.5 98.5t108 128t69 127.5t25.5 97.5q5 62 -71 126.5t-160 64.5q-54 0 -77 -27t-12.5 -58.5t42.5 -47.5q33 -18 47 -36t14 -46q0 -29 -23 -46.5t-63 -17.5q-42 0 -79.5 41.5 t-37.5 104.5q0 98 76 169.5t180 71.5q48 0 120 -30.5t137 -68.5t147.5 -75t144.5 -47q104 -17 131 119q6 22 25 22q17 0 32 -20.5t15 -54.5q-11 -90 -58.5 -151.5t-115.5 -61.5q-31 0 -72.5 12t-77.5 25t-71 23.5t-61.5 7t-39.5 -24.5q-3 -4 -17 -36.5t-32 -74t-51 -97 t-71 -108.5t-94 -105.5t-118.5 -92t-146 -64t-174.5 -24.5q-120 0 -219 46t-162 122.5t-97 173t-34 200.5zM184 594q0 -50 12 -96.5t31 -46.5q21 0 90 76t132 175.5t63 151.5q0 35 -27.5 54.5t-62.5 19.5q-63 0 -119.5 -55.5t-87.5 -132.5t-31 -146z" />
<glyph unicode="'" horiz-adv-x="325" d="M195 1026q9 58 13 114t3.5 88t-1.5 77t-1 61q0 164 106 164q26 0 40 -14t14 -52q0 -45 -47 -207t-60 -231q-4 -25 -49 -25q-8 0 -13.5 7.5t-4.5 17.5z" />
<glyph unicode="(" horiz-adv-x="587" d="M82 465q0 92 14 172q37 239 177.5 471.5t334.5 407.5q12 12 27 12q13 0 23 -10t10 -23q0 -18 -21 -39q-313 -309 -393 -819q-21 -141 -21 -260q0 -331 154 -557q10 -12 10 -31q0 -18 -13.5 -29.5t-29.5 -11.5q-14 0 -26 12q-112 141 -179 325.5t-67 379.5z" />
<glyph unicode=")" horiz-adv-x="587" d="M-66 -219q0 18 21 39q313 309 393 819q21 141 21 260q0 331 -154 557q-10 12 -10 31q0 18 13.5 29.5t29.5 11.5q14 0 26 -12q112 -141 179 -325.5t67 -379.5q0 -92 -14 -172q-37 -239 -177.5 -471.5t-334.5 -407.5q-12 -12 -27 -12q-13 0 -23 10t-10 23z" />
<glyph unicode="*" horiz-adv-x="653" d="M174 1290q0 22 13 40t30 18q15 0 39.5 -12t58.5 -31.5t60 -30.5q8 -3 15.5 1t8.5 13q7 46 10.5 113.5t4.5 73.5q3 29 20 45t39 16t35.5 -15.5t7.5 -43.5q0 -2 -18 -55.5t-29 -127.5q-1 -11 3.5 -15.5t12.5 -2.5q33 11 63 23.5t54.5 24.5t32.5 15q17 7 24 7q17 0 26 -11.5 t9 -29.5q0 -48 -47 -62q-12 -4 -58.5 -13.5t-94.5 -23.5q-7 -3 -10 -11t-1 -13q18 -39 49.5 -83t32.5 -46q8 -13 8 -29q0 -27 -20 -47.5t-43 -20.5q-26 0 -35 29q-3 6 -20 57.5t-35 92.5q-2 6 -9.5 6t-13.5 -6q-57 -78 -96 -150q-19 -31 -47 -31q-19 0 -32 15t-13 37 q0 24 18 45q1 1 43 41.5t76 87.5q5 10 3 18t-7 12q-34 13 -60.5 20t-46.5 11t-28 6q-33 9 -33 43z" />
<glyph unicode="+" horiz-adv-x="1228" d="M293 571q0 21 11.5 39t29.5 19q2 0 37.5 -1t70 -1.5t80.5 0.5q28 1 38 13t13 38q4 30 16 112t15 115q6 51 53 51q23 0 37.5 -14.5t7.5 -36.5q-11 -29 -45 -243q-2 -9 -2.5 -15.5t0.5 -10.5t2 -6.5t4.5 -3.5t5 -1h7.5h8q58 0 203 10q23 1 36 -12t13 -33q0 -22 -16 -37.5 t-46 -15.5q-23 0 -103 -1t-95 -1q-22 0 -27.5 -6t-11.5 -35q-8 -44 -21.5 -137.5t-15.5 -104.5q-3 -23 -20 -37t-37 -14q-19 0 -30.5 13t-8.5 38q3 21 18 102.5t19 112.5q8 44 0.5 56t-33.5 12q-14 0 -81 -3.5t-91 -3.5q-41 0 -41 43z" />
<glyph unicode="," horiz-adv-x="509" d="M35 82q0 55 40.5 92t98.5 37q44 0 77.5 -22t52 -56.5t27.5 -71.5t9 -73q0 -102 -70.5 -189t-175.5 -125q-4 -2 -14 -2q-19 0 -30 13.5t-11 31.5t10.5 33t28.5 19q61 14 105 62t50 97q4 25 -4 49.5t-28 24.5q-8 0 -36 -11t-46 -11q-43 0 -63.5 31t-20.5 71z" />
<glyph unicode="-" horiz-adv-x="727" d="M96 555q0 30 12 52t35 22q277 0 381 18q14 2 24.5 5t15.5 4t9 1q20 0 35 -24.5t15 -54.5q0 -28 -15.5 -47t-46.5 -19q-207 -2 -373 -16q-46 -4 -49 -4q-21 0 -32 18t-11 45z" />
<glyph unicode="." horiz-adv-x="462" d="M39 100q0 58 35 90.5t90 32.5q115 0 115 -108q0 -62 -29 -98.5t-86 -36.5t-91 34t-34 86z" />
<glyph unicode="/" horiz-adv-x="669" d="M-33 12q0 30 21 56q9 10 85 160.5t227.5 467.5t320.5 686q23 48 65 48q21 0 36 -13t15 -31q0 -11 -10 -28q-16 -24 -314.5 -640t-312.5 -648q-11 -27 -17 -38.5t-17 -26t-26 -20t-36 -5.5q-37 0 -37 32z" />
<glyph unicode="0" horiz-adv-x="1110" d="M111 496q0 81 16 174.5t47 191.5t80.5 188.5t111.5 161.5t145.5 113.5t176.5 42.5q80 0 145 -45t105.5 -120.5t62 -171t21.5 -200.5q0 -156 -46 -311.5t-121 -273.5t-177 -192t-207 -74q-118 0 -201 71.5t-121 185.5t-38 259zM285 520q0 -194 63.5 -312t177.5 -118 q73 0 131 63.5t92 154.5t56.5 203t30.5 198.5t8 150.5q0 84 -11.5 154.5t-36 129.5t-68.5 92.5t-105 33.5q-73 0 -133 -59.5t-97 -147.5t-62.5 -194.5t-35.5 -194.5t-10 -154z" />
<glyph unicode="1" horiz-adv-x="759" d="M-8 47q0 19 10 31.5t29 11.5q129 -8 173 13t64 100q25 105 78.5 427.5t61.5 438.5q3 40 -30.5 47t-178.5 -2q-13 -1 -22 14t-9 35q0 41 31 41q64 -1 122 18.5t97 47.5t68.5 56t48.5 47.5t26 19.5q9 0 19 -1.5t24 -14t14 -34.5q0 -12 -2 -20q-31 -133 -103.5 -595.5 t-76.5 -522.5q-2 -25 -2.5 -36.5t1 -28t5.5 -22t14 -13.5t22.5 -9.5t35.5 -4t49 -2t66 2.5q13 0 21.5 -14.5t8.5 -34.5q0 -21 -10.5 -34.5t-30.5 -12.5q-11 0 -87 3t-121.5 4t-119 2t-139 -1.5t-122.5 -7.5q-15 -1 -25 14.5t-10 36.5z" />
<glyph unicode="2" horiz-adv-x="954" d="M-29 31q0 36 21 63q76 54 160.5 124.5t185 172t178.5 202.5t131 217t53 216t-44.5 158.5t-139.5 58.5q-64 0 -119.5 -31.5t-85 -69t-53 -69t-31.5 -31.5q-15 0 -28 14t-13 31q0 7 2 11q17 39 50.5 82t84 87t123.5 72.5t152 28.5q123 0 204 -78.5t81 -210.5 q0 -73 -20.5 -148t-52.5 -138t-80 -129.5t-93.5 -117t-103.5 -106.5t-99 -91.5t-91.5 -78.5t-70.5 -61q-14 -11 -14 -23q0 -26 68 -26h112q115 0 184 18t109 80q19 25 43 25q15 0 25 -8t10 -21q0 -10 -4 -16q-65 -101 -127 -238q-11 -20 -49 -20q-13 0 -29 4 q-41 15 -87.5 17.5t-225.5 2.5q-154 0 -293 -8q-23 0 -23 35z" />
<glyph unicode="3" horiz-adv-x="935" d="M8 98q0 35 25 69t65 34q28 0 49.5 -13t36 -31.5t31 -37.5t45 -32t68.5 -13q125 0 216 98t91 227q0 55 -21 98.5t-55 70.5t-82.5 45t-99.5 25t-109 7q-26 0 -26 35q0 21 11 38.5t30 18.5q90 9 173.5 55t140 125t56.5 170q0 70 -42.5 118t-141.5 48q-50 0 -96.5 -18 t-72.5 -39t-47 -39t-26 -18q-30 0 -30 39q0 7 14 27.5t44.5 48.5t71 54t102.5 44t130 18q123 0 195.5 -62.5t72.5 -164.5q0 -64 -25 -126.5t-63.5 -109.5t-79 -81.5t-77.5 -53.5q-7 -4 -7 -10q0 -9 13 -12q5 -1 12.5 -4t30.5 -13.5t43.5 -24t46 -37t43.5 -50.5t30.5 -66.5 t12.5 -83.5q0 -140 -71.5 -252.5t-197 -175.5t-280.5 -63q-111 0 -180.5 30.5t-69.5 87.5z" />
<glyph unicode="4" horiz-adv-x="1015" d="M14 465q0 23 6 45t11 27q146 149 388 434t253 327q4 21 16.5 41t30.5 19q33 0 74.5 18.5t48.5 38.5q6 19 26 19q11 0 24 -8.5t13 -20.5q0 -4 -19.5 -107.5t-54 -309.5t-63.5 -417q-7 -44 33 -47q15 -1 43.5 0.5t44.5 1.5q59 0 59 -45q0 -34 -21 -54.5t-57 -20.5 q-7 0 -52.5 1t-57.5 1t-16.5 -7t-8.5 -24q-39 -228 -49 -322q-9 -55 -55 -55h-72q-41 0 -41 35q0 7 8 43q10 46 52 293q3 32 -27 35q-71 6 -225.5 6t-276.5 -9q-35 3 -35 62zM164 534.5q5 -9.5 22 -10.5q45 -3 194 -0.5t189 11.5q17 5 25 11t14 21q17 58 46.5 232t45.5 286 q5 26 -2.5 37t-19.5 8.5t-23 -12.5q-61 -61 -237.5 -262.5t-237.5 -273.5q-11 -14 -16 -26t0 -21.5z" />
<glyph unicode="5" horiz-adv-x="917" d="M8 96q0 42 22.5 82.5t55.5 40.5q25 0 44.5 -15t34.5 -36.5t33.5 -43.5t52 -37t79.5 -15q116 0 207.5 109t91.5 249q0 84 -36.5 147.5t-97 99.5t-130 53.5t-144.5 17.5q-45 0 -45 32l4 21q80 262 129 512q5 14 20.5 25.5t32.5 11.5q286 -9 302 -9q115 0 190 17q5 0 16 2 t15 2q14 0 14 -12q0 -71 -28.5 -117.5t-90.5 -46.5q-1 0 -117 2t-208 2q-59 0 -76.5 -8t-26.5 -41q-39 -136 -51 -215q-3 -21 3.5 -27t29.5 -6q45 0 92.5 -7t101 -22.5t100.5 -44t85.5 -67t61 -97t22.5 -129.5q0 -98 -41 -196.5t-110 -175.5t-168 -125.5t-206 -48.5 q-264 0 -264 116z" />
<glyph unicode="6" horiz-adv-x="1040" d="M104 420q0 173 40.5 327t108.5 265t155.5 193t183 122.5t188.5 40.5q83 0 146 -18t63 -58q0 -33 -23.5 -53t-62.5 -20q-18 0 -39 14.5t-53 29.5t-76 15q-81 0 -162.5 -67.5t-145 -180.5t-103 -275t-39.5 -337q0 -176 55 -262t149 -86q77 0 139 66t92 156t30 177 q0 135 -57.5 227t-147.5 92q-23 0 -56.5 -10t-42.5 -10q-10 0 -17 9.5t-7 21.5q0 8 4.5 17.5t18 21.5t33.5 21t55.5 15.5t80.5 6.5q61 0 116.5 -21t100 -61t71 -104.5t26.5 -145.5q0 -108 -30 -202t-79 -160t-111.5 -113.5t-127 -70.5t-125.5 -23q-163 0 -257 114t-94 326z " />
<glyph unicode="7" horiz-adv-x="839" d="M125 1124q0 6 12 29q19 39 29.5 61t19 41t11.5 27t12 32.5t16 43.5q8 24 35 24q30 0 59 -22q20 -10 212 -10t391 6q14 0 14 -10t-10 -29t-21 -34.5t-26 -35t-17 -22.5q-435 -636 -504 -1069q-26 -185 -127 -185q-79 0 -79 92q0 9 4 41q10 62 34 134.5t48.5 132.5t73 147 t77.5 137.5t93 148t88.5 133.5t95.5 138t84 121q17 27 -25 27q-192 4 -307 0q-106 -3 -154 -23t-84 -74q-1 -1 -5 -6l-6 -7.5t-5.5 -6t-7 -5t-6.5 -1.5q-9 0 -17 7.5t-8 16.5z" />
<glyph unicode="8" horiz-adv-x="995" d="M76 238q0 237 241 376q33 18 33 35q0 7 -5 14t-18 18.5t-16 14.5q-33 33 -56 62.5t-45 85.5t-22 117q0 167 128 287t305 120q153 0 233 -71.5t80 -186.5q0 -63 -22.5 -121.5t-52 -96.5t-66.5 -71.5t-57 -46.5t-34 -20q-1 -1 -10.5 -8t-13.5 -11t-9 -11.5t-5 -14.5 q0 -15 26 -35q67 -52 109.5 -125.5t42.5 -161.5q0 -89 -39 -168.5t-102.5 -133.5t-145.5 -85t-168 -31q-154 0 -232.5 75.5t-78.5 193.5zM227 279q0 -86 50 -146.5t143 -60.5q106 0 172.5 71t66.5 183q0 107 -68.5 186.5t-127.5 79.5q-10 0 -33.5 -8.5t-59 -31.5t-67 -56 t-54 -90.5t-22.5 -126.5zM356 1026q0 -97 71.5 -180.5t133.5 -83.5q10 0 35.5 14t59.5 42.5t64.5 66t51.5 91.5t21 111q0 85 -50.5 139t-148.5 54t-168 -74t-70 -180z" />
<glyph unicode="9" horiz-adv-x="1030" d="M76 74q0 33 23 57.5t59 24.5q14 0 29 -14t29 -30t45 -30t71 -14q60 0 123.5 45t119.5 127t100.5 186.5t70.5 234t26 259.5q0 162 -51.5 259t-159.5 97q-70 0 -129 -61.5t-91 -154t-32 -188.5q0 -126 74 -201t195 -75q9 0 28 4t29 4q14 0 21.5 -8.5t7.5 -20.5 q0 -38 -50 -63t-120 -25q-165 0 -260 87.5t-95 244.5q0 152 68.5 279.5t179.5 198.5t236 71q146 0 238.5 -123t92.5 -319q0 -88 -18 -190t-52 -209t-90 -205t-125 -175.5t-163.5 -123.5t-200.5 -46q-95 0 -162 26.5t-67 70.5z" />
<glyph unicode=":" horiz-adv-x="544" d="M78 100q0 58 34.5 90.5t88.5 32.5q114 0 114 -108q0 -63 -28 -99t-86 -36q-57 0 -90 34t-33 86zM193 842q0 58 34 89.5t88 31.5q115 0 115 -107q0 -63 -28.5 -99t-86.5 -36q-57 0 -89.5 34t-32.5 87z" />
<glyph unicode=";" horiz-adv-x="575" d="M76 82q0 55 40.5 92t98.5 37q44 0 77.5 -21.5t51.5 -56t26.5 -71t8.5 -72.5q0 -27 -2 -39q-12 -89 -77.5 -165t-166.5 -112q-4 -2 -14 -2q-18 0 -28.5 13.5t-10.5 31.5q0 19 10.5 33t26.5 19q61 14 105 62t50 97q5 23 -3.5 48.5t-28.5 25.5q-7 0 -35 -11t-45 -11 q-43 0 -63.5 31t-20.5 71zM195 842q0 58 34 89.5t88 31.5q115 0 115 -107q0 -63 -28.5 -99t-86.5 -36q-57 0 -89.5 34t-32.5 87z" />
<glyph unicode="&#x3c;" horiz-adv-x="1228" d="M303 494q0 41 23 55q27 18 122.5 74.5t203 123.5t192.5 127q25 19 43 19q19 0 29 -16t10 -39q0 -49 -33 -66q-22 -13 -133.5 -72.5t-194 -107t-100.5 -64.5q-16 -16 -16 -32q0 -21 22 -43q62 -51 206 -136.5t212 -109.5q37 -15 37 -62q0 -23 -12.5 -39t-34.5 -16 q-21 0 -45 16l-502 322q-29 17 -29 66z" />
<glyph unicode="=" horiz-adv-x="1228" d="M307 389q0 22 8.5 41.5t18.5 20.5q9 0 129.5 -0.5t246.5 2t175 10.5q14 3 25.5 -19.5t11.5 -48.5q0 -51 -37 -51q-29 -1 -114 1t-191 0.5t-230 -9.5q-22 -1 -32.5 14t-10.5 39zM307 745q0 23 10 44.5t21 21.5q209 -7 346 -5.5t201 15.5q14 3 24.5 -17t10.5 -46 q0 -24 -10 -41t-29 -17q-50 -2 -227.5 -0.5t-305.5 -1.5q-41 0 -41 47z" />
<glyph unicode="&#x3e;" horiz-adv-x="1228" d="M303 145q0 48 39 62q67 24 211.5 109.5t206.5 136.5q18 18 18 43q0 18 -14 32q-17 17 -99.5 64.5t-194.5 107t-134 72.5q-33 17 -33 66q0 23 11 39t30 16q18 0 43 -19q84 -61 189.5 -127t205 -124.5t123.5 -73.5q21 -15 21 -53q0 -51 -29 -68q-377 -242 -502 -322 q-24 -16 -45 -16q-22 0 -34.5 16t-12.5 39z" />
<glyph unicode="?" horiz-adv-x="921" d="M139 1114q0 53 25 105t71 95.5t119.5 70t161.5 26.5q173 0 292.5 -97t119.5 -253q0 -67 -28 -127.5t-73.5 -104.5t-100 -83t-109 -70t-100 -57.5t-73.5 -52.5t-28 -50q0 -5 3 -15.5t15.5 -23t30.5 -12.5q8 0 33.5 15.5t36.5 15.5t20.5 -11.5t9.5 -27.5q0 -26 -31 -49 t-98 -23q-73 0 -117.5 46t-44.5 101q0 43 37 88t92.5 82.5t120.5 83.5t120.5 89.5t92.5 101t37 117.5q0 104 -87 167.5t-224 63.5q-93 0 -166.5 -55.5t-73.5 -136.5q0 -60 34 -93.5t62 -33.5q37 0 48.5 14t11.5 45q0 33 22 59.5t72 26.5q51 0 74.5 -34.5t23.5 -65.5 q0 -65 -62.5 -102.5t-150.5 -37.5q-91 0 -155 53t-64 150zM229 104q0 63 38.5 97.5t99.5 34.5q131 0 131 -115q0 -66 -33.5 -106t-97.5 -40q-65 0 -101.5 36.5t-36.5 92.5z" />
<glyph unicode="@" horiz-adv-x="1546" d="M29 297q0 110 28.5 228.5t81 232t131 215.5t173 179t213.5 122t245 45q138 0 247.5 -48t178 -130t104 -185.5t35.5 -220.5q0 -65 -14 -139.5t-40.5 -152t-69.5 -148t-96 -126.5t-124.5 -89t-150.5 -33q-67 0 -110.5 37t-43.5 96q0 27 -13 32t-30 -22q-27 -47 -77.5 -84.5 t-112.5 -37.5t-104.5 39.5t-60.5 98t-18 130.5q0 142 59.5 271t164.5 208.5t227 79.5q15 0 36.5 7.5t35.5 14.5l14 7q19 0 45 -29t29 -55q0 -16 -18.5 -108.5t-37 -221t-18.5 -231.5q0 -72 17.5 -108t70.5 -36q81 0 152 66t114.5 161.5t68.5 194.5t25 174q0 146 -56.5 262 t-168 185t-260.5 69q-136 0 -261.5 -55t-220.5 -149.5t-166 -215t-107.5 -256t-36.5 -268.5q0 -257 132 -417t361 -160q82 0 153.5 22.5t110 49t67.5 49t36 22.5q13 0 21.5 -13t6.5 -32q-3 -20 -38.5 -48.5t-89 -55t-127 -45.5t-142.5 -19q-135 0 -243.5 48.5t-180 134.5 t-109.5 203t-38 255zM547 379q0 -82 23.5 -133t56.5 -51q72 0 137.5 129t77.5 372q0 38 -16 63t-46 25q-57 0 -103.5 -39.5t-73.5 -102t-41.5 -130.5t-14.5 -133z" />
<glyph unicode="A" d="M-86 43q0 19 12 31.5t35 9.5q4 -1 9 -1q30 1 63 31q38 34 73 109q3 6 27 52t63.5 121.5t95 184.5t141 278.5t183.5 365.5q6 13 6 24.5t-3 24t-3 20.5q0 37 41 37q38 0 66.5 16t62.5 60q12 12 25 12t16 -10q20 -149 106.5 -634.5t119.5 -608.5q5 -19 10 -30.5t15.5 -27 t29.5 -21t45 -1.5q23 4 35 -8t12 -33q0 -22 -12 -37q-10 -12 -26 -12h-7q-42 5 -172 6h-32q-109 0 -181 -6h-3q-19 0 -29 10q-10 12 -11 31q0 20 10.5 35t28.5 14q11 -1 21 -1q39 1 57 17q26 23 26 83q0 27 -16 129q-18 108 -29 159q0 19 -14 23q-94 12 -210 12 q-94 0 -202 -8q-25 -1 -36 -10t-25 -35q-65 -116 -111 -234q-12 -31 -12 -56q1 -29 17 -47q26 -29 101 -30q17 0 36 2q22 1 33.5 -12.5t11.5 -34.5t-12 -35q-10 -12 -28 -13q-3 0 -7 1q-66 5 -189 6h-30q-104 0 -187 -6q-4 -1 -7 -1q-18 1 -28 13q-12 14 -12 35zM424 641 q-6 -12 -6 -21q0 -18 24 -24q21 -6 117.5 -6t196.5 10q45 3 45 44v9q-6 62 -36 231t-50 255q-3 13 -5 17q-1 4 -5 8q-1 1 -3 2q-4 0 -8 -5q-6 -7 -16 -24q-48 -80 -130 -240t-124 -256z" />
<glyph unicode="B" horiz-adv-x="1169" d="M23 47q0 25 22.5 36.5t50.5 13t56 17t36 46.5q101 503 172 1059q2 8 2 24q0 29 -11.5 38t-37.5 9q-9 0 -33 -1t-38 -1q-33 0 -33 43q0 22 12.5 41t32.5 19q12 0 53 -1t70 -1q145 0 360 6q49 0 95.5 -8t93 -27.5t80.5 -50t55.5 -78.5t21.5 -109q0 -77 -26 -144 t-61.5 -108.5t-77.5 -73t-69 -44.5t-42 -17q-17 -5 -21 -16q0 -10 17 -17q32 -14 64 -35.5t67 -56.5t56.5 -86.5t21.5 -111.5q0 -80 -26 -148.5t-70 -117.5t-102 -83.5t-122 -51.5t-129 -17q-52 0 -159 3t-166 3q-84 0 -175 -6q-18 0 -29 16t-11 37zM342 166q0 -40 44.5 -62 t129.5 -22q143 0 227 90t84 223q0 112 -64 183t-177 71h-121q-20 0 -33 -6t-20 -19.5t-9.5 -22.5t-5.5 -26q-18 -84 -53 -399q0 -2 -1 -5.5t-1 -4.5zM436 774q0 -18 9.5 -23.5t35.5 -5.5h109q130 0 230 100t100 247q0 100 -62.5 157.5t-167.5 57.5q-93 0 -138.5 -19 t-51.5 -61q-5 -37 -22.5 -149t-29.5 -196.5t-12 -107.5z" />
<glyph unicode="C" horiz-adv-x="1261" d="M119 551q0 140 37 270.5t107 237t164.5 186t215.5 123t254 43.5q40 0 87.5 -8t99 -27t93 -45.5t68.5 -67t27 -87.5q0 -49 -26.5 -74t-61.5 -25q-33 0 -55 13t-33 34t-20 46.5t-22.5 51t-33.5 46.5t-59 34t-95 13q-149 0 -278 -94t-207 -262t-78 -371q0 -115 34 -209.5 t91.5 -155t133 -93t159.5 -32.5q160 0 293 99q4 3 9.5 7.5t8.5 6.5t7 4t8 2q12 0 21 -16.5t9 -36.5q0 -22 -14 -39q-9 -9 -23 -21t-53 -35.5t-82 -42t-110.5 -32.5t-139.5 -14q-254 0 -395 156.5t-141 414.5z" />
<glyph unicode="D" horiz-adv-x="1384" d="M27 45q0 20 8 33.5t22 13.5q6 0 18 -1t17 -1q75 0 98 80q37 133 103 547t69 528q0 37 -25 49t-54.5 7.5t-54.5 4.5t-25 42q0 17 11 30t32 13h428q283 0 452.5 -140t169.5 -397q0 -137 -32 -263.5t-97.5 -234t-158.5 -187t-221.5 -124.5t-278.5 -45h-434h-6 q-20 0 -30.5 14t-10.5 31zM371 236q0 -46 15 -76t45 -44t62 -19t78 -5q105 0 202 51.5t172 144.5t120 235.5t45 312.5q0 77 -14 143.5t-47 126t-84 101.5t-129.5 66.5t-178.5 24.5q-69 0 -96.5 -15t-40.5 -64q-22 -91 -85.5 -514t-63.5 -469z" />
<glyph unicode="E" horiz-adv-x="1126" d="M23 45q0 22 10 37t26 12q21 -2 37 -4t29.5 4.5t22.5 11t17 16t12.5 19t8.5 20t5.5 19.5t3.5 17q58 292 114 656t56 413q-1 14 -10 22t-23.5 10.5t-33 2.5t-38.5 -1q-22 -1 -34.5 15.5t-12.5 38.5q1 18 11 30q10 11 27 11h3q112 -9 368 -10h51q221 0 349 8h15q63 0 63 -41 q0 -14 -18.5 -90.5t-32.5 -122.5q-7 -25 -21.5 -38.5t-30.5 -13.5q-14 0 -22.5 10t-7.5 27q6 26 6 47q1 70 -59 98q-78 36 -304 36q-26 0 -45 -9t-29.5 -26t-15.5 -32t-10 -38q-9 -42 -34.5 -195t-29.5 -198q-6 -45 25 -45q15 -1 70 -1q27 1 63 1q110 0 139 2q35 5 55 33.5 t29 89.5q4 18 20 29.5t34 11.5q31 0 31 -33q0 -7 -1 -16q-22 -117 -51 -306q-6 -33 -21 -50t-34 -17q-18 0 -28.5 14.5t-6.5 36.5q6 30 6 51q0 16 -4 26q-8 24 -39 32q-24 6 -139.5 6t-140.5 -4q-12 -2 -19 -10.5t-9 -14.5t-5 -20q-54 -322 -62 -424q-3 -17 -3 -32 q0 -35 16 -51q22 -22 104 -22q161 0 225 15q21 5 39 14t33.5 25t26.5 28t24.5 36t19 34.5t19 39.5t17.5 36q16 36 47 36q16 0 31 -14.5t12 -28.5q-26 -121 -76 -280q-5 -12 -22 -25.5t-44 -13.5q-96 0 -249.5 5t-346.5 5q-35 0 -92 -5t-71 -5h-7q-17 0 -27 12q-12 15 -11 37 z" />
<glyph unicode="F" horiz-adv-x="1046" d="M20 43q0 20 10.5 35t26.5 14q33 -3 58 3.5t38 16t23 27t12.5 26.5t6.5 25q78 401 167 1055q4 43 -16 53q-13 6 -45 7q-16 0 -37 -2q-20 -1 -31.5 13.5t-11.5 35.5q0 20 11 33q9 11 24 11q4 0 8 -1q90 -10 283.5 -10t490.5 10h6q41 0 41 -29q0 -12 -11.5 -58.5t-27 -106.5 t-20.5 -83q-4 -20 -19 -30.5t-32 -10.5q-16 0 -25 9t-6 26q8 36 8 64q0 33 -12 55q-22 40 -94.5 57t-224.5 17q-32 0 -53 -7t-31.5 -23t-14.5 -29.5t-8 -37.5q-72 -417 -76 -446q-1 -7 -1.5 -12.5t0 -9t1 -6.5t2 -5t2.5 -3.5t3.5 -2t3.5 -1t4 -1t4 -0.5q28 -5 130 -5h37 q68 0 83 1q53 3 77 31.5t35 91.5q3 18 17 28.5t30 10.5q17 0 27 -12.5t6 -35.5q-41 -254 -47 -305q-6 -32 -21 -47.5t-34 -15.5q-18 0 -29 12.5t-8 32.5q4 26 4 46q0 24 -6 38q-10 28 -39 31q-21 3 -106 3h-29q-110 0 -140 -5q-12 -2 -21.5 -12t-10.5 -25 q-13 -81 -32 -218.5t-22 -175.5q-3 -27 -2 -43t9.5 -29t26 -16.5t47.5 -5.5q8 0 16 -1q25 0 59 5q19 3 31 -14.5t12 -40.5q-1 -23 -13 -37q-10 -12 -28 -13q-4 0 -8 1q-62 6 -212 6q-10 0 -19 1q-135 0 -211 -7q-4 -1 -7 -1q-17 1 -27 13q-12 14 -12 35z" />
<glyph unicode="G" horiz-adv-x="1368" d="M121 537q0 246 96 444t276.5 314t413.5 116q158 0 279 -68t121 -163q0 -46 -25.5 -74.5t-64.5 -28.5t-63 17.5t-34 44t-25.5 57.5t-35.5 57.5t-66.5 44t-115.5 17.5q-157 0 -289.5 -103.5t-206.5 -269.5t-74 -350q0 -145 44 -259t135 -182.5t216 -68.5q146 0 218 63 q6 5 11 10.5t9 13.5t7 15.5t7 22.5t6.5 28t7 38t8.5 46.5t10.5 59.5t12.5 72q4 28 -11.5 35.5t-49.5 7.5q-74 0 -94 -2q-18 0 -29.5 14.5t-11.5 36.5q0 19 9.5 32t27.5 13q26 0 91 -4t99 -4q43 0 106 3t78 3q26 0 39 -13t13 -32t-10 -32t-25 -13h-27q-20 0 -32.5 -7.5 t-16.5 -17t-6 -25.5q-9 -52 -17.5 -108.5t-13 -87t-10.5 -62.5t-11.5 -48t-14 -29t-21.5 -19q-111 -57 -208 -84.5t-210 -27.5q-249 0 -385.5 148.5t-136.5 408.5z" />
<glyph unicode="H" horiz-adv-x="1513" d="M14 41q0 20 10.5 35t26.5 12h54t52 20t33 60q52 278 112 665q56 363 56 416v6q0 29 -24 45q-17 11 -41 11q-11 0 -23 -2q-20 -4 -32.5 11t-12.5 36q0 16 10 28q9 11 26 11h3q87 -6 175.5 -6.5t178.5 6.5h4q23 -1 35 -11q13 -12 13 -30q0 -20 -11 -35t-26 -12q-21 3 -38 3 q-23 0 -39 -6q-26 -11 -32 -47l-75 -473q-3 -19 2 -26t24 -10q40 -7 184 -7q49 0 109 1q240 3 311 12q54 8 58 41q65 406 65 466q0 53 -70 53q-12 0 -26 -1q-19 -3 -30 11.5t-11 33.5q0 20 10 30q8 8 22 8q4 0 9 -1q41 -3 77 -5t60.5 -2.5t56 0t46 1.5t50 3t50.5 3h5 q28 1 41 -11q15 -12 15 -32q0 -16 -10.5 -29t-26.5 -12q-12 1 -23 1q-34 0 -51 -8q-22 -10 -36 -44q-9 -45 -85.5 -527t-84.5 -573q-1 -42 22 -57q16 -11 49 -11q13 0 29 2q23 1 35 -12t12 -33q1 -22 -13 -39q-11 -14 -30 -14h-6q-66 7 -164 7t-229 -7q-45 0 -45 43 q0 21 12 36.5t31 12.5q16 -2 30 -2q96 0 111 94q14 75 38 220.5t30 195.5q3 31 -5 41.5t-34 13.5q-32 4 -159 4q-51 0 -116 -1q-230 -2 -315 -9q-44 -4 -51 -45q-51 -207 -68 -446q-3 -42 18 -56q14 -10 46 -10q15 0 35 2q23 3 34 -9.5t11 -31.5q0 -22 -12 -38 q-12 -15 -32 -15h-3q-142 4 -240.5 4t-153.5 -4h-3q-20 0 -30 12t-10 33z" />
<glyph unicode="I" horiz-adv-x="688" d="M12 47q0 20 9.5 34t27.5 13q2 0 15.5 -2t18 -2.5t17 -1.5t18.5 0t17 2.5t17 6t13.5 10t12.5 14.5t8 20q26 81 106 583q75 472 75 534v6q-1 30 -33 42q-19 7 -41 7q-16 0 -33 -4q-19 -4 -31 9.5t-12 33.5t11 32q10 12 29 11h3q84 -7 176 -7t191 7h4q27 0 41 -12 q14 -13 14 -33q0 -18 -11 -31t-28 -12q-22 2 -39 2q-24 -1 -40 -5q-26 -8 -40 -42q-16 -40 -90.5 -527.5t-77.5 -591.5q-1 -37 24 -45q16 -5 49 -6q19 0 44 2q23 1 35 -12t12 -33q0 -22 -14 -38q-13 -15 -32 -15h-3q-122 8 -226.5 8t-189.5 -8h-7q-18 0 -28 12 q-12 16 -12 39z" />
<glyph unicode="J" horiz-adv-x="638" d="M-221 -322q0 30 24 60.5t54 30.5q39 0 88 -52q26 -32 59 -32q36 0 69.5 43.5t57.5 132.5q39 157 125 745t86 645q3 39 -20 51q-17 10 -59 10q-14 0 -30 -1q-20 -1 -31.5 12.5t-11.5 32.5t10 30q9 10 24 10q4 0 9 -1q35 -4 67 -6.5t64.5 -3.5t54.5 -1t55 1.5t48 2.5 t51.5 3.5t47.5 3.5h4q23 0 35 -13t12 -34q0 -16 -8 -28.5t-21 -12.5q-21 1 -37 1t-28 -1q-22 -2 -41 -15.5t-29 -42.5q-11 -33 -42.5 -260t-77.5 -529t-87 -483q-35 -156 -155.5 -275.5t-237.5 -119.5q-44 0 -86.5 28t-42.5 68z" />
<glyph unicode="K" horiz-adv-x="1255" d="M14 51q0 20 9 32t26 11q2 0 15.5 -2t18 -2.5t17 -1.5t18.5 0t17 2.5t17 6t13.5 10t12.5 14.5t8 20q24 81 104 583q77 483 77 537q-1 31 -35 45q-18 7 -39 7q-15 0 -33 -4q-20 -4 -31.5 9t-11.5 34q0 20 11 32q10 12 29 11h3q84 -7 176 -7t191 7h4q24 0 36 -12 q13 -13 13 -33q0 -18 -10.5 -32t-24.5 -11q-22 4 -40 4q-21 1 -37 -5q-28 -10 -40 -44q-16 -40 -90.5 -527.5t-77.5 -591.5q-4 -37 22 -45q16 -5 50 -6q20 0 45 2q23 1 35 -13.5t12 -35.5q0 -22 -11 -36t-32 -13q-122 8 -225.5 8t-189.5 -8q-25 -3 -38.5 14t-13.5 41z M508 696q0 43 24 64q38 33 177 181.5t225 264.5q30 39 32 62.5t-14.5 30.5t-46.5 4q-20 -3 -32.5 13t-12.5 38q0 20 12 32q10 10 28 10q4 0 9 -1q41 -5 79 -7q30 -2 65 -2h17q44 0 62.5 1t73 4.5t64.5 3.5h3q19 1 29 -11t11 -34q0 -22 -12.5 -38.5t-34.5 -13.5 q-1 0 -7.5 1.5t-8.5 1.5t-9 1t-10.5 1t-10.5 -0.5t-12 -1.5t-12 -3t-13 -5t-12.5 -7.5t-13.5 -9.5q-56 -47 -120 -108t-120 -121.5t-99.5 -108.5t-81 -92t-42.5 -49q-1 -1 -6 -8t-6.5 -9.5t-5 -8.5t-4.5 -9.5t-2.5 -9.5t-1.5 -11t1.5 -11.5t4.5 -12.5q164 -353 275 -506.5 t202 -153.5q16 0 16 -24q0 -31 -20 -41q-46 -23 -127 -23q-44 0 -77 12t-76.5 50.5t-90 111.5t-110 194.5t-144.5 299.5q-14 28 -14 59z" />
<glyph unicode="L" horiz-adv-x="1046" d="M23 49q0 21 8 33.5t24 11.5q25 -1 50.5 -0.5t49.5 17.5t35 49q24 80 100 565q75 473 75 524q0 34 -30 52q-17 10 -43 10q-17 0 -38 -4q-19 -4 -30 9.5t-11 33.5q1 20 11 33q10 12 27 12h3q80 -7 179.5 -7t217.5 7h4q27 0 42 -12q16 -13 16 -33q0 -18 -11 -31t-28 -12 q-16 2 -31 2q-38 1 -66 -11q-39 -16 -49 -51q-22 -41 -98 -519q-71 -444 -70 -561v-17q2 -34 70 -48q58 -12 122 -12h22q76 2 122 14q30 8 62 40t58 75t40.5 71.5t24.5 51.5q16 39 49 39q14 0 24.5 -11t10.5 -30q0 -9 -4 -25q-16 -52 -35 -108.5t-35.5 -105.5t-22.5 -66 q-10 -37 -44 -37h-5q-29 0 -195 5q-151 5 -289 5h-27q-150 0 -236 -12q-5 -1 -9 -1q-17 0 -27 13q-12 16 -13 41z" />
<glyph unicode="M" horiz-adv-x="1718" d="M27 47q0 20 9 33t27 12q29 -3 52 7.5t38 27.5t26.5 44.5t17.5 52t12 55.5q20 113 60.5 398t70.5 537q3 22 3 39q0 27 -8 41q-9 16 -42 15q-12 0 -27 -2q-16 -3 -26.5 11t-10.5 34q-1 20 11 33q9 11 26 10h8q41 -7 104 -7t106 4l42 3q38 -1 58.5 -27t25.5 -51 q24 -143 103.5 -515t95.5 -452q5 -22 14 -22q10 0 25 26q116 196 291.5 536t222.5 443q3 9 11 20.5t28.5 24.5t46.5 13h219q28 0 41.5 -11t13.5 -26q0 -19 -14 -34.5t-29 -12.5q-30 5 -51 5q-32 0 -44 -12q-20 -18 -32 -87q-1 -6 -2 -9q-36 -202 -85.5 -525.5t-71.5 -508.5 q-1 -8 -1.5 -13.5t0 -15t3 -15.5t6.5 -13.5t11.5 -12t18 -7.5t26.5 -3t36 4q24 4 37.5 -11t13.5 -38q0 -21 -12 -35.5t-31 -13.5q-90 12 -191.5 12t-215.5 -12q-19 -1 -29 12.5t-10 34.5q0 22 9.5 37t27.5 14q25 -2 44 -2q28 0 44 4q28 8 39 30t20 75q67 350 162 975 q2 14 -6 17.5t-15 -13.5l-602 -1162q-15 -24 -45 -24q-31 0 -31 24q-167 823 -237 1172q-1 6 -7 9.5t-12.5 -1t-7.5 -16.5q-102 -686 -131 -926q-2 -20 -2 -37q0 -50 19 -83q26 -44 110 -44q20 1 31.5 -16.5t11.5 -40.5q0 -18 -8.5 -29t-24.5 -10q-77 10 -171.5 10 t-206.5 -10q-18 -3 -28.5 13t-10.5 38z" />
<glyph unicode="N" horiz-adv-x="1406" d="M16 39q0 23 11 39.5t30 15.5q32 -3 55.5 4.5t37 18t24.5 35t15 41t12 50.5q1 6 2 9q21 105 71 446.5t54 366.5q11 73 14 113q1 14 1 28q1 24 -3 42q-6 29 -22.5 38t-47.5 6q-21 -1 -32 13t-11 34q0 22 14.5 38.5t39.5 13.5q70 -2 115.5 -2t66.5 2q27 3 51 -30t51 -101 q169 -416 432 -922q7 -12 20.5 -11.5t16.5 13.5q21 101 68.5 420.5t54.5 417.5q1 15 1 28q0 50 -18 74q-20 28 -83 27h-13q-18 0 -28 13.5t-10 31.5t12 32q9 11 25 11h8q59 -5 109 -7q37 -1 57 -2h13q20 0 72.5 4t67.5 5h4q26 0 40 -13q16 -14 16 -34q0 -16 -10.5 -28.5 t-28.5 -12.5q-101 0 -123 -123q-108 -582 -183 -1184q-3 -12 -23 -19.5t-44 -7.5q-42 0 -53 23q-215 493 -519 1112q-3 7 -12 6.5t-10 -14.5q-18 -103 -61.5 -430t-53.5 -418q-4 -45 -4 -81q1 -5 1 -9q0 -38 27 -58q18 -13 51 -13q15 0 34 3q27 3 41 -11.5t14 -37.5 q0 -21 -11.5 -36.5t-29.5 -12.5q-94 8 -190 8t-193 -8q-16 -3 -24.5 10t-8.5 33z" />
<glyph unicode="O" horiz-adv-x="1437" d="M119 549q0 115 31 235.5t93.5 232.5t147.5 200t202.5 141t248.5 53q235 0 372.5 -149.5t137.5 -399.5q0 -171 -59 -333t-156.5 -282.5t-232 -193.5t-277.5 -73q-236 0 -372 156.5t-136 412.5zM311 596q0 -226 99.5 -371t255.5 -145q84 0 170.5 53t158.5 146.5t118 238.5 t46 313q0 220 -99.5 352t-256.5 132q-97 0 -180 -47t-139 -122.5t-96 -171t-58.5 -192t-18.5 -186.5z" />
<glyph unicode="P" horiz-adv-x="1101" d="M33 43q0 22 9.5 37.5t25.5 15.5q6 0 23 -2t26 -2q27 0 46 15.5t27 58.5q40 203 100 598t60 463q0 42 -21 60t-61 18h-24q-15 0 -23 11.5t-8 29.5q0 19 10.5 34t28.5 15l39 -5q62 -4 180 -4q45 0 125 3.5t125 3.5q48 0 97.5 -12t98 -38.5t86 -65t61 -96.5t23.5 -128 q0 -117 -38 -211.5t-96 -152t-131.5 -96.5t-140 -54t-126.5 -15q-33 0 -33 27q0 25 14.5 42t43.5 17q87 0 165 64t122 158t44 186q0 55 -11.5 103t-37.5 92.5t-77 71t-121 26.5q-138 0 -156 -80q-17 -70 -45.5 -250.5t-36.5 -247.5q-1 -7 -16.5 -110.5t-27.5 -183.5 t-23 -167t-11 -112q0 -68 70 -68q10 0 31 2t28 2q21 0 33 -14.5t12 -34.5t-13 -35.5t-32 -15.5q-37 0 -103.5 4t-103.5 4q-87 0 -194 -8q-21 0 -32 13t-11 34z" />
<glyph unicode="Q" horiz-adv-x="1431" d="M121 549q0 172 58 331t156 275.5t232.5 186t280.5 69.5q234 0 368 -148.5t134 -398.5q0 -239 -113 -454t-293 -332q-17 -13 -8 -39q7 -17 30 -57t60 -97t82 -98t82 -41q7 0 73 42t72 42q12 0 30 -12q19 -12 19 -30q0 -14 -42 -62q-44 -50 -109.5 -97t-112.5 -47 q-30 0 -61 18t-61.5 53.5t-55 68t-52.5 83t-41 75t-33 65.5l-7 14q-17 31 -49 31q-17 0 -67 -4t-70 -4q-235 0 -368.5 156t-133.5 411zM317 596q0 -226 99.5 -371t255.5 -145q66 0 135 32.5t133 98t114.5 154t80.5 210t30 256.5q0 220 -99.5 352t-256.5 132q-97 0 -180 -47 t-139 -122.5t-96 -171t-58.5 -192t-18.5 -186.5z" />
<glyph unicode="R" horiz-adv-x="1210" d="M25 45q0 22 12.5 38t32.5 13q14 -2 26 -2q78 0 99 88q36 169 92.5 535.5t72.5 511.5v8q0 34 -25 48q-21 12 -57 12q-11 0 -24 -1q-20 -3 -32.5 12t-12.5 35t11 34t32 14q80 0 224.5 2t160.5 2q101 0 184 -17.5t148.5 -54t102 -99t36.5 -145.5q0 -277 -324 -411 q-40 -17 -40 -48q0 -14 8 -30q15 -29 47.5 -104t63.5 -140.5t69 -133.5t80 -108.5t82 -40.5q18 0 18 -26q0 -13 -6 -27t-16 -18q-14 -7 -56 -15t-76 -8q-45 0 -90 41t-84.5 114.5t-69 140t-64.5 155t-50 121.5q-27 60 -63 69q-14 4 -44 6t-42 0q-8 -1 -11.5 -2t-10 -6 t-11 -16t-8.5 -29q-9 -50 -28.5 -201t-19.5 -178q-1 -9 -1 -16q1 -37 13 -55q14 -21 40.5 -19t62.5 4q21 1 33 -15t12 -38q0 -20 -11 -34.5t-32 -14.5q-126 6 -228.5 6t-180.5 -6q-22 -1 -33.5 13t-11.5 36zM439 756v-10q0 -8 1 -12q2 -6 6 -14t11 -10.5t18 -2.5h88 q151 0 259 103t108 257q0 125 -82.5 185.5t-216.5 60.5q-38 0 -63.5 -8t-37 -22.5t-14.5 -22.5t-6 -21q-5 -30 -18.5 -117t-28.5 -184.5t-19 -122.5q-3 -23 -3.5 -33t-1.5 -26z" />
<glyph unicode="S" horiz-adv-x="935" d="M27 190q0 32 18 59t49 34q6 2 19 2q24 0 43.5 -15t32.5 -38t32 -49.5t40 -49.5t58 -38t84 -15q88 0 143.5 62.5t55.5 142.5q0 71 -27.5 139.5t-68.5 120.5t-89.5 112t-89.5 113.5t-68.5 124.5t-27.5 145q0 97 49 181t143 137t214 53t196 -45t76 -119q0 -38 -27 -62 t-69 -24q-26 0 -45 16t-33.5 38.5t-32 45t-50.5 38.5t-79 16q-77 0 -131.5 -53t-54.5 -132t40.5 -157.5t97.5 -145t114.5 -134t98 -150t40.5 -168.5q0 -168 -123 -281.5t-297 -113.5q-203 0 -315 155q-16 24 -16 55z" />
<glyph unicode="T" horiz-adv-x="1159" d="M133 1061v5q0 48 47 259q3 14 10.5 28.5t29.5 28.5q20 13 47 13h7q144 -8 365 -8q37 1 76 1q273 2 434 7h4q21 0 35 -11q14 -12 17 -23.5t3 -27.5q0 -31 -10.5 -117t-21.5 -143q-3 -18 -17.5 -28.5t-30.5 -10.5q-32 0 -32 43q2 23 2 43q0 93 -44 138q-49 50 -152 50 q-11 0 -23 -1q-70 -3 -90 -20t-31 -77q-33 -159 -85 -502t-69 -544q-1 -10 -1 -18q1 -32 15 -44q13 -11 44 -10q14 0 32 2q22 3 33.5 -9t11.5 -32q1 -23 -13 -41q-13 -17 -34 -16h-2q-98 6 -195 6t-194 -6h-3q-21 0 -31 12q-11 14 -11 35q0 22 11 38t30 13q26 0 52 -0.5 t49.5 15.5t29.5 49q30 129 63 324.5t70 441t43 284.5q3 21 3 37q0 30 -12 41q-19 17 -87 19h-12q-112 0 -184 -52q-76 -55 -107 -186q-9 -35 -39 -35q-11 0 -20.5 8t-12.5 21z" />
<glyph unicode="U" horiz-adv-x="1327" d="M190 1350q0 18 10 32q10 13 30 13h3q50 -5 93 -7q36 -2 70 -3q8 1 14 1q40 0 63 1t66 4t59 4h5q24 1 35 -9q13 -10 13 -28q0 -19 -14.5 -35.5t-32.5 -15.5q-14 2 -27 2q-70 0 -88 -56q-49 -229 -106 -671q-9 -68 -12 -122q-1 -23 -1 -46q0 -32 2 -64q4 -56 20.5 -97.5 t45 -75t76.5 -51t113 -17.5q147 0 237.5 108t136.5 361q43 256 105 677q8 34 -20 47q-16 7 -42 7q-20 0 -47 -4q-23 -3 -36 10t-13 33t14 34t37 11q29 -3 55.5 -5.5t53 -2.5t44 -0.5t45.5 1t40 2.5t44 3.5t42 3.5h7q48 0 48 -41q0 -20 -12.5 -35t-30.5 -14q-23 4 -41 4 q-65 0 -77 -47q-33 -156 -68.5 -385t-48.5 -302q-17 -105 -42.5 -190t-69 -162.5t-101.5 -129.5t-142 -82.5t-188 -30.5q-81 0 -142.5 20.5t-108.5 65t-70.5 115.5t-28.5 173q-1 18 -1 37q0 88 19 199q70 445 103 665q6 27 -25 43q-23 12 -52 13q-11 0 -22 -2q-19 -4 -29 8 t-10 33z" />
<glyph unicode="V" d="M96 1350q0 20 12 34q10 12 25 12q3 0 6 -1q63 -7 182 -7q99 0 238 5q37 0 37 -37q0 -19 -10 -34.5t-23 -14.5q-14 2 -26 2q-33 0 -53 -14q-28 -19 -31 -56v-7q-1 -60 43 -344q46 -302 102 -589q4 -13 10 -18.5t12.5 -1t12.5 17.5q99 190 253.5 516t190.5 418q9 21 9 36 q0 21 -16 31q-19 12 -61 12q-19 0 -44 -3q-23 -3 -36.5 11t-13.5 34q1 20 13 32t33 11h4q164 -8 186 -8t195 8h3q17 -1 25 -11q10 -12 10 -30q0 -20 -10 -34t-26 -13q-13 1 -24 1q-40 0 -62 -14q-28 -18 -52 -57q-21 -35 -49.5 -87.5t-68.5 -132.5l-76 -152t-94 -192.5 t-98 -204t-113.5 -236t-116.5 -242.5q-2 -3 -29.5 -9t-48.5 -6q-29 0 -29 11q-180 1125 -225 1261q-8 30 -40 47q-26 14 -59 14q-8 0 -16 -1q-26 -1 -38.5 11.5t-12.5 31.5z" />
<glyph unicode="W" horiz-adv-x="1826" d="M106 1350q0 20 10.5 34t26.5 11q67 -8 190 -7q106 0 253 5q19 0 28 -12t9 -29q0 -19 -10 -33.5t-23 -13.5q-21 3 -42 3q-34 0 -62 -8q-48 -14 -50 -61v-10q0 -73 24 -337q26 -284 62 -538q2 -14 6.5 -19.5t11 -1t13.5 18.5q113 214 241 492.5t228 523.5q6 19 27.5 32 t44.5 13q32 0 32 -29q9 -97 56 -448.5t92 -595.5q2 -12 6 -17.5t9 -2t11 17.5q78 175 187 465.5t155 427.5q7 22 7 38q0 19 -12 29q-15 11 -49 12q-17 0 -38 -3q-22 -3 -34.5 11t-12.5 34q0 19 12.5 31.5t34.5 11.5q147 -8 170 -8t181 8q19 1 27.5 -10.5t8.5 -30.5 q0 -21 -9 -34.5t-27 -12.5q-12 1 -23 1q-78 0 -113 -69q-75 -172 -503 -1243q-3 -10 -22.5 -16.5t-39.5 -6.5q-33 0 -33 13q-19 123 -69.5 504t-73.5 493q-3 27 -12 36t-19 3t-18.5 -15.5t-13.5 -19.5q-337 -692 -472 -991q-4 -10 -22.5 -16.5t-38.5 -6.5q-31 0 -31 13 q-19 169 -45.5 404t-39 346.5t-28 238t-25 186.5t-17.5 86q-13 61 -75 61q-7 0 -15 -1q-22 -1 -34 11.5t-12 31.5z" />
<glyph unicode="X" horiz-adv-x="1314" d="M-59 39q0 21 13 38.5t30 16.5q20 -4 39 -4q25 0 48 6q41 12 66 41q40 47 112.5 131t113.5 132t97 117t103 132q10 14 10 31q0 16 -8 35q-108 261 -241 520q-12 25 -23 40t-34 26.5t-54 7.5q-22 -3 -33.5 10.5t-11.5 32.5q0 20 12 32q11 12 30 11h3q75 -6 174 -6.5 t223 6.5h4q24 -1 36 -11q14 -12 14 -28q0 -20 -14 -36t-32 -13q-15 2 -29 2q-33 -1 -59 -13q-28 -14 -27 -37q0 -8 3 -18q78 -188 180 -385q16 -32 36 -18q8 7 30 32q174 209 284 367q8 11 12 21t3.5 22t-11.5 18q-11 8 -34 12q-11 2 -26 2q-17 0 -38 -3q-19 -1 -31 12.5 t-12 32.5q0 16 11.5 28.5t31.5 12.5q19 -1 69.5 -3.5t70 -3t60.5 -0.5q8 0 16 -1q32 0 64 2q39 2 89 6h4q25 -1 37 -11q14 -12 14 -28q0 -20 -13 -36t-30 -13q-13 2 -24 2q-32 0 -58 -14q-35 -19 -70 -56q-217 -236 -383 -457q-1 -1 -6.5 -8t-7.5 -10t-6.5 -10t-6 -12.5 t-3 -13.5t0 -16t5.5 -16q125 -277 287 -551q10 -16 15.5 -24t15.5 -16.5t21.5 -11t29.5 -3t43 3.5q22 3 33.5 -10t11.5 -33q0 -23 -14 -41q-12 -15 -30 -14h-6q-98 9 -212.5 9t-247.5 -9h-7q-18 0 -29 13q-13 16 -13 38q0 20 10 34t28 13q25 -7 58 -7q18 0 38 2q47 5 47 30 q0 6 -3 14q-28 83 -88.5 210.5t-104.5 205.5q-2 2 -5.5 6.5t-5 6.5t-5 4t-7 0.5t-9 -4t-13 -9t-16.5 -16.5q-116 -130 -299 -387q-13 -17 -16.5 -28.5t2 -20t25.5 -9.5t56 2q26 3 40 -12.5t14 -38.5q0 -20 -12 -34q-11 -13 -31 -13h-3q-112 8 -204 8t-164 -8h-4 q-24 0 -36 12q-13 12 -13 31z" />
<glyph unicode="Y" horiz-adv-x="1155" d="M125 1350q0 20 11 33t32 12q67 -7 153 -7q97 0 218 9h7q50 0 50 -41q0 -20 -12.5 -36t-30.5 -15q-16 3 -30 3q-39 0 -58 -21q-18 -19 -18 -45q0 -12 4 -25q75 -249 163 -451q12 -23 35 0q63 75 171 226.5t147 219.5q12 18 14.5 38t-5.5 36.5t-29.5 23t-57.5 -2.5 q-22 -4 -34.5 11.5t-12.5 37.5q0 39 37 39q28 -1 79.5 -3.5t74 -3t60.5 -0.5q8 -1 15 -1q30 0 57 2q34 2 76 6q26 1 38.5 -10.5t12.5 -30.5t-11.5 -33.5t-29.5 -13.5h-11q-29 0 -52 -9q-27 -11 -38.5 -22t-37.5 -39q-84 -97 -256.5 -333t-200.5 -302q-16 -40 -39.5 -194 t-27.5 -258q-3 -41 27 -52q16 -7 42 -7q22 0 52 5q22 3 33.5 -10t11.5 -33q0 -23 -14.5 -40.5t-37.5 -16.5q-110 9 -212 9q-113 0 -216 -11h-7q-18 0 -28 12q-12 15 -12 37q0 23 11.5 39.5t29.5 13.5q3 0 20.5 -3t25 -3.5t23.5 -1t25 2.5t20.5 8t19 15.5t12.5 24.5 q24 85 54 274q25 157 25 203q0 8 -1 13q-38 142 -114.5 343.5t-125.5 297.5q-15 29 -29.5 36.5t-54.5 0.5q-20 -4 -31.5 9t-11.5 34z" />
<glyph unicode="Z" horiz-adv-x="1097" d="M35 68q0 33 16 55q341 448 768 1102q14 23 19 37.5t-2.5 26t-30.5 14.5q-27 4 -117 4q-60 0 -149 -2q-56 -1 -95.5 -16.5t-66.5 -49t-43.5 -73t-32.5 -101.5q-3 -14 -19 -22.5t-36 -8.5q-16 0 -27.5 7t-11.5 18q2 41 13 132.5t22 133.5q7 33 25.5 51.5t58.5 18.5 q116 0 288 -1q173 -2 254 -2h55q57 0 119 1q43 0 43 -50q0 -25 -18 -51q-426 -563 -774 -1120q-17 -25 -17 -41q0 -24 37 -27q113 -10 226 -10q47 0 83.5 7t65.5 24.5t49.5 36.5t41 54.5t34.5 66t35 82.5q14 36 65 36q45 0 45 -32q0 -11 -15.5 -66.5t-38 -133t-32.5 -120.5 q-11 -55 -90 -55q-44 0 -263 1t-437 1q-22 0 -34.5 21t-12.5 51z" />
<glyph unicode="[" horiz-adv-x="559" d="M45 -219q0 11 4 33t4 24q102 550 264 1632q4 26 13.5 32.5t31.5 6.5h72.5t69.5 -0.5t56.5 -1t41 -0.5h16.5q35 3 35 -28q0 -23 -13 -47.5t-36 -20.5q-18 6 -141 6q-23 0 -29 -41q-6 -39 -64.5 -411t-114 -724t-56.5 -362q-1 -14 1 -23t7.5 -12.5t10 -4.5t11.5 -1 q95 0 119 6q13 3 22 -5t9 -25q0 -26 -12 -46.5t-37 -19.5q-189 0 -250 -2q-35 0 -35 35z" />
<glyph unicode="\" horiz-adv-x="606" d="M182 1378q0 22 18.5 37t41.5 15q16 0 28 -12t15 -36q82 -784 153 -1241q3 -20 8 -44t8 -39.5t3 -26.5q0 -21 -10.5 -36t-34.5 -15q-20 0 -32 5.5t-18.5 20t-8.5 26t-5 38.5q-66 622 -147 1202q-3 24 -11 58.5t-8 47.5z" />
<glyph unicode="]" horiz-adv-x="579" d="M-53 -242q0 26 11 49t34 19q24 -6 114 -6q38 0 46 39q3 11 59 367.5t115 734.5t65 415q6 41 -16 41q-124 0 -142 -6q-14 -3 -23 7.5t-9 29.5q0 25 12.5 42.5t36.5 16.5q42 0 129 1t133 1q10 0 14.5 -0.5t9.5 -5.5t5 -16q0 -3 -11 -76q-68 -396 -131 -800.5t-92 -612 t-31 -229.5q-2 -19 -14 -31t-31 -12q-62 2 -254 2q-15 -2 -22.5 5.5t-7.5 24.5z" />
<glyph unicode="^" horiz-adv-x="784" d="M33 879q0 26 26 65q47 65 132 187.5t147 212.5l61 90q22 34 66 34q33 0 39 -26q133 -368 190 -508q8 -21 8 -41q0 -28 -15.5 -42.5t-37.5 -14.5q-43 0 -51 38q-109 365 -133 404q-7 15 -19.5 18t-24.5 -2.5t-22 -15.5q-52 -68 -130 -189.5t-126 -207.5q-23 -41 -67 -41 q-19 0 -31 10t-12 29z" />
<glyph unicode="_" horiz-adv-x="1056" d="M-76 -90q0 22 9.5 41t21.5 20h221t425.5 3t277.5 10q15 0 27 -21.5t12 -46.5q0 -22 -11 -36.5t-33 -14.5q-33 -1 -201.5 1t-360.5 0.5t-343 -9.5q-45 0 -45 53z" />
<glyph unicode="`" horiz-adv-x="385" d="M72 1442q0 13 10.5 22t28.5 9q3 0 33 1t46 1q17 0 26 -8t13 -31q7 -41 28.5 -112.5t39.5 -126.5t18 -62q0 -20 -16.5 -32.5t-36.5 -12.5q-23 0 -31 14q-22 52 -53.5 114t-58 109.5t-31.5 58.5q-16 33 -16 56z" />
<glyph unicode="a" horiz-adv-x="925" d="M45 272q0 93 27 189.5t78.5 182.5t120 154t158 108t185.5 40q19 0 49.5 15.5t32.5 15.5q28 0 57 -32.5t29 -63.5q-1 -22 -56.5 -290t-55.5 -349q0 -54 11 -89.5t30 -35.5q20 0 39.5 10t23.5 10q13 0 20 -13t7 -26q0 -30 -61 -74t-140 -44q-33 0 -49.5 34t-18 75.5 t-3 75.5t-7.5 34q-8 0 -24 -27q-45 -74 -111 -133t-141 -59q-71 0 -118 42.5t-65 105.5t-18 144zM190 309q0 -89 30 -140.5t75 -51.5q39 0 84 38t90 110.5t82 198t53 281.5q1 10 1 19q1 32 -13 56q-18 30 -60 30q-83 0 -164 -86.5t-129.5 -212.5t-48.5 -242z" />
<glyph unicode="b" horiz-adv-x="960" d="M104 295q0 124 83 543t83 514q-14 43 -71 43h-58q-35 0 -35 51q0 22 38.5 31t107.5 20t115 31q15 6 20 6q21 0 41.5 -30.5t15.5 -51.5q-188 -925 -188 -1120q0 -131 31 -190.5t116 -59.5q73 0 144 81.5t113 196.5t42 218q0 124 -30.5 184.5t-110.5 60.5 q-35 0 -74.5 -19.5t-48.5 -19.5q-15 0 -28 19q-7 10 -7 18q0 12 25 43q15 18 33.5 36t66.5 40.5t101 22.5q42 0 80 -15t73 -48.5t55.5 -97t20.5 -149.5q0 -176 -68 -332t-181.5 -248.5t-241.5 -92.5q-144 0 -203.5 80.5t-59.5 234.5z" />
<glyph unicode="c" horiz-adv-x="788" d="M63 367q0 150 55.5 285.5t161.5 223t238 87.5q59 0 109.5 -18t70.5 -32q23 -14 23 -77q0 -67 -10 -97q-6 -24 -14.5 -32.5t-24.5 -8.5q-35 0 -41 23q-28 156 -152 156q-74 0 -134 -79.5t-89 -184.5t-29 -201q0 -41 7 -88t24 -100t52 -87.5t83 -34.5q46 0 88.5 24t67.5 53 t48.5 53t35.5 24q14 0 26.5 -9.5t12.5 -19.5q0 -15 -23 -52.5t-63 -82t-108 -78.5t-144 -34q-65 0 -118.5 35t-86 91.5t-49.5 124t-17 136.5z" />
<glyph unicode="d" horiz-adv-x="972" d="M53 295q0 100 22.5 194.5t70 177.5t114 145t161 98t204.5 36q45 0 59 45q27 87 44 198q15 99 15 151v12q0 22 -9.5 32.5t-35.5 10.5h-104q-18 0 -26.5 21t-8.5 38q0 20 21 23q153 16 243 49q18 6 25 6q27 0 49 -26q17 -21 17 -42q0 -6 -1 -12q-41 -168 -112 -583.5 t-92 -604.5q-2 -19 -2 -35q0 -36 9 -63q13 -39 40 -39q12 0 50 17.5t50 17.5q20 0 31.5 -18.5t11.5 -41.5q0 -31 -86.5 -76.5t-148.5 -45.5q-38 0 -59.5 34t-25.5 75.5t-7 75.5t-9 34q-3 0 -5.5 -4t-6.5 -12t-6 -11q-127 -192 -256 -192q-64 0 -111 26t-73.5 71.5t-39 99.5 t-12.5 118zM203 348q0 -103 35.5 -168t89.5 -65q42 0 90 38t94.5 110.5t81.5 199t45 282.5v10q0 37 -20 63q-23 28 -72 28q-67 0 -124.5 -32.5t-97 -84.5t-67.5 -118t-41.5 -133t-13.5 -130z" />
<glyph unicode="e" horiz-adv-x="819" d="M59 356q0 96 31 200.5t86 196t143 151t191 59.5q90 0 147.5 -46t57.5 -120q0 -59 -36 -107t-93 -80.5t-115.5 -57t-117 -49.5t-83.5 -46q-23 -18 -34 -43t-11 -68q0 -60 18 -113.5t63 -93t110 -39.5q24 0 46 5t41.5 16t34 20t30 26t23 25t21 26t15.5 20q14 18 30 18 q17 0 31 -9.5t17 -19.5q2 -7 -10.5 -33t-42 -62.5t-70 -70.5t-103 -57.5t-131.5 -23.5q-88 0 -155.5 54.5t-100.5 138.5t-33 183zM239 572q3 -12 14 -11q6 0 15 4q18 9 62.5 26t80 33t73.5 39t59.5 54.5t21.5 68.5q0 35 -25.5 59.5t-68.5 24.5q-45 0 -88 -28.5t-72 -70 t-47.5 -83t-23.5 -72.5q-3 -14 -3 -25t2 -19z" />
<glyph unicode="f" horiz-adv-x="657" d="M-156 -332q0 27 18.5 45.5t47.5 18.5q17 0 53 -7.5t57 -7.5q38 2 58.5 31t32.5 102q49 282 114 941q3 26 -1 36.5t-21 10.5q-14 0 -52 -1t-42 -1q-21 0 -21 45q0 24 8.5 42.5t22.5 18.5h102q10 0 16.5 2.5t10 9t4 7.5t2.5 8q14 93 36 171.5t59.5 151.5t87 124t121 81.5 t157.5 30.5q62 0 101.5 -29t39.5 -78q-5 -39 -31 -57t-53 -17t-45 11q-73 43 -121 43q-21 0 -51 -10q-65 -25 -95 -107t-65 -295q-1 -6 -1 -11q0 -34 34 -34h43h51q55 1 90 2l35 2q17 1 26 -14.5t9 -40.5q0 -30 -13.5 -53.5t-35.5 -20.5q-160 17 -221 17q-21 0 -28.5 -4.5 t-10.5 -26.5q-61 -501 -109 -920q-10 -81 -45.5 -143t-83 -95t-92 -49t-82.5 -16q-43 0 -80 25.5t-37 60.5z" />
<glyph unicode="g" horiz-adv-x="862" d="M-35 -217q0 45 23 84t66 69t85 50.5t97 40.5q11 3 14 8.5t-0.5 11t-9.5 8.5q-213 94 -213 164q0 23 28 48t61 43t61 39.5t28 39.5q0 13 -13.5 40t-26.5 71.5t-13 99.5q0 90 45.5 175t119.5 137.5t152 52.5q39 0 105.5 -15.5t99.5 -15.5q29 0 74.5 11t58.5 11q43 0 43 -63 q0 -88 -100 -88q-21 0 -44 5t-31 7.5t-16 -0.5q-6 -5 2 -26.5t19.5 -62t11.5 -79.5q0 -83 -32 -148t-84 -103t-112 -56q-55 -16 -111 -16h-13h-4q-54 0 -92 -24q-41 -25 -41 -54t64.5 -59t156 -61t183 -67.5t156 -91.5t64.5 -119q0 -77 -69 -139.5t-176.5 -95.5t-227.5 -33 q-164 0 -276.5 61t-112.5 140zM143 -170q0 -71 88.5 -117.5t192.5 -46.5q89 0 155 32t66 97q0 61 -68.5 110.5t-162.5 65.5q-32 4 -43 4q-86 0 -157 -41.5t-71 -103.5zM285 649q0 -73 36.5 -140t98.5 -67q60 0 102 51t43 132q0 40 -6.5 77t-21.5 73t-44.5 57.5t-70.5 21.5 q-64 0 -100.5 -66t-36.5 -139z" />
<glyph unicode="h" horiz-adv-x="995" d="M66 106q0 54 45 158q35 218 86 579.5t61 506.5q0 11 -3 19.5t-10.5 13t-15 7.5t-20 3.5t-21.5 0.5t-23.5 -0.5t-21.5 -0.5q-45 0 -45 49q0 33 31 35q33 2 111.5 17.5t111.5 31.5q15 6 19 6q24 0 43.5 -27.5t13.5 -54.5q-30 -116 -67 -354.5t-39 -313.5q0 -13 6.5 -17 t15.5 0.5t18 14.5q137 183 318 183q39 0 72.5 -13t64.5 -43t48.5 -87.5t17.5 -137.5q0 -185 -55.5 -357.5t-141 -275t-172.5 -102.5q-39 0 -65.5 22t-26.5 64q0 36 17 68t42 32q4 0 27 -4t33 -4q35 0 57 14q156 112 156 463q0 97 -37.5 166.5t-110.5 69.5 q-114 0 -202 -118.5t-136 -363.5q-13 -71 -22 -142t-12 -109t-8 -70t-14 -43.5t-26 -11.5q-44 0 -82 30.5t-38 95.5z" />
<glyph unicode="i" horiz-adv-x="559" d="M74 860v12q0 35 28 37q33 4 101 18.5t104 28.5q19 7 25 7q26 0 47.5 -25t21.5 -53q-2 -18 -58.5 -327t-57.5 -378q0 -55 37 -55q19 0 43 11t30 11q16 0 23.5 -16.5t7.5 -32.5q0 -15 -35 -43t-85 -51.5t-85 -23.5q-86 0 -86 141q0 41 47 331t47 330q0 45 -123 45 q-17 0 -23.5 7t-8.5 26zM252 1292q0 44 33.5 82.5t76.5 38.5q47 0 82 -28.5t35 -77.5q0 -44 -33 -79.5t-77 -35.5q-42 0 -79.5 30.5t-37.5 69.5z" />
<glyph unicode="j" horiz-adv-x="509" d="M-350 -285q0 22 18 42t41 20q24 0 51.5 -16t49 -34.5t51.5 -34.5t59 -16q100 0 164 195q44 141 88 432t47 479q0 45 -119 45q-26 0 -30 25q-2 10 -2 29q0 26 30 28q29 2 102.5 17t108.5 30q6 2 17 2q26 0 45 -25.5t16 -47.5q-94 -754 -137 -924q-26 -107 -72.5 -184.5 t-102.5 -118t-111.5 -58.5t-113.5 -18q-40 0 -84 13.5t-80 45.5t-36 74zM219 1292q0 44 34 82.5t77 38.5q45 0 79.5 -28.5t34.5 -77.5q0 -43 -33 -79t-75 -36t-79.5 30.5t-37.5 69.5z" />
<glyph unicode="k" horiz-adv-x="1026" d="M90 47q0 107 44.5 411.5t89 579.5t44.5 310q0 45 -125 45q-15 0 -22 6.5t-8 23.5l-2 29q0 22 26 25q105 8 207 41q30 10 41 10q21 0 35 -21.5t14 -48.5q-2 -27 -33.5 -205.5t-65.5 -381.5q-35 -203 -61 -443q-23 -209 -23 -349q0 -21 1 -40q0 -39 -29 -39h-106 q-17 0 -22 9.5t-5 37.5zM366 476q-1 7 -1 14q0 16 6 34q31 59 72 121.5t100 134.5t132.5 124t145.5 65q24 4 41 4q46 0 77.5 -20t31.5 -60q0 -37 -25 -59t-65 -25q-6 0 -31.5 -1.5t-46.5 -3t-33 -5.5q-71 -23 -156 -92t-116 -129q-5 -14 -5 -28q0 -26 17 -54 q124 -211 155 -256q87 -125 146 -127q27 0 54.5 12t31.5 12q16 0 27.5 -14.5t11.5 -26.5q0 -27 -58 -71.5t-120 -44.5q-29 0 -53 7t-43 16.5t-41 33.5t-38 45t-41.5 64.5t-44 77.5t-54.5 99t-64 115q-9 16 -13 38z" />
<glyph unicode="l" horiz-adv-x="503" d="M90 121q0 40 83 600.5t83 626.5q0 45 -123 45q-19 0 -26 7.5t-7 26.5v11q0 34 27 39q141 20 219 47q4 2 14 2q24 0 44 -24t20 -52q-3 -27 -50.5 -315t-92 -580t-48.5 -371v-8q0 -55 39 -55q20 0 45 9t31 9q11 0 19 -15t8 -26q0 -16 -26.5 -43t-75 -51t-97.5 -24 q-86 0 -86 141z" />
<glyph unicode="m" horiz-adv-x="1646" d="M53 860q0 21 5 31t22 14q8 2 50.5 8.5t91.5 17t87 25.5q14 7 31 7q23 0 37.5 -24t11.5 -54q-2 -27 -12 -103q-3 -20 12 -20q17 0 25 16q6 11 18.5 28.5t39.5 46t58 52t77 41t93 17.5q79 0 141 -42t81 -139q3 -20 14 -20q14 0 22 16q4 10 14.5 27.5t36 46t56 52.5 t78.5 41.5t100 17.5q37 0 72 -10t71 -34t58 -72.5t22 -115.5q0 -80 -46 -308.5t-46 -256.5q0 -35 23 -35q7 0 47 16.5t47 16.5q37 0 37 -58q0 -23 -93 -74.5t-143 -51.5q-45 0 -65 42q-13 28 -13 63q0 17 3 36q5 36 29 160.5t41.5 235t17.5 171.5q0 152 -119 152 q-78 0 -148 -90.5t-112 -219t-54 -260.5q-3 -32 -5.5 -66.5t-4 -57t-3 -47t-3.5 -39.5t-5 -30t-7 -23t-10 -15t-14 -9.5t-19 -2.5q-53 0 -86 34t-33 88q0 72 53 162q53 214 53 354q0 44 -7.5 81t-24 70t-49 52t-78.5 19q-72 0 -142 -90t-114.5 -220t-57.5 -260 q-3 -40 -5.5 -83t-3 -69t-2.5 -52t-5 -40t-9.5 -25.5t-17 -16t-26.5 -4.5q-42 0 -80.5 30t-38.5 82q0 67 57 172q22 97 36 248q14 141 13 255v15q0 29 -20 35q-36 10 -125 10q-20 0 -27.5 7t-7.5 26z" />
<glyph unicode="n" horiz-adv-x="1093" d="M53 860q0 22 5.5 32t21.5 13q7 1 40.5 7t59.5 11t61 13.5t60 17.5q27 9 35 9q25 0 40.5 -23.5t12.5 -54.5q-2 -27 -12 -103q-3 -20 12 -20q13 0 21 16q5 12 25 38t55.5 61t94 60.5t122.5 25.5q36 0 68.5 -10t65 -34t51.5 -72t19 -116q0 -77 -43 -299.5t-43 -265.5 q0 -33 21 -33q13 0 48.5 16.5t43.5 16.5q37 0 37 -60q0 -27 -95 -76.5t-141 -49.5q-41 0 -59 46q-13 35 -14 71q0 12 2 24q4 35 47 264.5t43 300.5q0 74 -33 114t-96 40q-80 0 -151 -92t-113.5 -221.5t-55.5 -262.5q-3 -40 -5 -82t-3 -67t-2.5 -51t-4 -39.5t-9 -25 t-17 -15.5t-26.5 -4q-43 0 -79 29t-36 89q0 62 53 166q53 344 53 518q0 29 -20 35q-36 10 -125 10q-20 0 -27.5 7t-7.5 26z" />
<glyph unicode="o" horiz-adv-x="894" d="M68 344q0 130 39 245.5t104 197t152.5 129t183.5 47.5q70 0 120 -33t75.5 -88.5t37 -114.5t11.5 -125q0 -134 -41 -251t-109.5 -197t-157.5 -126t-184 -46q-57 0 -100.5 25.5t-67.5 63t-39 89.5t-19.5 95t-4.5 89zM221 416q0 -56 6.5 -107.5t22 -105.5t48.5 -86.5 t79 -32.5q70 0 127.5 63.5t90 170t32.5 231.5q0 58 -7.5 110t-25 102.5t-52 80.5t-83.5 30q-30 0 -62 -17.5t-63.5 -55.5t-56.5 -90.5t-40.5 -128.5t-15.5 -164z" />
<glyph unicode="p" horiz-adv-x="1021" d="M68 860q0 22 5 32t21 13q146 24 211 45q38 13 49 13q23 0 37.5 -24t11.5 -54q-2 -27 -12 -103q-3 -20 12 -20q14 0 25 16q13 22 36 49t59 59.5t85.5 54.5t100.5 22q104 0 153 -74t49 -230q0 -173 -58 -329t-163.5 -254.5t-232.5 -98.5q-50 0 -76.5 29t-26.5 68 q0 28 16.5 56t45.5 28q22 0 63 -19.5t68 -19.5q55 0 102.5 56t76 135.5t44.5 158t16 133.5q0 104 -36 162.5t-101 58.5q-55 0 -104.5 -30t-81.5 -72t-58 -94.5t-38.5 -89t-18.5 -64.5q-37 -142 -74.5 -377t-44.5 -448q0 -12 -10.5 -23.5t-21.5 -11.5q-100 -8 -103 -8 q-24 0 -24 33q10 148 93.5 634t84.5 512q0 26 -21 33q-36 10 -127 10q-19 0 -25.5 7t-6.5 26z" />
<glyph unicode="q" horiz-adv-x="911" d="M70 295q0 168 62.5 319.5t183.5 250t272 98.5q209 0 209 -117q0 -8 -3.5 -26.5t-8.5 -44t-7 -40.5q-37 -210 -79.5 -507t-53.5 -441q-3 -43 21 -43q20 0 82 31q24 12 34 12q11 0 21 -12t10 -25q0 -16 -8 -29q-15 -26 -109.5 -82.5t-134.5 -56.5q-27 0 -47 28.5t-18 57.5 q5 85 70.5 562t68.5 546v7q0 45 -37 65q-27 14 -68 14q-87 0 -159 -79.5t-110 -195t-38 -233.5q0 -46 1 -76t6 -68.5t14 -61t26.5 -38.5t42.5 -16q17 0 45 14t50 33q11 11 20 11q12 0 22.5 -12.5t10.5 -26.5q0 -21 -31 -52q-81 -81 -178 -81q-49 0 -85 26t-56.5 71.5 t-30.5 99.5t-10 118z" />
<glyph unicode="r" horiz-adv-x="774" d="M59 860q0 22 5.5 32t21.5 13q129 19 209 45q42 13 49 13q23 0 37 -22.5t14 -55.5q-1 -21 -8 -59t-8 -44q-3 -20 12 -20q10 0 21 16q115 185 290 185q47 0 74 -21.5t27 -58.5q0 -42 -29 -73.5t-72 -31.5q-21 0 -61.5 17.5t-65.5 17.5q-68 0 -133.5 -106.5t-104 -248 t-42.5 -261.5q-3 -128 -15 -172.5t-51 -44.5q-43 0 -78.5 28.5t-35.5 89.5q0 62 53 166q63 320 63 518q0 26 -20 35q-23 10 -117 10q-20 0 -27.5 7t-7.5 26z" />
<glyph unicode="s" horiz-adv-x="686" d="M2 141q0 26 25 50t57 24q20 0 38 -15.5t33 -38t31.5 -45t42 -38t56.5 -15.5q45 0 68.5 29t23.5 76q0 50 -25 106.5t-61 108t-72 105t-61 116.5t-25 123q0 105 83 169.5t198 64.5q78 0 143.5 -44t65.5 -100q0 -37 -21.5 -57.5t-54.5 -20.5q-21 0 -45 19t-43.5 42.5 t-51 42.5t-65.5 19q-36 0 -58 -26.5t-22 -59.5q0 -40 28 -93.5t67.5 -108t79 -111t67.5 -118.5t28 -114q0 -121 -78 -185t-206 -64q-113 0 -179.5 53t-66.5 106z" />
<glyph unicode="t" horiz-adv-x="684" d="M96 881q0 25 10.5 46t34.5 21q44 0 80.5 15t59 35.5t40 48t25 45t12.5 34.5q1 3 2.5 8.5t2.5 7.5t2.5 6t2.5 5t3 3.5t4.5 3t6 1t7.5 0.5l39 2q29 0 29 -20q0 -8 -17 -75t-20 -93q-2 -13 5.5 -21t29.5 -8q172 0 231 6q33 3 33 -28q0 -17 -3.5 -36t-15.5 -36.5t-30 -17.5 q-144 6 -204 6h-24q-27 -1 -38 -9.5t-17 -29.5q-21 -63 -55 -289t-35 -319q0 -19 2 -31t12 -23.5t29 -11.5q10 0 23.5 4t29.5 11t27.5 13t27 14.5t19.5 10.5q8 4 14 4q15 0 28 -14t13 -31q0 -12 -6 -20q-9 -15 -52 -47.5t-102.5 -62t-99.5 -29.5q-51 0 -86 33t-35 100 q0 71 20.5 225t45 303.5t26.5 163.5q6 39 -30 39h-70q-37 0 -37 37z" />
<glyph unicode="u" horiz-adv-x="1079" d="M72 858q0 28 5 38t23 11q119 12 215 45q27 9 31 9q23 0 40 -25t13 -53q-102 -573 -102 -658q0 -38 5.5 -63.5t24 -44.5t50.5 -19q58 0 112.5 43t95 112t69 147.5t42.5 156.5q3 18 15.5 81.5t24.5 133t20 137.5q1 11 3.5 18t11.5 13t24 6h92q31 0 26 -37 q-5 -29 -24.5 -142.5t-30 -176t-24.5 -154t-21 -151t-8 -92.5q0 -35 5 -48.5t21 -13.5q20 0 53.5 17.5t37.5 17.5q19 0 31 -17.5t12 -42.5q0 -22 -91 -74t-143 -52q-63 0 -63 118q0 18 6 99q0 16 -10 16q-7 0 -23 -27q-59 -91 -138 -148.5t-175 -57.5q-191 0 -191 221 q0 61 41.5 295t44.5 278v10q0 26 -13 34.5t-38 8.5q-12 0 -35 -2t-33 -2q-16 2 -24 9t-8 26z" />
<glyph unicode="v" horiz-adv-x="964" d="M72 858q0 27 4.5 36.5t21.5 12.5q26 2 90 17.5t109 33.5q15 5 20 5q33 0 49.5 -31t16.5 -74q0 -66 -41 -306t-41 -319q0 -135 90 -135t182.5 91t143.5 225q37 96 37 182q0 34 -6 66q-4 20 -33.5 59.5t-56.5 83t-27 76.5q0 32 29 56t69 24q54 0 91 -37.5t51 -87t14 -105.5 q0 -102 -27 -208.5t-79.5 -202.5t-121.5 -172t-159.5 -121t-188.5 -45q-83 0 -124.5 66t-41.5 173q0 94 37 293.5t37 259.5q0 11 -2 19.5t-4 14t-8 9t-10 5.5t-14.5 2.5t-16.5 0.5t-21.5 -1t-23.5 -1q-22 0 -33.5 7t-11.5 28z" />
<glyph unicode="w" horiz-adv-x="1419" d="M72 864q0 23 4.5 31.5t21.5 11.5q110 15 189 41q39 13 47 13q23 0 40 -22t17 -50q0 -72 -45 -320.5t-45 -337.5q0 -131 70 -131q89 0 166.5 116t119.5 300q53 219 68 393q2 20 10 28.5t33 8.5h72q27 0 32 -15t-2 -44q-44 -243 -71 -586q-2 -29 -2 -55q0 -146 84 -146 q85 0 169.5 99t128.5 229q33 97 33 174q0 26 -4 49q-8 45 -60 123t-52 111q0 32 30.5 55t71.5 23q67 0 105 -69.5t38 -148.5q0 -86 -27 -190t-77 -204.5t-113 -184t-142.5 -135t-158.5 -51.5q-64 0 -98 37.5t-47 111.5q-2 13 -4.5 32t-4 29t-4.5 21t-7 15.5t-11 4.5 q-11 0 -23 -13.5t-31 -43t-30 -43.5q-109 -151 -260 -151q-160 0 -160 229q0 106 34.5 304.5t39.5 260.5q1 30 -6 40.5t-29 12.5q-7 0 -34 -1t-48 -1q-15 0 -21.5 8.5t-6.5 30.5z" />
<glyph unicode="x" horiz-adv-x="1007" d="M-31 92q0 34 20.5 59t55.5 25q31 0 64.5 -30.5t56.5 -30.5q57 0 119.5 83.5t115.5 215.5q14 35 14 68q0 36 -18 96q-46 149 -84 205q-41 59 -88 59q-30 0 -61 -18.5t-33 -18.5q-15 0 -24 16t-9 31q0 26 57 67.5t119 41.5q44 0 77.5 -13.5t54.5 -32t40 -55t30 -66 t27 -81.5q8 -27 13 -41q15 -50 37 -4l19 38t24.5 48t26.5 46.5t33 50.5t35.5 42t41.5 38t44 22t50 10q58 0 96 -28.5t38 -80.5q0 -39 -23 -65.5t-53 -26.5q-24 0 -41.5 10t-25 21.5t-17.5 21.5t-21 10q-33 0 -87 -67q-55 -68 -91 -150q-26 -59 -26 -93q0 -13 4 -23 q1 -3 17 -55.5t34.5 -103t44 -107.5t56 -92.5t59.5 -35.5q23 0 48.5 20.5t34.5 20.5q11 -1 19 -17t8 -28q0 -28 -56 -72.5t-124 -44.5q-38 0 -69.5 16.5t-52 39.5t-39.5 61.5t-29.5 68t-25 74.5t-22.5 66q-7 18 -15.5 24.5t-17.5 -1t-18 -27.5q-21 -45 -38.5 -77t-51 -82 t-66.5 -81t-80.5 -55t-97.5 -24t-89.5 32t-39.5 80z" />
<glyph unicode="y" horiz-adv-x="1005" d="M-109 -276q0 35 22.5 55t53.5 20q34 0 80.5 -41t81.5 -41q66 0 175 71t120 138q5 26 5 61q0 67 -17 167q-24 154 -67 304t-100 263t-104 113q-20 0 -47 -13.5t-31 -13.5q-28 0 -28 43q0 29 61.5 71t143.5 42q57 0 121 -111t114.5 -281.5t79.5 -357.5q4 -34 17.5 -45 t29.5 -2.5t31 29.5q57 77 100 201.5t43 217.5q0 39 -18.5 78t-40 64.5t-40 57t-18.5 58.5q0 43 29.5 67t63.5 24q40 0 69.5 -21.5t44.5 -58t22 -75t7 -81.5q0 -102 -38 -229t-100.5 -253t-148.5 -246.5t-178.5 -212.5t-193.5 -148t-189 -56q-58 0 -107 40t-49 102z" />
<glyph unicode="z" horiz-adv-x="890" d="M43 72q0 53 41 94q63 60 211.5 252.5t230.5 320.5q8 12 8 22q0 18 -24 30q-38 18 -104 38.5t-89 20.5q-64 0 -90 -137q-6 -29 -26 -29q-36 0 -60 12t-24 31q0 40 4.5 105.5t11.5 91.5q8 39 62 39q52 0 194.5 -42t198.5 -42q22 0 38 13t23 29t18 29t25 13q50 -1 79.5 -31 t29.5 -70q0 -38 -26 -71.5t-73 -47.5q-72 -84 -403 -544q-11 -18 -15 -27.5t-1 -16t14 -8.5q9 -1 128 -25t136 -24q24 2 43 24t29 47.5t24 72.5q10 34 29 34q78 0 78 -32q-10 -152 -23 -217q-10 -47 -71 -47q-56 0 -214 37.5t-218 37.5q-18 0 -31.5 -12t-20.5 -27t-21.5 -27 t-33.5 -12q-41 0 -64.5 28t-23.5 67z" />
<glyph unicode="{" horiz-adv-x="610" d="M66 625q0 37 11.5 64.5t31.5 27.5h8q41 0 74 21t52 54.5t30 64.5t16 63q5 38 14.5 153t18.5 172q23 143 102 213t170 70q35 0 65 -10q9 -3 9 -21q0 -13 -7 -24t-20 -11q-40 0 -70 -13t-47 -30.5t-29.5 -47.5t-17.5 -50.5t-10 -54.5q-13 -76 -23.5 -190t-21.5 -183 q-14 -88 -54 -133t-114 -84q-15 -8 -17.5 -25t15.5 -28q96 -63 96 -172q0 -13 -4 -45q-13 -78 -40.5 -199t-39.5 -189q-15 -91 11.5 -148.5t111.5 -57.5q4 0 8 -8t4 -17q0 -23 -22 -33q-24 -12 -58 -12q-73 0 -133.5 59.5t-60.5 169.5q0 73 37 231t41 179q10 57 10 78 q0 44 -27.5 72t-99.5 36q-20 3 -20 58z" />
<glyph unicode="|" horiz-adv-x="522" d="M199 -371q2 15 5.5 279.5t5 676t-2.5 904.5q0 15 3 24t10.5 12.5t12 4t17.5 0.5q20 0 31.5 -10.5t11.5 -28.5q-1 -72 -1 -956.5t1 -903.5q0 -26 -10 -37.5t-39 -11.5q-23 0 -36 13.5t-9 33.5z" />
<glyph unicode="}" horiz-adv-x="608" d="M-45 -223q0 10 6.5 22.5t18.5 12.5q149 0 182 206q11 69 20.5 190t22.5 198q23 144 162 217q23 10 25 28t-11 25q-52 32 -77 67t-25 95q0 35 4 55q12 77 37 191.5t36 181.5q9 56 9 80q0 54 -26.5 85t-94.5 31q-17 0 -17 23q0 11 4.5 21.5t10.5 11.5q27 10 57 10 q34 0 67.5 -12t64 -37t49 -69t18.5 -101q0 -74 -33.5 -209t-40.5 -180q-4 -32 -4 -54q0 -149 119 -149q24 0 24 -39q0 -34 -15.5 -72t-33.5 -39q-43 -5 -74.5 -19t-48.5 -28t-28.5 -39.5t-15 -41t-7.5 -45.5q-1 -9 -2 -13q-5 -37 -15.5 -164t-19.5 -184 q-12 -80 -42.5 -139.5t-69.5 -92t-78 -48t-78 -15.5q-44 0 -70 16q-10 8 -10 23z" />
<glyph unicode="~" horiz-adv-x="1036" d="M100 553q3 17 14 44t32 59t47.5 60t64 47.5t78.5 20.5q45 0 90.5 -20.5t82 -50t71.5 -59t72 -50t71 -20.5q41 0 79 35.5t68 93.5q12 24 35 24q16 0 26.5 -11t10.5 -30q0 -16 -9 -44.5t-31 -65t-52 -68.5t-77.5 -54t-102.5 -22q-47 0 -91.5 20.5t-79.5 50t-68 59.5 t-70 50.5t-72 20.5q-16 0 -30 -6t-22.5 -11.5t-20 -21.5t-15.5 -22t-15.5 -29l-13.5 -27q-10 -18 -29 -18q-16 0 -29.5 12t-13.5 33z" />
<glyph unicode="&#xa1;" horiz-adv-x="538" d="M-12 -309q0 20 10 53q0 1 32 64.5t58.5 128.5t63 210t59.5 320q7 41 51 41q13 0 25 -9.5t10 -17.5q-30 -194 -41.5 -340t-9.5 -204.5t9.5 -121t8.5 -73.5q0 -72 -48.5 -113t-111.5 -41q-49 0 -82.5 27t-33.5 76zM188 877q0 66 33.5 105.5t97.5 39.5q65 0 101.5 -37 t36.5 -92q0 -62 -38.5 -96.5t-99.5 -34.5q-131 0 -131 115z" />
<glyph unicode="&#xa2;" horiz-adv-x="794" d="M37 348q0 204 106 369t295 235q18 6 23 37l18 123q3 26 20.5 39.5t37.5 13.5q12 0 21 -6.5t9 -19.5q-1 -8 -5 -31t-7.5 -45t-7.5 -44t-4 -24q-3 -20 15.5 -30.5t45.5 -14t61.5 -15.5t55.5 -34q10 -10 10 -49q0 -21 -2.5 -48t-6 -53t-3.5 -32q-3 -10 -17 -18.5t-28 -8.5 q-11 0 -19 7t-8 18q3 60 -32.5 99.5t-71.5 49.5q-6 2 -10.5 0t-7.5 -6t-4.5 -7.5t-2.5 -8.5l-2 -4q-3 -9 -24 -126t-48 -280.5t-43 -275.5q-10 -39 21 -39q114 0 190 112q19 25 31 25q9 0 15 -9t6 -22q0 -9 -7 -26q-23 -55 -60.5 -94.5t-73.5 -59t-70 -34.5t-56.5 -30 t-25.5 -36q-8 -32 -17 -129q-1 -20 -14.5 -31.5t-30.5 -11.5t-28 11.5t-7 33.5q3 22 8.5 52t9 49t3.5 22q7 35 -25 45q-27 8 -53.5 21.5t-60.5 43t-59 67t-42.5 98t-17.5 132.5zM174 426q0 -85 25 -155.5t59 -108.5q17 -20 32.5 -27.5t27 -1.5t14.5 27q1 6 19 114.5 t36.5 222.5t34 216.5t14.5 113.5q5 4 1 17.5t-21 9.5q-70 -17 -128 -94t-86 -167.5t-28 -166.5z" />
<glyph unicode="&#xa3;" horiz-adv-x="1015" d="M-25 55q0 105 158 187q47 25 84 114t52.5 173t15.5 135q0 20 -10.5 27t-32.5 7q-12 0 -38 -2t-40 -2q-29 0 -29 31q0 21 11 39t26 18q14 0 32 -2t25 -2q70 0 76 33q13 80 33 156t56.5 159t83 144t115.5 101t150 40q98 0 167 -47t69 -111q0 -37 -31 -75.5t-71 -38.5 q-26 0 -44 18.5t-29.5 45t-24.5 53t-38 45t-61 18.5q-52 0 -91.5 -35.5t-61 -87t-35 -120.5t-17.5 -123.5t-4 -108.5q0 -33 8.5 -44.5t36.5 -11.5q14 0 58.5 1.5t72.5 1.5q24 0 32.5 -0.5t18 -7.5t9.5 -23q0 -22 -15.5 -42t-38.5 -20q-15 0 -55.5 2t-77.5 2q-65 0 -69 -32 q-48 -292 -152 -379q-8 -8 -8 -17t14 -12q29 -5 63.5 -27t67.5 -49t67.5 -53t74 -43.5t75.5 -17.5q41 0 63 23t28 56t11.5 66.5t24 56.5t54.5 23q27 0 43 -24t16 -58q0 -96 -91 -164.5t-216 -68.5q-52 0 -110 22t-100.5 48.5t-94.5 48.5t-93 22q-27 0 -43 -12t-23 -29 t-14.5 -34.5t-24.5 -29.5t-46 -12q-62 0 -62 49z" />
<glyph unicode="&#xa4;" horiz-adv-x="1050" d="M119 250q0 20 14 37q5 4 17.5 16t34.5 32.5t42 39.5q22 20 25 30t-6 25q-27 55 -27 131q0 60 31 127q12 19 10.5 29.5t-18.5 25.5q-70 65 -103 97q-18 15 -18 43t24 50.5t52 22.5q19 0 34 -12l109 -110q17 -17 31.5 -20.5t34.5 3.5q66 19 114 19t111 -19q26 -10 36.5 -8 t30.5 22q90 93 113 113q15 12 35 12q28 0 52 -22.5t24 -50.5q0 -27 -19 -43q-29 -28 -96 -90q-23 -19 -28 -32t5 -30q31 -54 31 -115q0 -74 -22 -122q-12 -27 -11 -37.5t15 -24.5q67 -64 112 -102q15 -15 15 -35q0 -28 -24.5 -52t-53.5 -24q-22 0 -41 19q-31 25 -98 98 q-15 17 -26 19t-40 -7q-62 -20 -125 -20q-62 0 -127 20q-18 7 -27.5 5.5t-25.5 -17.5l-98 -98q-19 -19 -43 -19q-29 0 -52.5 23t-23.5 51zM367 563q0 -67 41 -106t106 -39q69 0 111.5 40.5t42.5 112.5q0 55 -43 93t-107 38q-65 0 -108 -39t-43 -100z" />
<glyph unicode="&#xa5;" horiz-adv-x="1286" d="M180 1350q0 20 10.5 33t30.5 12q142 -15 375 2q55 3 55 -41q0 -21 -13 -36.5t-30 -14.5q-42 6 -70 -15.5t-28 -54.5q0 -40 58.5 -195t101.5 -241q6 -15 22 -15q20 0 31 15q66 79 163.5 214t133.5 199q12 18 12 43q0 33 -25 49.5t-77 2.5q-22 -6 -34.5 8.5t-12.5 36.5 q0 19 10 31t29 12q25 -1 79.5 -3.5t77 -3t62.5 -1t75 1.5t76 6q29 1 42.5 -9.5t13.5 -27.5q0 -19 -14 -35.5t-31 -15.5q-53 5 -87.5 -13.5t-68.5 -56.5q-71 -82 -266 -336q-7 -14 -9.5 -19.5t-4 -13.5t4 -11t17.5 -3q83 0 119 4q14 2 23 -6t9 -25q0 -61 -49 -61 q-35 4 -176 0q-30 0 -53 -35q-16 -24 -43 -69q-14 -28 -10 -39t28 -11h234q30 0 30 -28q0 -22 -12 -40t-33 -18q-31 2 -225 2q-33 0 -45 -9.5t-18 -45.5q-24 -145 -37 -323q-1 -41 29 -52.5t94 -1.5q23 3 35 -9.5t12 -33.5q0 -24 -14 -41t-37 -16q-231 18 -428 -2 q-23 -3 -35.5 12.5t-12.5 38.5q0 22 11 37t30 14q2 0 19.5 -3t24.5 -3.5t23 -1t24.5 2.5t20.5 8t19 15.5t11 24.5q26 89 67 336q12 53 -30 53h-226q-21 -2 -30 4.5t-9 24.5q0 23 14 45.5t38 18.5q9 -3 219 -7q30 0 37 9.5t4 38.5q-2 9 -9 32t-10 37q-9 22 -24.5 29.5 t-48.5 7.5q-130 0 -144 -2q-37 -3 -37 31q0 25 13.5 43.5t37.5 17.5q16 -4 107 -4q38 0 44.5 9.5t-5.5 43.5q-59 156 -160 363q-15 29 -29.5 36.5t-54.5 0.5q-19 -4 -30 9.5t-11 33.5z" />
<glyph unicode="&#xa6;" horiz-adv-x="468" d="M205 -371q3 19 6 276t2 361q0 21 9.5 30t33.5 9q43 0 43 -37q-2 -98 -2 -637q2 -26 -8 -37.5t-39 -11.5q-23 0 -36 13.5t-9 33.5zM205 881q3 17 5.5 260.5t2.5 347.5q0 21 9.5 31t33.5 10q20 0 31.5 -10.5t11.5 -28.5q-2 -96 -2 -608q2 -26 -8 -37.5t-39 -11.5 q-23 0 -36 13.5t-9 33.5z" />
<glyph unicode="&#xa7;" horiz-adv-x="985" d="M104 780q0 147 50 269t133.5 200.5t189 121t219.5 42.5q158 0 158 -92q0 -46 -25.5 -72t-56.5 -26q-36 0 -93.5 43t-88.5 43q-94 0 -178 -85.5t-84 -146.5q0 -17 10 -24q520 -391 520 -850q0 -145 -50 -265t-133 -196.5t-187.5 -118t-217.5 -41.5q-77 0 -117 25t-40 71 q0 42 25.5 68.5t56.5 26.5q36 0 95.5 -43t90.5 -43q46 0 93.5 24.5t81 59.5t54.5 72.5t21 64.5q0 14 -13 24q-65 47 -124.5 98t-134 134.5t-128 171.5t-90.5 205.5t-37 238.5zM250 756q0 -115 35.5 -230.5t88.5 -201t111.5 -154t106.5 -104t72 -35.5q55 0 55 200 q0 118 -35 233t-85 197t-108 150t-101.5 104t-67.5 46q-9 6 -19 6q-16 0 -27.5 -25.5t-16.5 -64.5t-7 -68t-2 -53z" />
<glyph unicode="&#xa8;" horiz-adv-x="657" d="M68 1268q0 33 24.5 67.5t77.5 34.5q37 0 64.5 -30.5t27.5 -79.5q0 -45 -26.5 -73t-65.5 -28q-36 0 -69 25.5t-33 83.5zM393 1268q0 34 24.5 68t78.5 34q37 0 63.5 -30.5t26.5 -79.5q0 -45 -25.5 -73t-64.5 -28q-37 0 -70 25t-33 84z" />
<glyph unicode="&#xa9;" horiz-adv-x="1654" d="M94 696q0 145 58.5 277t158 228t239.5 153t296 57q207 0 379 -96.5t270 -260.5t98 -358t-98 -358.5t-270 -261t-379 -96.5q-156 0 -296 57t-239.5 153.5t-158 228.5t-58.5 277zM184 696q0 -170 87.5 -314.5t240 -230t334.5 -85.5q181 0 332.5 85.5t238 230t86.5 314.5 q0 127 -51 243t-138.5 201t-209.5 135t-258 50q-182 0 -334.5 -85t-240 -229.5t-87.5 -314.5zM453 698q0 165 117.5 279.5t299.5 114.5q97 0 172 -31.5t78 -59.5q2 -13 8 -122q0 -21 -45 -21q-36 0 -36 10q-19 64 -65.5 105t-123.5 41q-88 0 -161.5 -85.5t-73.5 -215.5 q0 -77 26 -140t66.5 -99t83.5 -55.5t82 -19.5q131 0 186 47q9 9 20 9q12 0 21.5 -10t9.5 -25q0 -21 -16 -37q-9 -9 -31 -23.5t-84.5 -34.5t-134.5 -20q-182 0 -290.5 111t-108.5 282z" />
<glyph unicode="&#xaa;" horiz-adv-x="548" d="M150 950q0 43 33.5 74.5t74 45t81.5 25.5t48 19q21 21 21 82q0 59 -43 59q-32 0 -49 -17.5t-20.5 -38.5t-16.5 -38.5t-37 -17.5q-18 0 -28.5 12.5t-10.5 28.5q0 50 67.5 92.5t130.5 42.5q101 0 101 -109q0 -14 -19.5 -106.5t-19.5 -132.5q0 -41 20 -41q5 0 14 2t11 2 q8 0 8 -12q0 -34 -40.5 -55t-72.5 -21q-7 0 -17 23.5t-19 23.5q-1 0 -16 -11.5t-41 -23.5t-54 -12q-54 0 -80 30.5t-26 73.5zM246 952q0 -43 49 -43q39 0 60.5 34t21.5 95q0 11 -10 11q-39 0 -80 -24.5t-41 -72.5z" />
<glyph unicode="&#xab;" horiz-adv-x="813" d="M72 477q7 44 249 317q39 44 60 68q9 12 27 12q16 0 28.5 -12.5t12.5 -30.5q0 -12 -15 -34q-73 -93 -124 -169.5t-68 -108.5t-21 -46q0 -13 10 -56.5t34.5 -121t56.5 -152.5q2 -6 2 -18q0 -19 -16.5 -32t-35.5 -13q-24 0 -30 18q-2 5 -54.5 102.5t-84.5 170.5t-31 106z M371 477q7 44 249 317q13 15 20 23t18.5 21t21.5 24q9 12 27 12q16 0 28.5 -12.5t12.5 -30.5q0 -12 -15 -34q-73 -93 -124 -169.5t-68 -108.5t-21 -46q0 -13 10 -56.5t34.5 -121t56.5 -152.5q2 -6 2 -18q0 -19 -16.5 -32t-35.5 -13q-24 0 -30 18q-2 5 -54.5 102.5 t-84.5 170.5t-31 106z" />
<glyph unicode="&#xac;" horiz-adv-x="962" d="M90.5 691.5q13.5 34.5 46.5 31.5q88 -7 311 -5t308 11q37 4 51 -20t12 -66q-5 -139 4 -328q1 -41 -36 -52q-35 -11 -60 16q-18 18 -18 47q0 155 -2 198q-3 73 -62 76q-132 5 -296 3t-212 -9q-32 -5 -46 29t-0.5 68.5z" />
<glyph unicode="&#xad;" horiz-adv-x="751" d="M139 555q0 29 12 51t35 23q7 0 69 0.5t120.5 2t127 7.5t103.5 16q24 7 43 -18t19 -59q0 -28 -15.5 -47t-46.5 -19q-258 -3 -413 -20q-26 -6 -40 13.5t-14 49.5z" />
<glyph unicode="&#xae;" horiz-adv-x="1134" d="M147 1065q0 93 38 178.5t102 148.5t154.5 100.5t191.5 37.5q136 0 249.5 -63.5t177.5 -170t64 -231.5q0 -194 -142 -331.5t-349 -137.5q-204 0 -345 138t-141 331zM221 1065q0 -162 121 -277.5t291 -115.5q176 0 296 115t120 278t-120 278t-296 115q-170 0 -291 -115.5 t-121 -277.5zM410 877q0 10 5.5 16.5t14.5 5.5q1 0 4.5 -1t5.5 -1q37 0 39 35q3 60 3 168.5t-3 128.5q0 15 -3.5 22.5t-9 9t-15.5 1.5h-15q-22 0 -22 26q0 24 20 27q78 8 168 8q91 0 145 -27t54 -84q0 -75 -90 -116q-11 -6 -11 -15l7 -14q14 -18 40 -56.5t41.5 -59 t39.5 -38.5t49 -18q4 0 8 -6.5t4 -14.5q0 -14 -10 -22q-16 -8 -62 -8q-35 0 -69.5 31t-57.5 69t-50.5 69t-49.5 31q-7 0 -14 -5t-7 -13q0 -9 2 -44.5t2 -45.5q0 -41 54 -37q7 1 13.5 -7.5t6.5 -17.5q0 -20 -29 -20q-83 7 -184 0q-11 0 -17.5 7t-6.5 16zM561 1239q0 -2 1 -44 t1 -50q0 -19 6 -26t25 -7q35 0 66.5 24.5t31.5 57.5q0 39 -33 58.5t-71 19.5q-12 0 -18.5 -6t-7.5 -11.5t-1 -15.5z" />
<glyph unicode="&#xaf;" horiz-adv-x="641" d="M70 1235q0 23 8 42.5t18 20.5q36 1 108.5 0t177 2t155.5 11q14 3 25 -20.5t11 -51.5q0 -51 -36 -51q-33 -1 -87 1t-131.5 0.5t-205.5 -9.5q-23 -1 -33 14.5t-10 40.5z" />
<glyph unicode="&#xb0;" horiz-adv-x="677" d="M156 1081q0 104 76.5 171t181.5 67q104 0 178 -65.5t74 -159.5q0 -118 -73.5 -183t-182.5 -65q-112 0 -183 63.5t-71 171.5zM256 1087q0 -71 41.5 -110t110.5 -39q67 0 110 41t43 115q0 54 -44 93.5t-105 39.5q-65 0 -110.5 -40t-45.5 -100z" />
<glyph unicode="&#xb1;" horiz-adv-x="1228" d="M279.5 680.5q-12.5 26.5 3 55.5t39.5 30q7 1 38 0t76.5 -2t79.5 0q28 1 35.5 13.5t7.5 39.5q-1 33 -2 114.5t-2 112.5q-1 46 39 57q33 9 53 -12q11 -12 8 -28q-2 -7 -6 -260q0 -11 1 -18t2 -11t5.5 -6t6 -2.5t10 -1t10.5 -0.5q147 0 205 12q39 9 59 -24q18 -32 -3 -59 q-17 -21 -56 -23q-8 0 -86 -1.5t-119 -0.5q-7 1 -12 1t-9 -0.5t-6 -3.5t-3.5 -5t-2.5 -8.5t-1 -10.5t-1 -14q0 -45 3 -104t3 -70q1 -29 -23 -43.5t-49.5 -3t-27.5 46.5q-1 24 1.5 76.5t2.5 78.5q1 23 -2.5 36.5t-10 18t-15.5 6t-21 -0.5q-15 -1 -53.5 -2t-70.5 -2t-50 -3 q-44 -5 -56.5 21.5zM284 229q-11 37 11 64q12 14 29 16q9 1 138 2.5t259 7.5t170 19q30 8 49 -27q19 -38 0 -67q-14 -23 -49 -23q-132 -2 -321.5 -9t-239.5 -13q-35 -8 -46 30z" />
<glyph unicode="&#xb2;" horiz-adv-x="591" d="M113 963q0 38 12 47q56 37 113 82.5t118.5 105t99.5 126t38 124.5q0 100 -93 100q-29 0 -56.5 -16.5t-43 -36.5t-30 -36.5t-21.5 -16.5q-11 0 -21 11.5t-10 25.5q0 12 18.5 38t49 54.5t79.5 49.5t101 21q74 0 124 -44t50 -119q0 -40 -12 -79.5t-36 -75t-48 -65t-59.5 -60 t-58 -49t-56.5 -43.5t-43 -32q-13 -10 -13 -20q0 -21 60 -21q89 0 120.5 12t61.5 56q6 14 27 14q20 0 20 -16q0 -1 -11.5 -36t-29 -81t-28.5 -70q-5 -8 -25 -8q-5 0 -26 2.5t-68.5 5t-116.5 2.5q-58 0 -156 -4q-30 0 -30 52z" />
<glyph unicode="&#xb3;" horiz-adv-x="579" d="M121 983q0 28 18.5 50t46.5 22q24 0 38 -13t19.5 -28t22 -28t45.5 -13q52 0 92.5 32.5t49.5 88.5q2 8 2 26q0 62 -51.5 90.5t-131.5 28.5q-22 0 -22 27q0 14 7 26t17 13q74 8 133.5 58t59.5 118q0 33 -22 54t-66 21q-42 0 -74 -16.5t-47.5 -32.5t-19.5 -16q-7 0 -12 9 t-5 20q0 12 6 24q4 12 28.5 33.5t75.5 43t109 21.5q77 0 123.5 -36.5t46.5 -92.5q0 -36 -14.5 -68t-35 -52.5t-41.5 -36t-35.5 -25.5t-14.5 -14q0 -5 21 -14.5t46.5 -21t46.5 -43t21 -77.5q0 -105 -90 -183.5t-235 -78.5q-69 0 -113.5 22.5t-44.5 61.5z" />
<glyph unicode="&#xb4;" horiz-adv-x="446" d="M55 1128q0 14 8 25q83 119 175 283q19 39 57 39q16 0 54.5 -1t41.5 -1q15 0 24 -8.5t9 -20.5q0 -19 -21 -43q-8 -9 -58 -66.5t-100 -117.5t-89 -113q-9 -14 -43 -14q-23 0 -40.5 10t-17.5 28z" />
<glyph unicode="&#xb5;" horiz-adv-x="1134" d="M73 -405q-4 13 1 32q7 40 35 186.5t43 228t38 216.5t41 262t33 254q3 27 -9.5 39.5t-27.5 13t-42.5 -1.5t-37.5 -2q-34 3 -34 35q0 28 5.5 38t24.5 11q170 23 230 51q30 9 51 -17t16 -58q-100 -562 -100 -658q0 -38 5.5 -63.5t24 -44.5t50.5 -19q75 0 144.5 75t112 176.5 t62.5 207.5q2 13 15 80.5t24 135t19 136.5q4 37 39 37h92q33 0 28 -37q-108 -607 -110 -716q0 -35 5 -48.5t23 -13.5q19 0 52.5 17.5t36.5 17.5q19 0 32 -17.5t13 -42.5q0 -22 -92 -74t-144 -52q-85 0 -57 208q4 25 -10 25q-2 0 -4.5 -1.5t-4.5 -5t-4 -6.5t-4.5 -7.5 t-3.5 -6.5q-59 -91 -138 -148.5t-175 -57.5q-18 0 -43.5 6t-32.5 6q-21 0 -27 -25q-9 -59 -22.5 -171t-18.5 -150q-3 -19 -9.5 -27.5t-24.5 -15.5q-49 -21 -99 -21q-17 0 -21 13z" />
<glyph unicode="&#xb6;" horiz-adv-x="952" d="M106 887q0 233 172.5 369.5t450.5 136.5q86 0 136 2t78.5 5t29.5 3q35 0 35 -43q0 -24 -14.5 -46t-37.5 -22q-71 0 -94 -21t-39 -89q-55 -237 -118 -683t-80 -509q-19 -76 -60.5 -144t-91 -115t-104 -81.5t-103.5 -51t-86 -16.5q-26 0 -26 37q0 36 28.5 70.5t77.5 34.5 q74 0 120 41.5t75 160.5q19 88 40.5 221.5t33.5 223.5l12 90q0 3 1 9t1 9q0 30 -18.5 45t-39.5 15q-163 0 -271 95.5t-108 252.5z" />
<glyph unicode="&#xb7;" horiz-adv-x="499" d="M123 584q0 56 34.5 87t90.5 31q121 0 121 -106q0 -58 -31.5 -94.5t-89.5 -36.5t-91.5 34t-33.5 85z" />
<glyph unicode="&#xb8;" horiz-adv-x="370" d="M63 -362q0 13 6.5 23.5t16.5 10.5q19 2 37 6.5t40.5 13t36 25t13.5 37.5q0 49 -92 49q-45 0 -45 29q0 14 8 27q13 30 92 141q19 27 55 27q35 0 35 -17q0 -4 -2 -8q-3 -4 -23.5 -30.5t-25.5 -34.5q-14 -20 -14 -31q0 -9 16 -12q107 -18 107 -95t-74.5 -136.5t-155.5 -59.5 q-31 0 -31 35z" />
<glyph unicode="&#xb9;" horiz-adv-x="512" d="M115 946q0 14 6.5 24.5t19.5 10.5q9 0 25 -1t22 -1q52 0 70.5 14t28.5 51q11 51 36 209.5t29 206.5q0 16 -7.5 21.5t-37.5 5.5q-43 0 -78 -2q-24 0 -24 31q0 13 7.5 24.5t18.5 11.5q50 0 94 16t67 34.5t40.5 34.5t22.5 16q57 0 57 -31q-2 -4 -2 -6q-14 -71 -50.5 -304.5 t-41.5 -277.5q0 -4 -1 -10.5t-1 -9.5q0 -19 11 -27t44 -8q9 0 55 4q10 0 17.5 -10.5t7.5 -24.5q0 -15 -8.5 -26t-22.5 -11q-27 0 -102.5 2t-118.5 2q-115 0 -162 -4q-10 0 -16 10.5t-6 24.5z" />
<glyph unicode="&#xba;" horiz-adv-x="612" d="M156 1032q0 123 82.5 205t183.5 82q78 0 131 -54.5t53 -134.5q0 -89 -42.5 -156t-100.5 -97.5t-119 -30.5q-86 0 -137 49t-51 137zM248 1049q0 -53 29 -82t79 -29q60 0 109 48t49 130q0 46 -30.5 78.5t-77.5 32.5q-66 0 -112 -51.5t-46 -126.5z" />
<glyph unicode="&#xbb;" horiz-adv-x="811" d="M44 133q3 15 13 29q70 94 118 169t64 107.5t17 44.5q1 9 -9.5 53t-37.5 123.5t-62 155.5q-12 25 4 44.5t38 19t36 -18.5q34 -65 70.5 -131.5t55.5 -100.5t35.5 -66.5t22 -50t3.5 -30.5q-1 -8 -5.5 -18.5t-14 -25t-19 -28.5t-27.5 -36.5t-33 -40.5t-40.5 -49t-45.5 -54.5 t-53.5 -63.5t-58.5 -69q-18 -23 -46.5 -8t-24.5 45zM342.5 112.5q-6.5 21.5 11.5 49.5q70 94 117.5 169t64 108t17.5 44q1 8 -10 52.5t-38.5 123.5t-62.5 156q-11 25 5 44.5t37.5 19t33.5 -18.5q33 -63 71 -131t56 -101t35 -66.5t22 -50.5t3 -30q-5 -32 -60.5 -104 t-199.5 -242q-7 -9 -11 -13.5t-10.5 -12t-11.5 -13.5q-16 -18 -39.5 -11.5t-30 28z" />
<glyph unicode="&#xbc;" horiz-adv-x="1298" d="M92 707q0 15 7 25.5t20 10.5q9 0 25 -1t22 -1q52 0 70 14.5t28 51.5q12 48 36.5 206t29.5 210q0 15 -7.5 19.5t-37.5 4.5q-43 0 -78 -2q-12 0 -18.5 9.5t-6.5 23.5q0 12 8 23.5t21 11.5q50 0 93 16t66 35t40.5 35t21.5 16q57 0 57 -31q0 -1 -1 -4t-1 -4 q-13 -68 -49.5 -300t-42.5 -279q0 -4 -1 -12t-1 -11q0 -17 11.5 -25t44.5 -8q9 0 55 4q10 0 17 -10.5t7 -25.5q0 -13 -8 -24t-22 -11q-27 0 -102.5 2t-116.5 2q-117 0 -164 -4q-10 0 -16.5 10t-6.5 23zM162 25q4 14 12.5 27.5t18.5 23.5q12 12 123 169t325 476.5t424 652.5 q28 45 71 32q30 -10 36 -39q5 -20 -11 -38q-15 -18 -430 -636.5t-428 -639.5q-52 -87 -115 -69q-18 4 -24 15.5t-2 25.5zM659.5 227.5q-3.5 23.5 0.5 47t8 26.5q87 84 215.5 225t132.5 164q2 10 10.5 20.5t20.5 10.5q21 0 52.5 10t39.5 21q4 5 12.5 5.5t16.5 -6.5t6 -16 q-1 -4 -9.5 -50t-18.5 -99t-21.5 -129.5t-18.5 -139.5q-3 -21 14 -24q8 0 20 1t23 1q39 0 31 -35q0 -1 -2.5 -9t-3.5 -11t-3.5 -10t-5.5 -10l-7 -7t-9.5 -6t-11.5 -2h-55q-9 0 -13 -15q-18 -91 -20 -157q-8 -36 -37 -33h-78q-17 0 -21 9t1 28q3 20 8 55.5t8.5 60t5.5 33.5 q3 16 -12 19q-102 7 -258 0q-17 -1 -20.5 22.5zM782 308.5q1 -11.5 17 -11.5q20 -1 75 -1t72 1q24 3 27 27q16 49 37 200q1 19 -5 22t-18 -9q-44 -40 -111.5 -112t-82.5 -93q-12 -12 -11 -23.5z" />
<glyph unicode="&#xbd;" horiz-adv-x="1300" d="M86 707q0 36 25 36q10 0 26 -1t21 -1q52 0 70 14.5t28 51.5q12 48 36.5 206t29.5 210q0 15 -7 19.5t-36 4.5q-45 0 -80 -2q-12 0 -18.5 9.5t-6.5 23.5q0 12 8 23.5t21 11.5q50 0 93.5 16t66.5 35t40 35t21 16q59 0 59 -31q0 -1 -1 -4t-1 -4q-15 -66 -51 -293.5 t-43 -285.5q0 -4 -1 -12t-1 -11q0 -17 11 -25t44 -8q16 0 56 4q10 0 17 -10.5t7 -25.5q0 -13 -8.5 -24t-22.5 -11q-27 0 -101.5 2t-117.5 2q-117 0 -164 -4q-20 0 -20 33zM162 25q4 14 12.5 27.5t18.5 23.5q12 12 123 169t325 476.5t424 652.5q28 45 71 32q30 -10 36 -39 q5 -20 -11 -38q-15 -18 -430 -636.5t-428 -639.5q-52 -87 -115 -69q-18 4 -24 15.5t-2 25.5zM678 49q0 37 10 47q57 37 114 82t118.5 105t100 127t38.5 125q0 98 -94 98q-29 0 -56 -16.5t-43 -36t-30.5 -36t-20.5 -16.5q-11 0 -22 11t-11 24t18.5 39.5t49 55t79.5 50 t101 21.5q75 0 125.5 -44.5t50.5 -121.5q0 -46 -18.5 -93.5t-43 -82t-65.5 -74t-67.5 -60.5t-69 -52.5t-51.5 -38.5q-10 -8 -10 -21q0 -20 59 -20q89 0 119.5 11.5t60.5 55.5q9 15 27 15q8 0 14 -5t6 -12q0 -1 -11.5 -35.5t-29 -80.5t-28.5 -70q-5 -8 -23 -8q-6 0 -27.5 2.5 t-68.5 5t-115 2.5q-59 0 -157 -4q-29 0 -29 51z" />
<glyph unicode="&#xbe;" horiz-adv-x="1320" d="M94 745q0 26 19 49t47 23q24 0 38 -13t19.5 -28t22 -28t45.5 -13q52 0 92 32t49 89q2 8 2 27q0 61 -51 89.5t-131 28.5q-23 0 -23 25q0 14 7.5 27t17.5 14q75 8 133.5 57.5t58.5 116.5q0 34 -22 55t-66 21q-33 0 -60.5 -10t-41 -22t-24 -22t-13.5 -10q-18 0 -18 29 q0 11 6 23q10 26 70.5 63t142.5 37q77 0 123.5 -36.5t46.5 -92.5q0 -44 -22 -82.5t-49 -59.5t-49 -36.5t-22 -18.5q0 -5 14 -10.5t34 -14.5t40 -23t34 -42t14 -65q0 -105 -90.5 -183.5t-235.5 -78.5q-70 0 -114 22t-44 61zM181.5 25q4.5 14 13 27.5t18.5 23.5 q13 15 122 169.5t324 475.5t424 653q29 45 72 32q30 -10 37 -38q4 -22 -10 -39q-16 -18 -429.5 -634.5t-428.5 -641.5q-55 -86 -115 -69q-19 4 -25.5 15.5t-2 25.5zM680.5 274.5q3.5 23.5 7.5 26.5q84 79 214 222.5t136 166.5q2 10 10.5 20.5t20.5 10.5q19 0 50.5 10 t39.5 21q6 10 23 3.5t14 -20.5q-1 -4 -10 -50t-19 -99t-21.5 -129.5t-17.5 -139.5q-3 -21 15 -24q6 0 18 1t25 1q36 0 28 -35q-1 -2 -3.5 -12.5t-4.5 -15.5t-6 -12.5t-10.5 -11t-15.5 -3.5h-56q-8 0 -12 -15q-21 -110 -23 -157q-8 -35 -34 -33h-78q-18 0 -22 8.5t-1 28.5 q15 98 25 149q3 16 -15 19q-99 7 -256 0q-17 -1 -21 22.5t-0.5 47zM804 308.5q1 -11.5 15 -11.5q22 -1 76.5 -1t73.5 1q23 3 26 27q12 38 35 200q3 18 -3 21.5t-17 -8.5q-45 -39 -113 -111t-84 -94q-10 -12 -9 -23.5z" />
<glyph unicode="&#xbf;" horiz-adv-x="921" d="M-33 -72q0 67 28 127.5t73 104.5t99.5 83t109 70t99.5 57.5t73 52.5t28 50q0 5 -2.5 15t-14.5 23t-30 13q-9 0 -34.5 -15t-35.5 -15q-11 0 -20.5 11t-9.5 27q0 26 31 49t98 23q73 0 117.5 -46t44.5 -101q0 -43 -37 -89t-92.5 -84.5t-120.5 -84t-120.5 -86.5t-92.5 -92 t-37 -101q0 -120 85.5 -188t225.5 -68q91 0 165.5 56.5t74.5 136.5q0 60 -34.5 93.5t-62.5 33.5q-37 0 -48 -14t-11 -46q0 -33 -22 -59.5t-72 -26.5q-51 0 -74.5 35t-23.5 66q0 65 62.5 102t150.5 37q91 0 155 -53t64 -150q0 -53 -25 -105t-71 -95.5t-119.5 -70 t-161.5 -26.5q-175 0 -293.5 97t-118.5 253zM397 868q0 66 33.5 106t97.5 40t101 -36.5t37 -92.5q0 -62 -38.5 -96.5t-99.5 -34.5q-131 0 -131 114z" />
<glyph unicode="&#xc0;" d="M-86 43q0 19 12 31.5t35 9.5q34 -5 72 29.5t73 109.5q3 6 27 52t63.5 121.5t95 184.5t141 278.5t183.5 365.5q6 13 6 24.5t-3 24t-3 20.5q0 37 41 37q38 0 66.5 16t62.5 60q12 12 25 12t16 -10q20 -149 106.5 -634.5t119.5 -608.5q5 -19 10 -30.5t15.5 -27t29.5 -21 t45 -1.5q23 4 35 -8t12 -33q0 -22 -12 -37t-33 -12q-42 5 -172 6t-213 -6q-22 -1 -32.5 10.5t-10.5 30.5q0 20 10.5 35t28.5 14q56 -5 78.5 15.5t25.5 80.5q1 24 -16.5 132.5t-28.5 158.5q0 19 -14 23q-171 21 -412 4q-25 -1 -36 -10t-25 -35q-65 -116 -111 -234 q-27 -68 4.5 -103.5t137.5 -27.5q22 1 33.5 -12.5t11.5 -34.5t-12.5 -35.5t-34.5 -11.5q-66 5 -189 6t-217 -6q-22 -3 -34.5 11.5t-12.5 35.5zM424 641q-18 -36 18 -45q21 -6 117.5 -6t196.5 10q50 3 45 53q-6 62 -36 231t-50 255q-3 13 -4.5 17.5t-5.5 8t-10.5 -3.5 t-16.5 -24q-48 -80 -130 -240t-124 -256zM578 1747q0 17 14 31t31 14q4 0 39.5 1t46.5 1q37 0 63 -39q50 -83 148 -213q4 -4 4 -14q0 -15 -15.5 -27t-36.5 -12q-45 0 -65 20q-43 48 -110.5 113t-106.5 98q-12 10 -12 27z" />
<glyph unicode="&#xc1;" d="M-86 43q0 19 12 31.5t35 9.5q34 -5 72 29.5t73 109.5q3 6 27 52t63.5 121.5t95 184.5t141 278.5t183.5 365.5q6 13 6 24.5t-3 24t-3 20.5q0 37 41 37q38 0 66.5 16t62.5 60q12 12 25 12t16 -10q20 -149 106.5 -634.5t119.5 -608.5q5 -19 10 -30.5t15.5 -27t29.5 -21 t45 -1.5q23 4 35 -8t12 -33q0 -22 -12 -37t-33 -12q-42 5 -172 6t-213 -6q-22 -1 -32.5 10.5t-10.5 30.5q0 20 10.5 35t28.5 14q56 -5 78.5 15.5t25.5 80.5q1 24 -16.5 132.5t-28.5 158.5q0 19 -14 23q-171 21 -412 4q-25 -1 -36 -10t-25 -35q-65 -116 -111 -234 q-27 -68 4.5 -103.5t137.5 -27.5q22 1 33.5 -12.5t11.5 -34.5t-12.5 -35.5t-34.5 -11.5q-66 5 -189 6t-217 -6q-22 -3 -34.5 11.5t-12.5 35.5zM424 641q-18 -36 18 -45q21 -6 117.5 -6t196.5 10q50 3 45 53q-6 62 -36 231t-50 255q-3 13 -4.5 17.5t-5.5 8t-10.5 -3.5 t-16.5 -24q-48 -80 -130 -240t-124 -256zM545 1522q0 10 10 20q95 86 217 213q33 39 76 39q9 0 53.5 -1t48.5 -1q14 0 23.5 -10.5t9.5 -24.5q0 -20 -20 -37q-131 -88 -289 -211q-20 -20 -72 -20h-14q-16 0 -29.5 10t-13.5 23z" />
<glyph unicode="&#xc2;" d="M-86 43q0 19 12 31.5t35 9.5q34 -5 72 29.5t73 109.5q3 6 27 52t63.5 121.5t95 184.5t141 278.5t183.5 365.5q6 13 6 24.5t-3 24t-3 20.5q0 37 41 37q38 0 66.5 16t62.5 60q12 12 25 12t16 -10q20 -149 106.5 -634.5t119.5 -608.5q5 -19 10 -30.5t15.5 -27t29.5 -21 t45 -1.5q23 4 35 -8t12 -33q0 -22 -12 -37t-33 -12q-42 5 -172 6t-213 -6q-22 -1 -32.5 10.5t-10.5 30.5q0 20 10.5 35t28.5 14q56 -5 78.5 15.5t25.5 80.5q1 24 -16.5 132.5t-28.5 158.5q0 19 -14 23q-171 21 -412 4q-25 -1 -36 -10t-25 -35q-65 -116 -111 -234 q-27 -68 4.5 -103.5t137.5 -27.5q22 1 33.5 -12.5t11.5 -34.5t-12.5 -35.5t-34.5 -11.5q-66 5 -189 6t-217 -6q-22 -3 -34.5 11.5t-12.5 35.5zM424 641q-18 -36 18 -45q21 -6 117.5 -6t196.5 10q50 3 45 53q-6 62 -36 231t-50 255q-3 13 -4.5 17.5t-5.5 8t-10.5 -3.5 t-16.5 -24q-48 -80 -130 -240t-124 -256zM487 1518q0 11 19 30q62 57 142 138t97 98q29 26 58 26q31 0 51 -26q6 -9 26 -40.5t29.5 -46t28 -41.5t37.5 -52.5t41 -53.5q10 -13 10 -24q0 -17 -16.5 -29t-36.5 -12q-28 0 -41 16q-57 63 -115 119q-19 16 -37 16q-19 0 -45 -16 q-25 -20 -78 -60.5t-75 -58.5q-22 -16 -47 -16q-18 0 -33 10t-15 23z" />
<glyph unicode="&#xc3;" d="M-86 43q0 19 12 31.5t35 9.5q34 -5 72 29.5t73 109.5q3 6 27 52t63.5 121.5t95 184.5t141 278.5t183.5 365.5q6 13 6 24.5t-3 24t-3 20.5q0 37 41 37q38 0 66.5 16t62.5 60q12 12 25 12t16 -10q20 -149 106.5 -634.5t119.5 -608.5q5 -19 10 -30.5t15.5 -27t29.5 -21 t45 -1.5q23 4 35 -8t12 -33q0 -22 -12 -37t-33 -12q-42 5 -172 6t-213 -6q-22 -1 -32.5 10.5t-10.5 30.5q0 20 10.5 35t28.5 14q56 -5 78.5 15.5t25.5 80.5q1 24 -16.5 132.5t-28.5 158.5q0 19 -14 23q-171 21 -412 4q-25 -1 -36 -10t-25 -35q-65 -116 -111 -234 q-27 -68 4.5 -103.5t137.5 -27.5q22 1 33.5 -12.5t11.5 -34.5t-12.5 -35.5t-34.5 -11.5q-66 5 -189 6t-217 -6q-22 -3 -34.5 11.5t-12.5 35.5zM424 641q-18 -36 18 -45q21 -6 117.5 -6t196.5 10q50 3 45 53q-6 62 -36 231t-50 255q-3 13 -4.5 17.5t-5.5 8t-10.5 -3.5 t-16.5 -24q-48 -80 -130 -240t-124 -256zM494 1585q0 55 53 131.5t123 79.5q33 0 64 -16t54 -39t44.5 -46t46 -39t49.5 -16q28 0 51.5 26t48.5 77q13 31 39 31q16 0 28.5 -13t12.5 -32q-4 -23 -18.5 -58t-39.5 -75.5t-67 -68.5t-90 -28q-34 0 -64.5 16.5t-52.5 40.5 t-41.5 48t-40 40.5t-39.5 16.5q-7 0 -13 -1.5t-10.5 -3t-9.5 -5.5t-8.5 -6.5t-8 -9.5t-6.5 -10t-6.5 -11.5t-6 -12t-6.5 -14t-7 -14.5q-15 -27 -36 -27q-17 0 -30 12.5t-13 26.5z" />
<glyph unicode="&#xc4;" d="M-86 43q0 19 12 31.5t35 9.5q34 -5 72 29.5t73 109.5q3 6 27 52t63.5 121.5t95 184.5t141 278.5t183.5 365.5q6 13 6 24.5t-3 24t-3 20.5q0 37 41 37q38 0 66.5 16t62.5 60q12 12 25 12t16 -10q20 -149 106.5 -634.5t119.5 -608.5q5 -19 10 -30.5t15.5 -27t29.5 -21 t45 -1.5q23 4 35 -8t12 -33q0 -22 -12 -37t-33 -12q-42 5 -172 6t-213 -6q-22 -1 -32.5 10.5t-10.5 30.5q0 20 10.5 35t28.5 14q56 -5 78.5 15.5t25.5 80.5q1 24 -16.5 132.5t-28.5 158.5q0 19 -14 23q-171 21 -412 4q-25 -1 -36 -10t-25 -35q-65 -116 -111 -234 q-27 -68 4.5 -103.5t137.5 -27.5q22 1 33.5 -12.5t11.5 -34.5t-12.5 -35.5t-34.5 -11.5q-66 5 -189 6t-217 -6q-22 -3 -34.5 11.5t-12.5 35.5zM424 641q-18 -36 18 -45q21 -6 117.5 -6t196.5 10q50 3 45 53q-6 62 -36 231t-50 255q-3 13 -4.5 17.5t-5.5 8t-10.5 -3.5 t-16.5 -24q-48 -80 -130 -240t-124 -256zM471 1634q0 35 24.5 70t77.5 35q37 0 65 -32t28 -81q0 -44 -27.5 -72t-65.5 -28q-36 0 -69 25.5t-33 82.5zM885 1634q0 36 23 70.5t77 34.5q36 0 64 -32t28 -81q0 -44 -27 -72t-65 -28q-36 0 -68 25.5t-32 82.5z" />
<glyph unicode="&#xc5;" horiz-adv-x="1271" d="M-83 25q-11 31 10 50q13 12 34 9q34 -5 72 29.5t73 109.5q3 7 28 52t65 120.5t96.5 184t141.5 278.5t181 367q21 50 0 78q-54 60 -36 163q15 95 82 154t151 59q78 0 124.5 -59.5t33.5 -142.5q-18 -100 -78 -160q-30 -32 -36 -55t3 -70q150 -867 191 -1026q5 -19 10 -30.5 t15.5 -27t29.5 -21t45 -1.5q36 7 45 -27q8 -31 -12 -52q-13 -14 -31 -11q-42 5 -172 6t-213 -6q-29 -3 -39 20t1.5 47t33.5 23q56 -5 78.5 15.5t25.5 80.5q1 24 -16.5 132.5t-28.5 158.5q0 19 -14 23q-171 21 -412 4q-25 -1 -36 -10t-25 -35q-65 -116 -111 -234 q-27 -68 4.5 -103.5t137.5 -27.5q29 2 40.5 -23t-1 -49.5t-41.5 -21.5q-66 5 -189 6t-217 -6q-33 -3 -44 29zM424 641q-18 -36 18 -45q21 -6 117.5 -6t196.5 10q50 3 45 53q-6 62 -36 231t-50 255q-3 13 -4.5 17.5t-5.5 8t-10.5 -3.5t-16.5 -24q-48 -80 -130 -240t-124 -256 zM678 1468q-9 -53 13 -82.5t67 -29.5q43 0 77 31.5t44 87.5q6 41 -19 71.5t-63 30.5q-43 0 -77.5 -30.5t-41.5 -78.5z" />
<glyph unicode="&#xc6;" horiz-adv-x="1724" d="M-100 37q0 24 11 37t32 10q67 -9 172 129q39 44 770 1012q22 30 26 49.5t-2.5 25t-17.5 5.5t-51 -5q-20 -4 -32.5 12.5t-12.5 39.5q0 19 10.5 31.5t30.5 11.5q114 -9 380 -10t420 8q64 0 64 -41q0 -13 -18.5 -90.5t-32.5 -122.5q-12 -42 -45 -50q-27 -6 -36 15 q-3 9 -1 20q6 33 6 57.5t-6.5 44t-23.5 32.5t-41 22.5t-62.5 14.5t-85 7.5t-111.5 2.5q-26 0 -44.5 -8.5t-29 -26.5t-15 -32t-9.5 -38q-9 -42 -34.5 -195t-29.5 -198q-6 -45 23 -45q25 -1 118 -0.5t119 2.5q37 5 58 33.5t28 89.5q5 28 35 38q32 10 44 -13q7 -12 3 -33 q-12 -53 -18.5 -86.5t-11.5 -64.5t-6.5 -44t-5.5 -51t-7 -60q-7 -55 -43 -65q-28 -7 -42 17q-9 13 -5 32q11 54 2 77.5t-39 31.5q-24 6 -123 6t-123 -4q-7 -1 -12.5 -4t-8.5 -5t-5.5 -8.5t-3 -8t-2.5 -10.5l-2 -9q-34 -178 -64 -424q-8 -60 15 -82.5t104 -22.5q107 0 178 15 q114 30 193 213q19 53 55 53q15 0 27 -12t12 -29q0 -15 -96 -299q-12 -39 -60 -39q-107 1 -289.5 4.5t-242.5 3.5q-33 0 -101 -4t-84 -4q-23 -3 -35 12t-12 37t10.5 37t28.5 12q38 -8 65.5 -0.5t41.5 28t20 37t10 38.5q28 142 41 229q6 37 -1.5 54t-30.5 18q-201 12 -344 2 q-52 -3 -82 -45q-89 -110 -183 -244q-53 -78 -33 -105.5t121 -15.5q22 3 35 -12t13 -35t-12.5 -35t-33.5 -12q-189 15 -370 0q-22 -3 -35.5 10.5t-13.5 30.5zM539 641q-30 -36 6 -45q21 -6 112 -6t193 10q50 3 61 53q14 74 40.5 254t27.5 232q0 14 -5 21.5t-18 3t-32 -26.5 q-85 -103 -205.5 -256t-179.5 -240z" />
<glyph unicode="&#xc7;" horiz-adv-x="1261" d="M119 551q0 140 37 270.5t107 237t164.5 186t215.5 123t254 43.5q51 0 112.5 -14.5t122 -41t100.5 -74t40 -105.5q0 -49 -26.5 -74t-61.5 -25q-33 0 -55 13t-33 34t-20 46.5t-22.5 51t-33.5 46.5t-59 34t-95 13q-149 0 -278 -94t-207 -262t-78 -371q0 -115 34 -209.5 t91.5 -155t133 -93t159.5 -32.5q168 0 309 113q9 6 14 6q12 0 22.5 -16.5t10.5 -36.5q0 -22 -14 -39q-10 -10 -29.5 -25t-61 -40.5t-105.5 -46.5t-136 -29q-3 0 -12.5 -1t-12 -1t-10.5 -1t-10 -2t-8.5 -3t-9 -4t-7.5 -5.5t-8.5 -7.5t-7.5 -9.5t-8 -12.5q-12 -24 -12 -33 q0 -7 14 -10q109 -18 109 -95q0 -76 -77.5 -136t-154.5 -60q-14 0 -21.5 9.5t-7.5 22.5t6 24t15 11q21 2 40.5 6.5t40.5 14t33.5 27t12.5 40.5q0 43 -90 43q-47 0 -47 29q0 14 8 27q5 10 21.5 37t23.5 38q14 24 14 39q0 16 -20 19q-204 32 -315 182.5t-111 378.5z" />
<glyph unicode="&#xc8;" horiz-adv-x="1126" d="M23 45q0 22 10 37t26 12q21 -2 37 -4t29.5 4.5t22.5 11t17 16t12.5 19t8.5 20t5.5 19.5t3.5 17q58 292 114 656t56 413q-1 14 -10 22t-23.5 10.5t-33 2.5t-38.5 -1q-22 -1 -34.5 15.5t-12.5 38.5q0 19 10.5 30.5t30.5 10.5q112 -9 368.5 -10t399.5 8q78 5 78 -41 q0 -14 -18.5 -90.5t-32.5 -122.5q-7 -25 -21.5 -38.5t-30.5 -13.5q-14 0 -22.5 10t-7.5 27q24 109 -53.5 145t-303.5 36q-26 0 -45 -9t-29.5 -26t-15.5 -32t-10 -38q-9 -42 -34.5 -195t-29.5 -198q-6 -45 25 -45q23 -1 133.5 -0.5t138.5 2.5q35 5 55 33.5t29 89.5 q4 18 20 29.5t34 11.5q38 0 30 -49q-22 -117 -51 -306q-6 -33 -21 -50t-34 -17q-18 0 -28.5 14.5t-6.5 36.5q11 54 2.5 77.5t-39.5 31.5q-24 6 -139.5 6t-140.5 -4q-12 -2 -19 -10.5t-9 -14.5t-5 -20q-54 -322 -62 -424q-9 -60 13 -82.5t104 -22.5q161 0 225 15q21 5 39 14 t33.5 25t26.5 28t24.5 36t19 34.5t19 39.5t17.5 36q16 36 47 36q16 0 31 -14.5t12 -28.5q-26 -121 -76 -280q-5 -12 -22 -25.5t-44 -13.5q-96 0 -249.5 5t-346.5 5q-35 0 -92 -5t-71 -5q-22 -3 -33.5 12t-11.5 37zM530 1747q0 17 14 31t31 14q4 0 40 1t47 1q37 0 63 -39 q55 -90 147 -213q5 -5 5 -14q0 -15 -15.5 -27t-36.5 -12q-45 0 -65 20q-43 48 -110.5 113t-106.5 98q-13 10 -13 27z" />
<glyph unicode="&#xc9;" horiz-adv-x="1126" d="M23 45q0 22 10 37t26 12q21 -2 37 -4t29.5 4.5t22.5 11t17 16t12.5 19t8.5 20t5.5 19.5t3.5 17q58 292 114 656t56 413q-1 14 -10 22t-23.5 10.5t-33 2.5t-38.5 -1q-22 -1 -34.5 15.5t-12.5 38.5q0 19 10.5 30.5t30.5 10.5q112 -9 368.5 -10t399.5 8q78 5 78 -41 q0 -14 -18.5 -90.5t-32.5 -122.5q-7 -25 -21.5 -38.5t-30.5 -13.5q-14 0 -22.5 10t-7.5 27q24 109 -53.5 145t-303.5 36q-26 0 -45 -9t-29.5 -26t-15.5 -32t-10 -38q-9 -42 -34.5 -195t-29.5 -198q-6 -45 25 -45q23 -1 133.5 -0.5t138.5 2.5q35 5 55 33.5t29 89.5 q4 18 20 29.5t34 11.5q38 0 30 -49q-22 -117 -51 -306q-6 -33 -21 -50t-34 -17q-18 0 -28.5 14.5t-6.5 36.5q11 54 2.5 77.5t-39.5 31.5q-24 6 -139.5 6t-140.5 -4q-12 -2 -19 -10.5t-9 -14.5t-5 -20q-54 -322 -62 -424q-9 -60 13 -82.5t104 -22.5q161 0 225 15q21 5 39 14 t33.5 25t26.5 28t24.5 36t19 34.5t19 39.5t17.5 36q16 36 47 36q16 0 31 -14.5t12 -28.5q-26 -121 -76 -280q-5 -12 -22 -25.5t-44 -13.5q-96 0 -249.5 5t-346.5 5q-35 0 -92 -5t-71 -5q-22 -3 -33.5 12t-11.5 37zM555 1522q0 10 10 20q95 86 217 213q33 39 76 39q9 0 54 -1 t49 -1q14 0 23 -10.5t9 -24.5q0 -20 -20 -37q-131 -88 -289 -211q-20 -20 -72 -20h-14q-16 0 -29.5 10t-13.5 23z" />
<glyph unicode="&#xca;" horiz-adv-x="1126" d="M23 45q0 22 10 37t26 12q21 -2 37 -4t29.5 4.5t22.5 11t17 16t12.5 19t8.5 20t5.5 19.5t3.5 17q58 292 114 656t56 413q-1 14 -10 22t-23.5 10.5t-33 2.5t-38.5 -1q-22 -1 -34.5 15.5t-12.5 38.5q0 19 10.5 30.5t30.5 10.5q112 -9 368.5 -10t399.5 8q78 5 78 -41 q0 -14 -18.5 -90.5t-32.5 -122.5q-7 -25 -21.5 -38.5t-30.5 -13.5q-14 0 -22.5 10t-7.5 27q24 109 -53.5 145t-303.5 36q-26 0 -45 -9t-29.5 -26t-15.5 -32t-10 -38q-9 -42 -34.5 -195t-29.5 -198q-6 -45 25 -45q23 -1 133.5 -0.5t138.5 2.5q35 5 55 33.5t29 89.5 q4 18 20 29.5t34 11.5q38 0 30 -49q-22 -117 -51 -306q-6 -33 -21 -50t-34 -17q-18 0 -28.5 14.5t-6.5 36.5q11 54 2.5 77.5t-39.5 31.5q-24 6 -139.5 6t-140.5 -4q-12 -2 -19 -10.5t-9 -14.5t-5 -20q-54 -322 -62 -424q-9 -60 13 -82.5t104 -22.5q161 0 225 15q21 5 39 14 t33.5 25t26.5 28t24.5 36t19 34.5t19 39.5t17.5 36q16 36 47 36q16 0 31 -14.5t12 -28.5q-26 -121 -76 -280q-5 -12 -22 -25.5t-44 -13.5q-96 0 -249.5 5t-346.5 5q-35 0 -92 -5t-71 -5q-22 -3 -33.5 12t-11.5 37zM444 1518q0 11 19 30q62 57 142 138t97 98q29 26 58 26 q32 0 51 -26q6 -9 26 -40.5t29.5 -46t28 -41.5t37.5 -52.5t41 -53.5q10 -13 10 -24q0 -17 -16.5 -29t-36.5 -12q-28 0 -41 16q-57 63 -115 119q-19 16 -37 16q-19 0 -45 -16q-25 -20 -78 -60.5t-75 -58.5q-22 -16 -47 -16q-18 0 -33 10t-15 23z" />
<glyph unicode="&#xcb;" horiz-adv-x="1126" d="M23 45q0 22 10 37t26 12q21 -2 37 -4t29.5 4.5t22.5 11t17 16t12.5 19t8.5 20t5.5 19.5t3.5 17q58 292 114 656t56 413q-1 14 -10 22t-23.5 10.5t-33 2.5t-38.5 -1q-22 -1 -34.5 15.5t-12.5 38.5q0 19 10.5 30.5t30.5 10.5q112 -9 368.5 -10t399.5 8q78 5 78 -41 q0 -14 -18.5 -90.5t-32.5 -122.5q-7 -25 -21.5 -38.5t-30.5 -13.5q-14 0 -22.5 10t-7.5 27q24 109 -53.5 145t-303.5 36q-26 0 -45 -9t-29.5 -26t-15.5 -32t-10 -38q-9 -42 -34.5 -195t-29.5 -198q-6 -45 25 -45q23 -1 133.5 -0.5t138.5 2.5q35 5 55 33.5t29 89.5 q4 18 20 29.5t34 11.5q38 0 30 -49q-22 -117 -51 -306q-6 -33 -21 -50t-34 -17q-18 0 -28.5 14.5t-6.5 36.5q11 54 2.5 77.5t-39.5 31.5q-24 6 -139.5 6t-140.5 -4q-12 -2 -19 -10.5t-9 -14.5t-5 -20q-54 -322 -62 -424q-9 -60 13 -82.5t104 -22.5q161 0 225 15q21 5 39 14 t33.5 25t26.5 28t24.5 36t19 34.5t19 39.5t17.5 36q16 36 47 36q16 0 31 -14.5t12 -28.5q-26 -121 -76 -280q-5 -12 -22 -25.5t-44 -13.5q-96 0 -249.5 5t-346.5 5q-35 0 -92 -5t-71 -5q-22 -3 -33.5 12t-11.5 37zM440 1634q0 35 25 70t78 35q37 0 64.5 -32t27.5 -81 q0 -44 -27 -72t-65 -28q-36 0 -69.5 25.5t-33.5 82.5zM854 1634q0 36 23 70.5t77 34.5q36 0 64.5 -32t28.5 -81q0 -44 -27.5 -72t-65.5 -28q-36 0 -68 25.5t-32 82.5z" />
<glyph unicode="&#xcc;" horiz-adv-x="688" d="M12 47q0 20 9.5 34t27.5 13q2 0 15.5 -2t18 -2.5t17 -1.5t18.5 0t17 2.5t17 6t13.5 10t12.5 14.5t8 20q26 82 106 583.5t75 539.5q-1 29 -33 41.5t-74 3.5q-19 -4 -31 9.5t-12 33.5q0 19 11 31.5t32 11.5q169 -14 367 0q30 1 44.5 -12t14.5 -33q0 -18 -11 -31t-28 -12 q-53 6 -79.5 -2.5t-39.5 -42.5q-16 -40 -90.5 -527.5t-77.5 -591.5q-1 -37 24 -45.5t93 -3.5q23 1 35 -12t12 -33q0 -22 -13.5 -38t-35.5 -15q-245 15 -416 0q-23 -3 -35 12.5t-12 38.5zM268 1747q0 17 14 31t31 14q4 0 39.5 1t46.5 1q38 0 64 -39q55 -90 147 -213 q4 -4 4 -14q0 -15 -15 -27t-36 -12q-45 0 -65 20q-43 48 -110.5 113t-106.5 98q-13 10 -13 27z" />
<glyph unicode="&#xcd;" horiz-adv-x="688" d="M12 47q0 20 9.5 34t27.5 13q2 0 15.5 -2t18 -2.5t17 -1.5t18.5 0t17 2.5t17 6t13.5 10t12.5 14.5t8 20q26 82 106 583.5t75 539.5q-1 29 -33 41.5t-74 3.5q-19 -4 -31 9.5t-12 33.5q0 19 11 31.5t32 11.5q169 -14 367 0q30 1 44.5 -12t14.5 -33q0 -18 -11 -31t-28 -12 q-53 6 -79.5 -2.5t-39.5 -42.5q-16 -40 -90.5 -527.5t-77.5 -591.5q-1 -37 24 -45.5t93 -3.5q23 1 35 -12t12 -33q0 -22 -13.5 -38t-35.5 -15q-245 15 -416 0q-23 -3 -35 12.5t-12 38.5zM303 1522q0 10 10 20q95 86 217 213q33 39 76 39q9 0 54 -1t49 -1q14 0 23 -10.5 t9 -24.5q0 -20 -20 -37q-131 -88 -289 -211q-20 -20 -72 -20h-14q-16 0 -29.5 10t-13.5 23z" />
<glyph unicode="&#xce;" horiz-adv-x="688" d="M12 47q0 20 9.5 34t27.5 13q2 0 15.5 -2t18 -2.5t17 -1.5t18.5 0t17 2.5t17 6t13.5 10t12.5 14.5t8 20q26 82 106 583.5t75 539.5q-1 29 -33 41.5t-74 3.5q-19 -4 -31 9.5t-12 33.5q0 19 11 31.5t32 11.5q169 -14 367 0q30 1 44.5 -12t14.5 -33q0 -18 -11 -31t-28 -12 q-53 6 -79.5 -2.5t-39.5 -42.5q-16 -40 -90.5 -527.5t-77.5 -591.5q-1 -37 24 -45.5t93 -3.5q23 1 35 -12t12 -33q0 -22 -13.5 -38t-35.5 -15q-245 15 -416 0q-23 -3 -35 12.5t-12 38.5zM199 1518q0 12 18 30q62 58 144 140l96 96q29 26 57 26q32 0 51 -26q6 -9 26 -40.5 t29.5 -46t28 -41.5t37.5 -52.5t41 -53.5q10 -13 10 -24q0 -17 -16.5 -29t-36.5 -12q-28 0 -41 16q-57 63 -115 119q-19 16 -36 16q-20 0 -46 -16q-25 -20 -78 -60.5t-75 -58.5q-22 -16 -47 -16q-18 0 -33 10q-14 9 -14 23z" />
<glyph unicode="&#xcf;" horiz-adv-x="688" d="M12 47q0 20 9.5 34t27.5 13q2 0 15.5 -2t18 -2.5t17 -1.5t18.5 0t17 2.5t17 6t13.5 10t12.5 14.5t8 20q26 82 106 583.5t75 539.5q-1 29 -33 41.5t-74 3.5q-19 -4 -31 9.5t-12 33.5q0 19 11 31.5t32 11.5q169 -14 367 0q30 1 44.5 -12t14.5 -33q0 -18 -11 -31t-28 -12 q-53 6 -79.5 -2.5t-39.5 -42.5q-16 -40 -90.5 -527.5t-77.5 -591.5q-1 -37 24 -45.5t93 -3.5q23 1 35 -12t12 -33q0 -22 -13.5 -38t-35.5 -15q-245 15 -416 0q-23 -3 -35 12.5t-12 38.5zM180 1634q0 35 25 70t78 35q37 0 64.5 -32t27.5 -81q0 -44 -27 -72t-65 -28 q-36 0 -69.5 25.5t-33.5 82.5zM594 1634q0 36 23 70.5t77 34.5q36 0 64 -32t28 -81q0 -44 -27 -72t-65 -28q-36 0 -68 25.5t-32 82.5z" />
<glyph unicode="&#xd0;" horiz-adv-x="1372" d="M16 45q0 20 10.5 35t28.5 12q103 -14 125 78q33 103 88 434q3 17 -1 26t-9 10t-16 1h-2l-66 -4q-20 -1 -29.5 10.5t-9.5 28.5q0 20 9.5 36.5t21.5 18.5h88q9 0 15 1.5t14.5 12t11.5 31.5q54 341 61 469q1 21 -4.5 34t-19 18.5t-24 7t-33 1.5t-31.5 1q-12 0 -21.5 13 t-9.5 30t10.5 29t32.5 12h408q285 0 454.5 -140t169.5 -397q0 -177 -57.5 -333t-162 -271.5t-260.5 -182.5t-343 -67h-399q-25 -3 -37.5 10.5t-12.5 34.5zM365 276q-6 -59 6 -97.5t43 -56.5t64.5 -24t84.5 -6q128 0 236.5 68t185 201t105.5 315q14 93 14 158q0 98 -23.5 178 t-74.5 146t-142.5 103t-216.5 37q-68 0 -95.5 -15t-39.5 -64q-22 -88 -74 -437q-6 -25 -0.5 -36t10.5 -13t17 -2q51 -1 147 5.5t101 6.5q12 0 20 -15t8 -34q0 -21 -10.5 -35t-30.5 -14q-36 -1 -116.5 0.5t-128.5 1.5q-11 0 -17.5 -1t-14.5 -10t-11 -26q-7 -53 -18.5 -131 t-18.5 -127t-10 -76z" />
<glyph unicode="&#xd1;" horiz-adv-x="1406" d="M16 39q0 23 11 39.5t30 15.5q32 -3 55.5 4.5t37 18t24.5 35t15 41t12 50.5q1 6 2 9q21 105 71 446.5t54 366.5q11 73 14 113.5t-2.5 69.5t-22 38t-47.5 6q-21 -1 -32 13t-11 34q0 22 14.5 38.5t39.5 13.5q139 -4 182 0q27 3 51 -30t51 -101q169 -416 432 -922 q7 -12 20.5 -11.5t16.5 13.5q21 101 68.5 420.5t54.5 417.5q6 71 -16.5 101.5t-96.5 27.5q-18 0 -28 13.5t-10 31.5q0 19 11.5 32.5t33.5 10.5q59 -6 108.5 -7.5t70 -1t73 4l67.5 4.5q29 1 44.5 -13t15.5 -34q0 -16 -10.5 -28.5t-28.5 -12.5q-101 0 -123 -123 q-108 -582 -183 -1184q-3 -12 -23 -19.5t-44 -7.5q-42 0 -53 23q-215 493 -519 1112q-3 7 -12 6.5t-10 -14.5q-18 -103 -61.5 -430t-53.5 -418q-4 -51 -3.5 -89.5t27.5 -58t85 -10.5q27 3 41 -11.5t14 -37.5q0 -21 -11.5 -36.5t-29.5 -12.5q-188 16 -383 0q-16 -3 -24.5 10 t-8.5 33zM565 1585q0 55 53 131.5t123 79.5q33 0 64 -16t54 -39t44.5 -46t46 -39t49.5 -16q50 0 101 103q13 31 39 31q16 0 28.5 -13t12.5 -32q-4 -23 -18.5 -58t-39.5 -75.5t-67 -68.5t-90 -28q-34 0 -64.5 16.5t-52.5 40.5t-41.5 48t-40 40.5t-39.5 16.5q-7 0 -13 -1.5 t-10.5 -3t-9.5 -5.5t-8.5 -6.5t-8 -9.5t-6.5 -10t-6.5 -11.5t-6 -12t-6.5 -14t-7 -14.5q-15 -27 -37 -27q-17 0 -30 12.5t-13 26.5z" />
<glyph unicode="&#xd2;" horiz-adv-x="1437" d="M119 549q0 115 31 235.5t93.5 232.5t147.5 200t202.5 141t248.5 53q235 0 372.5 -149.5t137.5 -399.5q0 -171 -59 -333t-156.5 -282.5t-232 -193.5t-277.5 -73q-236 0 -372 156.5t-136 412.5zM311 596q0 -226 99.5 -371t255.5 -145q84 0 170.5 53t158.5 146.5t118 238.5 t46 313q0 220 -99.5 352t-256.5 132q-97 0 -180 -47t-139 -122.5t-96 -171t-58.5 -192t-18.5 -186.5zM705 1747q0 17 14 31t31 14q4 0 39.5 1t46.5 1q37 0 63 -39q50 -83 148 -213q4 -4 4 -14q0 -15 -15.5 -27t-36.5 -12q-45 0 -65 20q-43 48 -110.5 113t-106.5 98 q-12 10 -12 27z" />
<glyph unicode="&#xd3;" horiz-adv-x="1437" d="M119 549q0 115 31 235.5t93.5 232.5t147.5 200t202.5 141t248.5 53q235 0 372.5 -149.5t137.5 -399.5q0 -171 -59 -333t-156.5 -282.5t-232 -193.5t-277.5 -73q-236 0 -372 156.5t-136 412.5zM311 596q0 -226 99.5 -371t255.5 -145q84 0 170.5 53t158.5 146.5t118 238.5 t46 313q0 220 -99.5 352t-256.5 132q-97 0 -180 -47t-139 -122.5t-96 -171t-58.5 -192t-18.5 -186.5zM731 1522q0 10 10 20q95 86 217 213q33 39 76 39q9 0 54 -1t49 -1q14 0 23 -10.5t9 -24.5q0 -20 -20 -37q-131 -88 -289 -211q-20 -20 -72 -20h-14q-16 0 -29.5 10 t-13.5 23z" />
<glyph unicode="&#xd4;" horiz-adv-x="1437" d="M119 549q0 115 31 235.5t93.5 232.5t147.5 200t202.5 141t248.5 53q235 0 372.5 -149.5t137.5 -399.5q0 -171 -59 -333t-156.5 -282.5t-232 -193.5t-277.5 -73q-236 0 -372 156.5t-136 412.5zM311 596q0 -226 99.5 -371t255.5 -145q84 0 170.5 53t158.5 146.5t118 238.5 t46 313q0 220 -99.5 352t-256.5 132q-97 0 -180 -47t-139 -122.5t-96 -171t-58.5 -192t-18.5 -186.5zM602 1518q0 11 19 30q62 57 142 138t97 98q29 26 58 26q32 0 51 -26q5 -8 31.5 -49.5t38.5 -59.5t38 -54.5t53 -70.5q11 -15 11 -24q0 -17 -17 -29t-37 -12q-27 0 -40 16 q-57 63 -115 119q-19 16 -37 16q-19 0 -45 -16q-25 -20 -78.5 -60.5t-75.5 -58.5q-22 -16 -47 -16q-18 0 -33 10q-14 9 -14 23z" />
<glyph unicode="&#xd5;" horiz-adv-x="1437" d="M119 549q0 115 31 235.5t93.5 232.5t147.5 200t202.5 141t248.5 53q235 0 372.5 -149.5t137.5 -399.5q0 -171 -59 -333t-156.5 -282.5t-232 -193.5t-277.5 -73q-236 0 -372 156.5t-136 412.5zM311 596q0 -226 99.5 -371t255.5 -145q84 0 170.5 53t158.5 146.5t118 238.5 t46 313q0 220 -99.5 352t-256.5 132q-97 0 -180 -47t-139 -122.5t-96 -171t-58.5 -192t-18.5 -186.5zM586 1585q0 55 53 131.5t123 79.5q33 0 64 -16t54 -39t44.5 -46t46 -39t49.5 -16q28 0 51.5 26t48.5 77q13 31 39 31q16 0 28.5 -13t12.5 -32q-4 -23 -18.5 -58 t-39.5 -75.5t-67 -68.5t-90 -28q-42 0 -79 25.5t-59.5 55.5t-49 55.5t-49.5 25.5q-7 0 -13 -1.5t-10.5 -3t-9.5 -5.5t-8.5 -6.5t-8 -9.5t-6.5 -10t-6.5 -11.5t-6 -12t-6.5 -14t-7 -14.5q-15 -27 -37 -27q-17 0 -30 12.5t-13 26.5z" />
<glyph unicode="&#xd6;" horiz-adv-x="1437" d="M119 549q0 115 31 235.5t93.5 232.5t147.5 200t202.5 141t248.5 53q235 0 372.5 -149.5t137.5 -399.5q0 -171 -59 -333t-156.5 -282.5t-232 -193.5t-277.5 -73q-236 0 -372 156.5t-136 412.5zM311 596q0 -226 99.5 -371t255.5 -145q84 0 170.5 53t158.5 146.5t118 238.5 t46 313q0 220 -99.5 352t-256.5 132q-97 0 -180 -47t-139 -122.5t-96 -171t-58.5 -192t-18.5 -186.5zM584 1634q0 35 24.5 70t77.5 35q37 0 64.5 -32t27.5 -81q0 -44 -27 -72t-65 -28q-36 0 -69 25.5t-33 82.5zM997 1634q0 36 23.5 70.5t77.5 34.5q36 0 64 -32t28 -81 q0 -44 -27 -72t-65 -28q-36 0 -68.5 25.5t-32.5 82.5z" />
<glyph unicode="&#xd7;" horiz-adv-x="1228" d="M360 363q1 18 13 34q14 17 66 73.5t69 76.5q19 21 22.5 36t-2 23.5t-20.5 22.5q-97 109 -127 137q-44 42 -18 77q19 26 51 22q15 -2 24 -13q5 -5 26 -30.5t52.5 -63t56.5 -64.5q16 -16 28 -18.5t18.5 2t17.5 16.5q37 46 141 166q28 35 62 9q28 -21 27 -52q-1 -15 -11 -24 q-9 -6 -166 -181q-8 -9 -12 -15t-3 -12t1 -8t6.5 -9t7.5 -9q121 -133 154 -160q35 -27 25 -67q-7 -31 -34 -35q-28 -3 -57 27q-134 149 -147 165q-8 11 -12.5 16t-11 3t-10.5 -5.5t-17 -15.5q-20 -25 -74.5 -91t-65.5 -79q-20 -26 -51 -7q-30 19 -29 53z" />
<glyph unicode="&#xd8;" horiz-adv-x="1441" d="M123 532q0 92 14 177q30 194 133 355t256 254t324 93q112 0 186 -35q30 -10 41 -10q14 0 24.5 9t26.5 34l17 23q21 38 61 38q22 0 36.5 -13t14.5 -32q0 -17 -38 -71q-25 -36 -25 -47q0 -15 37 -60q125 -143 125 -383q0 -114 -32.5 -237t-97 -238t-151 -206.5t-204 -147 t-246.5 -55.5q-122 0 -215 40q-10 3 -20.5 7.5t-17 7t-10.5 2.5q-15 0 -34 -31q-17 -27 -25 -38t-21.5 -22.5t-27.5 -11.5q-15 0 -27 9q-22 14 -22 39q0 30 35 71q24 30 24 47q0 5 -1.5 9t-5 10t-6 10t-9.5 13t-11 14q-108 140 -108 376zM311 553q0 -129 33 -219 q15 -45 37 -45q27 0 72 67q218 308 520 803q22 42 22 62q0 26 -30 47q-77 47 -158 47q-181 0 -308 -140.5t-171 -422.5q-17 -119 -17 -199zM463 186q0 -29 39 -55q74 -51 168 -51q73 0 138 26.5t114.5 71.5t90.5 106.5t69 130t47.5 143t28.5 145.5t9 137q0 143 -45 245 q-23 54 -43 54t-53 -58q-95 -146 -290.5 -447.5t-229.5 -354.5q-43 -64 -43 -93z" />
<glyph unicode="&#xd9;" horiz-adv-x="1327" d="M190 1350q0 19 10.5 32.5t32.5 12.5q50 -5 93 -7.5t83.5 -2t63.5 1.5t66 4t59 4q27 1 40 -9.5t13 -27.5q0 -19 -14.5 -35.5t-32.5 -15.5q-94 12 -115 -54q-49 -229 -106 -671q-9 -68 -12 -121.5t1 -110t20.5 -98t45 -75t76.5 -51t113 -17.5q147 0 237.5 108t136.5 361 q43 256 105 677q8 34 -19.5 47t-89.5 3q-23 -3 -36 10t-13 33t14 34t37 11q29 -3 55.5 -5.5t53 -2.5t44 -0.5t45.5 1t40 2.5t44 3.5t42 3.5q55 3 55 -41q0 -20 -12.5 -35t-30.5 -14q-102 17 -118 -43q-33 -156 -68.5 -385t-48.5 -302q-17 -105 -42.5 -190t-69 -162.5 t-101.5 -129.5t-142 -82.5t-188 -30.5q-81 0 -142.5 20.5t-108.5 65t-70.5 115.5t-28.5 173t18 236q70 445 103 665q6 27 -25 43.5t-74 10.5q-19 -4 -29 8t-10 33zM596 1747q0 17 14 31t31 14q4 0 39.5 1t46.5 1q38 0 64 -39q55 -90 147 -213q4 -4 4 -14q0 -15 -15 -27 t-36 -12q-46 0 -66 20q-43 48 -110.5 113t-106.5 98q-12 10 -12 27z" />
<glyph unicode="&#xda;" horiz-adv-x="1327" d="M190 1350q0 19 10.5 32.5t32.5 12.5q50 -5 93 -7.5t83.5 -2t63.5 1.5t66 4t59 4q27 1 40 -9.5t13 -27.5q0 -19 -14.5 -35.5t-32.5 -15.5q-94 12 -115 -54q-49 -229 -106 -671q-9 -68 -12 -121.5t1 -110t20.5 -98t45 -75t76.5 -51t113 -17.5q147 0 237.5 108t136.5 361 q43 256 105 677q8 34 -19.5 47t-89.5 3q-23 -3 -36 10t-13 33t14 34t37 11q29 -3 55.5 -5.5t53 -2.5t44 -0.5t45.5 1t40 2.5t44 3.5t42 3.5q55 3 55 -41q0 -20 -12.5 -35t-30.5 -14q-102 17 -118 -43q-33 -156 -68.5 -385t-48.5 -302q-17 -105 -42.5 -190t-69 -162.5 t-101.5 -129.5t-142 -82.5t-188 -30.5q-81 0 -142.5 20.5t-108.5 65t-70.5 115.5t-28.5 173t18 236q70 445 103 665q6 27 -25 43.5t-74 10.5q-19 -4 -29 8t-10 33zM621 1522q0 10 10 20q95 86 217 213q33 39 76 39q9 0 53.5 -1t48.5 -1q14 0 23.5 -10.5t9.5 -24.5 q0 -19 -21 -37q-124 -83 -288 -211q-20 -20 -72 -20h-14q-16 0 -29.5 10t-13.5 23z" />
<glyph unicode="&#xdb;" horiz-adv-x="1327" d="M190 1350q0 19 10.5 32.5t32.5 12.5q50 -5 93 -7.5t83.5 -2t63.5 1.5t66 4t59 4q27 1 40 -9.5t13 -27.5q0 -19 -14.5 -35.5t-32.5 -15.5q-94 12 -115 -54q-49 -229 -106 -671q-9 -68 -12 -121.5t1 -110t20.5 -98t45 -75t76.5 -51t113 -17.5q147 0 237.5 108t136.5 361 q43 256 105 677q8 34 -19.5 47t-89.5 3q-23 -3 -36 10t-13 33t14 34t37 11q29 -3 55.5 -5.5t53 -2.5t44 -0.5t45.5 1t40 2.5t44 3.5t42 3.5q55 3 55 -41q0 -20 -12.5 -35t-30.5 -14q-102 17 -118 -43q-33 -156 -68.5 -385t-48.5 -302q-17 -105 -42.5 -190t-69 -162.5 t-101.5 -129.5t-142 -82.5t-188 -30.5q-81 0 -142.5 20.5t-108.5 65t-70.5 115.5t-28.5 173t18 236q70 445 103 665q6 27 -25 43.5t-74 10.5q-19 -4 -29 8t-10 33zM551 1518q0 12 18 30q62 58 144 140l96 96q29 26 57 26q32 0 52 -26q5 -8 31.5 -49.5t38.5 -59.5t38 -54.5 t53 -70.5q11 -15 11 -24q0 -17 -17 -29t-37 -12q-28 0 -41 16q-62 70 -114 119q-19 16 -37 16q-19 0 -45 -16q-25 -20 -78.5 -60.5t-75.5 -58.5q-22 -16 -47 -16q-18 0 -33 10q-14 9 -14 23z" />
<glyph unicode="&#xdc;" horiz-adv-x="1327" d="M190 1350q0 19 10.5 32.5t32.5 12.5q50 -5 93 -7.5t83.5 -2t63.5 1.5t66 4t59 4q27 1 40 -9.5t13 -27.5q0 -19 -14.5 -35.5t-32.5 -15.5q-94 12 -115 -54q-49 -229 -106 -671q-9 -68 -12 -121.5t1 -110t20.5 -98t45 -75t76.5 -51t113 -17.5q147 0 237.5 108t136.5 361 q43 256 105 677q8 34 -19.5 47t-89.5 3q-23 -3 -36 10t-13 33t14 34t37 11q29 -3 55.5 -5.5t53 -2.5t44 -0.5t45.5 1t40 2.5t44 3.5t42 3.5q55 3 55 -41q0 -20 -12.5 -35t-30.5 -14q-102 17 -118 -43q-33 -156 -68.5 -385t-48.5 -302q-17 -105 -42.5 -190t-69 -162.5 t-101.5 -129.5t-142 -82.5t-188 -30.5q-81 0 -142.5 20.5t-108.5 65t-70.5 115.5t-28.5 173t18 236q70 445 103 665q6 27 -25 43.5t-74 10.5q-19 -4 -29 8t-10 33zM532 1634q0 35 25 70t78 35q37 0 64.5 -32t27.5 -81q0 -44 -27 -72t-65 -28q-36 0 -69.5 25.5t-33.5 82.5z M946 1634q0 36 23.5 70.5t77.5 34.5q36 0 64 -32t28 -81q0 -44 -27 -72t-65 -28q-36 0 -68.5 25.5t-32.5 82.5z" />
<glyph unicode="&#xdd;" horiz-adv-x="1155" d="M125 1350q0 20 11 33t32 12q143 -15 371 2q57 3 57 -41q0 -20 -12.5 -36t-30.5 -15q-62 10 -88 -18t-14 -70q75 -249 163 -451q12 -23 35 0q63 75 171 226.5t147 219.5q12 18 14.5 38t-5.5 36.5t-29.5 23t-57.5 -2.5q-22 -4 -34.5 11.5t-12.5 37.5q0 39 37 39 q28 -1 79.5 -3.5t74 -3t60.5 -1t72 1.5t76 6q26 1 38.5 -10.5t12.5 -30.5t-11.5 -33.5t-29.5 -13.5q-36 2 -63 -9t-38.5 -22t-37.5 -39q-84 -97 -256.5 -333t-200.5 -302q-16 -40 -39.5 -194t-27.5 -258q-3 -41 27 -52.5t94 -1.5q22 3 33.5 -10t11.5 -33q0 -23 -14.5 -40.5 t-37.5 -16.5q-233 18 -428 -2q-23 -3 -35 12t-12 37q0 23 11.5 39.5t29.5 13.5q3 0 20.5 -3t25 -3.5t23.5 -1t25 2.5t20.5 8t19 15.5t12.5 24.5q24 85 54 274t24 216q-38 142 -114.5 343.5t-125.5 297.5q-15 29 -29.5 36.5t-54.5 0.5q-20 -4 -31.5 9t-11.5 34zM623 1522 q0 10 10 20q95 86 217 213q33 39 76 39q9 0 53.5 -1t48.5 -1q14 0 23.5 -10.5t9.5 -24.5q0 -19 -21 -37q-124 -83 -288 -211q-20 -20 -72 -20h-14q-16 0 -29.5 10t-13.5 23z" />
<glyph unicode="&#xde;" horiz-adv-x="1054" d="M10 47q0 21 10 34.5t29 12.5q3 0 15.5 -2t17.5 -2.5t17 -1.5t18.5 0t16.5 2.5t16.5 6t14 10t12.5 14.5t9 20q26 82 106 583.5t75 539.5q-3 29 -34 41.5t-73 3.5q-18 -3 -28.5 9t-10.5 30q0 21 12.5 35.5t34.5 11.5q169 -14 365 0q29 1 43 -10.5t14 -30.5q0 -20 -12.5 -35 t-30.5 -12q-53 6 -79.5 -2.5t-39.5 -42.5q-4 -13 -10 -48q-6 -39 3.5 -54t33.5 -15q23 0 57 1t52 1q59 0 116.5 -19.5t108 -57.5t81.5 -104.5t31 -150.5q0 -102 -34.5 -198t-96.5 -171.5t-155.5 -121t-202.5 -45.5q-13 0 -22 6t-9 16q0 15 4 31q8 33 52 33q72 0 130 42.5 t92 109t52 139t18 141.5q0 52 -10 96t-34.5 85t-72 64t-114.5 23q-29 0 -45 -2q-65 -7 -78 -88q-113 -730 -115 -832q-1 -37 24 -45.5t93 -3.5q23 1 35 -12t12 -33q0 -22 -13.5 -38t-35.5 -15q-245 15 -416 0q-24 -3 -36.5 12.5t-12.5 38.5z" />
<glyph unicode="&#xdf;" horiz-adv-x="1083" d="M-133 -324q0 52 49 52q17 0 58.5 -6.5t60.5 -6.5q30 0 46 10.5t17 38.5q117 893 121 967q2 29 2 68t-10.5 49t-48.5 10q-31 0 -47 -2q-43 0 -43 39q0 26 17 48t42 22q42 0 82 37.5t63 80.5t51 102t38 75q31 48 54.5 80t61 71t74.5 62t88.5 39t110.5 16q126 0 182.5 -58.5 t56.5 -144.5q0 -59 -33 -121t-80 -115.5t-94.5 -105t-80.5 -107t-33 -104.5q0 -41 32 -92t78 -101.5t92.5 -103.5t78.5 -113.5t32 -115.5q0 -67 -31.5 -119t-82 -81.5t-108.5 -44.5t-118 -15q-89 0 -146 28.5t-57 83.5q0 26 20 54t54 28q23 0 42 -16t30 -35t33 -35t51 -16 q55 0 105 39.5t50 109.5q0 43 -30 92.5t-73 96t-86 94t-73 103t-30 106.5q0 59 31.5 118t76.5 109.5t89.5 101.5t76 112.5t31.5 123.5q0 67 -25.5 106.5t-101.5 39.5q-135 0 -225 -165.5t-126 -465.5q-85 -724 -98 -914q-8 -82 -41 -145t-77.5 -96t-87.5 -48.5t-81 -15.5 q-55 0 -82.5 32.5t-27.5 63.5z" />
<glyph unicode="&#xe0;" horiz-adv-x="925" d="M45 272q0 93 27 189.5t78.5 182.5t120 154t158 108t185.5 40q19 0 49.5 15.5t32.5 15.5q28 0 57 -32.5t29 -63.5q-1 -22 -56.5 -290t-55.5 -349q0 -54 11 -89.5t30 -35.5q20 0 39.5 10t23.5 10q13 0 20 -13t7 -26q0 -30 -61 -74t-140 -44q-33 0 -49.5 34t-18 75.5 t-3 75.5t-7.5 34q-8 0 -24 -27q-45 -74 -111 -133t-141 -59q-71 0 -118 42.5t-65 105.5t-18 144zM190 309q0 -89 30 -140.5t75 -51.5q39 0 84 38t90 110.5t82 198t53 281.5q5 45 -12.5 75t-59.5 30q-83 0 -164 -86.5t-129.5 -212.5t-48.5 -242zM434 1442q0 13 10.5 22 t28.5 9q3 0 33.5 1t46.5 1q17 0 26 -8t13 -31q7 -41 28.5 -112.5t39.5 -126.5t18 -62q0 -20 -16.5 -32.5t-36.5 -12.5q-23 0 -31 14q-22 52 -53.5 114t-58 109.5t-31.5 58.5q-17 35 -17 56z" />
<glyph unicode="&#xe1;" horiz-adv-x="925" d="M45 272q0 93 27 189.5t78.5 182.5t120 154t158 108t185.5 40q19 0 49.5 15.5t32.5 15.5q28 0 57 -32.5t29 -63.5q-1 -22 -56.5 -290t-55.5 -349q0 -54 11 -89.5t30 -35.5q20 0 39.5 10t23.5 10q13 0 20 -13t7 -26q0 -30 -61 -74t-140 -44q-33 0 -49.5 34t-18 75.5 t-3 75.5t-7.5 34q-8 0 -24 -27q-45 -74 -111 -133t-141 -59q-71 0 -118 42.5t-65 105.5t-18 144zM190 309q0 -89 30 -140.5t75 -51.5q39 0 84 38t90 110.5t82 198t53 281.5q5 45 -12.5 75t-59.5 30q-83 0 -164 -86.5t-129.5 -212.5t-48.5 -242zM434 1128q0 14 8 25 q78 112 174 283q19 39 58 39q16 0 54.5 -1t41.5 -1q15 0 24 -8.5t9 -20.5q0 -19 -21 -43q-8 -9 -58 -66.5t-100 -117.5t-89 -113q-9 -14 -43 -14q-23 0 -40.5 10t-17.5 28z" />
<glyph unicode="&#xe2;" horiz-adv-x="925" d="M45 272q0 93 27 189.5t78.5 182.5t120 154t158 108t185.5 40q19 0 49.5 15.5t32.5 15.5q28 0 57 -32.5t29 -63.5q-1 -22 -56.5 -290t-55.5 -349q0 -54 11 -89.5t30 -35.5q20 0 39.5 10t23.5 10q13 0 20 -13t7 -26q0 -30 -61 -74t-140 -44q-33 0 -49.5 34t-18 75.5 t-3 75.5t-7.5 34q-8 0 -24 -27q-45 -74 -111 -133t-141 -59q-71 0 -118 42.5t-65 105.5t-18 144zM190 309q0 -89 30 -140.5t75 -51.5q39 0 84 38t90 110.5t82 198t53 281.5q5 45 -12.5 75t-59.5 30q-83 0 -164 -86.5t-129.5 -212.5t-48.5 -242zM334 1130q0 14 12 29 q149 192 211 293q15 27 51 27q31 0 37 -25q21 -67 53 -148t54 -124q16 -36 16 -45q0 -17 -16 -29t-35 -12q-21 0 -35 24q-9 14 -28.5 47.5t-35 58.5t-28.5 42q-7 10 -15 10q-5 0 -18 -10q-18 -17 -40.5 -42t-55 -62t-47.5 -54q-14 -14 -35 -14q-18 0 -31.5 9.5t-13.5 24.5z " />
<glyph unicode="&#xe3;" horiz-adv-x="925" d="M45 272q0 93 27 189.5t78.5 182.5t120 154t158 108t185.5 40q19 0 49.5 15.5t32.5 15.5q28 0 57 -32.5t29 -63.5q-1 -22 -56.5 -290t-55.5 -349q0 -54 11 -89.5t30 -35.5q20 0 39.5 10t23.5 10q13 0 20 -13t7 -26q0 -30 -61 -74t-140 -44q-33 0 -49.5 34t-18 75.5 t-3 75.5t-7.5 34q-8 0 -24 -27q-45 -74 -111 -133t-141 -59q-71 0 -118 42.5t-65 105.5t-18 144zM190 309q0 -89 30 -140.5t75 -51.5q39 0 84 38t90 110.5t82 198t53 281.5q5 45 -12.5 75t-59.5 30q-83 0 -164 -86.5t-129.5 -212.5t-48.5 -242zM307 1217q0 55 48.5 132.5 t113.5 80.5q30 0 57.5 -16.5t48.5 -39.5t40 -46t41 -39.5t44 -16.5q28 0 50 25.5t45 78.5q11 31 34 31q14 0 25.5 -13t11.5 -32q-4 -25 -17 -60t-35.5 -76t-61 -69.5t-82.5 -28.5q-38 0 -71.5 25.5t-54 56.5t-44.5 56.5t-45 25.5q-15 0 -26.5 -5.5t-21 -22t-13.5 -25.5 t-15 -37q-12 -26 -33 -26q-15 0 -27 13t-12 28z" />
<glyph unicode="&#xe4;" horiz-adv-x="925" d="M45 272q0 93 27 189.5t78.5 182.5t120 154t158 108t185.5 40q19 0 49.5 15.5t32.5 15.5q28 0 57 -32.5t29 -63.5q-1 -22 -56.5 -290t-55.5 -349q0 -54 11 -89.5t30 -35.5q20 0 39.5 10t23.5 10q13 0 20 -13t7 -26q0 -30 -61 -74t-140 -44q-33 0 -49.5 34t-18 75.5 t-3 75.5t-7.5 34q-8 0 -24 -27q-45 -74 -111 -133t-141 -59q-71 0 -118 42.5t-65 105.5t-18 144zM190 309q0 -89 30 -140.5t75 -51.5q39 0 84 38t90 110.5t82 198t53 281.5q5 45 -12.5 75t-59.5 30q-83 0 -164 -86.5t-129.5 -212.5t-48.5 -242zM352 1268q0 33 25 67.5 t78 34.5q37 0 64.5 -30.5t27.5 -79.5q0 -45 -26.5 -73t-65.5 -28q-36 0 -69.5 25.5t-33.5 83.5zM678 1268q0 34 24 68t78 34q37 0 63.5 -30.5t26.5 -79.5q0 -45 -25.5 -73t-64.5 -28q-37 0 -69.5 25t-32.5 84z" />
<glyph unicode="&#xe5;" horiz-adv-x="925" d="M45 272q0 93 27 189.5t78.5 182.5t120 154t158 108t185.5 40q19 0 49.5 15.5t32.5 15.5q28 0 57 -32.5t29 -63.5q-1 -22 -56.5 -290t-55.5 -349q0 -54 11 -89.5t30 -35.5q20 0 39.5 10t23.5 10q13 0 20 -13t7 -26q0 -30 -61 -74t-140 -44q-33 0 -49.5 34t-18 75.5 t-3 75.5t-7.5 34q-8 0 -24 -27q-45 -74 -111 -133t-141 -59q-71 0 -118 42.5t-65 105.5t-18 144zM190 309q0 -89 30 -140.5t75 -51.5q39 0 84 38t90 110.5t82 198t53 281.5q5 45 -12.5 75t-59.5 30q-83 0 -164 -86.5t-129.5 -212.5t-48.5 -242zM424 1245q0 102 66.5 169 t152.5 67q63 0 106.5 -45t43.5 -111q0 -106 -68 -168.5t-147 -62.5q-69 0 -111.5 41t-42.5 110zM518 1268q0 -38 19.5 -59t52.5 -21q43 0 74.5 32.5t31.5 88.5q0 34 -20 55.5t-51 21.5q-45 0 -76 -34t-31 -84z" />
<glyph unicode="&#xe6;" horiz-adv-x="1273" d="M25 186q0 57 28.5 105.5t70 80t100.5 59t105.5 42t101.5 30.5t73 23q27 7 37 66q10 72 10 110q0 78 -26.5 109t-80.5 31q-102 0 -155 -47q-12 -9 -16 -32t-4 -52.5t-1 -36.5q-6 -37 -29.5 -61.5t-60.5 -24.5q-25 0 -41 25t-16 57q0 73 69 143t161 109t167 39 q129 0 154 -97q6 -18 18 -18q10 0 25 12q113 105 250 105q91 0 147.5 -45.5t56.5 -120.5q0 -43 -19 -80t-51.5 -64.5t-72.5 -51t-84.5 -42.5t-84.5 -35t-76.5 -33.5t-55.5 -33.5q-24 -19 -34.5 -46t-10.5 -83q0 -97 50.5 -162.5t139.5 -65.5q28 0 54.5 8t44.5 18t38.5 28.5 t30 29t26 31t19.5 23.5q11 18 29 18t32.5 -10t14.5 -21q0 -10 -15 -36.5t-47.5 -62t-75 -67.5t-105 -54.5t-130.5 -22.5q-164 0 -243 116q-15 21 -29 21q-17 0 -43 -23q-129 -116 -233 -116q-75 0 -124.5 31t-69 75.5t-19.5 99.5zM176 205q0 -44 26.5 -78.5t84.5 -34.5h18 q65 4 112 63.5t70 155.5q13 67 13 84q0 31 -19 31q-37 0 -88.5 -17t-100 -45t-82.5 -70.5t-34 -88.5zM692 590q0 -31 17 -31q21 0 94.5 33.5t146 89.5t72.5 104q0 35 -26.5 59.5t-69.5 24.5q-47 0 -102.5 -45.5t-93.5 -112t-38 -122.5z" />
<glyph unicode="&#xe7;" horiz-adv-x="788" d="M63 344q-5 153 49 294t162 233t244 92q59 0 109.5 -18t70.5 -32q17 -9 21 -49t0 -74t-8 -51q-6 -24 -14.5 -32.5t-24.5 -8.5q-35 0 -41 23q-28 156 -152 156q-58 0 -108 -49.5t-81.5 -123.5t-48 -156.5t-14.5 -152.5q3 -148 53 -220.5t113 -72.5q46 0 88.5 24t67.5 53 t48.5 53t35.5 24q14 0 26.5 -9.5t12.5 -19.5q0 -17 -25 -59.5t-82.5 -95t-126.5 -74.5q-45 -16 -76 -61q-9 -16 -11.5 -24.5t1 -12.5t13.5 -6q124 -21 106 -119q-8 -58 -74 -111.5t-151 -60.5q-21 -2 -29.5 15t-2.5 35t19 19q57 4 90.5 25t38.5 51q4 55 -92 55 q-29 0 -40 12.5t1 43.5q7 17 52 82q13 20 8 31.5t-35 21.5q-88 29 -138 127.5t-55 222.5z" />
<glyph unicode="&#xe8;" horiz-adv-x="819" d="M59 356q0 96 31 200.5t86 196t143 151t191 59.5q90 0 147.5 -46t57.5 -120q0 -59 -36 -107t-93 -80.5t-115.5 -57t-117 -49.5t-83.5 -46q-23 -18 -34 -43t-11 -68q0 -60 18 -113.5t63 -93t110 -39.5q24 0 46 5t41.5 16t34 20t30 26t23 25t21 26t15.5 20q14 18 30 18 q17 0 31 -9.5t17 -19.5q2 -7 -10.5 -33t-42 -62.5t-70 -70.5t-103 -57.5t-131.5 -23.5q-88 0 -155.5 54.5t-100.5 138.5t-33 183zM239 572.5q5 -18.5 29 -7.5q18 9 62.5 26t80 33t73.5 39t59.5 54.5t21.5 68.5q0 35 -25.5 59.5t-68.5 24.5q-45 0 -88 -28.5t-72 -70 t-47.5 -83t-23.5 -72.5q-6 -25 -1 -43.5zM377 1442q0 13 10.5 22t28.5 9q3 0 33.5 1t46.5 1q17 0 26 -8t13 -31q7 -41 28.5 -112.5t39.5 -126.5t18 -62q0 -20 -16.5 -32.5t-37.5 -12.5q-22 0 -30 14q-22 52 -54 114t-58.5 109.5t-31.5 58.5q-16 33 -16 56z" />
<glyph unicode="&#xe9;" horiz-adv-x="819" d="M59 356q0 96 31 200.5t86 196t143 151t191 59.5q90 0 147.5 -46t57.5 -120q0 -59 -36 -107t-93 -80.5t-115.5 -57t-117 -49.5t-83.5 -46q-23 -18 -34 -43t-11 -68q0 -60 18 -113.5t63 -93t110 -39.5q24 0 46 5t41.5 16t34 20t30 26t23 25t21 26t15.5 20q14 18 30 18 q17 0 31 -9.5t17 -19.5q2 -7 -10.5 -33t-42 -62.5t-70 -70.5t-103 -57.5t-131.5 -23.5q-88 0 -155.5 54.5t-100.5 138.5t-33 183zM239 572.5q5 -18.5 29 -7.5q18 9 62.5 26t80 33t73.5 39t59.5 54.5t21.5 68.5q0 35 -25.5 59.5t-68.5 24.5q-45 0 -88 -28.5t-72 -70 t-47.5 -83t-23.5 -72.5q-6 -25 -1 -43.5zM328 1128q0 14 8 25q78 112 174 283q19 39 57 39q16 0 55 -1t42 -1q15 0 23.5 -8.5t8.5 -20.5q0 -20 -20 -43q-9 -10 -58.5 -66.5t-100 -117t-89.5 -113.5q-9 -14 -43 -14q-23 0 -40 10t-17 28z" />
<glyph unicode="&#xea;" horiz-adv-x="819" d="M59 356q0 96 31 200.5t86 196t143 151t191 59.5q90 0 147.5 -46t57.5 -120q0 -59 -36 -107t-93 -80.5t-115.5 -57t-117 -49.5t-83.5 -46q-23 -18 -34 -43t-11 -68q0 -60 18 -113.5t63 -93t110 -39.5q24 0 46 5t41.5 16t34 20t30 26t23 25t21 26t15.5 20q14 18 30 18 q17 0 31 -9.5t17 -19.5q2 -7 -10.5 -33t-42 -62.5t-70 -70.5t-103 -57.5t-131.5 -23.5q-88 0 -155.5 54.5t-100.5 138.5t-33 183zM239 572.5q5 -18.5 29 -7.5q18 9 62.5 26t80 33t73.5 39t59.5 54.5t21.5 68.5q0 35 -25.5 59.5t-68.5 24.5q-45 0 -88 -28.5t-72 -70 t-47.5 -83t-23.5 -72.5q-6 -25 -1 -43.5zM289 1130q0 14 12 29q149 192 211 293q15 27 51 27q31 0 37 -25q21 -67 53 -148t54 -124q16 -36 16 -45q0 -17 -16 -29t-35 -12q-21 0 -35 24q-9 14 -28.5 47.5t-35 58.5t-28.5 42q-7 10 -15 10q-5 0 -18 -10q-18 -17 -40.5 -42 t-55 -62t-47.5 -54q-14 -14 -35 -14q-18 0 -31.5 9.5t-13.5 24.5z" />
<glyph unicode="&#xeb;" horiz-adv-x="819" d="M59 356q0 96 31 200.5t86 196t143 151t191 59.5q90 0 147.5 -46t57.5 -120q0 -59 -36 -107t-93 -80.5t-115.5 -57t-117 -49.5t-83.5 -46q-23 -18 -34 -43t-11 -68q0 -60 18 -113.5t63 -93t110 -39.5q24 0 46 5t41.5 16t34 20t30 26t23 25t21 26t15.5 20q14 18 30 18 q17 0 31 -9.5t17 -19.5q2 -7 -10.5 -33t-42 -62.5t-70 -70.5t-103 -57.5t-131.5 -23.5q-88 0 -155.5 54.5t-100.5 138.5t-33 183zM239 572.5q5 -18.5 29 -7.5q18 9 62.5 26t80 33t73.5 39t59.5 54.5t21.5 68.5q0 35 -25.5 59.5t-68.5 24.5q-45 0 -88 -28.5t-72 -70 t-47.5 -83t-23.5 -72.5q-6 -25 -1 -43.5zM260 1268q0 33 24.5 67.5t77.5 34.5q37 0 65 -30.5t28 -79.5q0 -45 -27 -73t-66 -28q-36 0 -69 25.5t-33 83.5zM586 1268q0 34 24 68t78 34q37 0 63.5 -30.5t26.5 -79.5q0 -45 -25.5 -73t-64.5 -28q-37 0 -69.5 25t-32.5 84z" />
<glyph unicode="&#xec;" horiz-adv-x="559" d="M74 860v12q0 33 28 37q35 5 104.5 20.5t110.5 31.5q4 2 15 2q26 0 47.5 -25t21.5 -53q-2 -18 -58.5 -327t-57.5 -378q0 -55 37 -55q19 0 43 11t30 11q16 0 23.5 -16.5t7.5 -32.5q0 -15 -35 -43t-85 -51.5t-85 -23.5q-86 0 -86 141q0 41 47 331t47 330q0 45 -123 45 q-17 0 -23.5 7t-8.5 26zM193 1442q0 13 10 22t28 9q3 0 33.5 1t46.5 1q17 0 26 -8t13 -31q7 -41 28.5 -112.5t39.5 -126.5t18 -62q0 -20 -16.5 -32.5t-36.5 -12.5q-23 0 -31 14q-22 52 -53.5 114t-58 109.5t-31.5 58.5q-16 33 -16 56z" />
<glyph unicode="&#xed;" horiz-adv-x="559" d="M74 860v12q0 33 28 37q35 5 104.5 20.5t110.5 31.5q4 2 15 2q26 0 47.5 -25t21.5 -53q-2 -18 -58.5 -327t-57.5 -378q0 -55 37 -55q19 0 43 11t30 11q16 0 23.5 -16.5t7.5 -32.5q0 -15 -35 -43t-85 -51.5t-85 -23.5q-86 0 -86 141q0 41 47 331t47 330q0 45 -123 45 q-17 0 -23.5 7t-8.5 26zM213 1128q0 14 8 25q78 112 174 283q19 39 58 39q16 0 54.5 -1t41.5 -1q15 0 24 -8.5t9 -20.5q0 -19 -21 -43q-9 -10 -58.5 -66.5t-100 -117t-89.5 -113.5q-9 -14 -43 -14q-23 0 -40 10t-17 28z" />
<glyph unicode="&#xee;" horiz-adv-x="559" d="M74 860v12q0 33 28 37q35 5 104.5 20.5t110.5 31.5q4 2 15 2q26 0 47.5 -25t21.5 -53q-2 -18 -58.5 -327t-57.5 -378q0 -55 37 -55q19 0 43 11t30 11q16 0 23.5 -16.5t7.5 -32.5q0 -15 -35 -43t-85 -51.5t-85 -23.5q-86 0 -86 141q0 41 47 331t47 330q0 45 -123 45 q-17 0 -23.5 7t-8.5 26zM121 1130q0 14 12 29q149 192 211 293q15 27 51 27q31 0 37 -25q21 -67 53 -148t54 -124q16 -36 16 -45q0 -17 -16 -29t-35 -12q-21 0 -35 24q-9 14 -28.5 47.5t-35 58.5t-28.5 42q-7 10 -15 10q-5 0 -18 -10q-18 -17 -40.5 -42t-55 -62t-47.5 -54 q-14 -14 -35 -14q-18 0 -31.5 9.5t-13.5 24.5z" />
<glyph unicode="&#xef;" horiz-adv-x="559" d="M74 860v12q0 33 28 37q35 5 104.5 20.5t110.5 31.5q4 2 15 2q26 0 47.5 -25t21.5 -53q-2 -18 -58.5 -327t-57.5 -378q0 -55 37 -55q19 0 43 11t30 11q16 0 23.5 -16.5t7.5 -32.5q0 -15 -35 -43t-85 -51.5t-85 -23.5q-86 0 -86 141q0 41 47 331t47 330q0 45 -123 45 q-17 0 -23.5 7t-8.5 26zM90 1268q0 33 25 67.5t78 34.5q37 0 64.5 -30.5t27.5 -79.5q0 -45 -26.5 -73t-65.5 -28q-36 0 -69.5 25.5t-33.5 83.5zM416 1268q0 34 24 68t78 34q37 0 63.5 -30.5t26.5 -79.5q0 -45 -25.5 -73t-64.5 -28q-37 0 -69.5 25t-32.5 84z" />
<glyph unicode="&#xf0;" horiz-adv-x="997" d="M63 365q0 128 40 241.5t102.5 189t138.5 119t150 43.5q77 0 111 -27.5t34 -70.5q0 -36 -19.5 -61t-52.5 -25q-27 0 -64 34t-65 34q-90 0 -152.5 -114.5t-62.5 -338.5q0 -136 48 -216.5t151 -80.5q60 0 110.5 34.5t83.5 93.5t57.5 129t38 149t19.5 146t6 126 q0 236 -100 455q-11 20 -27 20q-8 0 -24 -8q-23 -14 -49.5 -30.5t-39.5 -24.5t-27.5 -15.5t-23 -10.5t-16.5 -3q-16 0 -25.5 11.5t-9.5 27.5q0 39 37 55q123 55 123 86q0 8 -10 21q-18 17 -52 40.5t-53.5 40t-19.5 27.5q0 20 16 41t35 21q7 0 17 -3t22.5 -10t23.5 -14 t28 -19t28.5 -20.5t31 -22.5t29.5 -22q12 -12 33 -12q20 0 37 10q36 19 65.5 36t41.5 25t22 12.5t18 4.5q18 0 30.5 -14t12.5 -33q0 -24 -25.5 -43.5t-56 -30.5t-56 -27.5t-25.5 -33.5q0 -14 8 -19q143 -211 143 -500q0 -149 -39 -293t-107 -259t-170.5 -185.5t-220.5 -70.5 q-138 0 -218.5 107t-80.5 278z" />
<glyph unicode="&#xf1;" horiz-adv-x="1093" d="M53 860q0 22 5.5 32t21.5 13q7 1 40.5 7t59.5 11t61 13.5t60 17.5q27 9 35 9q25 0 40.5 -23.5t12.5 -54.5q-2 -27 -12 -103q-3 -20 12 -20q13 0 21 16q5 12 25 38t55.5 61t94 60.5t122.5 25.5q36 0 68.5 -10t65 -34t51.5 -72t19 -116q0 -77 -43 -299.5t-43 -265.5 q0 -33 21 -33q13 0 48.5 16.5t43.5 16.5q37 0 37 -60q0 -27 -95 -76.5t-141 -49.5q-42 0 -59.5 46.5t-11.5 94.5q4 35 47 264.5t43 300.5q0 74 -33 114t-96 40q-80 0 -151 -92t-113.5 -221.5t-55.5 -262.5q-3 -40 -5 -82t-2.5 -67t-2.5 -51t-4.5 -39.5t-9 -25t-17 -15.5 t-26.5 -4q-43 0 -79 29t-36 89q0 62 53 166q53 344 53 518q0 29 -20 35q-36 10 -125 10q-20 0 -27.5 7t-7.5 26zM369 1217q0 32 19.5 80t58.5 89.5t83 43.5q30 0 57.5 -16.5t48.5 -39.5t40.5 -46t41.5 -39.5t44 -16.5q28 0 49.5 25.5t44.5 78.5q11 31 35 31q14 0 25.5 -13 t11.5 -32q-4 -24 -17 -59.5t-36 -76.5t-61.5 -69.5t-82.5 -28.5q-37 0 -71 25.5t-54.5 56.5t-45 56.5t-44.5 25.5q-15 0 -26.5 -5.5t-21 -22t-13.5 -25.5t-15 -37q-12 -26 -32 -26q-15 0 -27 13t-12 28z" />
<glyph unicode="&#xf2;" horiz-adv-x="894" d="M68 344q0 130 39 245.5t104 197t152.5 129t183.5 47.5q70 0 120 -33t75.5 -88.5t37 -114.5t11.5 -125q0 -134 -41 -251t-109.5 -197t-157.5 -126t-184 -46q-57 0 -100.5 25.5t-67.5 63t-39 89.5t-19.5 95t-4.5 89zM221 416q0 -56 6.5 -107.5t22 -105.5t48.5 -86.5 t79 -32.5q70 0 127.5 63.5t90 170t32.5 231.5q0 58 -7.5 110t-25 102.5t-52 80.5t-83.5 30q-30 0 -62 -17.5t-63.5 -55.5t-56.5 -90.5t-40.5 -128.5t-15.5 -164zM406 1442q0 13 10 22t28 9q3 0 33.5 1t46.5 1q17 0 26 -8t13 -31q7 -41 28.5 -112.5t39.5 -126.5t18 -62 q0 -20 -16.5 -32.5t-36.5 -12.5q-23 0 -31 14q-22 52 -53.5 114t-58 109.5t-31.5 58.5q-16 33 -16 56z" />
<glyph unicode="&#xf3;" horiz-adv-x="894" d="M68 344q0 130 39 245.5t104 197t152.5 129t183.5 47.5q70 0 120 -33t75.5 -88.5t37 -114.5t11.5 -125q0 -134 -41 -251t-109.5 -197t-157.5 -126t-184 -46q-57 0 -100.5 25.5t-67.5 63t-39 89.5t-19.5 95t-4.5 89zM221 416q0 -56 6.5 -107.5t22 -105.5t48.5 -86.5 t79 -32.5q70 0 127.5 63.5t90 170t32.5 231.5q0 58 -7.5 110t-25 102.5t-52 80.5t-83.5 30q-30 0 -62 -17.5t-63.5 -55.5t-56.5 -90.5t-40.5 -128.5t-15.5 -164zM395 1128q0 14 8 25q83 119 175 283q19 39 57 39q16 0 54.5 -1t41.5 -1q15 0 24 -8.5t9 -20.5q0 -19 -21 -43 q-8 -9 -58 -66.5t-100 -117.5t-89 -113q-9 -14 -43 -14q-23 0 -40.5 10t-17.5 28z" />
<glyph unicode="&#xf4;" horiz-adv-x="894" d="M68 344q0 130 39 245.5t104 197t152.5 129t183.5 47.5q70 0 120 -33t75.5 -88.5t37 -114.5t11.5 -125q0 -134 -41 -251t-109.5 -197t-157.5 -126t-184 -46q-57 0 -100.5 25.5t-67.5 63t-39 89.5t-19.5 95t-4.5 89zM221 416q0 -56 6.5 -107.5t22 -105.5t48.5 -86.5 t79 -32.5q70 0 127.5 63.5t90 170t32.5 231.5q0 58 -7.5 110t-25 102.5t-52 80.5t-83.5 30q-30 0 -62 -17.5t-63.5 -55.5t-56.5 -90.5t-40.5 -128.5t-15.5 -164zM297 1130q0 14 12 29q149 192 211 293q15 27 51 27q31 0 37 -25q21 -67 53 -148t54 -124q16 -36 16 -45 q0 -17 -16 -29t-35 -12q-21 0 -35 24q-9 14 -28.5 47.5t-35 58.5t-28.5 42q-7 10 -14 10q-6 0 -19 -10q-18 -17 -40.5 -42t-55 -62t-47.5 -54q-14 -14 -35 -14q-18 0 -31.5 9.5t-13.5 24.5z" />
<glyph unicode="&#xf5;" horiz-adv-x="894" d="M68 344q0 130 39 245.5t104 197t152.5 129t183.5 47.5q70 0 120 -33t75.5 -88.5t37 -114.5t11.5 -125q0 -134 -41 -251t-109.5 -197t-157.5 -126t-184 -46q-57 0 -100.5 25.5t-67.5 63t-39 89.5t-19.5 95t-4.5 89zM221 416q0 -56 6.5 -107.5t22 -105.5t48.5 -86.5 t79 -32.5q70 0 127.5 63.5t90 170t32.5 231.5q0 58 -7.5 110t-25 102.5t-52 80.5t-83.5 30q-30 0 -62 -17.5t-63.5 -55.5t-56.5 -90.5t-40.5 -128.5t-15.5 -164zM274 1217q0 55 48.5 132.5t113.5 80.5q30 0 57.5 -16.5t48.5 -39.5t40.5 -46t41.5 -39.5t44 -16.5 q28 0 49.5 25.5t44.5 78.5q11 31 35 31q14 0 25.5 -13t11.5 -32q-4 -24 -17 -59.5t-36 -76.5t-61.5 -69.5t-82.5 -28.5q-37 0 -71 25.5t-54.5 56.5t-45 56.5t-44.5 25.5q-15 0 -26.5 -5.5t-21 -22t-13.5 -25.5t-15 -37q-12 -26 -33 -26q-15 0 -27 13t-12 28z" />
<glyph unicode="&#xf6;" horiz-adv-x="894" d="M68 344q0 130 39 245.5t104 197t152.5 129t183.5 47.5q70 0 120 -33t75.5 -88.5t37 -114.5t11.5 -125q0 -134 -41 -251t-109.5 -197t-157.5 -126t-184 -46q-57 0 -100.5 25.5t-67.5 63t-39 89.5t-19.5 95t-4.5 89zM221 416q0 -56 6.5 -107.5t22 -105.5t48.5 -86.5 t79 -32.5q70 0 127.5 63.5t90 170t32.5 231.5q0 58 -7.5 110t-25 102.5t-52 80.5t-83.5 30q-30 0 -62 -17.5t-63.5 -55.5t-56.5 -90.5t-40.5 -128.5t-15.5 -164zM262 1268q0 33 25 67.5t78 34.5q37 0 64.5 -30.5t27.5 -79.5q0 -45 -26.5 -73t-65.5 -28q-36 0 -69.5 25.5 t-33.5 83.5zM588 1268q0 34 24 68t78 34q37 0 63.5 -30.5t26.5 -79.5q0 -45 -25.5 -73t-64.5 -28q-37 0 -69.5 25t-32.5 84z" />
<glyph unicode="&#xf7;" horiz-adv-x="1228" d="M278.5 591q10.5 34 38.5 36q8 0 95 1t177.5 2.5t183 7.5t124.5 15q27 8 46 -30q20 -42 2 -75q-15 -25 -50 -26q-133 -2 -326 -9t-243 -13q-31 -6 -44.5 25.5t-3 65.5zM516 293q0 19 7.5 40.5t31.5 41.5t61 20t65 -30.5t28 -79.5q0 -45 -27.5 -74t-65.5 -29 q-35 0 -67.5 26t-32.5 85zM516 860q0 35 23.5 69t76.5 34q37 0 65 -31t28 -80q0 -44 -27.5 -72t-65.5 -28q-36 0 -68 25t-32 83z" />
<glyph unicode="&#xf8;" horiz-adv-x="897" d="M47 -98q0 24 43 86q29 48 29 84q0 17 -6 32q-43 103 -43 240q0 130 36.5 245.5t99 197t148.5 129t181 47.5h34h6q20 0 29.5 1t23 10t23.5 27l13 25q23 47 61 47q17 0 28 -11t11 -28q0 -13 -10 -33l-31 -47q-7 -13 -9 -25.5t2 -26.5t9 -24.5t14 -27.5q54 -95 54 -248 q0 -133 -41 -251t-107 -197.5t-150 -125.5t-171 -46q-55 0 -82 10q-18 6 -31 6q-27 0 -45 -35q-19 -43 -37.5 -64.5t-44.5 -21.5q-10 0 -16 2q-21 6 -21 23zM201 401q0 -33 6 -77t12 -62q10 -26 19 -26q13 0 26 24q16 25 38 64t39 71t47 91.5t43.5 86t48.5 97.5t42 86 q19 36 19 61q0 31 -25 43q-24 12 -55 12q-38 0 -81.5 -31.5t-84 -88.5t-67.5 -150t-27 -201zM299 154q0 -20 7.5 -35.5t17.5 -20.5q22 -14 55 -14q70 0 132 67.5t99 179.5t37 236q0 104 -10 150q-7 31 -14 31q-8 0 -35 -46q-152 -261 -279 -503q-10 -20 -10 -45z" />
<glyph unicode="&#xf9;" horiz-adv-x="1079" d="M72 858q0 28 5 38t23 11q119 12 215 45q27 9 31 9q23 0 40 -25t13 -53q-102 -573 -102 -658q0 -38 5.5 -63.5t24 -44.5t50.5 -19q58 0 112.5 43t95 112t69 147.5t42.5 156.5q3 18 15.5 81.5t24.5 133t20 137.5q1 11 3.5 18t11.5 13t24 6h92q31 0 26 -37 q-5 -29 -24.5 -142.5t-30 -176t-24.5 -154t-21 -151t-8 -92.5q0 -35 5 -48.5t21 -13.5q20 0 53.5 17.5t37.5 17.5q19 0 31 -17.5t12 -42.5q0 -22 -91 -74t-143 -52q-63 0 -63 118q0 18 6 99q0 16 -10 16q-7 0 -23 -27q-59 -91 -138 -148.5t-175 -57.5q-191 0 -191 221 q0 61 41.5 295t44.5 278v10q0 26 -13 34.5t-38 8.5q-12 0 -35 -2t-33 -2q-16 2 -24 9t-8 26zM475 1442q0 13 10.5 22t28.5 9q3 0 33.5 1t46.5 1q17 0 26 -8t13 -31q7 -41 28.5 -112.5t39.5 -126.5t18 -62q0 -20 -16.5 -32.5t-36.5 -12.5q-23 0 -31 14q-22 52 -53.5 114 t-58 109.5t-31.5 58.5q-17 35 -17 56z" />
<glyph unicode="&#xfa;" horiz-adv-x="1079" d="M72 858q0 28 5 38t23 11q119 12 215 45q27 9 31 9q23 0 40 -25t13 -53q-102 -573 -102 -658q0 -38 5.5 -63.5t24 -44.5t50.5 -19q58 0 112.5 43t95 112t69 147.5t42.5 156.5q3 18 15.5 81.5t24.5 133t20 137.5q1 11 3.5 18t11.5 13t24 6h92q31 0 26 -37 q-5 -29 -24.5 -142.5t-30 -176t-24.5 -154t-21 -151t-8 -92.5q0 -35 5 -48.5t21 -13.5q20 0 53.5 17.5t37.5 17.5q19 0 31 -17.5t12 -42.5q0 -22 -91 -74t-143 -52q-63 0 -63 118q0 18 6 99q0 16 -10 16q-7 0 -23 -27q-59 -91 -138 -148.5t-175 -57.5q-191 0 -191 221 q0 61 41.5 295t44.5 278v10q0 26 -13 34.5t-38 8.5q-12 0 -35 -2t-33 -2q-16 2 -24 9t-8 26zM483 1128q0 13 9 25q78 112 174 283q19 39 57 39q16 0 54.5 -1t41.5 -1q15 0 24 -8.5t9 -20.5q0 -19 -21 -43q-8 -9 -58 -66.5t-100 -117.5t-89 -113q-9 -14 -43 -14 q-23 0 -40.5 10t-17.5 28z" />
<glyph unicode="&#xfb;" horiz-adv-x="1079" d="M72 858q0 28 5 38t23 11q119 12 215 45q27 9 31 9q23 0 40 -25t13 -53q-102 -573 -102 -658q0 -38 5.5 -63.5t24 -44.5t50.5 -19q58 0 112.5 43t95 112t69 147.5t42.5 156.5q3 18 15.5 81.5t24.5 133t20 137.5q1 11 3.5 18t11.5 13t24 6h92q31 0 26 -37 q-5 -29 -24.5 -142.5t-30 -176t-24.5 -154t-21 -151t-8 -92.5q0 -35 5 -48.5t21 -13.5q20 0 53.5 17.5t37.5 17.5q19 0 31 -17.5t12 -42.5q0 -22 -91 -74t-143 -52q-63 0 -63 118q0 18 6 99q0 16 -10 16q-7 0 -23 -27q-59 -91 -138 -148.5t-175 -57.5q-191 0 -191 221 q0 61 41.5 295t44.5 278v10q0 26 -13 34.5t-38 8.5q-12 0 -35 -2t-33 -2q-16 2 -24 9t-8 26zM383 1130q0 14 12 29q149 192 211 293q15 27 51 27q31 0 37 -25q21 -67 53 -148t54 -124q16 -36 16 -45q0 -17 -16 -29t-35 -12q-21 0 -35 24q-9 14 -28.5 47.5t-35 58.5t-28.5 42 q-7 10 -14 10q-6 0 -19 -10q-18 -17 -40.5 -42t-55 -62t-47.5 -54q-14 -14 -35 -14q-18 0 -31.5 9.5t-13.5 24.5z" />
<glyph unicode="&#xfc;" horiz-adv-x="1079" d="M72 858q0 28 5 38t23 11q119 12 215 45q27 9 31 9q23 0 40 -25t13 -53q-102 -573 -102 -658q0 -38 5.5 -63.5t24 -44.5t50.5 -19q58 0 112.5 43t95 112t69 147.5t42.5 156.5q3 18 15.5 81.5t24.5 133t20 137.5q1 11 3.5 18t11.5 13t24 6h92q31 0 26 -37 q-5 -29 -24.5 -142.5t-30 -176t-24.5 -154t-21 -151t-8 -92.5q0 -35 5 -48.5t21 -13.5q20 0 53.5 17.5t37.5 17.5q19 0 31 -17.5t12 -42.5q0 -22 -91 -74t-143 -52q-63 0 -63 118q0 18 6 99q0 16 -10 16q-7 0 -23 -27q-59 -91 -138 -148.5t-175 -57.5q-191 0 -191 221 q0 61 41.5 295t44.5 278v10q0 26 -13 34.5t-38 8.5q-12 0 -35 -2t-33 -2q-16 2 -24 9t-8 26zM340 1268q0 33 24.5 67.5t77.5 34.5q37 0 65 -30.5t28 -79.5q0 -45 -27 -73t-66 -28q-36 0 -69 25.5t-33 83.5zM666 1268q0 34 24 68t78 34q37 0 63.5 -30.5t26.5 -79.5 q0 -45 -25.5 -73t-64.5 -28q-37 0 -69.5 25t-32.5 84z" />
<glyph unicode="&#xfd;" horiz-adv-x="1005" d="M-109 -276q0 35 22.5 55t53.5 20q34 0 80.5 -41t81.5 -41q66 0 175 71t120 138q13 75 -11.5 228.5t-67.5 303.5t-100 263t-104 113q-20 0 -47 -13.5t-31 -13.5q-28 0 -28 43q0 29 61.5 71t143.5 42q57 0 121 -111t114.5 -281.5t79.5 -357.5q4 -34 17.5 -45t29.5 -2.5 t31 29.5q57 77 100 201.5t43 217.5q0 39 -18.5 78t-40 64.5t-40 57t-18.5 58.5q0 43 29.5 67t63.5 24q40 0 69.5 -21.5t44.5 -58t22 -75t7 -81.5q0 -102 -38 -229t-100.5 -253t-148.5 -246.5t-178.5 -212.5t-193.5 -148t-189 -56q-58 0 -107 40t-49 102zM434 1128q0 14 8 25 q78 112 174 283q19 39 58 39q16 0 54.5 -1t41.5 -1q15 0 24 -8.5t9 -20.5q0 -19 -21 -43q-8 -9 -58 -66.5t-100 -117.5t-89 -113q-9 -14 -43 -14q-23 0 -40.5 10t-17.5 28z" />
<glyph unicode="&#xfe;" horiz-adv-x="958" d="M6 -362q3 44 11.5 108.5t25 161.5t30.5 176t40.5 223.5t42.5 233.5q8 54 28.5 194.5t30.5 211t23.5 168t19.5 151t6 75.5q0 45 -123 45q-18 0 -23.5 7.5t-8.5 29.5v11q0 31 26 36q132 18 219 48q4 2 15 2q24 0 42.5 -24t18.5 -52q-2 -15 -18 -118.5t-41.5 -268.5 l-42.5 -275q-3 -20 12 -20q14 0 22 16q15 23 37.5 49t59 59.5t86 55t100.5 21.5q104 0 153.5 -74.5t49.5 -229.5q0 -173 -58 -329t-164 -254.5t-233 -98.5q-52 0 -78 28.5t-26 68.5q0 25 8 41q17 43 55 43q17 -2 54.5 -20.5t70.5 -18.5q36 2 77.5 37.5t79.5 95t63.5 152.5 t25.5 198q0 104 -36 162.5t-101 58.5q-55 0 -104.5 -30t-81.5 -72t-58 -94.5t-38.5 -89t-18.5 -64.5q-37 -141 -75 -376.5t-46 -448.5q0 -12 -10 -23.5t-21 -11.5l-102 -8q-14 0 -20.5 10.5t-4.5 22.5z" />
<glyph unicode="&#xff;" horiz-adv-x="1005" d="M-109 -276q0 35 22.5 55t53.5 20q34 0 80.5 -41t81.5 -41q66 0 175 71t120 138q13 75 -11.5 228.5t-67.5 303.5t-100 263t-104 113q-20 0 -47 -13.5t-31 -13.5q-28 0 -28 43q0 29 61.5 71t143.5 42q57 0 121 -111t114.5 -281.5t79.5 -357.5q4 -34 17.5 -45t29.5 -2.5 t31 29.5q57 77 100 201.5t43 217.5q0 39 -18.5 78t-40 64.5t-40 57t-18.5 58.5q0 43 29.5 67t63.5 24q40 0 69.5 -21.5t44.5 -58t22 -75t7 -81.5q0 -102 -38 -229t-100.5 -253t-148.5 -246.5t-178.5 -212.5t-193.5 -148t-189 -56q-58 0 -107 40t-49 102zM315 1268 q0 33 25 67.5t78 34.5q37 0 64.5 -30.5t27.5 -79.5q0 -45 -26.5 -73t-65.5 -28q-36 0 -69.5 25.5t-33.5 83.5zM641 1268q0 34 24 68t78 34q37 0 64 -30.5t27 -79.5q0 -45 -26 -73t-65 -28q-37 0 -69.5 25t-32.5 84z" />
<glyph unicode="&#x152;" horiz-adv-x="1755" d="M121 547q0 114 29 233t88.5 232t141 202t197 143t246.5 54q67 0 152.5 -14.5t109.5 -16.5q135 -14 568 13h14q66 0 66 -41q0 -37 -52 -213q-7 -25 -23 -38.5t-32 -13.5q-27 0 -27 29q0 8 3.5 29.5t3.5 34.5q0 75 -69 100t-261 25q-26 0 -45 -8.5t-30 -26.5t-16 -32 t-11 -38q-10 -52 -34 -201.5t-28 -191.5q-9 -45 25 -45q23 -1 116.5 -0.5t118.5 2.5q71 9 88 123q3 18 18 29.5t31 11.5q15 0 25 -9.5t10 -27.5q-42 -215 -53 -318q-4 -33 -19 -50t-34 -17q-18 0 -29.5 14.5t-5.5 36.5q11 54 2 77.5t-41 31.5q-23 6 -122 6t-124 -4 q-5 -1 -9 -2t-7 -3t-5 -4t-4 -5.5t-3 -5.5t-2.5 -6.5l-2 -6t-1.5 -6.5t-1 -6q-52 -310 -61 -424q-8 -60 14 -82.5t105 -22.5q107 0 174 15q118 31 192 213q19 51 56 51q16 0 27.5 -11.5t11.5 -29.5t-35.5 -124t-61.5 -173q-5 -12 -10 -19.5t-17.5 -13.5t-31.5 -6 q-96 0 -226.5 5t-326.5 5q-43 0 -133.5 -13t-138.5 -13q-235 0 -367.5 155.5t-132.5 411.5zM311 594q0 -223 93 -368.5t227 -145.5q101 0 159 53t89 193q28 127 70.5 383t51.5 335q26 271 -229 271q-80 0 -149 -33.5t-118 -91t-87.5 -130.5t-61 -154.5t-34 -160 t-11.5 -151.5z" />
<glyph unicode="&#x153;" horiz-adv-x="1417" d="M68 344q0 130 39 245.5t104 197t152.5 129t183.5 47.5q129 0 190 -113q27 -53 47 -53q15 0 54 39q127 127 270 127q90 0 147.5 -46t57.5 -120q0 -59 -36 -107t-93 -80.5t-115.5 -57t-117 -49.5t-83.5 -46q-47 -37 -47 -109q3 -118 52.5 -183t140.5 -65q24 0 46 5t41.5 16 t34 20t30 26t23 25t21 26t15.5 20q14 18 30 18q17 0 32.5 -10t15.5 -21t-13.5 -37.5t-43.5 -62t-70 -68t-101 -55t-129 -22.5q-69 0 -126 32t-91 82q-5 7 -12 17.5t-10.5 15.5t-8.5 12t-8 10.5t-7 7t-7.5 4.5t-7.5 1q-17 0 -50 -33q-147 -147 -309 -147q-60 0 -105.5 25.5 t-70.5 63t-40.5 89.5t-20 94.5t-4.5 89.5zM221 416q0 -56 6.5 -107.5t22 -105.5t48.5 -86.5t79 -32.5q70 0 127.5 63.5t90 170t32.5 231.5q0 58 -7.5 110t-25 102.5t-52 80.5t-83.5 30q-30 0 -62 -17.5t-63.5 -55.5t-56.5 -90.5t-40.5 -128.5t-15.5 -164zM836 588 q0 -32 30 -23q44 12 84.5 27t94 42t86 66.5t32.5 85.5q0 35 -25.5 59.5t-68.5 24.5q-60 0 -113 -46.5t-81.5 -102.5t-36.5 -105q-2 -10 -2 -28z" />
<glyph unicode="&#x178;" horiz-adv-x="1155" d="M125 1350q0 20 11 33t32 12q143 -15 371 2q57 3 57 -41q0 -20 -12.5 -36t-30.5 -15q-62 10 -88 -18t-14 -70q75 -249 163 -451q12 -23 35 0q63 75 171 226.5t147 219.5q12 18 14.5 38t-5.5 36.5t-29.5 23t-57.5 -2.5q-22 -4 -34.5 11.5t-12.5 37.5q0 39 37 39 q28 -1 79.5 -3.5t74 -3t60.5 -1t72 1.5t76 6q26 1 38.5 -10.5t12.5 -30.5t-11.5 -33.5t-29.5 -13.5q-36 2 -63 -9t-38.5 -22t-37.5 -39q-84 -97 -256.5 -333t-200.5 -302q-16 -40 -39.5 -194t-27.5 -258q-3 -41 27 -52.5t94 -1.5q22 3 33.5 -10t11.5 -33q0 -23 -14.5 -40.5 t-37.5 -16.5q-233 18 -428 -2q-23 -3 -35 12t-12 37q0 23 11.5 39.5t29.5 13.5q3 0 20.5 -3t25 -3.5t23.5 -1t25 2.5t20.5 8t19 15.5t12.5 24.5q24 85 54 274t24 216q-38 142 -114.5 343.5t-125.5 297.5q-15 29 -29.5 36.5t-54.5 0.5q-20 -4 -31.5 9t-11.5 34zM461 1634 q0 35 24.5 70t77.5 35q37 0 64.5 -32t27.5 -81q0 -44 -27 -72t-65 -28q-36 0 -69 25.5t-33 82.5zM874 1634q0 36 23.5 70.5t77.5 34.5q36 0 64 -32t28 -81q0 -44 -27 -72t-65 -28q-36 0 -68.5 25.5t-32.5 82.5z" />
<glyph unicode="&#x2c6;" horiz-adv-x="563" d="M53 1130q0 13 13 29q145 186 210 293q15 27 52 27q31 0 37 -25q50 -162 106 -272q16 -36 16 -45q0 -17 -16 -29t-35 -12q-21 0 -35 24q-9 14 -28.5 47.5t-35 58.5t-28.5 42q-7 10 -14 10q-6 0 -19 -10q-18 -17 -40.5 -42t-55 -62t-47.5 -54q-14 -14 -35 -14 q-18 0 -31.5 9.5t-13.5 24.5z" />
<glyph unicode="&#x2dc;" horiz-adv-x="690" d="M66 1217q0 32 19.5 80t58.5 89.5t83 43.5q30 0 57.5 -16.5t48.5 -39.5t40.5 -46t41.5 -39.5t44 -16.5q28 0 49.5 25.5t44.5 78.5q11 31 35 31q14 0 25.5 -13t11.5 -32q-4 -24 -17 -59.5t-36 -76.5t-61.5 -69.5t-82.5 -28.5q-37 0 -71 25.5t-54.5 56.5t-45 56.5 t-44.5 25.5q-15 0 -26.5 -5.5t-21 -22t-13.5 -25.5t-15 -37q-12 -26 -33 -26q-15 0 -26.5 13t-11.5 28z" />
<glyph unicode="&#x2000;" horiz-adv-x="905" />
<glyph unicode="&#x2001;" horiz-adv-x="1810" />
<glyph unicode="&#x2002;" horiz-adv-x="905" />
<glyph unicode="&#x2003;" horiz-adv-x="1810" />
<glyph unicode="&#x2004;" horiz-adv-x="603" />
<glyph unicode="&#x2005;" horiz-adv-x="452" />
<glyph unicode="&#x2006;" horiz-adv-x="301" />
<glyph unicode="&#x2007;" horiz-adv-x="301" />
<glyph unicode="&#x2008;" horiz-adv-x="226" />
<glyph unicode="&#x2009;" horiz-adv-x="362" />
<glyph unicode="&#x200a;" horiz-adv-x="100" />
<glyph unicode="&#x2010;" horiz-adv-x="727" d="M96 555q0 30 12 52t35 22q277 0 381 18q14 2 24.5 5t15.5 4t9 1q20 0 35 -24.5t15 -54.5q0 -28 -15.5 -47t-46.5 -19q-207 -2 -373 -16q-46 -4 -49 -4q-21 0 -32 18t-11 45z" />
<glyph unicode="&#x2011;" horiz-adv-x="727" d="M96 555q0 30 12 52t35 22q277 0 381 18q14 2 24.5 5t15.5 4t9 1q20 0 35 -24.5t15 -54.5q0 -28 -15.5 -47t-46.5 -19q-207 -2 -373 -16q-46 -4 -49 -4q-21 0 -32 18t-11 45z" />
<glyph unicode="&#x2012;" horiz-adv-x="727" d="M96 555q0 30 12 52t35 22q277 0 381 18q14 2 24.5 5t15.5 4t9 1q20 0 35 -24.5t15 -54.5q0 -28 -15.5 -47t-46.5 -19q-207 -2 -373 -16q-46 -4 -49 -4q-21 0 -32 18t-11 45z" />
<glyph unicode="&#x2013;" horiz-adv-x="1140" d="M100 573q0 28 13.5 50.5t36.5 23.5q7 0 198.5 -4.5t382.5 -3.5t238 14q25 7 44 -18.5t19 -59.5q0 -27 -14.5 -45t-46.5 -18q-69 -1 -267.5 0.5t-358 1.5t-191.5 -4q-25 -6 -39.5 13.5t-14.5 49.5z" />
<glyph unicode="&#x2014;" horiz-adv-x="1687" d="M100 573q0 28 13.5 50.5t36.5 23.5q6 0 335 -4.5t656.5 -3.5t374.5 14q25 7 44 -18.5t19 -59.5q0 -27 -14.5 -45t-46.5 -18q-67 -1 -404 0.5t-632.5 1.5t-327.5 -4q-25 -6 -39.5 13.5t-14.5 49.5z" />
<glyph unicode="&#x2018;" horiz-adv-x="448" d="M166 1090q0 100 61.5 189t159.5 130q4 2 12 2q14 0 22.5 -13.5t8.5 -29.5q0 -43 -31 -53q-55 -16 -98 -67.5t-43 -110.5q0 -21 8 -38.5t21 -17.5q6 0 30.5 10.5t40.5 10.5q37 0 52.5 -30.5t15.5 -72.5q0 -59 -39.5 -93t-81.5 -34q-38 0 -66 20.5t-43.5 54.5t-22.5 70 t-7 73z" />
<glyph unicode="&#x2019;" horiz-adv-x="448" d="M186 915q6 44 35 50q56 15 98.5 67.5t42.5 110.5q0 23 -7 40t-21 17q-8 0 -32.5 -11t-39.5 -11q-38 0 -55 29t-17 69q0 54 34 93.5t89 39.5q49 0 82.5 -36t46.5 -82.5t13 -96.5q0 -21 -4 -45q-14 -90 -72 -165.5t-148 -111.5q-2 -2 -10 -2q-16 0 -25.5 13.5t-9.5 31.5z " />
<glyph unicode="&#x201a;" horiz-adv-x="468" d="M31 -287q0 44 30 54q55 16 98.5 67.5t43.5 110.5q0 20 -8 37.5t-21 17.5q-6 0 -31 -10t-41 -10q-67 0 -67 102q0 59 39.5 93t81.5 34q50 0 82.5 -36.5t44.5 -82.5t12 -98q0 -100 -61.5 -189.5t-159.5 -130.5q-4 -2 -13 -2q-14 0 -22 13t-8 30z" />
<glyph unicode="&#x201c;" horiz-adv-x="806" d="M166 1090q0 100 61.5 189t159.5 130q4 2 12 2q14 0 22.5 -13.5t8.5 -29.5q0 -43 -31 -53q-55 -16 -98 -67.5t-43 -110.5q0 -21 8 -38.5t21 -17.5q6 0 30.5 10.5t40.5 10.5q37 0 52.5 -30.5t15.5 -72.5q0 -59 -39.5 -93t-81.5 -34q-38 0 -66 20.5t-43.5 54.5t-22.5 70 t-7 73zM524 1090q0 100 61.5 189t159.5 130q4 2 13 2q14 0 22 -13t8 -30q0 -43 -30 -53q-55 -16 -98.5 -67.5t-43.5 -110.5q0 -21 8 -38.5t21 -17.5q6 0 31 10.5t41 10.5q67 0 67 -103q0 -59 -39 -93t-81 -34q-50 0 -83 36.5t-45 83.5t-12 98z" />
<glyph unicode="&#x201d;" horiz-adv-x="802" d="M186 915q0 44 31 54q55 16 98 67.5t43 110.5q0 21 -7.5 38t-20.5 17q-6 0 -31 -10t-41 -10q-37 0 -52.5 30t-15.5 72q0 59 39.5 93t81.5 34q50 0 83 -36.5t45 -83t12 -97.5q0 -100 -62 -189.5t-160 -130.5q-4 -2 -12 -2q-14 0 -22.5 13.5t-8.5 29.5zM545 915q0 44 30 54 q55 16 98.5 67.5t43.5 110.5q0 20 -8 37.5t-21 17.5q-6 0 -31 -10t-41 -10q-67 0 -67 102q0 59 39.5 93t81.5 34q50 0 82.5 -36.5t44.5 -82.5t12 -98q0 -100 -61.5 -189.5t-159.5 -130.5q-4 -2 -13 -2q-14 0 -22 13t-8 30z" />
<glyph unicode="&#x201e;" horiz-adv-x="827" d="M31 -287q0 44 30 54q55 16 98.5 67.5t43.5 110.5q0 20 -8 37.5t-21 17.5q-6 0 -31 -10t-41 -10q-67 0 -67 102q0 59 39.5 93t81.5 34q50 0 82.5 -36.5t44.5 -82.5t12 -98q0 -100 -61.5 -189.5t-159.5 -130.5q-4 -2 -13 -2q-14 0 -22 13t-8 30zM389 -287q0 44 31 54 q55 16 98 67.5t43 110.5q0 20 -8 37.5t-21 17.5q-6 0 -30.5 -10t-40.5 -10q-37 0 -52.5 30t-15.5 72q0 59 39.5 93t81.5 34q50 0 82.5 -36.5t44.5 -82.5t12 -98q0 -100 -61.5 -189.5t-159.5 -130.5q-4 -2 -12 -2q-14 0 -22.5 13.5t-8.5 29.5z" />
<glyph unicode="&#x2022;" horiz-adv-x="651" d="M106 573q0 95 61 149t157 54q101 0 156 -46.5t55 -131.5q0 -101 -56 -165t-155 -64t-158.5 58t-59.5 146z" />
<glyph unicode="&#x2026;" horiz-adv-x="1234" d="M41 100q0 59 30.5 91t75.5 32q101 0 101 -108q0 -135 -101 -135q-48 0 -77 34.5t-29 85.5zM440 100q0 59 31 91t76 32q53 0 76.5 -27t23.5 -81q0 -135 -100 -135q-48 0 -77.5 34.5t-29.5 85.5zM842 100q0 59 30.5 91t75.5 32q101 0 101 -108q0 -135 -101 -135 q-48 0 -77 34.5t-29 85.5z" />
<glyph unicode="&#x202f;" horiz-adv-x="362" />
<glyph unicode="&#x2039;" horiz-adv-x="516" d="M68 473q2 15 12 33.5t38 53t56 67t88.5 102t112.5 131.5q14 17 31 17q18 0 30.5 -12.5t12.5 -30.5q0 -14 -13 -33q-62 -79 -114 -156.5t-76.5 -123t-24.5 -56.5q0 -73 86 -287q17 -45 17 -49q0 -21 -18 -35t-38 -14q-18 0 -28 16q-21 41 -57 111.5t-50.5 99t-33 68.5 t-25 61.5t-6.5 36.5z" />
<glyph unicode="&#x203a;" horiz-adv-x="516" d="M45 127q0 17 12 35q71 95 119 169.5t64 108t16 45.5t-11 56t-37.5 121.5t-60.5 152.5q-4 12 -4 19q0 19 15.5 32t34.5 13q23 0 32 -19q5 -11 58.5 -104t90 -167.5t38.5 -107.5q-1 -8 -5.5 -18.5t-14 -25t-19 -28.5t-27.5 -36.5t-33 -40.5t-40.5 -49t-45.5 -54.5 t-53.5 -63.5t-58.5 -69q-9 -12 -27 -12q-16 0 -29.5 12.5t-13.5 30.5z" />
<glyph unicode="&#x205f;" horiz-adv-x="452" />
<glyph unicode="&#x20ac;" horiz-adv-x="1175" d="M51 557q0 22 10.5 45t32.5 19q15 -5 70 -5q22 0 29.5 8t9.5 27q0 4 10 84q4 31 -20 31h-76q-17 0 -24 9t-7 38q0 22 13.5 35t29.5 10q60 -4 78 -4q34 -3 49 47q73 228 236.5 369t367.5 141q147 0 244.5 -46.5t97.5 -98.5q-1 -17 -9.5 -40t-24 -51t-27.5 -47.5t-30.5 -49 t-23.5 -36.5q-8 -16 -24 -16t-27 17.5t-4 35.5q48 116 -6.5 186t-194.5 70q-129 0 -242.5 -124t-176.5 -324q-8 -24 0 -30.5t32 -6.5q292 -4 506 0q29 0 29 -23q0 -14 -2 -20q-3 -19 -13 -31t-22 -12q-49 2 -532 2q-14 0 -23.5 -12.5t-11.5 -26.5q-8 -46 -8 -72 q0 -45 34 -45q336 0 422 2q23 0 27 -14t-2 -31q-3 -18 -12.5 -29.5t-22.5 -11.5q-43 2 -405 2q-17 0 -26.5 -14.5t-6.5 -36.5q30 -193 115.5 -294t203.5 -101q26 0 51.5 2.5t46 6.5t40.5 11t34.5 13t30 14.5t25 14.5t20 14.5t15.5 13t12 11t8 7.5q7 7 12 7q9 0 16 -14t7 -29 q0 -18 -8 -29q-7 -8 -20.5 -20.5t-48 -36t-74 -42t-100 -32.5t-124.5 -14q-192 0 -307 135.5t-133 363.5q-2 26 -11.5 37.5t-31.5 11.5h-72q-31 -3 -31 29z" />
<glyph unicode="&#x2122;" horiz-adv-x="1302" d="M164 1266q0 29 2 37q3 10 18 10q3 0 8.5 -0.5l16.5 -1.5l22 -2q152 -6 312.5 -3.5t232.5 5.5q15 1 24.5 -8t12.5 -17q30 -86 63.5 -157.5t49.5 -71.5q20 0 30 26q21 46 82 207q2 17 37 19h166q27 0 27 -31q0 -13 -6.5 -25t-12.5 -10q-34 2 -45.5 -2t-11.5 -24 q-7 -139 4 -287q2 -12 9.5 -16.5t33.5 -4.5q10 0 16.5 -8.5t6.5 -19.5q0 -10 -5.5 -18.5t-13.5 -8.5q-99 10 -205 0q-9 1 -14.5 10.5t-5.5 20.5q0 20 20 20q17 -1 27 0.5t14.5 9t5.5 13.5t2 22l7 211q0 22 -5.5 27.5t-12.5 -2.5t-13 -23l-127 -305q-3 -8 -21 -8q-20 0 -20 8 q-90 207 -131 305q-7 15 -14.5 23t-13 2.5t-5.5 -27.5q2 -149 2 -225q0 -24 10 -28.5t52 -4.5q16 0 16 -29q0 -20 -12 -20q-7 0 -41.5 1.5t-74 1.5t-75.5 -3q-8 -1 -12 6.5t-4 18.5q0 24 16 24q29 0 42 6t14 29q4 95 -5 268q-1 34 -29.5 42t-125.5 3q-39 -2 -43 -51 q0 -1 -0.5 -27.5t-0.5 -60v-70t0.5 -66t2.5 -40.5q6 -31 51 -31q21 0 21 -24q0 -10 -5.5 -18.5t-15.5 -8.5q-121 13 -209 0q-18 0 -18 29q0 21 12 24q6 1 21.5 1.5t24.5 3.5t11 12q2 10 3.5 40.5t1.5 69.5v73.5t-0.5 65t-0.5 31.5q0 45 -32 45h-39q-31 0 -45 -12t-14 -26.5 t-3.5 -29t-15.5 -18.5q-6 -2 -18 -2q-24 0 -27 17q-2 16 -2 88z" />
<glyph unicode="&#x25fc;" horiz-adv-x="962" d="M0 0v963h963v-963h-963z" />
<glyph unicode="&#xfb03;" horiz-adv-x="1681" d="M-156 -332q0 28 20 46t46 18q18 0 53.5 -7.5t50.5 -7.5q26 0 44.5 12.5t29 36t15 41t8.5 43.5q49 282 114 941q3 26 -1 36.5t-21 10.5q-14 0 -52 -1t-42 -1q-21 0 -21 45q0 24 8.5 42.5t22.5 18.5h102q10 0 16.5 2.5t10 9t4 7.5t2.5 8q17 106 51.5 195t89.5 162.5 t138 115t186 41.5q111 0 217 -58q12 -6 25 -6q23 0 45 19q114 92 260 92q130 0 219.5 -67t89.5 -144q0 -36 -24.5 -62t-61.5 -26q-31 0 -59 16t-41 45q-10 21 -23 41t-36 44.5t-57.5 39.5t-74.5 15q-108 0 -162 -94t-96 -349q-6 -45 33 -45q186 -13 471 17q31 0 57.5 -22.5 t26.5 -49.5q0 -15 -58 -328t-59 -381q0 -55 37 -55q19 0 43.5 11t30.5 11q16 0 23 -16.5t7 -32.5q0 -15 -35 -43t-84.5 -51.5t-84.5 -23.5q-86 0 -86 141q0 41 47 331t47 330q0 21 -18.5 31.5t-67.5 13.5q-129 9 -314 9q-21 0 -28 -4.5t-10 -26.5q-11 -90 -97 -838 q-10 -81 -45.5 -143t-83 -95t-92 -49t-82.5 -16q-43 0 -80 25.5t-37 60.5q0 28 20 46t46 18q18 0 53.5 -7.5t50.5 -7.5q26 0 44.5 12.5t29 36t15 41t8.5 43.5q43 258 102 859q3 26 -1 36.5t-21 10.5q-51 2 -172 1.5t-164 -3.5q-27 -2 -32 -9t-7 -22q-61 -501 -109 -920 q-10 -81 -45.5 -143t-83 -95t-92 -49t-82.5 -16q-43 0 -80 25.5t-37 60.5zM393 987q-6 -41 35 -43q195 -6 338 -2q10 0 16.5 2.5t10 9t4 7.5t2.5 8q24 164 71 274q21 48 -18 74q-83 63 -186 63q-119 0 -180.5 -96.5t-92.5 -296.5z" />
<glyph unicode="&#xfb04;" horiz-adv-x="1671" d="M-156 -332q0 27 18.5 45.5t47.5 18.5q17 0 53 -7.5t57 -7.5q38 2 58.5 31t32.5 102q49 282 114 941q3 26 -1 36.5t-21 10.5q-14 0 -52 -1t-42 -1q-21 0 -21 45q0 24 8.5 42.5t22.5 18.5h102q10 0 16.5 2.5t10 9t4 7.5t2.5 8q17 106 51.5 195t89.5 162.5t138 115t186 41.5 q111 0 217 -58q12 -6 25 -6q23 0 45 19q107 90 260 90q47 0 120.5 -10.5t83.5 -10.5q17 0 44.5 11.5t41.5 11.5q17 0 27 -18t10 -42q0 -4 -96 -614t-96 -680q0 -55 39 -55q20 0 45 9t31 9q11 0 18.5 -15t7.5 -26q0 -16 -26.5 -43t-75 -51t-97.5 -24q-86 0 -86 141 q0 40 83 600.5t83 626.5q0 34 -46.5 51.5t-125.5 17.5q-52 0 -79.5 -4t-71.5 -22q-65 -25 -95 -107t-65 -295q-6 -45 33 -45q39 -1 94 0t90 2l35 2q17 1 26 -14.5t9 -40.5q0 -30 -13.5 -53.5t-35.5 -20.5q-160 17 -222 17q-21 0 -28 -4.5t-10 -26.5q-11 -90 -97 -838 q-10 -81 -45.5 -143t-83 -95t-92 -49t-82.5 -16q-43 0 -80 25.5t-37 60.5q0 27 18.5 45.5t47.5 18.5q17 0 53.5 -7.5t57.5 -7.5q38 2 58 31t32 102q43 258 102 859q3 26 -1 36.5t-21 10.5q-51 2 -172 1.5t-164 -3.5q-27 -2 -32 -9t-7 -22q-61 -501 -109 -920 q-10 -81 -45.5 -143t-83 -95t-92 -49t-82.5 -16q-43 0 -80 25.5t-37 60.5zM393 987q-6 -41 35 -43q195 -6 338 -2q10 0 16.5 2.5t10 9t4 7.5t2.5 8q24 164 71 274q21 48 -18 74q-83 63 -186 63q-119 0 -180.5 -96.5t-92.5 -296.5z" />
</font>
</defs>
</svg>
