<?xml version="1.0" standalone="no"?>
<!DOCTYPE svg PUBLIC "-//W3C//DTD SVG 1.1//EN" "http://www.w3.org/Graphics/SVG/1.1/DTD/svg11.dtd" >
<svg xmlns="http://www.w3.org/2000/svg">
<metadata></metadata>
<defs>
<font id="livorybold" horiz-adv-x="1544" >
<font-face units-per-em="2048" ascent="1536" descent="-512" />
<missing-glyph horiz-adv-x="593" />
<glyph unicode="&#xfb01;" horiz-adv-x="1478" d="M66 63q0 28 15 48.5t40 19.5t45 -1t33.5 18t15.5 57q5 83 5.5 172.5t-1.5 205.5t-2 177q0 28 -11 36.5t-34 8.5h-33q-27 -1 -42 19.5t-15 49.5q0 27 13.5 45.5t39.5 18.5q93 0 101 147q12 193 166 317t382 124q94 0 179 -23.5t142.5 -73t57.5 -114.5q0 -49 -33.5 -83 t-97.5 -34q-41 0 -71.5 22.5t-51 54t-43.5 63.5t-62 54.5t-93 22.5q-114 0 -166.5 -93t-52.5 -323q0 -36 9.5 -46.5t39.5 -12.5q88 -3 247 0q126 1 264.5 12.5t178.5 20.5q56 -11 49 -76q-10 -113 -4.5 -366.5t16.5 -335.5q0 -2 1 -7q3 -24 8 -35.5t26.5 -19.5t63.5 -4 q30 3 45.5 -14.5t15.5 -46.5t-16 -51t-43 -21q-280 15 -500 -2q-32 -3 -50 17.5t-18 49.5q0 28 16 48.5t42 19.5q26 -2 44.5 -2t32 14.5t23.5 48.5q17 63 16 303t-12 277q-8 27 -22.5 34.5t-63.5 8.5q-233 10 -371 -2q-24 -1 -31 -12t-7 -39q0 -379 12 -555q3 -45 33 -65.5 t106 -8.5q29 3 44 -16.5t15 -48.5t-16 -50t-43 -20q-97 4 -255 4t-261 -4q-29 -1 -45 18.5t-16 48.5z" />
<glyph unicode="&#xfb02;" horiz-adv-x="1468" d="M66 63q0 28 15 48.5t40 19.5t45 -1t33.5 18t15.5 57q5 83 5.5 172.5t-1.5 205.5t-2 177q0 28 -11 36.5t-34 8.5h-33q-27 -1 -42 19.5t-15 49.5q0 27 13.5 45.5t39.5 18.5q37 0 59.5 23t30 52t11.5 72q19 210 150.5 327.5t373.5 117.5q110 0 212 -16.5t122 -16.5 q43 0 83.5 16.5t55.5 16.5q40 0 37 -86q-13 -357 -11 -753.5t13 -485.5q2 -19 2.5 -24.5t6.5 -20.5t15 -19.5t27.5 -8.5t44.5 -1q29 3 45.5 -16t16.5 -47q0 -30 -17 -51.5t-45 -20.5q-247 12 -487 0q-30 -1 -47 18.5t-17 48.5t16.5 50t45.5 18q91 -7 96 68q4 60 6 167.5 t2.5 230.5t0.5 226t-0.5 201t-0.5 109q0 58 -15.5 107t-48.5 90.5t-91.5 65t-137.5 23.5q-53 0 -87 -16t-60.5 -60.5t-38.5 -127t-12 -211.5q0 -37 10 -50.5t39 -13.5q44 0 143 6q33 1 49.5 -18.5t16.5 -48.5q0 -28 -14 -48t-38 -20q-90 4 -168 0q-23 0 -30.5 -11.5 t-7.5 -39.5q0 -379 12 -555q3 -45 33 -65.5t106 -8.5q29 3 44 -16.5t15 -48.5t-16 -50t-43 -20q-97 4 -255 4t-261 -4q-29 -1 -45 18.5t-16 48.5z" />
<glyph horiz-adv-x="0" />
<glyph horiz-adv-x="682" />
<glyph unicode=" "  horiz-adv-x="593" />
<glyph unicode="&#x09;" horiz-adv-x="593" />
<glyph unicode="&#xa0;" horiz-adv-x="593" />
<glyph unicode="!" horiz-adv-x="630" d="M106 1221q0 85 56.5 139.5t148.5 54.5q88 0 151.5 -53.5t63.5 -144.5q0 -39 -16 -86t-39 -100t-45.5 -118.5t-38.5 -163.5t-16 -212q0 -48 -60 -48q-27 0 -41 13.5t-14 29.5q-1 119 -16.5 219.5t-37.5 165t-43.5 116.5t-37 99t-15.5 89zM131 152q0 84 51 131t133 47 q181 0 181 -170q0 -79 -47.5 -132t-133.5 -53q-87 0 -135.5 49.5t-48.5 127.5z" />
<glyph unicode="&#x22;" horiz-adv-x="702" d="M61 1407q0 61 39 92t97 31q48 0 75 -27.5t27 -77.5q0 -52 -28.5 -186t-37.5 -264q0 -16 -14 -26.5t-41 -10.5q-20 0 -28.5 12t-8.5 27q0 79 -20 166.5t-40 157t-20 106.5zM406 1415q0 54 34.5 84.5t87.5 30.5q49 0 81 -28t32 -81q0 -42 -17.5 -103.5t-36.5 -149.5 t-22 -191q0 -16 -14.5 -27.5t-38.5 -11.5q-21 0 -30 11t-9 26q0 101 -33.5 245t-33.5 195z" />
<glyph unicode="#" horiz-adv-x="1300" d="M61 485q0 29 15 49t41 17q25 -2 205 -2q4 0 7 0.5t5.5 0.5t5 1.5t3.5 2t3 2.5t3 2.5t2.5 4t2 3.5t2.5 4l2 5q8 26 22 114.5t13 107.5q-3 16 -7.5 20.5t-20.5 5.5q-57 2 -97 1.5t-89.5 -2t-59.5 -1.5t-17.5 17t-7.5 39q0 28 12.5 48.5t38.5 20.5q6 0 94 -1t140 -1 q17 0 26 5.5t15 25.5q11 40 33 185.5t22 176.5q1 26 25 42t55 16q28 0 43 -19t12 -39q-49 -265 -57 -356q-5 -37 22 -37q154 0 220 2q32 0 39 35q60 347 61 356q2 21 23.5 39.5t52.5 18.5q28 0 46.5 -21t10.5 -37q-6 -25 -36.5 -189t-30.5 -177q0 -27 32 -27t86.5 0.5 t88 0.5t49.5 -1q7 0 12.5 -14t5.5 -33q0 -29 -11 -51t-34 -21q-31 2 -219 2q-25 0 -33 -36q-5 -12 -24.5 -110.5t-18.5 -109.5q1 -13 9 -17.5t26 -6.5q41 -4 122.5 -3.5t112.5 3.5q20 3 31.5 -14.5t11.5 -43.5q0 -27 -12.5 -47.5t-32.5 -19.5q-135 6 -252 2q-12 0 -20 -6.5 t-11.5 -13t-7.5 -17.5q-6 -32 -30.5 -173t-24.5 -157q0 -23 -22.5 -42t-53.5 -19q-29 0 -46.5 17.5t-10.5 41.5q8 37 33 174t24 158q-1 13 -2.5 18.5t-9.5 12.5t-22 8q-108 6 -205 0q-14 -2 -21 -8t-14 -25q-11 -35 -35 -174t-26 -164q-3 -26 -24 -42.5t-56 -16.5 q-31 0 -49 19.5t-13 41.5q8 21 38 168t30 174q-1 9 -2.5 12.5t-6 7t-14.5 5.5q-24 4 -211 4q-18 0 -27.5 16.5t-9.5 40.5zM494 573q0 -13 9.5 -21.5t24.5 -8.5q7 0 56 -1t86 -0.5t57 3.5q21 3 28 11t9 24q1 5 11.5 57t19 99t8.5 59q0 29 -37 32q-4 0 -45.5 0.5t-82 0.5 t-63.5 -1q-25 -1 -34.5 -8.5t-12.5 -23.5q-7 -32 -20 -113t-14 -109z" />
<glyph unicode="$" horiz-adv-x="1093" d="M78 119q-4 83 8 166.5t51 107.5q31 24 74 15t43 -43q0 -88 45 -156.5t117 -83.5q46 -7 62 9t18 46q4 66 4 256q-1 73 -7 89.5t-36 35.5q-148 97 -209 152q-160 145 -160 323q0 135 95.5 240.5t279.5 130.5q35 6 35 37v45q0 15 3 24t11.5 12.5t13 4t17.5 0.5q17 0 29 -11 t12 -28q0 -1 -1 -18t-1 -31q0 -9 0.5 -12t4.5 -8t13.5 -6.5t26.5 -2.5q114 -6 216 -30t118 -44q18 -12 23 -102.5t1 -171.5q-2 -40 -41.5 -63.5t-79 -13t-41.5 53.5q-4 91 -73.5 161.5t-133.5 70.5q-18 1 -25 -12t-9 -48q-5 -122 -2 -262q0 -37 6.5 -59t14 -29.5t24.5 -17.5 q14 -9 58 -36t63 -39.5t58.5 -39.5t59.5 -45.5t50.5 -47t46.5 -53.5t33.5 -57t24.5 -66t7 -71q0 -149 -100 -262.5t-291 -144.5q-32 -4 -43.5 -13.5t-11.5 -31.5q0 -14 0.5 -27.5t1.5 -21.5v-9q2 -25 -8 -36t-37 -11q-24 0 -36 12t-9 33q0 1 0.5 7.5t1 18t0.5 25.5 q0 23 -10 33t-50 14q-141 12 -246 54t-110 88zM369 1124q0 -93 86 -155q25 -15 33.5 -9.5t11.5 39.5q3 103 0 199q-1 15 -1.5 23t-2 17.5t-4 13.5t-6.5 7t-10 2t-15 -4q-39 -18 -65.5 -54.5t-26.5 -78.5zM580 203q0 -22 5 -36.5t12 -19t16 -6.5t16 0q92 18 92 140 q0 94 -105 170q-22 15 -29 -2q-6 -17 -7 -58q-2 -163 0 -188z" />
<glyph unicode="%" horiz-adv-x="1857" d="M63 1063q0 106 54 186.5t143.5 121t200.5 40.5q104 0 192 -39t143.5 -118t55.5 -185q0 -166 -109 -265t-284 -99q-167 0 -281.5 97t-114.5 261zM260 1159q0 -55 47.5 -119t120 -107.5t137.5 -43.5q88 0 88 76q0 87 -98.5 179.5t-202.5 92.5q-37 0 -64.5 -20.5 t-27.5 -57.5zM403 74q0 26 15 41q12 12 149.5 205t345.5 501.5t349 542.5q31 53 90 53q39 0 68.5 -23t29.5 -55q0 -19 -16 -41q-80 -103 -285 -405t-371.5 -554t-173.5 -265q-19 -30 -30 -45t-33.5 -31t-48.5 -16q-42 0 -65.5 28.5t-23.5 63.5zM1006 336q0 160 113.5 254 t283.5 94q104 0 192 -39t143.5 -118t55.5 -185q0 -165 -109.5 -265t-283.5 -100q-108 0 -197 41.5t-143.5 124.5t-54.5 193zM1202 432q0 -55 47.5 -119t120 -107.5t137.5 -43.5q42 0 65 20t23 56q0 56 -45 119.5t-117 108t-141 44.5q-36 0 -63 -20.5t-27 -57.5z" />
<glyph unicode="&#x26;" horiz-adv-x="1695" d="M78 373q0 61 19 116t47.5 93.5t70.5 74t78 57.5t80 44q52 20 -2 67l-23.5 23.5t-31.5 33t-30 38.5t-30 50.5t-18.5 57.5t-8.5 70q0 146 119 234.5t301 88.5q143 0 246.5 -75t103.5 -193q0 -55 -22.5 -102.5t-54.5 -78t-63.5 -54t-54 -42.5t-22.5 -32q0 -10 34 -35.5 t104 -85t135 -133.5q19 -22 27.5 -30t21.5 -16.5t20.5 -3.5t17.5 18.5t21 39.5q17 37 26.5 85.5t6.5 88.5q-2 38 -17.5 54t-36 17.5t-40.5 3.5t-33.5 19.5t-13.5 57.5q0 29 27 39.5t67 3.5q129 -11 247.5 -0.5t151.5 2.5q56 -14 56 -68q0 -28 -16.5 -49t-37.5 -18 q-146 26 -168 -68q-8 -35 -17.5 -68.5t-19 -61.5t-18 -50.5t-18 -43.5t-15 -33t-12.5 -26l-8 -16q-22 -41 -19.5 -68t31.5 -61q116 -167 221 -184q21 -3 32 -2.5t31.5 4t26.5 4.5q19 1 28 -13.5t9 -37.5q0 -44 -20 -64q-9 -23 -73 -50.5t-136 -27.5q-82 0 -168 47.5 t-156 120.5q-26 25 -37.5 27t-39.5 -15q-96 -71 -152 -99q-138 -68 -320 -68q-123 0 -225 45.5t-165.5 136.5t-63.5 211zM383 436q0 -50 18 -97t52.5 -87t91.5 -64t129 -24q53 0 102 16t79.5 39t49 44t19.5 34q1 24 -79 116.5t-173 176.5t-123 84q-52 0 -109 -72t-57 -166z M516 1149q0 -77 51 -144t90 -67q37 0 102.5 63t65.5 140q0 65 -44 107t-117 42q-66 0 -107 -41t-41 -100z" />
<glyph unicode="'" horiz-adv-x="368" d="M61 1407q0 61 39 92t97 31q48 0 75 -27.5t27 -77.5q0 -52 -28.5 -186t-37.5 -264q0 -16 -14 -26.5t-41 -10.5q-20 0 -28.5 12t-8.5 27q0 79 -20 166.5t-40 157t-20 106.5z" />
<glyph unicode="(" horiz-adv-x="694" d="M63 637q0 148 39.5 285t110 247t159.5 197t195 150q24 14 44.5 4.5t35 -27t12 -43.5t-25.5 -45q-132 -116 -203.5 -298.5t-71.5 -469.5q0 -143 23.5 -268.5t64 -219t87 -161.5t100.5 -117q24 -21 26.5 -47t-12 -43t-35.5 -26t-45 5q-103 60 -192 147t-160 197t-111.5 248 t-40.5 285z" />
<glyph unicode=")" horiz-adv-x="692" d="M32 1443q-6 21 1.5 37.5t22 29.5t34 14.5t37.5 -8.5q105 -63 193.5 -150t159 -197t110 -247t39.5 -285q0 -147 -40.5 -285t-111 -248t-159.5 -197t-191 -147q-24 -14 -45 -5t-36 26t-12.5 43t25.5 47q54 51 100 118.5t87.5 161t65.5 219t24 267.5q0 197 -35.5 348.5 t-95 249t-146.5 170.5q-21 17 -27 38z" />
<glyph unicode="*" horiz-adv-x="874" d="M66 1233q0 50 38.5 84t92.5 14q28 -12 67 -36.5t76 -41.5q15 -6 27 0.5t12 18.5q0 36 -20 85t-21 68q-6 46 24 72.5t74 26.5q43 0 73.5 -26t27.5 -71q-1 -23 -19 -69t-18 -96q0 -38 37 -31q39 14 80.5 49t62.5 43q53 25 92 -8t39 -84q0 -31 -18.5 -55t-53.5 -31 q-26 -7 -77.5 -7t-92.5 -8q-11 -3 -14 -16t4 -20q20 -31 67.5 -66t55.5 -43q32 -36 26 -70t-37 -59t-67 -25q-49 0 -74 43q-13 19 -30 67t-39 81q-7 9 -18.5 10t-24.5 -10q-25 -25 -45 -80.5t-25 -64.5q-29 -50 -80 -50q-58 0 -89.5 50.5t9.5 105.5q16 17 58 46.5t65 60.5 q10 14 5 28t-19 19q-38 11 -87 9.5t-71 2.5q-73 17 -73 84z" />
<glyph unicode="+" horiz-adv-x="1228" d="M150 569q0 35 18 61t47 25q9 1 48 0t97 -2t103 0q20 1 32 5t16.5 13.5t5.5 16.5t1 23v6q1 46 -4 241q-1 32 26 49t64 17t64 -14.5t26 -38.5q-8 -164 -6 -258q0 -62 43 -62q139 0 256 17q39 6 65.5 -22t26.5 -66q0 -34 -24 -58.5t-68 -25.5q-184 0 -254 -4 q-30 -1 -37.5 -11.5t-7.5 -38.5q0 -106 6 -235q1 -32 -27.5 -50t-66.5 -18q-36 0 -61 16.5t-25 45.5q4 114 4 227q0 41 -13.5 52.5t-47.5 13.5q-121 3 -224 -7q-41 -4 -62 21t-21 61z" />
<glyph unicode="," horiz-adv-x="600" d="M100 150q0 73 51.5 121t122.5 48q120 0 180 -90.5t60 -228.5q0 -115 -71 -237t-179 -173q-8 -4 -22 -4q-23 0 -45.5 22t-22.5 44q0 19 8.5 30t32.5 21q70 40 114 100t44 119q0 80 -51 80q-11 0 -41.5 -11t-49.5 -11q-62 0 -96.5 53t-34.5 117z" />
<glyph unicode="-" horiz-adv-x="841" d="M98 563q0 40 19.5 70t54.5 33q44 2 125.5 0t197 1t169.5 13q34 6 57.5 -26t23.5 -74q0 -41 -24.5 -70t-73.5 -29q-347 6 -467 -8q-39 -4 -60.5 23t-21.5 67z" />
<glyph unicode="." horiz-adv-x="569" d="M100 152q0 84 51.5 131t133.5 47q182 0 182 -170q0 -79 -47.5 -132t-134.5 -53t-136 49.5t-49 127.5z" />
<glyph unicode="/" horiz-adv-x="731" d="M61 33q0 17 9 35q8 11 61 160t158.5 468.5t218.5 685.5q13 45 74 45q34 0 60 -15.5t26 -39.5q0 -10 -3 -20.5t-8.5 -23t-7.5 -17.5q-6 -15 -206.5 -620t-204.5 -621q-10 -46 -34.5 -68t-80.5 -22q-62 0 -62 53z" />
<glyph unicode="0" horiz-adv-x="1361" d="M98 674q0 114 22 216.5t69.5 191.5t116.5 153.5t168.5 101.5t219.5 37q132 0 240.5 -55t180 -150.5t110.5 -222t39 -270.5q0 -204 -69 -363.5t-198.5 -249.5t-298.5 -90q-144 0 -259 54t-189 149t-113 222t-39 276zM418 782q0 -312 93 -482.5t230 -170.5q201 0 201 428 q0 130 -19 247.5t-55.5 214t-97.5 153.5t-139 57q-59 0 -102 -36.5t-66.5 -102t-34 -141.5t-10.5 -167z" />
<glyph unicode="1" horiz-adv-x="1030" d="M70 68q0 27 14.5 45.5t40.5 17.5q56 -3 98 -3t73 2.5t52 10t34 16.5t21 25t11.5 31t5.5 39q7 107 5 389t-7 385q-1 42 -47.5 49.5t-235.5 -2.5q-28 -1 -44.5 21t-16.5 51q0 25 13.5 42t41.5 17q91 0 167 19.5t122.5 47t80 55.5t53.5 47.5t28 19.5q13 0 29.5 -1.5t49 -7 t51 -21.5t15.5 -40q-11 -153 -10.5 -585t8.5 -507q6 -54 12 -66q17 -31 95 -35q51 -3 143 3q25 3 41 -18.5t16 -51.5q0 -29 -17.5 -48.5t-51.5 -18.5q-482 21 -836 0q-25 -1 -40 20.5t-15 51.5z" />
<glyph unicode="2" horiz-adv-x="1167" d="M59 139q0 36 15 51q78 51 154 107.5t168.5 138t160 160t114 171t46.5 173.5q0 116 -59.5 182t-174.5 66q-87 0 -156 -55.5t-96 -116.5q-11 -30 -54 -19q-42 11 -60 46q-11 24 -2 49q12 30 36 64t66.5 74t94.5 71t127 52t157 21q86 0 166 -26t142 -72.5t99 -118t37 -156.5 q0 -69 -21 -136.5t-60 -126.5t-81.5 -109.5t-100.5 -100.5t-100.5 -83.5t-97 -74t-75.5 -57.5q-31 -28 -11.5 -48.5t70.5 -22.5q151 -4 223 8q86 9 119.5 31.5t65.5 87.5q10 20 38.5 25t51.5 -8.5t18 -41.5q-10 -26 -41 -147.5t-45 -163.5q-20 -47 -69 -47q-9 0 -74 6.5 t-102 7.5q-357 11 -596 -4q-43 -1 -68 45t-25 98z" />
<glyph unicode="3" horiz-adv-x="1144" d="M70 156q0 49 32 84.5t95 35.5q32 0 55.5 -9t38.5 -23t27.5 -31t26 -34.5t31 -31.5t46 -23t67.5 -9q107 0 181.5 60t74.5 167q0 71 -35 124.5t-97 84.5t-138 46t-166 15q-36 0 -51.5 30t-3.5 61.5t41 35.5q146 16 247 95.5t101 195.5q0 77 -53.5 126.5t-151.5 49.5 q-70 0 -126.5 -25.5t-92.5 -57t-37 -31.5q-24 -17 -47 -2t-29.5 44t3.5 54q4 13 22 34t54.5 48t84.5 50.5t120 39.5t153 16q184 0 301 -82t117 -204q0 -50 -16.5 -95.5t-40 -76.5t-55.5 -59t-57 -43t-51 -28q-23 -9 -23 -24t25 -21q104 -29 149 -51q178 -89 179 -270 q0 -91 -42.5 -171.5t-120.5 -142.5t-198.5 -98.5t-267.5 -36.5q-162 0 -267 49t-105 134z" />
<glyph unicode="4" horiz-adv-x="1169" d="M23 524q0 43 8 51q168 174 380.5 420.5t215.5 288.5q2 19 14.5 39t36.5 20q25 0 54.5 7t54 17t45.5 20t34 17l13 7q21 0 38.5 -13t16.5 -32q-19 -421 -6 -760q0 -27 13 -37t42 -10q8 0 37.5 1t50.5 1q26 0 37.5 -11t11.5 -42q0 -39 -16 -78t-53 -39q-7 0 -47.5 1t-55.5 1 q-5 0 -9.5 -2.5t-7 -8.5t-4.5 -12.5t-3 -17.5t-2 -20.5t-1 -24t0.5 -26t0.5 -29v-29.5q0 -35 3 -91.5t3 -65.5q0 -66 -76 -66h-172q-37 0 -51.5 12t-14.5 47q0 42 2 112.5t2.5 104t-2.5 84.5q-1 10 -3.5 17t-8 11.5t-10 7t-14 3t-15 1t-18 0t-17.5 -0.5q-280 0 -436 -8 q-38 0 -54.5 40.5t-16.5 92.5zM260 592q0 -20 19 -24.5t75 -4.5h205q60 0 64 66q3 60 3.5 178t-1.5 156q0 13 -8 24.5t-19 11.5q-13 0 -25 -12q-82 -77 -176 -191t-118 -159q-19 -27 -19 -45z" />
<glyph unicode="5" horiz-adv-x="1101" d="M66 152q0 49 26 86.5t78 37.5q36 0 63.5 -16t48 -38.5t44.5 -45.5t66 -39t100 -16q104 0 173.5 69t69.5 175q0 85 -47.5 147.5t-127.5 96t-168 48.5t-187 15q-33 0 -47.5 14t-12.5 28l2 13q56 340 66 588q3 39 57 39q241 -9 393.5 -8.5t233.5 22.5q19 3 39.5 4.5 t35 -10.5t9.5 -37q-19 -125 -33 -180q-6 -29 -28 -40t-78 -11q-66 -2 -216.5 -1t-213.5 3q-30 1 -44 -8.5t-20 -36.5q-12 -37 -12 -125q0 -21 4.5 -27t26.5 -6q84 0 168.5 -12.5t172 -44t154.5 -78.5t109.5 -123.5t42.5 -171.5q0 -101 -40 -190t-112.5 -155.5t-183.5 -105.5 t-244 -39q-34 0 -66 2t-77.5 7.5t-82 18t-70.5 31t-53 49.5t-19 71z" />
<glyph unicode="6" horiz-adv-x="1259" d="M94 604q0 149 38 275.5t103 216.5t153 153.5t188.5 94t207.5 30.5q139 0 227.5 -30.5t88.5 -98.5q0 -41 -23.5 -65.5t-72.5 -24.5q-35 0 -64 11.5t-48 24.5t-58 24.5t-91 11.5q-160 0 -245.5 -149t-85.5 -429q0 -114 17 -205.5t44.5 -150.5t65 -99t76 -56.5t79.5 -16.5 q89 0 143 72.5t54 177.5q0 161 -81 264t-196 100q-102 -6 -102 51q0 29 21 50t54.5 31.5t64.5 15t61 4.5q92 0 174.5 -26t149 -76.5t106 -133.5t39.5 -188q0 -152 -72.5 -265t-191.5 -169t-265 -56q-172 0 -300 84t-193.5 226t-65.5 321z" />
<glyph unicode="7" horiz-adv-x="1048" d="M41 1034q11 34 23.5 92t25.5 129t19 97q8 28 36 28q15 0 46 -10t38 -12q54 -7 323.5 -9t438.5 5q58 3 58 -41q0 -22 -11.5 -49t-21.5 -39q-406 -571 -406 -1035q0 -94 -47.5 -157.5t-148.5 -63.5q-82 0 -128 52.5t-46 144.5q0 82 32.5 176t89.5 188t113.5 175t126 177.5 t105.5 155.5q31 50 17.5 67t-85.5 17q-64 2 -168.5 1.5t-134.5 -3.5q-86 -9 -127.5 -33.5t-79.5 -91.5q-11 -14 -32.5 -15.5t-40.5 14.5t-15 40z" />
<glyph unicode="8" horiz-adv-x="1239" d="M111 987q0 77 32.5 144.5t94.5 121t161.5 84.5t223.5 31q223 0 353 -94t130 -234q0 -58 -24 -109t-61.5 -85t-67.5 -54t-58 -32q-12 -6 -19.5 -13t-10.5 -15.5t5 -19t27 -20.5q118 -63 181 -145.5t63 -200.5q0 -166 -147.5 -271.5t-383.5 -105.5q-240 0 -367.5 95 t-127.5 237q0 182 204 277q25 12 35.5 21.5t6 19t-13.5 16t-30 18.5q-206 123 -206 334zM381 350q0 -95 65 -162t181 -67q90 0 142 45t52 119q0 71 -52.5 134t-116.5 95.5t-111 32.5q-48 0 -104 -54t-56 -143zM418 1053q0 -53 30 -104t72.5 -84.5t86 -54.5t73.5 -22 q43 0 108.5 69.5t65.5 156.5q0 90 -61.5 149.5t-174.5 59.5q-92 0 -146 -47.5t-54 -122.5z" />
<glyph unicode="9" horiz-adv-x="1261" d="M80 893q0 100 36.5 187t104 152.5t172.5 103.5t234 38q159 0 282.5 -84t188.5 -222.5t65 -305.5q0 -130 -24.5 -245.5t-78 -216t-131.5 -173.5t-192.5 -114.5t-253.5 -41.5q-62 0 -120.5 9t-109.5 26.5t-81.5 48t-30.5 70.5q0 48 33 79.5t88 31.5q34 0 64 -18.5t51 -40 t65 -40t103 -18.5q137 0 218 144.5t81 426.5q0 259 -80 398t-207 139q-85 0 -136.5 -74t-51.5 -182q0 -157 73 -238t191 -98q15 -2 42 1t40 3q22 0 34.5 -20t12.5 -48q0 -29 -20 -49.5t-52.5 -29.5t-62 -13t-60.5 -4q-217 0 -352 110.5t-135 307.5z" />
<glyph unicode=":" horiz-adv-x="638" d="M135 152q0 84 50.5 131t131.5 47q183 0 183 -170q0 -79 -48 -132t-135 -53q-85 0 -133.5 49.5t-48.5 127.5zM135 797q0 84 50.5 130t131.5 46q183 0 183 -170q0 -79 -48 -130.5t-135 -51.5q-85 0 -133.5 49.5t-48.5 126.5z" />
<glyph unicode=";" horiz-adv-x="651" d="M137 150q0 73 51.5 121t122.5 48q82 0 138 -45.5t80 -115t24 -158.5q0 -115 -72.5 -237t-181.5 -173q-4 -4 -18 -4q-25 0 -47.5 21t-22.5 45q0 19 8 29t31 22q71 39 115.5 99t44.5 120q0 80 -52 80q-11 0 -41 -11t-49 -11q-63 0 -97 53t-34 117zM139 797q0 84 51.5 130 t133.5 46q180 0 180 -170q0 -79 -47 -130.5t-133 -51.5q-87 0 -136 49.5t-49 126.5z" />
<glyph unicode="&#x3c;" horiz-adv-x="1228" d="M199 498q0 41 28 55q8 4 275.5 136.5t417.5 223.5q31 17 47 17q29 0 46 -26.5t17 -61.5q0 -28 -11 -51.5t-32 -32.5q-41 -20 -159 -71t-210 -93.5t-114 -61.5q-21 -18 -21 -36q0 -28 27 -47q85 -58 231.5 -129.5t237.5 -96.5q25 -9 38 -32.5t13 -51.5q0 -35 -19.5 -60.5 t-52.5 -25.5q-21 0 -51 15l-669 352q-39 23 -39 78z" />
<glyph unicode="=" horiz-adv-x="1228" d="M182 801q0 33 15 55.5t43 22.5q98 0 249.5 -1t218 -1t142 3t119.5 9q29 3 51 -29.5t22 -71.5q0 -33 -18.5 -54t-58.5 -21q-45 -1 -304.5 0.5t-410.5 -2.5q-32 -1 -50 26t-18 64zM184 365q0 29 12.5 50.5t34.5 22.5q14 1 332 3.5t406 9.5q30 3 52.5 -30.5t22.5 -72.5 q0 -32 -18 -52t-57 -20q-5 0 -145.5 2t-271 -0.5t-296.5 -11.5q-33 -1 -52.5 29.5t-19.5 69.5z" />
<glyph unicode="&#x3e;" horiz-adv-x="1228" d="M199 842q0 35 16 61.5t45 26.5q16 0 47 -17q150 -90 412.5 -219.5t281.5 -140.5q29 -16 29 -57q0 -51 -39 -76q-503 -264 -669 -352q-30 -15 -52 -15q-32 0 -50.5 25.5t-18.5 60.5q0 28 12.5 51.5t36.5 32.5q90 26 239.5 98t229.5 128q26 22 26 47q0 22 -20 36 q-23 19 -114 61.5t-210 94t-159 70.5q-21 9 -32 32.5t-11 51.5z" />
<glyph unicode="?" horiz-adv-x="819" d="M53 1290q0 129 269 129q193 0 309.5 -75t116.5 -203q0 -67 -33 -133t-80 -120t-94 -107.5t-80 -115.5t-33 -124q0 -54 -57 -54q-56 0 -64 52q-15 75 -1 159.5t37 145t45 136.5t22 134q0 73 -32.5 114.5t-88.5 41.5q-34 0 -77 -31t-77 -31q-33 0 -57.5 24.5t-24.5 57.5z M186 152q0 84 51.5 131t133.5 47q182 0 182 -170q0 -79 -47.5 -132t-134.5 -53t-136 49.5t-49 127.5z" />
<glyph unicode="@" horiz-adv-x="1921" d="M63 463q0 100 27 201t78 196.5t131.5 178.5t181 145.5t232.5 98.5t280 36q161 0 300 -40t239.5 -108.5t172 -160t107 -195t35.5 -211.5q0 -128 -39.5 -237t-107.5 -183t-158.5 -115.5t-191.5 -41.5q-78 0 -144 26.5t-106 79.5q-12 17 -27 8q-7 -2 -46 -22t-90.5 -35.5 t-109.5 -15.5q-126 0 -195 61.5t-69 153.5q0 57 32.5 101t81.5 68t108.5 44t112 31t94 26t52.5 33q15 22 15 61q0 75 -28.5 114.5t-80.5 39.5q-41 0 -75.5 -16t-43.5 -40q-4 -11 1.5 -40.5t5.5 -42.5q0 -36 -28 -62.5t-87 -26.5q-60 0 -93.5 32.5t-33.5 78.5q0 65 62 122.5 t160 90.5t204 33q134 0 205 -70.5t71 -195.5q0 -13 -4 -118t-4 -186q0 -42 1.5 -68t8.5 -54.5t19.5 -44.5t35 -26.5t54.5 -10.5q122 0 209.5 129.5t87.5 318.5q0 122 -52 230.5t-144.5 188.5t-228 126.5t-294.5 46.5q-134 0 -256 -36.5t-218 -103.5t-167 -157.5t-109 -202.5 t-38 -233q0 -145 53.5 -271.5t149 -218.5t235.5 -145t305 -53q100 0 183.5 19t125 41.5t72.5 41.5t39 19q24 0 41.5 -30t17.5 -48q0 -19 -40.5 -46t-104.5 -53t-155 -44.5t-179 -18.5q-197 0 -363.5 63.5t-278.5 173t-174.5 257t-62.5 313.5zM819 303q0 -38 28.5 -71 t84.5 -33q64 0 96.5 55.5t32.5 128.5q0 46 -12 61q-9 4 -19 2q-38 0 -85 -15t-86.5 -49.5t-39.5 -78.5z" />
<glyph unicode="A" d="M-31 61q0 28 17.5 47.5t48.5 16.5h7q38 0 66 31q30 34 62 96q116 231 391 932q11 29 11 59q0 11 -1 21q-5 40 -2 51q8 24 54 24q44 0 68 1.5t61 16t59 42.5q15 18 43 18q44 0 55 -37q43 -141 229.5 -600t250.5 -575q16 -27 26.5 -41t34.5 -27.5t55 -9.5q33 3 51.5 -17 t18.5 -49q1 -28 -17 -48q-15 -17 -41 -17h-8q-51 4 -259 4q-19 0 -37 1q-180 0 -269 -5h-3q-31 0 -49 18t-18 45q0 28 16 48.5t44 19.5q12 -1 22 -1q48 0 65 16q13 12 13 39q0 15 -4 34q-4 24 -67 191q-21 46 -56 49q-86 8 -194 8h-25q-124 -1 -190 -8q-50 -3 -72 -43 q-32 -61 -66 -162q-9 -31 -9 -54q1 -31 17 -48q22 -22 84 -22q23 0 52 3q31 3 48 -16t17 -47q1 -29 -17 -50q-17 -20 -45 -20h-3q-134 6 -251.5 6t-217.5 -6h-8q-25 0 -41 17q-18 20 -17 48zM512 612q8 -13 41 -18q24 -5 98 -5q7 1 15 1q87 0 163 8q37 5 49 19q6 7 5 19 q0 12 -6 30q-23 68 -72 191t-74 175q-15 30 -29 30q-13 0 -26 -24q-31 -53 -79.5 -167.5t-82.5 -213.5q-5 -17 -5 -29q-1 -10 3 -16z" />
<glyph unicode="B" horiz-adv-x="1370" d="M88 63q0 31 21 51q18 17 48 18q6 0 13 -1h14q35 0 53 13q22 16 25 55q12 213 12 535q0 22 1 43q0 289 -7 409q-1 19 -3 32t-9 21t-11 12.5t-18 5.5t-20 1.5t-28 -1.5t-32 -2q-28 -1 -43.5 19.5t-15.5 48.5q0 29 15 48.5t44 19.5h21q63 0 235 4q207 5 291 6h12 q110 0 199 -18q94 -19 167.5 -59t113 -109t39.5 -162q0 -70 -27.5 -127.5t-71.5 -94t-81 -57t-74 -33.5q-19 -8 -19 -18q0 -12 31 -23q52 -16 97.5 -39t92 -60.5t74 -94.5t27.5 -127q0 -194 -140 -288.5t-421 -94.5q-46 0 -149.5 3.5t-205 3.5t-206.5 -7h-3q-26 0 -43 19 q-18 20 -18 48zM567 551q-4 -68 -4 -136q0 -99 8 -198q5 -48 37.5 -71t108.5 -23q111 0 168 57.5t57 161.5q0 132 -63 209.5t-191 77.5h-59q-20 0 -33 -7t-19 -21t-7.5 -23.5t-2.5 -26.5zM567 1186q-3 -45 -3 -112q0 -89 5 -216q2 -47 13 -63.5t47 -16.5h49 q117 0 180.5 66.5t63.5 183.5q0 125 -60 184.5t-168 59.5q-70 0 -97.5 -19.5t-29.5 -66.5z" />
<glyph unicode="C" horiz-adv-x="1480" d="M90 694q0 159 56.5 292.5t160 229t257 148.5t341.5 53q195 0 337 -46t147 -107q1 -6 1 -18q0 -61 -18 -275q-5 -37 -46 -49q-20 -6 -40 -6t-40 7q-40 13 -42 40q-7 65 -27 118t-56 97.5t-96.5 69t-141.5 24.5q-194 0 -320.5 -148t-126.5 -389q0 -113 31.5 -208t84.5 -160 t123.5 -110t147 -66t156.5 -21q25 0 49 1.5t43.5 4t40 7t34.5 7.5t31.5 9.5t27 10t24.5 10.5t20 10t18 10t15 8q16 10 30 10q17 0 31 -14q27 -25 27 -66q0 -37 -22 -59q-8 -8 -25 -21t-60 -36t-93.5 -42t-130 -33t-165.5 -14q-365 0 -574.5 194.5t-209.5 526.5z" />
<glyph unicode="D" horiz-adv-x="1662" d="M78 66q0 28 17 47.5t46 15.5q15 -2 28 -2q35 -1 53 11q26 16 32 71q22 129 22 507v20q0 361 -18 468q-3 22 -8.5 34.5t-18.5 18t-21 7t-31 1.5t-34 1q-22 0 -34.5 17t-12.5 42q0 27 16 46.5t46 19.5h545q195 0 351.5 -40.5t272 -121.5t178 -210t62.5 -298 q0 -342 -209 -532q-208 -189 -629 -189h-4h-582h-3q-31 0 -47 18q-17 19 -17 48zM582 768q2 -264 6 -455q2 -59 17 -97t44.5 -56t62 -24.5t83.5 -6.5q199 0 312.5 142.5t113.5 404.5q0 96 -14 178t-50 159t-92.5 130.5t-146 86t-205.5 32.5q-69 0 -95.5 -20.5t-31.5 -74.5 q-4 -101 -4 -275v-124z" />
<glyph unicode="E" horiz-adv-x="1308" d="M84 61q0 30 17.5 52t45.5 18q13 -2 24 -1q43 0 67 26q28 34 30 77q8 137 8 485q0 18 1 37q0 320 -9 470q-1 29 -32 37q-15 4 -34 4q-20 0 -46 -4q-29 -3 -46.5 18t-17.5 51q0 27 17 46q16 18 44 18h3q142 -7 444 -9q43 0 83 -1q243 0 390 8h16q88 0 88 -56q0 -5 -1 -12 q-17 -160 -21 -215q-3 -30 -26 -45.5t-52 -15.5q-28 0 -46.5 12.5t-18.5 36.5v11q0 93 -64 123q-68 32 -264 32q-100 0 -104 -97q-2 -46 -4 -164v-59q0 -72 2 -106q2 -30 12.5 -46.5t38.5 -19.5q14 -2 57 -1q12 -1 24 -1q64 0 85 4q47 5 67.5 27t20.5 80q0 28 20 43.5 t47 15.5q30 0 50.5 -18t19.5 -50q-4 -95 -4 -191l2 -140q0 -37 -20 -56q-21 -20 -52 -20q-29 0 -49.5 16.5t-19.5 44.5v11q0 91 -82 100q-26 3 -86 3q-12 0 -22 1q-42 0 -58 -2q-43 -6 -49 -68q-4 -49 -4 -111q0 -25 1 -52q2 -94 9 -164q3 -61 33 -88t104 -27q71 0 111 6 q91 7 155 66.5t86 152.5q7 31 26 46.5t44 15.5q37 0 62 -31q17 -22 17 -51q0 -13 -3 -27q-43 -142 -64 -272q-11 -37 -63 -39q-113 0 -307 5t-422 5q-40 0 -118 -5t-95 -5h-8q-26 0 -42 17q-18 20 -18 48z" />
<glyph unicode="F" horiz-adv-x="1204" d="M80 61q0 28 16.5 49.5t42.5 18.5q11 -1 21 -1q26 0 44 6q26 8 37.5 24.5t15.5 32.5t5 38q10 160 10 426q0 236 -8 555q-2 38 -26 48q-17 7 -48 8q-15 0 -34 -2q-29 -4 -46.5 16t-17.5 49q0 27 17 47q16 19 44 19h3q147 -8 415 -8q17 0 35 1q294 0 453 5q33 1 54 -3 t30 -15t11.5 -21.5t2.5 -28.5q-12 -148 -24 -233q-5 -33 -42 -46q-18 -6 -36 -6t-35 6q-34 14 -31 46q1 10 1 19q0 87 -59 119q-65 34 -251 34q-62 0 -83.5 -24.5t-23.5 -70.5q-6 -198 -6 -387q0 -57 58 -57q96 0 127 2q82 6 105.5 28.5t23.5 88.5q0 22 19.5 34.5t47.5 12.5 q29 0 50 -16.5t20 -47.5q-5 -102 -5 -196q0 -71 3 -137q3 -37 -19 -55.5t-53 -18.5q-28 0 -49 13.5t-21 35.5q0 64 -23 94t-81 31q-116 0 -143 -2q-57 0 -60 -57q-1 -29 -1 -67q0 -44 2 -102q4 -108 7 -147q6 -55 44 -75q25 -13 80 -12q28 0 63 3q32 3 49.5 -17t17.5 -50 q-1 -31 -19 -53q-16 -19 -46 -19h-8q-74 6 -296 6h-33q-196 0 -284 -6h-3q-28 0 -44 18q-16 19 -16 47z" />
<glyph unicode="G" horiz-adv-x="1583" d="M88 696q0 158 55.5 290.5t159.5 228t261.5 149t353.5 53.5q179 0 328 -46t153 -105q2 -22 2 -56q0 -78 -12 -219q-4 -25 -28 -38t-54 -13q-29 0 -52 11.5t-24 29.5q-13 130 -102 210.5t-255 80.5q-134 0 -235.5 -70t-153 -186t-51.5 -260q0 -149 40 -269t108.5 -196 t156 -116t185.5 -40q94 0 151 41q35 35 35 98q0 73 -2 136q-2 30 -9.5 45t-29.5 18q-11 2 -38 2q-40 0 -116 -4q-29 -1 -45 21t-16 53t17.5 51.5t50.5 17.5q136 -10 271 -10h25q147 1 246 8q36 3 54 -16t18 -47q0 -26 -14.5 -46.5t-36.5 -19.5q-10 1 -18 1q-32 0 -45 -12 q-17 -16 -17 -50q-2 -76 -2 -137t2 -107q0 -46 -16 -68.5t-66 -43.5q-83 -38 -214 -65.5t-261 -27.5q-342 0 -551 194.5t-209 528.5z" />
<glyph unicode="H" horiz-adv-x="1835" d="M72 61q0 27 16.5 46t44.5 18h58t50.5 20.5t22.5 61.5q4 241 4 472q0 92 -1 182q-2 316 -11 351q-8 33 -28 47q-13 9 -38 9q-12 0 -28 -2q-25 -4 -40.5 16.5t-15.5 48.5q0 27 14 45.5t42 18.5q168 -5 294.5 -5t211.5 5q34 0 51.5 -17.5t17.5 -42.5q0 -29 -17.5 -51.5 t-41.5 -19.5q-19 2 -33 2q-31 0 -45 -9q-20 -13 -20 -65q-1 -28 -2 -68q0 -42 -1 -146v-60q0 -52 1 -68q0 -38 13.5 -60t51.5 -26q24 -2 105 -3q62 0 154 2q216 3 290 11q31 4 51.5 23.5t22.5 42.5q1 89 1 157q0 170 -7 209q-6 38 -30 52q-19 11 -53 11q-9 0 -20 -1 q-25 -1 -39 17.5t-14 45.5t16 47q13 17 36 17h7q98 -7 220.5 -7t269.5 7h4q32 -1 48 -17q17 -18 17 -43.5t-14.5 -46.5t-34.5 -20q-13 1 -24 1q-36 0 -49 -8q-17 -10 -23 -44q-3 -34 -5 -468q0 -62 -1 -118q0 -333 8 -434q6 -43 28 -57q17 -10 57 -10q12 0 26 1 q32 3 49.5 -16.5t17.5 -48.5q1 -30 -17 -52q-15 -19 -41 -18h-7q-64 5 -202 5t-349 -5q-32 0 -49 19t-17 46q0 28 16.5 47.5t43.5 16.5q29 -1 56.5 -1t48 24t22.5 71q4 85 4 167t-4 161q-3 38 -20.5 52t-53.5 19q-61 7 -196 7q-25 -1 -53 -1q-176 -2 -280 -10 q-39 -3 -57 -20t-22 -57q-4 -66 -4 -137q0 -28 1 -58q2 -104 7 -152q5 -44 24 -56q13 -8 48 -9q17 0 38 2q30 3 47 -15.5t17 -45.5q0 -28 -18 -50q-17 -21 -43 -20h-3q-186 5 -324 5t-229 -5h-3q-31 0 -48 18q-18 20 -18 47z" />
<glyph unicode="I" horiz-adv-x="860" d="M76 68q0 28 14.5 46t42.5 17q28 -2 55 -3t48.5 14.5t27.5 47.5q12 80 12 428v105q-2 442 -12 485q-6 31 -36 48q-21 12 -49 12q-12 0 -25 -2q-26 -3 -41 15t-15 46q0 29 17 50q15 18 40 18h7q132 -8 262 -8t256 8q36 0 54 -19.5t18 -46.5t-16 -47.5t-38 -17.5 q-18 2 -33 2q-29 0 -45 -9q-24 -14 -30 -51q-9 -30 -9 -427v-45q0 -440 15 -541q6 -41 32 -53q21 -10 71 -10q12 0 26 1q30 1 46.5 -17.5t16.5 -45.5q0 -29 -17 -51q-16 -21 -44 -21h-2q-164 8 -308.5 8t-269.5 -8h-8q-29 0 -45 19q-18 22 -18 53z" />
<glyph unicode="J" horiz-adv-x="813" d="M-164 -260q0 48 32.5 88.5t80.5 40.5q33 0 64.5 -20t51.5 -43.5t44.5 -43.5t46.5 -20q35 0 62.5 43t33.5 115q9 139 9 401q0 140 -3 316q-7 504 -16 569q-5 31 -14 47.5t-38 26.5q-21 7 -56 7q-11 0 -23 -1q-28 -1 -45 19t-17 48q0 27 17 45q16 17 44 17h3 q110 -7 250.5 -7t312.5 7h3q31 0 46 -17q16 -18 16 -45t-13.5 -48.5t-31.5 -18.5q-17 1 -32 1q-40 0 -61 -9q-29 -14 -38 -58q-2 -15 -2 -66q0 -68 3 -197q7 -229 12 -465q1 -54 1 -107q0 -179 -12 -347q-7 -99 -52 -183t-112 -138.5t-148 -84.5t-163 -30q-61 0 -119 18 t-97.5 55t-39.5 85z" />
<glyph unicode="K" horiz-adv-x="1599" d="M76 68q0 28 14.5 46t42.5 17q28 -2 55 -3t49.5 14.5t28.5 47.5q12 79 12 407v125q-2 440 -12 484q-6 32 -36 48q-21 12 -50 12q-12 0 -26 -2q-25 -3 -40.5 16t-15.5 47q0 29 17 50q15 18 40 18h7q133 -8 263 -8t257 8q34 0 52 -19.5t18 -46.5t-15.5 -48.5t-36.5 -18.5 q-19 2 -34 2q-30 0 -46 -8q-24 -14 -30 -52q-9 -30 -9 -426q0 -22 1 -45q0 -439 14 -540q6 -41 32 -53q21 -10 73 -10q12 0 26 1q31 1 47.5 -18t16.5 -47t-17.5 -49.5t-46.5 -20.5q-164 8 -309 8t-271 -8q-34 -3 -52.5 19t-18.5 53zM682 614q-24 36 -24 66q0 32 28 57 q59 51 188.5 197.5t180.5 222.5q19 29 19 52q0 15 -6 27q-16 27 -58 27q-8 0 -17 -1q-29 -3 -46 18.5t-17 50.5t18 48q15 16 42 16h9q51 -4 104 -6q35 -1 76 -1h41q64 1 97 1.5t107.5 3t82.5 2.5q34 0 53 -20t19 -48q0 -30 -21 -50.5t-57 -16.5q-6 1 -13 1q-79 0 -190 -102 q-38 -33 -78 -73t-70.5 -73t-64 -73t-51 -62t-40 -51t-23.5 -30q-15 -24 -15 -45q0 -17 9 -33q211 -308 357.5 -456t223.5 -150q18 0 27.5 -18.5t9.5 -43.5q0 -45 -27 -57q-18 -8 -87 -19.5t-128 -11.5q-51 0 -91.5 10.5t-99 48.5t-121.5 107t-151.5 190.5t-195.5 294.5z " />
<glyph unicode="L" horiz-adv-x="1253" d="M82 63q0 29 17 50t46 18q9 -1 17 0q89 0 100 78q14 79 16 521v118q0 329 -8 360q-12 61 -85 61q-15 0 -33 -3q-29 -4 -45.5 15t-16.5 48q0 27 16 47q16 19 43 19h3q118 -8 265 -8.5t324 8.5h4q37 0 55 -17q20 -18 19 -45q0 -28 -17 -49t-42 -20q-27 2 -50 2 q-114 0 -124 -62q-14 -75 -14 -480t20 -523q8 -44 70 -61q45 -12 92 -12q18 0 36 2q66 6 117 22q36 11 67.5 43t52 73.5t33.5 78.5t19 69q7 38 49 44q7 1 13 1q36 0 62 -29q21 -26 21 -63q0 -8 -1 -17q-14 -96 -45 -270q-9 -53 -26 -70q-16 -16 -60 -16h-5q-36 0 -247 4.5 t-401 4.5t-287 -9h-8q-28 0 -44 17q-18 20 -18 50z" />
<glyph unicode="M" horiz-adv-x="2070" d="M80 66q0 27 15.5 45t45.5 18h6q45 0 71 26q28 28 38 71t12 112q5 167 5 326q0 257 -13 495q-2 64 -10 80q-15 28 -64 28q-8 0 -16 -1q-26 -3 -42.5 19t-16.5 50q1 27 17 45q14 15 39 16q4 0 9 -1q50 -5 151.5 -5t178.5 2l76 3q33 -1 57.5 -17.5t33.5 -31.5t13 -29 q86 -252 330 -791q12 -30 35.5 -28t38.5 32q79 150 184.5 404t150.5 381q29 76 103 76h348q44 0 65 -19t21 -45q0 -25 -14.5 -43.5t-34.5 -17.5q-11 1 -21 1q-52 0 -66 -18q-16 -21 -20 -100q-7 -219 -6 -419q0 -274 12 -509q4 -52 28 -75q18 -17 60 -17q15 0 33 2 q31 3 48.5 -16t17.5 -47t-17 -50t-45 -22q-2 0 -105.5 4.5t-229 4.5t-236.5 -9q-26 -3 -40.5 17.5t-14.5 49.5q0 28 14.5 48t40.5 20q15 -1 28 -1q60 0 84 19q30 23 33 103q4 112 4 311q-1 25 -1 51q0 236 -3 371q0 18 -8.5 25.5t-19 2t-17.5 -21.5l-424 -973 q-11 -24 -68.5 -24t-66.5 24q-276 630 -434 979q-8 14 -18.5 18.5t-18 -3t-6.5 -25.5q-1 -27 -1 -88q0 -81 2 -219q4 -242 11 -344q7 -110 39.5 -158.5t122.5 -48.5q29 1 45.5 -21t16.5 -51q0 -26 -14.5 -44t-39.5 -17q-86 6 -204.5 6t-268.5 -6q-26 -1 -42.5 20.5 t-16.5 49.5z" />
<glyph unicode="N" horiz-adv-x="1644" d="M86 63q0 29 17 49t49 19q24 -1 42.5 4t30.5 12.5t21 24t14 29.5t8.5 39.5t4.5 42.5t3 49q2 79 2 194q0 193 -6 488q-4 134 -30 192q-24 54 -71 54h-7q-29 -3 -47.5 17t-18.5 48t18.5 47.5t51.5 18.5q38 -1 141.5 -1t157.5 1q13 0 25 -3t24.5 -13t21 -16.5t22 -24 t18.5 -23.5t19.5 -27t16.5 -24q232 -333 562 -717q10 -11 22.5 -15t23 4t11.5 29q2 60 2 152q-1 57 -1 127q-2 182 -7 264q-6 101 -36 132q-29 30 -120 30h-6q-28 -1 -44.5 18.5t-16.5 46.5t17.5 45.5t51.5 18.5q126 -4 229.5 -4t186.5 4q37 0 56.5 -18.5t19.5 -45.5 q0 -26 -16.5 -45.5t-41.5 -19.5q-61 0 -80 -38t-22 -134q-7 -230 -7 -466q0 -300 11 -610q0 -22 -36.5 -34.5t-84.5 -12.5q-34 0 -62.5 7.5t-37.5 19.5q-144 205 -357.5 487t-334.5 430q-9 11 -23.5 17t-27.5 -2.5t-13 -36.5q0 -114 5 -312.5t12 -258.5q6 -69 12.5 -102.5 t24.5 -58.5q20 -25 50 -30q15 -2 36.5 -2.5t48.5 2.5q34 4 51.5 -17.5t17.5 -52.5q0 -28 -14.5 -47t-40.5 -18q-102 8 -225 8t-267 -8q-26 -1 -41.5 19t-15.5 48z" />
<glyph unicode="O" horiz-adv-x="1699" d="M92 709q0 208 94 369t265.5 250t394.5 89q355 0 558.5 -188.5t203.5 -519.5q0 -158 -54 -293.5t-152 -233.5t-241.5 -153.5t-314.5 -55.5q-352 0 -553 200t-201 536zM426 784q0 -147 38 -272t102.5 -209t150.5 -131t182 -47q117 0 203 66t129 179t43 259q0 148 -38 270.5 t-102.5 202t-150.5 123t-182 43.5q-176 0 -275.5 -129.5t-99.5 -354.5z" />
<glyph unicode="P" horiz-adv-x="1267" d="M94 63q0 28 15.5 48.5t40.5 19.5q7 0 26 -2t29 -1t23 6.5t19.5 22.5t8.5 44q6 165 6 359q0 85 -2 176q-4 298 -10 440q-4 65 -20 79q-12 10 -47 10q-13 0 -29 -1q-25 -1 -40.5 18t-15.5 45q0 29 17 49q16 19 44 19h3t36 -2.5t97.5 -4.5t136.5 -2q52 0 133 3.5t133 3.5 q74 0 144.5 -14t138.5 -46t118.5 -80t81.5 -121t31 -163q0 -121 -42.5 -214t-114.5 -148.5t-159.5 -83t-186.5 -27.5q-30 0 -44.5 12.5t-17.5 44.5q-1 4 -1 8q0 44 59 57q95 22 145.5 104t50.5 212q0 69 -14.5 127.5t-44.5 106.5q-30 50 -84 76q-47 23 -108 23q-9 0 -19 -1 q-43 -1 -57.5 -23t-16.5 -65q-7 -145 -7 -339v-142q4 -285 17 -476q3 -49 24.5 -67.5t55.5 -22.5q12 -2 28 -2t36.5 1t29.5 1q28 0 43 -19t15 -46q0 -28 -16 -50q-15 -21 -40 -20h-2q-159 8 -305 8t-278 -8h-7q-25 0 -40 18q-17 20 -17 49z" />
<glyph unicode="Q" horiz-adv-x="1695" d="M90 709q0 153 53.5 283.5t151 224.5t240.5 147t315 53q180 0 324 -52t238 -145.5t144 -223.5t50 -287q0 -208 -98 -381t-273 -267q-72 -41 -72 -80v-6q25 -90 105 -155.5t174 -65.5q43 0 106 24.5t74 24.5q31 0 47 -32q8 -20 8 -29q0 -29 -28 -45q-55 -37 -132.5 -59.5 t-160.5 -22.5q-152 0 -281.5 80t-212.5 221q-24 39 -46 52t-75 16q-299 22 -475 218.5t-176 506.5zM426 784q0 -147 38 -272t102.5 -209t150.5 -131t182 -47q117 0 203 66t129 179t43 259q0 148 -38 270.5t-102.5 202t-150.5 123t-182 43.5q-176 0 -275.5 -129.5 t-99.5 -354.5z" />
<glyph unicode="R" horiz-adv-x="1456" d="M78 61q0 30 19.5 52t52.5 18q17 -4 36 -2.5t35.5 7.5t28.5 27t14 56q9 201 9 475v55q-1 309 -7 429q-3 40 -14 54.5t-33.5 14.5t-60.5 -4q-28 -3 -44 18t-16 50q0 27 15 47t41 20q246 17 524 17q295 0 442.5 -89t147.5 -280q0 -240 -258 -377q-1 0 -2 -1t-2 -1 q-33 -14 -33 -37q0 -17 18 -39q16 -20 79.5 -109t115 -156.5t120 -127t117.5 -59.5q18 0 27.5 -16.5t9.5 -39.5q0 -24 -11 -43.5t-30 -25.5q-144 -25 -209 -25q-52 0 -107 30.5t-100 76.5t-92 108t-80 114.5t-68 108t-52 78.5l-6 7l-7.5 10t-7.5 8.5t-9.5 9t-10 7.5t-11.5 7 t-12 3.5t-14 1.5h-23q-12 0 -20.5 -2.5t-15.5 -14.5t-7 -33q0 -178 11 -264q8 -69 38 -84q21 -10 62 -10q19 0 43 2q28 1 43.5 -19t15.5 -48q0 -29 -16 -50t-45 -20q-133 7 -276.5 7t-297.5 -7q-32 -1 -49.5 18t-17.5 47zM556 976q2 -178 7 -216q3 -44 11.5 -60t35.5 -16h49 q128 0 205.5 92.5t77.5 224.5q0 143 -78.5 205t-224.5 62q-27 0 -44.5 -6.5t-24.5 -18.5t-9.5 -19t-3.5 -18q-2 -32 -2 -112q0 -50 1 -118z" />
<glyph unicode="S" horiz-adv-x="1155" d="M109 119v20q0 38 5 99q7 78 17 122q7 25 32.5 38.5t55.5 13.5q29 0 48.5 -12t19.5 -35q0 -99 63 -174.5t174 -75.5q94 0 152.5 51t58.5 127q0 53 -34 101.5t-88.5 88.5t-120 81.5t-131 88.5t-120 100t-88.5 126t-34 157q0 73 28.5 139t85 120.5t150.5 87t215 32.5 q130 0 252 -26t143 -50q26 -18 26 -198q0 -35 -1 -76q-1 -35 -31.5 -56.5t-66.5 -21.5q-63 0 -66 55q-5 109 -69 174.5t-169 65.5q-88 0 -145 -47t-57 -115q0 -51 27.5 -98t73 -83t103.5 -74.5t118.5 -72t118.5 -77t103.5 -88t73 -106t27.5 -130.5q0 -82 -31.5 -155.5 t-92.5 -133t-162 -94.5t-228 -35q-162 0 -296.5 46.5t-139.5 99.5z" />
<glyph unicode="T" horiz-adv-x="1396" d="M45 1159q3 110 8 166q1 14 8 28.5t30 28.5q20 13 50 13h9q171 -8 460 -8q48 1 100 1q360 2 547 7h4q73 0 80 -70q10 -156 10 -254q0 -24 -1 -45q-1 -24 -23 -37.5t-51 -13.5q-28 0 -48 14t-20 41q-5 112 -70 176q-62 61 -172 60h-10q-65 -1 -84 -24t-22 -81 q-6 -97 -7 -283q-1 -72 1 -157q4 -305 20 -508q5 -45 34 -67q22 -16 66 -17q14 0 31 2q29 4 45.5 -16t16.5 -49q-1 -29 -17 -50q-16 -20 -42 -20h-3q-109 4 -273 4h-42q-192 0 -283 -4h-3q-32 0 -48 20q-18 21 -18 50q0 28 15 47t40 18q13 -1 25 -1q50 0 82 14q40 16 42 69 q14 223 14 649q0 135 -1 289q-2 67 -22.5 90t-90.5 23h-7q-109 0 -175 -62q-68 -64 -72 -180q-1 -22 -20 -34.5t-45 -12.5q-55 0 -66 41q-3 21 -3 71q0 31 1 72z" />
<glyph unicode="U" horiz-adv-x="1599" d="M49 1331q0 27 16 46q15 18 41 18h3q106 -8 242.5 -8t303.5 8q36 0 54 -18.5t18 -45.5q0 -28 -16.5 -48t-42.5 -17q-13 1 -24 1q-88 0 -97 -69q-9 -179 -9 -347q0 -148 7 -288q5 -96 22.5 -166.5t54.5 -128.5t102.5 -88t158.5 -30q162 0 237.5 99.5t81.5 311.5 q3 119 3 304q0 111 -1 247q-2 84 -38 120q-33 33 -119 32h-15q-28 -1 -43.5 19t-15.5 48q0 29 16 47q15 18 44 17h3q100 -8 210.5 -7.5t232.5 7.5h4q34 1 51 -17q18 -18 18 -46.5t-16 -48.5t-41 -19h-3q-60 0 -85 -38q-25 -39 -29 -108q-4 -120 -4 -315.5v-243.5 q-2 -134 -32.5 -237t-96.5 -183.5t-180.5 -123t-273.5 -42.5q-135 0 -237.5 32.5t-178 102.5t-115 186t-39.5 277v625q1 39 -31 58q-25 15 -61 15q-9 0 -20 -1q-28 -4 -44 15.5t-16 47.5z" />
<glyph unicode="V" horiz-adv-x="1525" d="M-35 1331q0 27 16 46q15 18 39 18h3q66 -5 241 -5q136 0 338 3q30 0 46 -18.5t16 -45.5q0 -26 -14.5 -46t-35.5 -19q-9 1 -17 1q-49 1 -65 -21q-11 -14 -11 -40q0 -20 7 -47q13 -57 103 -288t162 -388q17 -34 41.5 -35t39.5 33q75 160 166.5 380t114.5 304q5 19 5 35 q0 32 -20 49q-23 19 -91 19q-22 0 -48 -2q-35 -3 -54 18t-19 51q0 27 15 45q14 17 41 17h3q179 -7 271 -7t235 7h7q24 1 38 -17q16 -20 16 -51q0 -28 -13.5 -46t-37.5 -17q-11 1 -21 1q-49 0 -76 -24q-33 -29 -69 -104q-143 -289 -469 -1125q-9 -22 -60 -32q-30 -6 -60 -5 q-20 1 -40 3q-48 6 -53 24q-191 500 -319 809t-172 393q-33 61 -109 61q-9 0 -18 -1q-34 -3 -53 17.5t-19 49.5z" />
<glyph unicode="W" horiz-adv-x="2244" d="M-27 1331q0 27 15 46t43 18q104 -5 294 -5q148 0 347 3q30 0 45.5 -18.5t15.5 -45.5q0 -28 -14.5 -48t-36.5 -17q-32 3 -57 3q-58 -1 -86 -15q-30 -16 -30 -59q0 -14 3 -30q15 -69 83 -289t122 -358q13 -28 30 -29t33 31q69 153 164 404t148 434q6 25 50 41t93 16 q73 0 82 -33q27 -97 137 -407t172 -461q9 -19 21 -27t24 -1.5t19 28.5q42 126 101.5 338t80.5 309q3 20 3 36q1 41 -21 56q-22 17 -88 17q-21 0 -46 -2q-29 -3 -47 19.5t-18 51.5q0 25 14.5 41t40.5 15q183 -8 236 -8h10q43 1 256 10q27 1 42 -19.5t15 -48.5 q0 -27 -13 -44.5t-36 -16.5q-7 1 -14 1q-94 0 -133 -104q-133 -343 -361 -1145q-4 -21 -43.5 -33t-85.5 -12q-33 0 -58.5 8t-29.5 21q-208 574 -324 840q-18 38 -40.5 36t-38.5 -36q-66 -142 -161.5 -378.5t-168.5 -445.5q-7 -22 -40.5 -32.5t-76.5 -10.5q-35 0 -62 7.5 t-30 19.5q-258 846 -412 1204q-15 32 -37 48q-18 13 -49 13q-8 0 -16 -1q-32 -3 -49 16.5t-17 48.5z" />
<glyph unicode="X" horiz-adv-x="1595" d="M2 61q0 28 19 50.5t45 19.5q11 -1 22 -1q46 0 93 23q59 29 93 70q240 285 308 381q28 39 28 61q0 21 -24 58q-195 289 -344 471q-4 4 -11 13t-10.5 13l-10.5 12t-12 11t-14 9.5t-16 7.5t-19.5 5t-23 2t-27.5 -1q-26 -3 -41.5 17t-15.5 48q-1 27 15 46q15 18 43 18h3 q162 -8 308 -8t276 8q35 0 52.5 -18.5t17.5 -45.5q0 -28 -17.5 -48.5t-42.5 -16.5q-17 2 -31 2q-39 0 -57 -16q-12 -10 -13 -25q0 -17 15 -41q104 -168 191 -264q20 -21 37 -24.5t29.5 4.5t29.5 28q105 113 197 256q11 17 13 32t-6.5 27.5t-34.5 18.5q-16 4 -38 4 q-14 0 -31 -2q-29 -3 -45 16.5t-16 48.5q0 27 15.5 45.5t45.5 18.5q27 -1 108 -3.5t121 -3.5h38h76q74 2 145 7h3q30 1 48 -17t18 -46.5t-16 -47.5t-43 -18h-6q-58 0 -91 -18q-35 -20 -85 -70q-58 -61 -152 -176.5t-155 -200.5q-17 -25 -23 -36t-4.5 -32t18.5 -47 q69 -109 174.5 -249.5t214.5 -254.5q30 -34 58 -46q18 -8 46 -7q14 0 32 2q32 4 50.5 -17t18.5 -51q1 -28 -17 -48q-17 -19 -45 -19h-3q-121 8 -302 8q-10 0 -19 1q-170 0 -318 -9h-8q-25 0 -41 17q-18 20 -17 50q0 29 17 49t47 17q26 -2 45.5 -0.5t36 9.5t15.5 25.5 t-15 45.5q-28 51 -84.5 128.5t-102.5 131.5q-21 24 -33 27q-4 1 -9 1q-22 0 -50 -26q-43 -40 -97.5 -114t-92.5 -138q-23 -35 -23 -57q0 -34 58 -34q12 0 26 1q33 4 51.5 -16.5t18.5 -51.5q0 -27 -15 -46t-41 -19q-30 1 -103 3t-110.5 2.5t-93.5 0.5q-11 0 -22 1 q-42 0 -78 -2q-44 -2 -84 -5h-4q-36 0 -56 18q-20 19 -20 47z" />
<glyph unicode="Y" horiz-adv-x="1396" d="M-10 1333q0 27 16 46q14 16 37 16h8q107 -8 254 -8q10 0 19 1q159 0 264 7h4q34 0 52 -18q20 -19 20 -46t-16.5 -47.5t-39.5 -19.5q-11 1 -21 1q-44 0 -63 -25q-10 -14 -10 -32q0 -19 14 -43q89 -164 189 -295q19 -25 39 -25t41 27q42 52 101 139t93 150q15 30 15.5 56 t-26.5 41q-19 10 -51 10q-13 0 -28 -2q-28 -3 -44.5 18t-16.5 49q0 25 15 43.5t42 18.5q40 -1 121 -3.5t122 -3.5h36h69q64 2 123 7h4q30 0 46 -16q18 -17 18 -44q0 -28 -16.5 -49t-41.5 -20h-7q-37 0 -73 -18q-38 -20 -56 -39t-40 -48q-78 -90 -194 -265t-134 -237 q-12 -38 -12 -197q-1 -7 -1 -14q0 -150 11 -239q8 -80 108 -80q15 0 32 2q32 3 48.5 -16.5t16.5 -48.5q0 -30 -17.5 -51.5t-47.5 -18.5q-106 8 -275 8h-21q-183 -1 -313 -10h-9q-30 0 -48 19q-20 22 -20 53q0 28 17 47t46 18q29 0 60 -1t57.5 15t30.5 50q7 57 7 157 q0 34 -1 72q-3 153 -15 192q-30 74 -159 275t-187 278q-32 49 -61 73q-28 24 -67 24h-3q-28 -1 -44.5 19t-16.5 48z" />
<glyph unicode="Z" horiz-adv-x="1292" d="M68 76q0 37 16 59q168 218 641 1004q24 42 24 69q0 42 -57 49q-57 8 -136 8q-24 0 -50 -1q-102 0 -158 -56t-74 -166q-6 -28 -27 -42.5t-48 -14.5t-46.5 13.5t-19.5 37.5q-2 40 -4 134q-1 47 -1 85.5t1 69.5q1 14 7 28q6 15 27 29q20 14 50 13h4q120 -4 349.5 -4t568.5 4 q20 0 32.5 -27t12.5 -59q0 -31 -13 -47q-377 -538 -626 -1000q-15 -27 -22 -45t-8.5 -36t11 -29.5t39.5 -16.5q38 -5 99 -5q47 0 108 3q63 1 110.5 20t81 57.5t57 87t44.5 120.5q17 51 65 51q36 -1 60 -29q20 -23 19 -57q0 -9 -1 -18q-3 -21 -23 -148.5t-24 -153.5 q-12 -38 -21 -47q-20 -20 -88 -20h-18q-44 0 -183.5 1t-318.5 1t-403 -2q-29 0 -43 23.5t-14 56.5z" />
<glyph unicode="[" horiz-adv-x="692" d="M164 -199q10 289 11 854.5t-7 802.5q-1 28 17 39.5t42 11.5h97t113.5 -0.5t104.5 -1t80.5 -0.5h32.5q47 3 47 -63q0 -26 -13 -50.5t-32 -21.5q-6 1 -76.5 3.5t-95.5 2.5q-6 0 -11 -1.5t-8.5 -2.5t-6 -5.5t-4 -6.5t-2.5 -9t-1 -10t-0.5 -12t-0.5 -12q-5 -113 -5 -662.5 t5 -732.5q5 -45 53 -45q123 0 143 4q19 3 32 -18.5t13 -46.5q0 -32 -12 -51.5t-35 -18.5q-361 0 -432 -2q-24 0 -37.5 16.5t-11.5 38.5z" />
<glyph unicode="\" horiz-adv-x="739" d="M63 1372q0 24 28 39.5t63 15.5q62 0 75 -45q111 -359 217 -678.5t150.5 -444.5t56.5 -155q23 -57 23 -69q0 -23 -14.5 -39t-47.5 -16q-56 0 -80 22t-36 68q-3 16 -205 620t-217 643q-2 5 -4.5 11t-4 9.5t-3 8.5t-1.5 10z" />
<glyph unicode="]" horiz-adv-x="694" d="M-10 1444q0 30 12 47t35 16h32.5t81 0.5t104.5 1t113.5 0.5h98.5q24 0 41 -11.5t16 -39.5q-8 -233 -6.5 -802.5t12.5 -854.5q2 -21 -12.5 -38t-36.5 -17q-71 2 -434 2q-22 -1 -34.5 19t-12.5 51q0 25 13.5 46.5t31.5 18.5q20 -4 143 -4q49 0 54 45q4 183 4 732.5 t-4 662.5q0 3 -0.5 10t-0.5 9.5t-0.5 8.5t-1.5 8t-2 6.5t-2.5 6l-4 4t-5.5 3.5t-7 2t-9 1q-26 0 -97 -2.5t-75 -3.5q-19 -3 -33 21.5t-14 50.5z" />
<glyph unicode="^" horiz-adv-x="950" d="M75 867q-22 30 9 77q42 65 98.5 170t100 192t51.5 99q21 36 72 50t101.5 1t70.5 -49q11 -19 46 -96t88.5 -178t118.5 -199q38 -56 -11 -84q-39 -24 -91 -10q-35 9 -47 34q-15 30 -62 128t-82.5 166.5t-52.5 88.5q-32 42 -61 0q-19 -27 -40.5 -62.5t-45 -81t-39 -77.5 t-41 -85t-33.5 -70q-19 -39 -75 -42q-53 -3 -75 28z" />
<glyph unicode="_" horiz-adv-x="819" d="M10 -88q0 32 12 58.5t29 27.5q14 1 168.5 1.5t317.5 3t223 7.5q21 3 35 -27t14 -67q0 -32 -12 -53t-37 -21q-392 6 -688 -8q-32 0 -47 22t-15 56z" />
<glyph unicode="`" horiz-adv-x="651" d="M87 1451.5q9 21.5 46 21.5q4 0 71.5 1t90.5 1q38 0 57 -39q63 -135 164 -283q22 -32 -28 -52t-98 -9q-17 4 -25 12q-31 41 -74 91t-72 82t-69.5 75.5t-45.5 48.5q-26 29 -17 50.5z" />
<glyph unicode="a" horiz-adv-x="1089" d="M68 225q0 65 37 115.5t93 78.5t124 51t128.5 36t109.5 30.5t63 36.5q16 27 16 78q0 82 -34 126t-93 44q-47 0 -86 -17.5t-51 -45.5q-4 -14 3 -48.5t7 -47.5q0 -42 -32.5 -71.5t-100.5 -29.5q-69 0 -107.5 36.5t-38.5 90.5q0 74 71.5 139.5t184.5 103.5t234 38 q154 0 235.5 -81t81.5 -224q0 -23 -5 -129t-5 -168q0 -113 8 -143q15 -61 79 -61h2q13 1 28 3q19 3 32 -16.5t13 -47.5q0 -53 -39 -67q-50 -16 -134.5 -35.5t-129.5 -19.5q-17 0 -39.5 19.5t-40.5 53.5q-12 18 -29 10q-4 -1 -50 -25t-105 -41t-127 -17q-144 0 -223.5 70 t-79.5 175zM362 250q0 -44 33.5 -82.5t98.5 -38.5q70 0 105 56t40 139v36t-9 41q-7 16 -20 16q-3 0 -6 -1q-24 -5 -32 -7l-36 -9t-42 -13t-38 -16t-37.5 -21.5t-28.5 -26.5t-21.5 -33.5t-6.5 -39.5z" />
<glyph unicode="b" horiz-adv-x="1179" d="M-12 1403q0 26 14.5 45.5t40.5 19.5q36 0 73 3.5t65 8t61.5 13t50.5 13.5t45.5 13.5t34.5 10.5q17 0 35 -22q14 -18 15 -49q0 -7 -1 -15q-5 -33 -7.5 -78.5t-3.5 -101.5t-1 -93v-42v-53v-66q0 -135 5.5 -444t16.5 -386q39 -57 125 -57q104 0 170 104.5t66 257.5 q0 332 -189 332q-102 0 -102 64q0 39 41 63.5t119 24.5q94 0 173 -28.5t140 -84.5t95 -148t34 -212q0 -238 -156.5 -380.5t-415.5 -142.5q-93 0 -170.5 10t-125.5 26.5t-74.5 36.5t-26.5 40q9 158 9 437q0 93 -1 200q-4 427 -18 553q-2 21 -4 30t-9 22t-22.5 17t-40.5 1 q-30 -3 -45.5 14t-15.5 43z" />
<glyph unicode="c" horiz-adv-x="1026" d="M72 457q0 228 152 370t405 142q89 0 164.5 -21.5t99.5 -40.5q31 -25 31 -272q0 -17 -24 -33t-50 -16q-42 0 -53 45q-41 184 -179 184q-102 0 -176.5 -81t-74.5 -220q0 -158 81.5 -251t217.5 -93q65 0 114 24t76 58q19 24 45 24q24 0 43 -22t19 -49q0 -12 -13 -43 q-38 -86 -146 -137.5t-241 -51.5q-146 0 -259.5 66.5t-172.5 176t-59 241.5z" />
<glyph unicode="d" horiz-adv-x="1243" d="M76 481q0 226 144 354t380 128q46 0 131 -11q31 -3 40 10.5t9 61.5q0 246 -2 262q-4 39 -13 48q-12 14 -49 14q-13 0 -30 -2q-32 -3 -50 15.5t-18 43.5t16 43t44 18q75 0 152 16t128.5 32t63.5 16q21 0 31.5 -24t7.5 -62q-10 -143 -16 -570q-3 -183 -2 -326 q0 -191 4 -310q2 -38 29 -60q19 -16 46 -15q12 0 25 3q22 4 35.5 -15t13.5 -47q0 -49 -33 -63q-36 -16 -131.5 -38.5t-134.5 -22.5q-17 0 -34.5 18t-29 36.5t-29 29.5t-34.5 -3q-112 -81 -244 -81q-93 0 -173 30.5t-142.5 90.5t-98.5 157.5t-36 222.5zM383 532 q0 -170 61 -277.5t174 -107.5q68 0 105 43t45 93q7 101 7 241q-1 10 -1 20q0 153 -8 175q-17 40 -64.5 69t-119.5 29q-87 0 -143 -77.5t-56 -207.5z" />
<glyph unicode="e" horiz-adv-x="1042" d="M74 451q0 143 62.5 259.5t185 187.5t282.5 71q111 0 196.5 -50t127 -125t41.5 -159q0 -48 -25 -83.5t-78 -39.5q-45 -3 -218 -9t-220 -9q-57 -3 -57 -64q0 -118 84 -190t194 -72q119 0 205 78q17 14 35 14q26 0 44.5 -24.5t18.5 -55.5q0 -22 -12 -37q-62 -81 -165 -121 t-222 -40q-98 0 -178.5 24.5t-135.5 67.5t-92.5 102.5t-55 128t-17.5 146.5zM393 645q0 -27 37 -27q170 0 240.5 14t70.5 62q0 46 -39 87.5t-98 41.5q-86 0 -148.5 -64.5t-62.5 -113.5z" />
<glyph unicode="f" horiz-adv-x="815" d="M66 63q0 28 15 48.5t40 19.5t45 -1t33.5 18t15.5 57q5 83 5 173q1 17 1 36q0 76 -2 169q-2 116 -2 177q0 28 -11 36.5t-34 8.5h-33q-27 -1 -42 19.5t-15 49.5q0 27 13.5 45.5t39.5 18.5q37 0 59.5 23t30 52t11.5 72q20 216 121 330.5t309 114.5q132 0 220.5 -58 t88.5 -137q0 -51 -37.5 -93t-101.5 -42q-65 0 -102.5 38t-37.5 83q0 37 -22 55.5t-56 18.5q-23 0 -41.5 -7t-31.5 -24.5t-22.5 -34.5t-15 -50.5t-9 -56.5t-4.5 -69.5t-1.5 -73.5t-0.5 -83v-5q0 -35 9 -43t40 -8q65 0 164 6q33 1 49 -18.5t16 -48.5q0 -28 -13.5 -48 t-37.5 -20q-51 2 -98 2t-91 -2q-23 0 -30.5 -11.5t-7.5 -39.5q0 -379 12 -555q3 -42 42 -65q26 -14 66 -14q23 0 52 5q29 3 44 -16.5t15 -48.5t-16 -50q-15 -20 -41 -20h-2q-97 4 -265.5 4t-271.5 -4h-3q-27 0 -42 18q-16 20 -16 49z" />
<glyph unicode="g" horiz-adv-x="1120" d="M23 -166q0 124 221 189q19 5 21 15.5t-15 18.5q-38 15 -56.5 23t-43.5 23.5t-35.5 34.5t-10.5 44q0 35 34 71t81 68.5t57 43.5q8 11 8.5 20t-7.5 18.5t-17 16.5t-26.5 19.5t-28.5 21.5q-20 18 -33 32t-31 41t-27.5 62t-9.5 78q0 135 112 215t304 80q46 0 146 -15.5 t157 -15.5q29 0 209 16q30 3 45 -15.5t15 -47.5q0 -39 -19.5 -75t-44.5 -36q-26 0 -75 9.5t-60 9.5t-15 -8t5 -23q41 -55 41 -119q0 -130 -116 -209.5t-288 -79.5q-49 0 -91 -24.5t-42 -42.5q0 -24 57 -41q31 -8 188.5 -34.5t225.5 -47.5q104 -22 154.5 -83.5t50.5 -149.5 q0 -147 -159.5 -251t-416.5 -104q-210 0 -337 74.5t-127 177.5zM295 -121q0 -71 65 -115.5t181 -44.5q96 0 158.5 40.5t62.5 93.5q0 73 -82 102q-39 12 -117 24.5t-121 12.5q-64 0 -105.5 -32.5t-41.5 -80.5zM385 686q0 -78 39.5 -140.5t114.5 -62.5q58 0 87 40t29 98 q0 89 -43 156t-114 67q-48 0 -80.5 -43.5t-32.5 -114.5z" />
<glyph unicode="h" horiz-adv-x="1339" d="M43 68q0 28 14 47t39 16q12 -1 23 -1q78 0 82 71q7 100 7 440v135q-2 456 -11 514q-5 31 -20 43t-54 6q-29 -4 -45.5 16.5t-16.5 49.5q0 25 13.5 43t38.5 18q82 2 152.5 15t124 30t67.5 19q36 -4 36 -64q0 -10 -1 -22q-13 -106 -13 -367q0 -92 2 -203q0 -33 14.5 -39 t39.5 9q45 45 124.5 82t194.5 37q84 0 144.5 -26t94 -73.5t49 -105t15.5 -129.5q0 -47 -3 -141q-2 -96 -2 -148q0 -6 -1 -12q0 -50 4 -131q1 -17 3.5 -27t9.5 -22t24.5 -16.5t44.5 -0.5q29 3 45 -15t16 -46q0 -30 -16 -52t-43 -22h-2q-96 4 -201 4t-219 -4h-3q-31 0 -48 21 q-18 22 -18 53q0 26 13.5 43.5t35.5 17.5q33 -2 46.5 12.5t14.5 57.5q9 171 9 291q0 72 -3 124q-6 88 -45 131.5t-102 43.5q-60 -1 -112.5 -44.5t-81 -104.5t-29.5 -120q-4 -110 -3 -185q0 -94 5 -134q1 -19 3 -29t9 -23t24 -17.5t43 -2.5q29 3 45.5 -17t16.5 -48t-16.5 -49 t-45.5 -21q-25 0 -108 2t-127 2h-49h-61q-67 0 -119 -4h-8q-27 0 -43 19q-18 22 -17 53z" />
<glyph unicode="i" horiz-adv-x="722" d="M63 61q0 28 16 48.5t42 19.5q26 -2 44.5 -2t32 14.5t23.5 48.5q15 55 15 255v49q-2 244 -15 288q-7 24 -23 28q-9 2 -30 2q-16 0 -39 -1q-25 -1 -40 19.5t-15 48.5q0 27 14.5 46t40.5 19q220 2 340 29q50 -10 50 -62q0 -7 -1 -14q-6 -73 -6 -204q0 -73 1 -163 q6 -254 17 -335q0 -2 1 -7q3 -24 8 -35.5t27 -19.5q14 -5 37 -5q12 0 26 1q30 3 45.5 -14.5t15.5 -46.5t-16 -51t-43 -21q-131 7 -249 7q-134 0 -251 -9h-8q-26 0 -42 18q-18 20 -18 49zM184 1290q0 76 47 118t123 42q164 0 164 -156q0 -71 -43 -118.5t-121 -47.5 q-80 0 -125 45.5t-45 116.5z" />
<glyph unicode="j" horiz-adv-x="659" d="M-88 -326q0 37 28.5 66t73.5 29q18 0 55.5 -9.5t59.5 -9.5q34 0 47.5 24t24.5 91q17 132 17 417v78q-3 346 -13 406q-5 36 -39 44q-15 3 -32 3q-23 0 -52 -6q-32 -4 -50 17t-18 53q0 27 15 47t43 20q259 4 385 29q23 -4 40 -23q14 -14 14 -40q0 -6 -1 -13q-4 -51 -4 -227 q0 -100 1 -241.5t1 -240.5q0 -172 -4 -215q-6 -79 -37 -146t-77.5 -112t-105.5 -76.5t-120.5 -46t-122.5 -14.5q-63 0 -96 28.5t-33 67.5zM168 1290q0 76 47 118t121 42q164 0 164 -156q0 -71 -43 -118.5t-121 -47.5t-123 45.5t-45 116.5z" />
<glyph unicode="k" horiz-adv-x="1351" d="M41 63q0 29 16 50t45 18q8 -1 15 -1q77 0 82 69q9 118 9 566.5t-7 516.5q-1 42 -20 54q-13 8 -40 8q-11 0 -24 -1q-29 -4 -46.5 16.5t-17.5 49.5q0 25 14 43t39 18q35 0 68.5 2.5t63.5 7.5t52 8.5t48.5 11t38 11t35 11t26.5 8.5q56 -22 56 -82l-11 -652v-106 q2 -396 13 -485q2 -19 2.5 -24.5t6.5 -20.5t15 -19.5t27.5 -8.5t44.5 -1q29 3 45 -16t16 -47q0 -30 -16.5 -51.5t-44.5 -20.5q-124 6 -246 6t-242 -6q-30 -1 -46.5 18.5t-16.5 48.5zM560 468q-1 6 -1 11q0 30 27 62q12 13 76.5 74.5t97.5 103.5q32 34 32 61v8q-6 27 -53 27 h-10q-23 0 -36 18.5t-13 43.5q0 29 18 49.5t50 17.5q64 -4 174 -5q37 0 78 1q167 2 243 8h3q28 0 44 -18q17 -20 17 -47q0 -30 -19 -52t-49 -16q-13 2 -28 2q-33 0 -76 -8q-63 -11 -99 -33q-118 -74 -198 -168q-16 -19 -16 -41.5t16 -48.5q29 -44 81 -106t116.5 -129 t133 -113.5t115.5 -46.5q43 0 43 -60q0 -32 -8 -40q-15 -23 -100.5 -35.5t-153.5 -12.5q-100 0 -212 102.5t-241 289.5q-46 65 -52 101z" />
<glyph unicode="l" horiz-adv-x="692" d="M41 63q0 29 16 50t45 18q8 -1 15 -1q77 0 82 69q10 162 10 551q-1 19 -1 40q0 421 -7 492q-1 42 -20 54q-13 8 -40 8q-11 0 -24 -1q-29 -4 -45.5 16.5t-16.5 49.5q0 25 13 43t38 18q35 0 68.5 2.5t63.5 7.5t52 8.5t48.5 11t38 11t35 11t26.5 8.5q56 -22 56 -82l-11 -652 v-106q2 -396 13 -485q2 -19 2.5 -24.5t6.5 -20.5t15 -19.5t27.5 -8.5t44.5 -1q29 3 45 -16t16 -47q-1 -30 -17 -52q-16 -21 -42 -20h-2q-124 6 -246 6t-242 -6h-3q-27 0 -43 18q-16 20 -17 49z" />
<glyph unicode="m" horiz-adv-x="1964" d="M66 805q0 42 36 53q2 1 79.5 27t130 42.5t63.5 16.5q20 0 42.5 -29.5t35.5 -74.5q10 -38 30 -38q15 0 37 21q46 50 130 95t190 45q67 0 117 -19.5t78.5 -48.5t54.5 -74q10 -19 23 -18.5t38 22.5q42 46 132.5 92t197.5 46q145 0 222 -80t77 -217q0 -52 -6 -226 q-3 -91 -2 -152q0 -56 2 -89q4 -37 22 -55q15 -15 51 -14q10 0 21 1q27 3 43 -18t16 -50q0 -28 -14 -47.5t-39 -19.5q-146 6 -263.5 6t-207.5 -6h-6q-21 0 -33 18q-14 20 -14 49t12.5 50t34.5 18q9 -1 17 -1q64 0 71 69q9 101 9 223q0 106 -7 227q-6 77 -40.5 112.5 t-84.5 35.5q-85 0 -145 -64.5t-66 -157.5q-11 -184 -11 -288q0 -55 3 -88q3 -45 13 -57q13 -17 46 -11q28 1 43 -17t15 -46t-14.5 -50t-39.5 -22q-47 0 -128.5 2.5t-148 2.5t-128.5 -5h-7q-23 0 -37 18q-16 22 -16 52q0 28 14 47t38 16q29 -4 45.5 13.5t19.5 56.5 q6 82 6 221t-6 211q-6 92 -39.5 129t-91.5 37q-88 0 -147.5 -83t-65.5 -208q-1 -61 -1 -112q0 -132 9 -193q4 -34 20.5 -55.5t49.5 -16.5q23 3 36 -16t13 -47q-1 -30 -15 -52q-13 -19 -34 -18h-6q-136 9 -250 9t-207 -9h-7q-20 0 -32 16q-14 18 -14 47t14 51t37 19 q11 -1 20 -1q31 0 50 12q25 16 32 61q8 49 8 202q-1 10 -1 20q0 170 -13 239q-11 59 -33 75q-12 9 -32 9q-14 0 -33 -5q-24 -6 -41.5 15t-17.5 49z" />
<glyph unicode="n" horiz-adv-x="1357" d="M68 803q0 42 38 55q47 18 151.5 52t121.5 34q40 0 76 -104q12 -34 31 -34q12 0 26 13q33 29 60.5 49t72 45t98.5 38.5t113 13.5q156 -1 242 -97q82 -92 82 -253v-15q-1 -57 -5 -198.5t-4 -208.5q-1 -35 17 -53q14 -14 50 -14q10 0 22 1q30 3 45.5 -15.5t15.5 -45.5 q0 -29 -16 -51q-14 -19 -38 -19h-7q-120 10 -229.5 10t-207.5 -10q-4 -1 -8 -1q-23 1 -39 21q-18 24 -18 54q0 27 13 43.5t38 13.5q37 -5 53 8.5t19 57.5q8 139 8 397q0 110 -43 158.5t-103 48.5q-91 0 -155 -80.5t-70 -200.5q-4 -80 -3 -147q0 -98 7 -170q3 -19 6 -30 t10 -23t21 -16.5t35 -2.5q28 3 42.5 -14.5t14.5 -44.5q0 -29 -15.5 -50t-41.5 -20q-151 6 -265.5 6t-191.5 -6q-32 -4 -48.5 14t-16.5 47t16.5 50.5t42.5 17.5q12 -1 22 -1q76 0 80 71q5 44 5 161v64q-2 170 -11 240q-9 61 -33 77q-13 9 -32 9q-16 0 -37 -7 q-22 -6 -39.5 14.5t-17.5 47.5z" />
<glyph unicode="o" horiz-adv-x="1191" d="M74 451q0 128 42 228.5t116.5 163t170.5 94.5t209 32q107 0 198 -30.5t160 -89t108.5 -152.5t39.5 -214q0 -238 -147 -374t-385 -136q-145 0 -260 55t-183.5 165t-68.5 258zM369 539q0 -103 32 -195.5t94 -152.5t140 -60q190 0 190 266q0 60 -13.5 127.5t-42 136 t-82.5 113.5t-124 45q-89 0 -141.5 -74t-52.5 -206z" />
<glyph unicode="p" horiz-adv-x="1224" d="M39 797q0 47 55 67q160 70 207 76q19 4 46.5 -8.5t39.5 -44.5q8 -25 28.5 -31t45.5 14q57 48 99 67q71 32 161 32q183 0 306.5 -135.5t123.5 -339.5q0 -136 -53 -253.5t-158.5 -192.5t-241.5 -75q-75 0 -111 29t-36 68q0 55 47 55q4 0 19.5 -1t29.5 -1q58 0 98 30.5 t59.5 82.5t27.5 104t8 113q0 161 -49.5 253.5t-153.5 92.5q-130 0 -160 -170q-10 -137 -10 -473q-1 -37 -1 -73q0 -153 11 -276q3 -39 23 -55q18 -14 68 -14h20q29 0 44 -19.5t15 -48.5q0 -30 -15 -51q-15 -20 -41 -20h-3q-146 8 -273 8q-110 0 -206 -6q-32 -4 -49 16 t-17 51q0 29 14.5 49t40.5 19h13q34 0 53 13q21 16 24 69q7 131 8 476v51q0 295 -6 323q-12 60 -27 74t-57 1q-27 -9 -47 9t-20 45z" />
<glyph unicode="q" horiz-adv-x="1161" d="M76 442q0 233 155 380t398 147q168 0 285 -43q116 -43 116 -88l-13 -573q0 -229 9 -445q0 -24 1.5 -35t9 -24.5t26 -17.5t49.5 -1q25 3 41 -18t16 -50q0 -31 -19 -52t-55 -21h-3q-23 1 -82.5 3t-92 2.5t-81.5 1.5h-32q-31 0 -59 -1q-42 -1 -81 -4q-30 -3 -49 21.5 t-19 56.5q0 26 13 43.5t38 17.5q52 0 73.5 17.5t24.5 60.5q8 209 8 406q0 63 -1 125q-3 256 -13 366q-3 47 -39 75.5t-98 28.5q-99 0 -156 -83.5t-57 -243.5q0 -315 170 -363q18 -6 49 -6q72 0 72 -62q0 -27 -20 -46.5t-52.5 -28t-61 -12t-57.5 -3.5q-188 0 -300.5 116.5 t-112.5 352.5z" />
<glyph unicode="r" horiz-adv-x="960" d="M70 70q0 27 12.5 45.5t34.5 17.5q28 -2 51.5 -1t41 18.5t21.5 52.5q8 51 8 178q-1 21 -1 45q-2 164 -11 238q-12 62 -32 78q-11 8 -29 8q-17 0 -41 -7q-21 -6 -38 13.5t-17 46.5q0 39 39 55q46 19 145.5 52.5t116.5 33.5q46 0 84 -108q17 -42 36 -42q12 0 25 19 q127 156 260 156q76 0 121 -37.5t45 -102.5q0 -64 -43 -102.5t-102 -38.5q-24 0 -71.5 13.5t-74.5 13.5q-59 0 -95 -31t-40 -90q-4 -64 -4 -141q0 -33 1 -67q2 -116 11 -181q11 -74 90 -74q13 0 27 2q27 3 42 -16.5t15 -48.5q0 -30 -14 -52q-13 -21 -37 -20h-2 q-134 6 -262 6t-250 -6h-3q-28 0 -44 21q-16 22 -16 53z" />
<glyph unicode="s" horiz-adv-x="929" d="M90 92q-3 21 -3 49q0 49 9 119q1 23 28.5 40t55.5 17q29 0 35 -18q61 -188 201 -188q57 0 95 27.5t38 66.5q0 14 -2.5 26.5t-10.5 24t-14 20.5t-20 20.5t-22 18t-27.5 18t-27.5 16t-31.5 17.5t-31.5 17q-48 27 -71 41t-61 40t-57 46.5t-40.5 49t-30 61t-8.5 69.5 q0 137 108.5 209t284.5 72q98 0 190 -16t111 -31q12 -12 14 -89q1 -23 1 -42q0 -47 -4 -78q-3 -24 -31.5 -36t-57.5 -6t-34 27q-16 61 -61.5 100.5t-116.5 39.5q-57 0 -93 -29.5t-36 -67.5q0 -20 11.5 -39t27 -34t45 -33t51 -29.5t59.5 -29.5q75 -35 121.5 -62.5t90.5 -64.5 t64.5 -82t20.5 -101q0 -129 -108 -212t-289 -83q-160 0 -264 36t-109 83z" />
<glyph unicode="t" horiz-adv-x="847" d="M41 874q0 29 14.5 50t40.5 20h5q39 0 69 13q32 14 49.5 35.5t29.5 48.5t15.5 48t3.5 39q0 30 54 53q48 20 95 20h13q54 -3 53 -36q0 -19 -2 -67t-3.5 -86t-0.5 -41q0 -27 27 -27q145 0 221 8q32 3 49 -15t17 -46q0 -33 -20.5 -60t-51.5 -26q-27 1 -70 1t-86 -0.5 t-47 -0.5q-20 0 -33 -13t-14 -36q-7 -120 -7 -229t7 -208q11 -151 106 -151q42 0 85 15.5t67 39.5q17 17 31 17q21 0 38 -22.5t17 -51.5q0 -22 -22 -53q-54 -68 -150 -104t-195 -36q-135 0 -198.5 91t-63.5 253q0 124 6 406v12q0 40 -12 56q-11 15 -49 15q-8 0 -18 -1 q-33 -4 -51.5 16.5t-18.5 52.5z" />
<glyph unicode="u" horiz-adv-x="1296" d="M41 877q0 27 16.5 47t46.5 20h30q112 0 261 19q14 2 25 2q40 0 51 -25q7 -17 8 -53v-23q1 -32 -1 -76q-2 -62 -3 -92q1 -34 -1 -123q-1 -67 -2 -120q0 -17 1 -33q0 -64 4 -111q6 -75 36.5 -112t90.5 -37q69 0 131.5 64.5t69.5 174.5q9 161 9 268q0 29 -1 54q-2 58 -21 77 q-16 16 -57 16q-9 0 -18 -1q-29 -3 -45.5 17t-16.5 49q0 26 16 45.5t42 19.5q189 0 319 19q7 2 14 2q12 0 26 -5q22 -8 26 -28q4 -19 4 -86q0 -45 -2 -111q-6 -211 -6 -335q0 -74 2 -117q4 -75 24 -101q14 -18 50 -19q14 0 32 3q20 3 33.5 -15.5t13.5 -44.5q0 -51 -43 -73 q-31 -15 -135 -34t-125 -19q-18 0 -45.5 27.5t-44.5 82.5q-9 25 -29 25q-17 0 -43 -19q-139 -114 -313 -116h-3q-143 0 -212 84q-69 85 -72 243v34q0 48 1 152.5t1 165.5v50q-4 66 -15 84q-14 21 -49 21q-8 0 -18 -1q-29 -4 -46 15.5t-17 48.5z" />
<glyph unicode="v" horiz-adv-x="1161" d="M-6 885q0 27 16 45q14 16 37 16h8q84 -7 196.5 -7t254.5 7h11q32 0 49 -15q20 -18 20 -46q0 -24 -14.5 -43t-36.5 -19h-15q-37 -1 -49 -13q-14 -16 -2 -58q21 -85 64 -184t77 -156q15 -23 37.5 -24t36.5 22q26 43 67.5 142.5t71.5 192.5q11 37 -4 61q-12 19 -47 19 q-10 0 -22 -2q-29 -4 -45.5 15.5t-16.5 48.5q0 27 14 43t40 16h3q96 -6 185.5 -6t173.5 6h4q30 0 45 -15q16 -16 16 -40q0 -28 -17 -50.5t-42 -19.5h-13q-33 -1 -53 -13q-24 -16 -40 -46q-115 -220 -318 -750q-7 -19 -43.5 -29t-81.5 -10q-83 0 -98 27q-189 478 -316 764 q-19 39 -39.5 51.5t-60.5 9.5q-25 -3 -39 15.5t-14 44.5z" />
<glyph unicode="w" horiz-adv-x="1794" d="M-6 885q0 27 18 46.5t51 16.5q110 -8 228 -8t244 8q37 1 54 -16t17 -43t-15 -47.5t-36 -18.5q-19 2 -34 2q-33 0 -45 -8q-18 -11 -9 -47q24 -88 63.5 -198t65.5 -169q10 -24 31 -24t28 18q31 72 91.5 246t87.5 277q7 22 48.5 35.5t88.5 13.5q81 0 92 -35 q30 -99 102.5 -293.5t98.5 -241.5q12 -22 31 -23t26 17q47 83 119 326q5 16 5 30q1 27 -15 47q-22 30 -77 29h-10q-28 -3 -44.5 18t-16.5 50q0 25 15 40.5t44 14.5q28 -1 80.5 -3t73 -2.5t58.5 -1t61.5 0t56 2t66.5 4.5q33 1 49 -14.5t16 -40.5q0 -28 -17 -50.5t-42 -19.5 q-28 3 -48.5 -2t-35.5 -20.5t-22 -25.5t-19 -32q-41 -73 -126 -287t-153 -446q-11 -18 -47 -27.5t-78 -9.5q-76 0 -88 25q-10 25 -52 135t-87 223.5t-74 175.5q-11 23 -30.5 21t-26.5 -21q-6 -15 -39 -95.5t-47 -117.5t-45 -124t-63 -185q-10 -18 -49 -27.5t-83 -9.5 q-74 0 -84 23q-13 37 -129.5 334t-179.5 452q-10 28 -28.5 35.5t-57.5 5.5q-26 -1 -41.5 17.5t-15.5 44.5z" />
<glyph unicode="x" horiz-adv-x="1273" d="M27 57q0 30 20 53.5t51 20.5q13 -2 26 -2q68 0 124 49q45 43 170 211q24 32 26.5 50t-16.5 50q-99 144 -209 295q-18 17 -26.5 23t-28.5 11.5t-49 2.5q-29 -4 -45.5 15t-16.5 47q0 27 17 46.5t49 18.5q33 -3 63 -4.5t60.5 -2.5t52 -1.5t52.5 0t45 1t47 2t41.5 2t45 3 t41.5 2.5h4q33 0 51 -17q18 -18 19 -44q0 -24 -14 -43t-35 -19q-35 2 -44 -10.5t9 -44.5q10 -26 88 -133q19 -19 37 -19q17 0 35 17q68 85 92 125q12 18 15.5 31t-7 23t-39.5 9q-23 -1 -38 19t-15 45t15 41.5t44 15.5q122 -8 184 -8h14q62 1 169 10q35 0 51.5 -15.5 t16.5 -39.5q0 -27 -19 -51t-43 -23h-12q-100 0 -144 -49q-79 -82 -165 -205q-16 -22 -16 -45.5t16 -50.5q62 -94 134.5 -186t104.5 -117q24 -19 33.5 -25t31.5 -11.5t52 -2.5q28 1 43.5 -18.5t15.5 -47.5q0 -29 -17 -49q-14 -17 -38 -17q-5 0 -10 1q-70 7 -144 9 q-43 1 -77 1h-45q-47 -2 -119 -5.5t-101 -4.5h-4q-34 0 -51 18q-18 19 -18 47q0 26 13.5 45.5t33.5 18.5q37 -3 49.5 11.5t-0.5 39.5q-36 66 -100 148q-18 21 -39.5 22t-34.5 -18q-41 -47 -96 -135q-21 -29 -12 -47t51 -17q21 1 34 -19t13 -47t-15.5 -46.5t-44.5 -18.5 q-37 1 -92 2.5t-80 2t-62 0.5t-69.5 -1.5t-71.5 -5.5h-4q-36 0 -54 16q-19 18 -19 45z" />
<glyph unicode="y" horiz-adv-x="1181" d="M-8 887q0 27 16 45q14 16 42 16h3q141 -6 256.5 -6t204.5 6h4q38 0 58 -17q20 -18 20 -44t-16.5 -45.5t-40.5 -18.5q-8 1 -16 1q-41 0 -50 -20q-4 -8 -4 -19q0 -19 12 -46q21 -75 62.5 -166.5t68.5 -134.5q21 -32 50 -31t45 27q48 81 120 293q13 31 13 53q0 12 -4 22 q-9 22 -51 22q-10 0 -21 -1q-28 -3 -45 17t-17 47q0 25 16.5 43t45.5 18q120 -2 210 -2t150 2h3q30 0 45 -16q16 -18 16 -45t-14 -46t-39 -18q-30 1 -53 -6t-41 -26t-27.5 -33t-24.5 -41q-71 -141 -323 -746q-159 -389 -400 -389q-79 0 -123.5 39t-44.5 94q0 22 7 41 t16.5 32t28 25.5t32.5 19.5t39 14.5t39 11t41 10t37 8.5q74 17 119 58.5t51 91.5q-8 78 -127 319t-229 432q-15 28 -39 38q-20 9 -56 9h-14q-23 -1 -37 18t-14 44z" />
<glyph unicode="z" horiz-adv-x="1073" d="M68 96q0 30 16 49q294 332 479 598q22 32 15.5 50.5t-35.5 21.5q-40 4 -85 4q-62 0 -132 -8q-29 -3 -48.5 -33.5t-27.5 -66t-23 -64.5t-39 -29q-35 0 -57 17t-22 39q0 74 -1.5 137t-1.5 68q0 11 2 20.5t7.5 16t10 11t13 7.5t14 5t16 2.5t14.5 0.5h15.5h12.5q603 0 725 2 q19 0 30 -21.5t11 -52.5q0 -47 -27 -77q-105 -116 -250.5 -307t-212.5 -293q-16 -22 -7 -43.5t40 -24.5q40 -4 82 -4q58 0 117 8q51 7 88 58t45 157q1 17 17 27t38 10q29 0 51 -19.5t23 -58.5q2 -39 2 -119q0 -86 -13.5 -134.5t-51.5 -49.5h-787q-24 0 -43.5 30.5 t-19.5 65.5z" />
<glyph unicode="{" horiz-adv-x="739" d="M43 653q0 41 12.5 69t38.5 28q76 0 111 58t35 144q0 39 -15.5 149.5t-15.5 172.5q0 88 48.5 146.5t121.5 82t166 23.5q61 0 110 -8q10 -1 16.5 -13t6.5 -28q0 -26 -13 -45.5t-36 -18.5q-80 1 -115 -43.5t-35 -116.5q0 -73 12.5 -180t12.5 -180q0 -55 -17.5 -94.5 t-48.5 -62t-57 -34t-60 -22.5q-6 -1 -8 -2q-25 -6 -26.5 -25.5t30.5 -27.5q26 -9 42.5 -15.5t47 -25.5t49 -40.5t33.5 -57.5t15 -80q0 -76 -7.5 -191t-7.5 -184q0 -170 162 -170q13 0 24 -19t11 -41q0 -38 -33 -47q-61 -12 -121 -12q-141 0 -234 68t-93 200q0 44 17.5 174 t17.5 166q0 29 -1.5 48.5t-9.5 46.5t-22.5 44t-43.5 31t-69 17q-23 1 -37 36t-14 80z" />
<glyph unicode="|" horiz-adv-x="477" d="M164 -360q2 22 5 274.5t4.5 665t-3.5 899.5q0 29 19.5 40t56.5 11q33 0 48 -15t15 -34q-3 -68 -3.5 -946.5t1.5 -892.5q2 -26 -14 -43t-53 -17q-45 0 -62.5 17.5t-13.5 40.5z" />
<glyph unicode="}" horiz-adv-x="737" d="M53 -199q0 22 11 41t24 19q162 0 162 170q0 69 -8.5 184t-8.5 191q0 44 15 80t33.5 57.5t49 40t48 25.5t43.5 16q20 5 26 16t-1.5 22t-22.5 15q-84 27 -119 53q-71 56 -72 162q0 73 12.5 180t12.5 180t-35.5 118t-116.5 42q-21 -1 -33 19t-12 45q0 16 6.5 28t16.5 13 q49 8 111 8q69 0 127 -14t106 -42.5t75 -78.5t27 -117q0 -61 -16 -171t-16 -151q0 -86 35.5 -144.5t111.5 -57.5q25 0 38 -28.5t13 -68.5q0 -44 -14.5 -79.5t-36.5 -36.5q-41 -3 -70 -17t-43.5 -30.5t-22.5 -44.5t-9.5 -46.5t-1.5 -48.5q0 -33 18.5 -163.5t18.5 -176.5 q0 -89 -47 -151t-119.5 -89.5t-163.5 -27.5q-61 0 -119 12q-33 9 -33 47z" />
<glyph unicode="~" horiz-adv-x="1196" d="M88 553q0 19 7 49.5t26 71.5t47 75.5t74.5 59t103.5 25.5q55 0 115 -20t111.5 -48t99 -56.5t93.5 -48.5t81 -20q45 0 73 23t52 69q14 25 45 25q32 0 63 -21t31 -41q0 -22 -6.5 -55t-28 -79.5t-54 -85t-92 -66t-134.5 -27.5q-58 0 -118 21t-108.5 50.5t-92.5 59.5t-87 51 t-76 21q-11 0 -20.5 -1.5t-17.5 -7t-13 -8.5t-11.5 -13t-8.5 -12.5t-9 -16t-8 -15.5q-14 -23 -49 -23q-31 0 -59.5 20t-28.5 44z" />
<glyph unicode="&#xa1;" horiz-adv-x="620" d="M100 -221q0 44 24.5 108.5t53.5 129.5t53.5 183t24.5 255q0 47 59 47q28 0 42 -13.5t14 -29.5q1 -146 24.5 -266t51 -182t50.5 -126.5t23 -113.5q0 -87 -58 -141t-151 -54q-87 0 -149 56t-62 147zM131 831q0 79 47 132t133 53q87 0 136 -49.5t49 -126.5q0 -84 -50.5 -131 t-134.5 -47q-180 0 -180 169z" />
<glyph unicode="&#xa2;" horiz-adv-x="1032" d="M59 451q0 130 52.5 238t160.5 182.5t256 93.5q21 0 21 41q0 5 -1 45t-1 61q-1 26 20 39.5t49 13.5q21 0 36.5 -7t15.5 -19q0 -13 -2 -67.5t-2 -59.5q0 -35 32 -35q55 0 110.5 -16t84.5 -37q8 -4 16.5 -66.5t12.5 -123.5l4 -60q0 -17 -15 -31t-35 -14q-17 0 -30.5 10.5 t-16.5 30.5q-9 39 -43.5 89t-91.5 72q-12 2 -19 -2.5t-8 -8.5t-1 -7q-2 -10 -5 -109.5t-5 -248.5t-1 -269q0 -26 8.5 -39.5t17.5 -13.5h9q89 0 182 107q14 20 39 20q26 0 42.5 -22.5t6.5 -51.5q-26 -54 -83.5 -102t-103 -70.5t-77.5 -31.5q-35 -10 -35 -45q0 -78 7 -121 q1 -21 -16 -32t-42 -11t-43 11.5t-18 33.5q0 23 1 48.5t2 42.5t1 19q0 12 -1 19t-8.5 14.5t-21.5 9.5q-111 7 -201 51t-145.5 111t-85 148.5t-29.5 169.5zM385 541q0 -223 96 -328q26 -27 41 -31.5t21 8.5t8 46q6 118 5.5 335t-5.5 240q0 5 -1.5 8.5t-12 7.5t-33.5 -10 q-119 -72 -119 -276z" />
<glyph unicode="&#xa3;" horiz-adv-x="1443" d="M57 66q0 90 176 165q25 11 44 29t31 40t21 49t12.5 56.5t6 62t2.5 65.5v68v34q0 28 -8.5 37.5t-38.5 9.5q-9 0 -127 -4q-47 0 -47 49q0 23 12 41t31 18q92 0 119 2q39 3 47.5 15.5t5.5 54.5q-4 73 16 150t68 151t116 132.5t168 94t216 35.5q80 0 154 -21t121.5 -60 t47.5 -85q0 -42 -33.5 -80t-76.5 -38q-31 0 -68.5 25t-68 55.5t-68 55.5t-68.5 25q-73 0 -120.5 -67.5t-62 -167t-1.5 -209.5q3 -36 17.5 -48.5t41.5 -12.5q27 -2 108.5 0.5t127.5 1.5q41 0 41 -47q0 -26 -16.5 -45.5t-45.5 -18.5q-23 0 -66.5 1t-75.5 1t-54 -2 q-48 -4 -60 -16.5t-12 -46.5q0 -170 -74 -306q-2 -2 -7 -9t-7 -10.5t-5.5 -9.5t-3.5 -9.5t0.5 -8t5.5 -7t13 -3.5q41 -7 97.5 -35.5t103 -57.5t104 -52t103.5 -23q54 0 74 15.5t20 44.5q0 13 -4 43t-4 47q0 56 44 90.5t105 34.5q58 0 89.5 -57.5t31.5 -119.5 q0 -71 -49.5 -121.5t-127 -74t-173.5 -23.5q-84 0 -176.5 22.5t-158.5 49.5t-143 49.5t-134 22.5q-36 0 -60 -17.5t-24 -42.5q0 -71 -150 -71q-123 0 -123 84z" />
<glyph unicode="&#xa4;" horiz-adv-x="1128" d="M82 188q0 27 16 43q1 1 115 107q24 23 27.5 35t-7.5 33q-28 57 -28 155q0 75 35 150q13 25 11 37.5t-22 29.5q-32 28 -74 68.5t-51 48.5q-22 19 -22 51q0 34 29 62t63 28q23 0 45 -16l129 -131q19 -21 37.5 -25.5t40.5 2.5q67 25 137 25q72 0 133 -25q30 -11 44 -8t38 29 q107 110 133 133q22 16 43 16q35 0 64 -29t29 -63q0 -26 -23 -49q-4 -5 -117 -109q-27 -22 -32 -36.5t6 -38.5q39 -66 39 -136q0 -82 -29 -145q-13 -34 -12 -47.5t16 -28.5q87 -83 135 -123q17 -20 17 -43q0 -34 -29 -62t-64 -28q-28 0 -51 23q-24 19 -115 117 q-19 22 -31.5 24.5t-47.5 -8.5q-70 -25 -150 -25q-78 0 -151 25q-22 9 -33.5 7t-32.5 -23q-85 -88 -117 -117q-23 -23 -51 -23q-35 0 -63.5 28t-28.5 62zM397 563q0 -72 45 -114.5t115 -42.5q74 0 120 43.5t46 121.5q0 59 -47 100.5t-115 41.5q-70 0 -117 -42.5t-47 -107.5z " />
<glyph unicode="&#xa5;" horiz-adv-x="1572" d="M68 1333q0 27 16 46t45 16q114 -8 273 -7.5t264 7.5q37 1 56 -18t19 -46t-16 -47.5t-39 -19.5q-62 7 -85 -24t5 -75q89 -164 189 -295q39 -50 79 2q43 53 102.5 139.5t92.5 149.5q12 23 14 43t-6.5 36t-33.5 23t-64 3q-28 -3 -44.5 18t-16.5 49q0 25 15 43.5t42 18.5 q40 -1 121 -3.5t122 -3.5t105 0.5t123 6.5q33 1 50 -16t17 -44q0 -28 -16 -49t-41 -20q-32 1 -60.5 -8t-51.5 -28.5t-35.5 -33.5t-28.5 -35q-57 -63 -182 -258q-11 -17 -6.5 -28t28.5 -11q157 0 193 4q21 1 34 -15t13 -40q0 -30 -11.5 -43t-37.5 -12q-21 2 -105 2.5 t-133 -2.5q-56 -6 -69 -27q-35 -57 -35 -82q0 -14 10 -19.5t45 -6.5q90 -5 295 0q12 0 20.5 -4t12.5 -8.5t6 -14.5t2 -14v-15q0 -20 -11 -37.5t-28 -17.5q-29 2 -137 2.5t-172 -0.5q-27 -1 -39 -3t-21 -10.5t-10 -25.5q-6 -149 8 -266q9 -92 140 -78q32 3 48.5 -16.5 t16.5 -48.5q0 -30 -17.5 -51.5t-47.5 -18.5q-113 8 -296 7.5t-313 -9.5q-37 -3 -57.5 19t-20.5 53q0 28 17.5 47t46.5 18q29 0 60 -1t57 15t30 50q16 126 7 272q0 22 -15.5 34.5t-40.5 12.5h-327q-23 -1 -35.5 15t-12.5 44q0 25 13.5 42t32.5 14q1 0 34 -1t72.5 -2.5 t86.5 -1.5t77 1q40 2 49.5 9t-0.5 32q-18 40 -39 65q-16 20 -31.5 24.5t-56.5 4.5q-174 0 -190 -2q-23 -2 -35.5 12t-12.5 43q0 23 13.5 39.5t32.5 15.5q28 -4 145 -4q38 0 50 8t-1 31q-111 188 -170 266q-32 49 -61 73.5t-70 23.5q-28 -1 -44.5 19t-16.5 48z" />
<glyph unicode="&#xa6;" horiz-adv-x="450" d="M150 -350q3 62 8 301.5t4 335.5q0 51 67 51q27 0 47.5 -16.5t20.5 -32.5q-4 -66 -5 -345t1 -292q3 -27 -14.5 -46.5t-59.5 -19.5q-35 0 -53 20t-16 44zM150 868q4 54 8 283.5t4 325.5q0 53 67 53q27 0 47.5 -17t20.5 -34q-4 -66 -5 -332t1 -277q7 -59 -74 -59 q-36 0 -53.5 16.5t-15.5 40.5z" />
<glyph unicode="&#xa7;" horiz-adv-x="1325" d="M66 877q0 102 38 191t103 152.5t150 109t180.5 67.5t193.5 22q169 0 253.5 -51t84.5 -129q0 -52 -37.5 -79t-85.5 -27q-37 0 -70 15.5t-57.5 37.5t-48.5 44.5t-54.5 38t-64.5 15.5q-108 0 -174.5 -62t-66.5 -126q0 -9 3.5 -17t20 -22.5t47.5 -30.5q62 -34 115.5 -65.5 t137.5 -88.5t151.5 -113t141.5 -133.5t124 -155.5t82.5 -173.5t32.5 -192.5q0 -110 -40 -199.5t-107 -148.5t-159.5 -99t-193 -57.5t-211.5 -17.5q-153 0 -230 43t-77 117q0 44 32 75t74 31q48 0 93 -20.5t73.5 -45t61 -45t57.5 -20.5q115 0 192.5 57t77.5 117q0 24 -10 39 t-43 33q-67 33 -133 70t-146.5 91t-150.5 111.5t-137.5 132t-115.5 151.5t-77.5 170t-29.5 188zM373 827q0 -85 23 -167.5t60 -148.5t86.5 -127.5t98.5 -107t100 -83.5t87 -60t63 -35q18 -6 31 -6q41 0 41 70q0 102 -35 202.5t-89.5 178.5t-119.5 146.5t-126 112.5 t-108 69.5t-67 25.5q-45 0 -45 -70z" />
<glyph unicode="&#xa8;" horiz-adv-x="942" d="M123 1280q0 17 7 37t23 42.5t48 37t75 14.5q55 0 97.5 -39t42.5 -102q0 -58 -41.5 -93.5t-98.5 -35.5q-23 0 -47 6.5t-49 21t-41 43.5t-16 68zM526 1280q0 17 8 37.5t24.5 42.5t49 36.5t74.5 14.5q55 0 95 -39t40 -102q0 -58 -39 -93.5t-96 -35.5q-23 0 -48 6.5t-50.5 21 t-41.5 43.5t-16 68z" />
<glyph unicode="&#xa9;" horiz-adv-x="1628" d="M66 696q0 194 98.5 358t271.5 260.5t381 96.5q206 0 378 -96.5t270 -260.5t98 -358q0 -145 -58 -277t-157 -228.5t-238 -153.5t-293 -57q-156 0 -296 57t-239.5 153.5t-157.5 228.5t-58 277zM203 696q0 -119 48 -227t129.5 -186.5t195.5 -125t241 -46.5q167 0 307 78.5 t220.5 213t80.5 293.5t-80.5 293t-220.5 212.5t-307 78.5q-169 0 -310.5 -78.5t-222.5 -212.5t-81 -293zM406 698q0 177 120 286.5t326 109.5q107 0 184 -24.5t80 -57.5q1 -22 -2 -101t-6 -108q-3 -27 -31.5 -37.5t-56.5 -2t-29 27.5q-1 26 -4.5 46t-13.5 44t-26.5 40 t-45 26.5t-67.5 10.5q-83 0 -139 -65t-56 -170q0 -125 76 -195.5t174 -70.5q70 0 133 35q28 15 59 -6.5t31 -55.5q0 -24 -18 -45q-5 -9 -30.5 -25.5t-89.5 -35.5t-140 -19q-199 0 -313.5 106t-114.5 287z" />
<glyph unicode="&#xaa;" horiz-adv-x="651" d="M86 973q3 41 40.5 69.5t81.5 39.5t87.5 23t52.5 23q12 14 12 50q0 32 -13 47.5t-44 15.5q-39 0 -51 -24q-4 -2 0 -22.5t4 -25.5q0 -19 -22.5 -35t-57.5 -16q-33 0 -53.5 19.5t-20.5 44.5q0 53 76 93t170 40q74 0 114 -39t40 -107q0 -10 -2 -59.5t-2 -79.5q0 -25 0.5 -33 t3 -23.5t8 -19.5t17 -7t28.5 -1q10 1 16.5 -10t6.5 -25q0 -28 -19 -34q-44 -19 -131 -29q-27 -3 -39 29q-8 19 -27 6l-13 -7q-13 -7 -25.5 -12.5t-37 -10.5t-50.5 -5q-61 0 -105.5 31t-44.5 94zM238 975q0 -17 14.5 -32t42.5 -15q30 0 48 21t19 59q0 39 -16 39 q-27 0 -67.5 -20t-40.5 -52z" />
<glyph unicode="&#xab;" horiz-adv-x="1034" d="M43 481q0 30 67.5 108.5t254.5 270.5q25 25 67 25q33 0 56.5 -15.5t23.5 -42.5q0 -17 -16 -43q-53 -83 -80 -126.5t-53.5 -98.5t-26.5 -82q0 -16 7 -37.5t24 -54.5t32.5 -61t45 -80t49.5 -88q6 -15 6 -27q0 -26 -27 -42.5t-61 -16.5q-48 0 -68 26q-301 316 -301 385z M475 481q0 31 68.5 110.5t251.5 268.5q25 25 67 25q33 0 56.5 -15.5t23.5 -42.5q0 -21 -14 -43q-51 -78 -80.5 -125.5t-55.5 -101t-26 -80.5q0 -16 7 -37.5t24 -54.5t32.5 -61t45 -80t49.5 -88q6 -15 6 -27q0 -27 -26 -43t-62 -16q-48 0 -68 26q-299 314 -299 385z" />
<glyph unicode="&#xac;" horiz-adv-x="1148" d="M63 637q0 37 23.5 63t65.5 23q111 -7 401 -5t399 11q46 4 64 -20t16 -66q-2 -32 -1.5 -172.5t5.5 -194.5q3 -35 -22 -54t-62 -19q-39 0 -67.5 22t-28.5 62q0 10 1 49t0.5 74.5t-3.5 74.5q-3 73 -78 76q-481 8 -624 -6q-42 -4 -65.5 20.5t-23.5 61.5z" />
<glyph unicode="&#xad;" horiz-adv-x="808" d="M131 557q0 43 14.5 75.5t40.5 33.5q11 1 117 2t213.5 7t161.5 19q27 7 45 -27t18 -81q0 -45 -19.5 -77t-59.5 -32q-287 -3 -467 -24q-30 -6 -47 26t-17 78z" />
<glyph unicode="&#xae;" horiz-adv-x="1157" d="M70 1047q0 128 66.5 239.5t182.5 177.5t254 66q142 0 261 -66.5t186 -177t67 -239.5q0 -201 -149 -344.5t-365 -143.5q-138 0 -254 66t-182.5 178.5t-66.5 243.5zM170 1047q0 -160 118 -275t285 -115q173 0 292.5 114.5t119.5 275.5q0 160 -119.5 273.5t-292.5 113.5 q-167 0 -285 -114t-118 -273zM324 852q0 15 7.5 27.5t20.5 11.5q9 -1 17 -1t13.5 7.5t6.5 22.5q10 108 2 284q-1 18 -8.5 21t-24.5 0q-13 0 -20.5 11t-7.5 26q0 35 32 38q96 7 197 7q234 0 234 -133q0 -28 -11.5 -53.5t-29.5 -42t-30 -25t-22 -13.5q-22 -10 -6 -26 q13 -12 40 -47.5t50.5 -58.5t42.5 -23q10 0 16.5 -10t6.5 -23q0 -30 -16 -33q-30 -12 -82 -12q-21 0 -42 10t-35.5 22t-32 34.5t-25.5 35t-22.5 36.5t-16.5 28q-9 15 -15 19.5t-16 4.5q-8 0 -11.5 -0.5t-7.5 -6t-4 -17.5q0 -31 2 -49q3 -26 8.5 -31t24.5 -2q14 1 22.5 -10.5 t8.5 -26.5t-8.5 -26t-22.5 -11q-91 3 -207 0q-13 0 -20.5 10.5t-7.5 24.5zM521 1175.5q0 -19.5 0.5 -41.5t0.5 -26q0 -31 21 -31h18q84 0 84 82q0 42 -17.5 58t-70.5 16q-16 0 -23.5 -3.5t-9 -8t-2.5 -15.5t-1 -30.5z" />
<glyph unicode="&#xaf;" horiz-adv-x="919" d="M129 1237q0 31 10.5 55.5t24.5 26.5q12 0 132 -0.5t246.5 2t192.5 10.5q18 3 31.5 -27t13.5 -67q0 -70 -45 -70q-43 -1 -113 1t-170 0.5t-266 -9.5q-29 0 -43 22.5t-14 55.5z" />
<glyph unicode="&#xb0;" horiz-adv-x="782" d="M70 1081q0 132 96 215.5t229 83.5q132 0 226 -83t94 -197q0 -151 -93.5 -233.5t-230.5 -82.5q-142 0 -231.5 79.5t-89.5 217.5zM221 1087q0 -76 47 -120.5t121 -44.5q76 0 125 45.5t49 124.5q0 63 -49.5 107t-120.5 44q-72 0 -122 -45t-50 -111z" />
<glyph unicode="&#xb1;" horiz-adv-x="1228" d="M150 758q0 35 18 61t47 25q9 1 48 0t97 -2t103 0q21 1 33 4.5t16.5 15.5t5 17.5t0.5 25.5q1 47 -4 242q-1 32 26 48.5t64 16.5t64 -14.5t26 -38.5q-8 -164 -6 -258q0 -61 43 -61q146 0 256 16q39 6 65.5 -22t26.5 -66q0 -33 -23.5 -57t-68.5 -27q-184 0 -254 -4 q-30 -1 -37.5 -11t-7.5 -38q0 -21 6 -150q1 -32 -27 -49.5t-67 -17.5q-36 0 -61 16t-25 45q4 114 4 141q1 41 -13 52.5t-48 13.5q-129 4 -224 -6q-41 -4 -62 21t-21 61zM160 244q0 34 19 59.5t54 26.5q16 1 182.5 -0.5t340 0.5t227.5 12q34 6 58 -24.5t24 -69.5 q0 -34 -20.5 -56t-63.5 -22q-51 0 -192.5 0.5t-233.5 0.5t-187.5 -1t-125.5 -4q-38 -4 -60 19.5t-22 58.5z" />
<glyph unicode="&#xb2;" horiz-adv-x="684" d="M37 1040.5q1 16.5 6 18.5q68 41 113 71t106.5 78.5t94 96.5t32.5 94q0 112 -115 112q-39 0 -71.5 -26.5t-44.5 -57.5q-6 -12 -25 -12q-24 0 -47 16t-23 39q0 12 5 19q10 21 31.5 45t55.5 50.5t86.5 43.5t112.5 17q108 0 188.5 -56t80.5 -151q0 -32 -9.5 -62.5t-31 -59 t-39.5 -49t-51.5 -46t-49 -36.5t-50.5 -33t-38 -24q-21 -15 -18 -29.5t29 -17.5q16 -2 79 -2q24 0 40.5 3t26.5 6.5t18 13t11 14.5t9.5 20.5t9.5 22.5q3 10 21.5 14t35.5 -3.5t15 -24.5q2 -11 -12.5 -105t-24.5 -129q-2 -6 -68 2q-1 0 -14 0.5t-35 1t-45 0.5q-196 4 -319 -4 q-21 -1 -37 13t-24 35t-12 43t-3 38.5z" />
<glyph unicode="&#xb3;" horiz-adv-x="673" d="M35 1016q0 34 21.5 59t64.5 25q27 0 45.5 -9.5t29 -23l21 -27t30 -23t48.5 -9.5q47 0 75.5 22t28.5 62q0 63 -60 95t-157 32q-25 0 -36 23t-4 47t24 26q81 11 131.5 44t50.5 85q0 42 -26.5 61t-65.5 19q-79 0 -139 -60q-10 -10 -21 -10q-17 0 -29 18.5t-12 40.5 q0 20 8 31q9 12 22 23.5t43 32t81 33t113 12.5q111 0 182 -45t71 -111q0 -35 -13 -62.5t-36 -45.5t-37 -25.5t-34 -16.5q-16 -6 -18 -17.5t16 -16.5q92 -25 123 -45q63 -39 63 -117q0 -98 -101.5 -172t-273.5 -74q-98 0 -163.5 32.5t-65.5 86.5z" />
<glyph unicode="&#xb4;" horiz-adv-x="651" d="M176 1137q0 7 6 16q93 137 166 283q17 39 58 39q22 0 89 -1t70 -1q23 0 36 -8.5t13 -22.5q0 -18 -20 -41q-9 -10 -61 -66.5t-105 -117t-94 -113.5q-14 -14 -55 -14q-38 0 -70.5 13t-32.5 34z" />
<glyph unicode="&#xb5;" horiz-adv-x="1333" d="M55 877q0 27 17 47t49 20q115 -3 291 19q61 9 75 -23q6 -17 7.5 -52.5t-0.5 -100.5t-2 -91q0 -34 -1.5 -123t-1 -153.5t4.5 -110.5q9 -149 127 -149q68 0 130.5 64.5t69.5 174.5q8 232 6 322q-2 58 -20 77t-74 15q-29 -3 -45 17t-16 49q0 26 15.5 45.5t41.5 19.5 q187 0 320 19q17 5 39 -3t26 -28q6 -32 2 -197q-10 -358 -4 -452q5 -76 25 -101.5t82 -15.5q19 3 32 -15.5t13 -44.5q0 -50 -41 -73q-31 -15 -135.5 -34t-126.5 -19q-17 0 -45.5 28t-43.5 82q-5 15 -15 22t-24.5 3.5t-31.5 -19.5q-113 -110 -297 -112q-17 0 -17 -23 q0 -59 -1 -167.5t-1 -147.5q0 -15 -1.5 -22t-8.5 -13t-22 -8q-5 -1 -45.5 -4.5t-97.5 -8.5t-91 -8q-20 -1 -27.5 11t-7.5 34q3 127 10 302t10 258.5t4.5 248.5t-5.5 273q-1 32 -3 47t-9.5 32.5t-24.5 23t-45 1.5q-30 -4 -48 15.5t-18 48.5z" />
<glyph unicode="&#xb6;" horiz-adv-x="1261" d="M76 961q0 202 183 317t503 115q106 0 190.5 2.5t131 5t59.5 2.5q32 0 49.5 -24.5t17.5 -57.5q0 -34 -18.5 -58.5t-50.5 -21.5q-85 3 -112 -19.5t-32 -88.5q-18 -229 -5.5 -651t-0.5 -455q-15 -86 -63 -161.5t-111 -126t-135 -87t-136 -53.5t-112 -17q-41 0 -67.5 27.5 t-26.5 64.5q0 45 41.5 78t124.5 33q46 0 71.5 5.5t46.5 26t31 57t17 101.5q21 257 0 467q-8 84 -82 84q-225 0 -369.5 122t-144.5 313z" />
<glyph unicode="&#xb7;" horiz-adv-x="587" d="M111 582q0 84 51 131t133 47q182 0 182 -170q0 -79 -47.5 -131.5t-134.5 -52.5t-135.5 49t-48.5 127z" />
<glyph unicode="&#xb8;" horiz-adv-x="583" d="M145 -125q14 33 84 125q19 27 74 27q40 0 62 -5.5t14 -19.5q-3 -6 -23 -32t-24 -33q-15 -23 -13.5 -31.5t23.5 -11.5q79 -10 111 -37t32 -76q0 -60 -78 -119t-184 -59q-23 0 -35 18.5t-12 42.5q0 39 21 39q94 6 94 59q0 45 -96 45q-31 0 -47.5 16.5t-2.5 51.5z" />
<glyph unicode="&#xb9;" horiz-adv-x="649" d="M43 969q0 23 9.5 39t25.5 16q36 -3 62.5 -2.5t45 1.5t30.5 6.5t19 9.5t11 14.5t5 17t3 21.5q4 31 0.5 173t-2.5 154q0 22 -24 25t-124 -1q-12 -1 -18 -1q-20 -1 -31.5 16t-11.5 41q0 22 10 37.5t29 15.5q70 0 126 16t82.5 34.5t45.5 34.5t24 16q9 0 21 -1t36.5 -3.5 t39.5 -11t12 -21.5q-6 -81 -5.5 -290t5.5 -255q1 -3 2 -12t1.5 -12t4 -9t9 -8t15.5 -5t24.5 -3t35.5 0.5t49 3.5q18 0 28.5 -18t10.5 -41q0 -24 -12 -40t-35 -16q-291 11 -522 0q-18 -1 -27.5 16.5t-9.5 41.5z" />
<glyph unicode="&#xba;" horiz-adv-x="653" d="M72 1081q0 104 76.5 171t181.5 67q104 0 178 -65.5t74 -159.5q0 -118 -73.5 -183t-182.5 -65q-112 0 -183 63.5t-71 171.5zM199 1087q0 -59 34.5 -92.5t90.5 -33.5q57 0 93 35t36 98q0 46 -36.5 78t-88.5 32q-56 0 -92.5 -33t-36.5 -84z" />
<glyph unicode="&#xbb;" horiz-adv-x="1034" d="M92 827q0 27 23.5 42.5t56.5 15.5q43 0 68 -25q185 -190 253 -269t68 -110q0 -69 -301 -385q-20 -26 -67 -26q-35 0 -63 16.5t-28 42.5q0 12 9 27q19 35 49 88t45 80t32 60.5t24 55t7 37.5q0 27 -26 80.5t-55.5 101t-80.5 125.5q-14 22 -14 43zM524 827q0 27 23.5 42.5 t56.5 15.5q43 0 68 -25q185 -192 252 -270.5t67 -108.5q0 -68 -299 -385q-23 -26 -69 -26q-34 0 -61 16t-27 41q0 16 8 29q20 37 48.5 88t44 79.5t32 61.5t23.5 54.5t7 37.5q0 65 -159 307q-15 24 -15 43z" />
<glyph unicode="&#xbc;" horiz-adv-x="1656" d="M78 731q0 22 9.5 37.5t25.5 15.5q36 -3 63 -2.5t45.5 1.5t31 7t19.5 10t11 14.5t5 16.5t3 21q4 32 0.5 174t-2.5 154q0 22 -22.5 26t-116.5 -1h-9.5t-9 -0.5t-10.5 -0.5q-20 -1 -31.5 16.5t-11.5 41.5q0 22 10 36.5t29 14.5q70 0 126 16t82.5 35t45.5 35t24 16 q10 0 22 -1t36.5 -4t39 -12t11.5 -22q-4 -76 -4 -288.5t4 -256.5q0 -2 1.5 -11.5t2.5 -11.5l4.5 -9t9 -8.5t16 -5t24.5 -3.5t35 0.5t48 3.5q18 0 28.5 -17t10.5 -40q0 -24 -12 -40t-35 -15q-289 11 -522 0q-18 -1 -27.5 16t-9.5 41zM360 74q0 25 52 86q22 27 147 204 t321.5 471.5t338.5 528.5q33 53 90 53q38 0 68 -23t30 -55q0 -19 -16 -41q-80 -103 -285 -405t-371.5 -554t-173.5 -265q-18 -28 -30 -44t-34.5 -32t-47.5 -16q-37 0 -63 26.5t-26 65.5zM942 284q2 30 4 38q108 104 223.5 225.5t116.5 144.5q0 10 8 20t25 11q24 0 73 9.5 t64 21.5q14 7 32 -3t17 -30q0 -1 -1.5 -41.5t-2.5 -89t-1 -121t3 -135.5q0 -25 23 -25q6 -1 17.5 -0.5t19.5 0.5q17 0 29 -9t12 -26q-8 -81 -39 -81h-52q-10 0 -10 -15v-145q0 -33 -37 -33h-145q-24 0 -31.5 10t-5.5 35q1 24 1 51t-0.5 51t-0.5 27q0 16 -18 19 q-119 8 -275 0q-25 -3 -38 29t-11 62zM1113 329.5q3 -15.5 24 -16.5h116q30 3 33 37q2 15 2 52t-2 59q-2 15 -16 18.5t-33 -10.5q-34 -29 -58 -52.5t-39 -40.5t-16 -18q-14 -13 -11 -28.5z" />
<glyph unicode="&#xbd;" horiz-adv-x="1632" d="M66 731q0 22 9 37.5t25 15.5q36 -3 63 -2.5t45.5 1.5t31.5 7t19.5 10t11 14.5t5.5 17t3 20.5q3 38 -0.5 177t-2.5 151q0 22 -22 26t-116 -1q-19 -1 -29 -1q-20 -1 -31.5 16.5t-11.5 41.5q0 51 38 51q70 0 126.5 16t83.5 35t46 35t23 16q10 0 22 -1t36.5 -4t39.5 -12 t13 -22q-6 -79 -5.5 -288.5t5.5 -256.5q0 -3 0.5 -9.5t1 -9t2.5 -8t4.5 -7.5l7.5 -6t12 -5t17 -2.5t23.5 -1.5t31 1t39.5 3q18 1 29.5 -16.5t11.5 -40.5q0 -24 -12 -39.5t-35 -15.5q-291 11 -525 0q-18 -1 -27 16t-9 41zM350 74q0 26 51 86q22 27 147 204t321.5 471.5 t338.5 528.5q33 53 90 53q38 0 68.5 -23t30.5 -55q0 -17 -17 -41q-80 -103 -285 -405t-371 -554t-173 -265q-17 -28 -30 -44.5t-35.5 -32t-47.5 -15.5q-37 0 -62.5 26.5t-25.5 65.5zM968.5 126.5q1.5 16.5 6.5 18.5q68 41 113 71t106.5 78.5t94 96.5t32.5 94q0 113 -115 113 q-39 0 -71.5 -26.5t-44.5 -57.5q-10 -14 -36 -12.5t-46.5 24.5t-8.5 49q10 21 31.5 45t56 50.5t87 43.5t112.5 17q108 0 188 -56t80 -151q0 -38 -16 -75t-35 -63t-55.5 -57t-56.5 -45.5t-60 -40t-45 -28.5q-21 -15 -18.5 -30.5t26.5 -18.5h82q24 0 41 3.5t26.5 6t18 13 t10.5 14t8.5 21t8.5 22.5q3 10 22 13.5t36.5 -4t15.5 -24.5q2 -11 -12.5 -104.5t-24.5 -128.5q-2 -6 -68 2q-1 0 -14 0.5t-35 1t-45 0.5q-197 4 -320 -4q-21 -1 -37 13t-24 35t-12 42.5t-2.5 38z" />
<glyph unicode="&#xbe;" horiz-adv-x="1634" d="M70 776q0 36 21.5 61t64.5 25q26 0 44.5 -9.5t29 -23.5l21 -28t30 -23.5t47.5 -9.5q47 0 75.5 23t28.5 63q0 63 -58.5 94t-156.5 31q-25 0 -36 23.5t-4 48t24 26.5q80 11 130 44t50 85q0 42 -25.5 61t-64.5 19q-78 0 -139 -61q-25 -23 -48 7q-22 28 -12 61q2 6 6 12 q6 10 20 24t43 33t80.5 32t114.5 13q109 0 181.5 -45.5t72.5 -110.5q0 -35 -13 -62.5t-37.5 -46t-36.5 -25.5t-34 -17q-10 -4 -15.5 -10.5t-2.5 -13t16 -9.5q6 -2 25 -7.5t26.5 -8t24.5 -8.5t25.5 -10.5t22.5 -12.5t21 -15.5t16.5 -18.5t14 -23t8 -27.5t3.5 -32.5 q0 -98 -101.5 -171t-275.5 -73q-98 0 -162.5 31.5t-64.5 85.5zM336 74q0 26 51 86q22 27 147 204t321.5 471.5t338.5 528.5q33 53 90 53q38 0 68 -23t30 -55q0 -19 -16 -41q-80 -103 -285 -405t-371 -554t-173 -265q-17 -28 -30 -44.5t-35.5 -32t-47.5 -15.5 q-37 0 -62.5 26.5t-25.5 65.5zM918 284q2 30 4 38q101 95 220 221t120 149q0 10 8.5 20t23.5 11q25 0 75 9.5t63 21.5q14 7 33 -3t18 -30q0 -1 -1.5 -41.5t-2.5 -89t-1 -121t3 -135.5q0 -25 20 -25q5 -1 17.5 -0.5t21.5 0.5q16 0 28 -9t11 -26q-8 -81 -37 -81h-53 q-8 0 -8 -15v-145q0 -33 -39 -33h-146q-24 0 -31 10t-5 35q1 24 1 51t-0.5 51t-0.5 27q0 16 -19 19q-119 8 -274 0q-25 -3 -38 29t-11 62zM1090 329.5q3 -15.5 22 -16.5h117q30 3 33 37q2 15 2 52t-2 59q-2 15 -16.5 18.5t-31.5 -10.5q-35 -29 -59 -52.5t-39 -40.5t-16 -18 q-13 -13 -10 -28.5z" />
<glyph unicode="&#xbf;" horiz-adv-x="819" d="M100 -139q0 67 33 132.5t80 119.5t94 107t80 116t33 125q0 26 15.5 39.5t39.5 13.5q55 0 64 -51q15 -76 1.5 -160.5t-36.5 -145t-44.5 -136.5t-21.5 -134q0 -73 32.5 -114t88.5 -41q34 0 76.5 30.5t75.5 30.5q35 0 58.5 -24.5t23.5 -57.5q0 -129 -269 -129 q-193 0 -308.5 75.5t-115.5 203.5zM295 842q0 79 47 131.5t133 52.5q87 0 135.5 -49t48.5 -127q0 -84 -51 -131t-133 -47q-180 0 -180 170z" />
<glyph unicode="&#xc0;" d="M-31 61q0 28 17.5 47.5t48.5 16.5q43 -3 73.5 31t61.5 96q116 231 391 932q15 39 10 79.5t-2 51.5q8 24 54 24q44 0 68 1.5t61 16t59 42.5q15 18 43 18q44 0 55 -37q43 -141 229.5 -600t250.5 -575q16 -27 26.5 -41t34.5 -27.5t55 -9.5q33 3 51.5 -17t18.5 -49 q0 -28 -17.5 -48t-48.5 -17q-52 4 -259.5 4.5t-305.5 -4.5q-34 -1 -52 17.5t-18 45.5q0 28 16 48.5t44 19.5q67 -4 87 14.5t9 73.5q-4 24 -67 191q-21 46 -56 49q-95 9 -218.5 8t-190.5 -8q-50 -3 -72 -43q-32 -61 -66 -162q-22 -72 7.5 -102t136.5 -19q31 3 48 -16t17 -47 q0 -29 -17.5 -50t-47.5 -20q-269 12 -469 0q-31 -3 -48.5 17t-17.5 48zM471 1753q0 16 17 27.5t49 11.5h141q71 0 108 -37q134 -129 205 -186q27 -24 27 -41q0 -18 -20 -28.5t-44 -10.5q-56 0 -82.5 3t-46.5 17q-96 68 -325 203q-29 17 -29 41zM512.5 612q8.5 -13 40.5 -18 q26 -5 113 -4.5t163 8.5q37 5 48.5 19t-0.5 49q-23 68 -72 191t-74 175q-28 57 -55 6q-31 -53 -79.5 -167.5t-82.5 -213.5q-10 -32 -1.5 -45z" />
<glyph unicode="&#xc1;" d="M-31 61q0 28 17.5 47.5t48.5 16.5q43 -3 73.5 31t61.5 96q116 231 391 932q15 39 10 79.5t-2 51.5q8 24 54 24q44 0 68 1.5t61 16t59 42.5q15 18 43 18q44 0 55 -37q43 -141 229.5 -600t250.5 -575q16 -27 26.5 -41t34.5 -27.5t55 -9.5q33 3 51.5 -17t18.5 -49 q0 -28 -17.5 -48t-48.5 -17q-52 4 -259.5 4.5t-305.5 -4.5q-34 -1 -52 17.5t-18 45.5q0 28 16 48.5t44 19.5q67 -4 87 14.5t9 73.5q-4 24 -67 191q-21 46 -56 49q-95 9 -218.5 8t-190.5 -8q-50 -3 -72 -43q-32 -61 -66 -162q-22 -72 7.5 -102t136.5 -19q31 3 48 -16t17 -47 q0 -29 -17.5 -50t-47.5 -20q-269 12 -469 0q-31 -3 -48.5 17t-17.5 48zM512.5 612q8.5 -13 40.5 -18q26 -5 113 -4.5t163 8.5q37 5 48.5 19t-0.5 49q-23 68 -72 191t-74 175q-28 57 -55 6q-31 -53 -79.5 -167.5t-82.5 -213.5q-10 -32 -1.5 -45zM547 1528q0 18 26 41 q97 78 205 186q40 37 111 37h139q32 0 50 -12.5t18 -28.5q0 -20 -29 -39q-245 -144 -326 -203q-34 -22 -90 -22q-6 0 -19 1t-20 1q-24 0 -44.5 10.5t-20.5 28.5z" />
<glyph unicode="&#xc2;" d="M-31 61q0 28 17.5 47.5t48.5 16.5q43 -3 73.5 31t61.5 96q116 231 391 932q15 39 10 79.5t-2 51.5q8 24 54 24q44 0 68 1.5t61 16t59 42.5q15 18 43 18q44 0 55 -37q43 -141 229.5 -600t250.5 -575q16 -27 26.5 -41t34.5 -27.5t55 -9.5q33 3 51.5 -17t18.5 -49 q0 -28 -17.5 -48t-48.5 -17q-52 4 -259.5 4.5t-305.5 -4.5q-34 -1 -52 17.5t-18 45.5q0 28 16 48.5t44 19.5q67 -4 87 14.5t9 73.5q-4 24 -67 191q-21 46 -56 49q-95 9 -218.5 8t-190.5 -8q-50 -3 -72 -43q-32 -61 -66 -162q-22 -72 7.5 -102t136.5 -19q31 3 48 -16t17 -47 q0 -29 -17.5 -50t-47.5 -20q-269 12 -469 0q-31 -3 -48.5 17t-17.5 48zM434 1534q0 20 19 33q53 44 93 80.5t80.5 74.5t67.5 62q29 26 88 26q64 0 90 -26q12 -11 50.5 -47t56 -51.5t55 -48.5t80.5 -68q16 -13 16 -33q0 -28 -28 -40.5t-64 -12.5q-41 0 -65 18q-70 53 -135 98 q-31 17 -52 17q-24 0 -55 -17q-35 -24 -78 -56t-57 -42q-27 -18 -72 -18q-90 0 -90 51zM512.5 612q8.5 -13 40.5 -18q26 -5 113 -4.5t163 8.5q37 5 48.5 19t-0.5 49q-23 68 -72 191t-74 175q-28 57 -55 6q-31 -53 -79.5 -167.5t-82.5 -213.5q-10 -32 -1.5 -45z" />
<glyph unicode="&#xc3;" d="M-31 61q0 28 17.5 47.5t48.5 16.5q43 -3 73.5 31t61.5 96q116 231 391 932q15 39 10 79.5t-2 51.5q8 24 54 24q44 0 68 1.5t61 16t59 42.5q15 18 43 18q44 0 55 -37q43 -141 229.5 -600t250.5 -575q16 -27 26.5 -41t34.5 -27.5t55 -9.5q33 3 51.5 -17t18.5 -49 q0 -28 -17.5 -48t-48.5 -17q-52 4 -259.5 4.5t-305.5 -4.5q-34 -1 -52 17.5t-18 45.5q0 28 16 48.5t44 19.5q67 -4 87 14.5t9 73.5q-4 24 -67 191q-21 46 -56 49q-95 9 -218.5 8t-190.5 -8q-50 -3 -72 -43q-32 -61 -66 -162q-22 -72 7.5 -102t136.5 -19q31 3 48 -16t17 -47 q0 -29 -17.5 -50t-47.5 -20q-269 12 -469 0q-31 -3 -48.5 17t-17.5 48zM385 1554q0 94 67.5 166t165.5 72q59 0 126 -25.5t119 -51t75 -25.5q27 0 42 9.5t28 39.5q17 28 63 28q32 0 57 -12.5t25 -30.5q0 -93 -67.5 -164t-163.5 -71q-60 0 -127 25.5t-119 51t-74 25.5 q-29 0 -44 -9.5t-28 -37.5q-16 -31 -65 -31q-30 0 -55 12t-25 29zM512.5 612q8.5 -13 40.5 -18q26 -5 113 -4.5t163 8.5q37 5 48.5 19t-0.5 49q-23 68 -72 191t-74 175q-28 57 -55 6q-31 -53 -79.5 -167.5t-82.5 -213.5q-10 -32 -1.5 -45z" />
<glyph unicode="&#xc4;" d="M-31 61q0 28 17.5 47.5t48.5 16.5q43 -3 73.5 31t61.5 96q116 231 391 932q15 39 10 79.5t-2 51.5q8 24 54 24q44 0 68 1.5t61 16t59 42.5q15 18 43 18q44 0 55 -37q43 -141 229.5 -600t250.5 -575q16 -27 26.5 -41t34.5 -27.5t55 -9.5q33 3 51.5 -17t18.5 -49 q0 -28 -17.5 -48t-48.5 -17q-52 4 -259.5 4.5t-305.5 -4.5q-34 -1 -52 17.5t-18 45.5q0 28 16 48.5t44 19.5q67 -4 87 14.5t9 73.5q-4 24 -67 191q-21 46 -56 49q-95 9 -218.5 8t-190.5 -8q-50 -3 -72 -43q-32 -61 -66 -162q-22 -72 7.5 -102t136.5 -19q31 3 48 -16t17 -47 q0 -29 -17.5 -50t-47.5 -20q-269 12 -469 0q-31 -3 -48.5 17t-17.5 48zM365 1640q0 20 8 42t25.5 45.5t53 39t83.5 15.5q59 0 105 -42t46 -108q0 -62 -44.5 -100.5t-106.5 -38.5q-25 0 -52 7t-54.5 22.5t-45.5 46t-18 71.5zM512.5 612q8.5 -13 40.5 -18q26 -5 113 -4.5 t163 8.5q37 5 48.5 19t-0.5 49q-23 68 -72 191t-74 175q-28 57 -55 6q-31 -53 -79.5 -167.5t-82.5 -213.5q-10 -32 -1.5 -45zM895 1640q0 19 8.5 41.5t26.5 46t54 39t83 15.5q60 0 103.5 -41.5t43.5 -108.5q0 -63 -42.5 -101t-104.5 -38q-26 0 -53.5 7t-55.5 23t-45.5 46 t-17.5 71z" />
<glyph unicode="&#xc5;" d="M-31 61q0 28 17.5 47.5t48.5 16.5q43 -3 73.5 31t61.5 96q116 231 391 932q3 8 8.5 22.5t7.5 21t5 17t2.5 16t-1.5 13t-6 12.5t-12 10q-82 60 -82 168q0 96 82.5 157.5t198.5 61.5q114 0 193 -61t79 -149q0 -102 -61 -152q-25 -22 -25.5 -41.5t17.5 -65.5 q91 -240 231 -578.5t191 -430.5q16 -27 26.5 -41t34.5 -27.5t55 -9.5q33 3 51.5 -17t18.5 -49q0 -28 -17.5 -48t-48.5 -17q-52 4 -259.5 4.5t-305.5 -4.5q-34 -1 -52 17.5t-18 45.5q0 28 16 48.5t44 19.5q67 -4 87 14.5t9 73.5q-8 50 -69 191q-18 46 -54 49q-95 9 -218.5 8 t-190.5 -8q-50 -3 -72 -43q-18 -35 -40 -90.5t-26 -71.5q-22 -72 7.5 -102t136.5 -19q31 3 48 -16t17 -47q0 -29 -17.5 -50t-47.5 -20q-269 12 -469 0q-31 -3 -48.5 17t-17.5 48zM512.5 612q8.5 -13 40.5 -18q26 -5 113.5 -4.5t160.5 8.5q38 5 50 19.5t0 48.5 q-23 68 -72 191t-74 175q-8 17 -17 24.5t-19 3.5t-19 -22q-31 -53 -79.5 -167.5t-82.5 -213.5q-10 -32 -1.5 -45zM621 1464q0 -55 37.5 -85.5t101.5 -30.5q61 0 100 32t39 90q0 43 -40.5 76t-96.5 33q-61 0 -101 -32t-40 -83z" />
<glyph unicode="&#xc6;" horiz-adv-x="2027" d="M-37 66q0 27 16.5 44.5t45.5 14.5q70 -5 172 127q168 211 669 932q20 29 21.5 49t-7 26.5t-20.5 6.5q-23 0 -59 -4q-28 -4 -44 16.5t-16 50.5q0 29 15.5 48t44.5 18q186 -9 535.5 -8.5t455.5 6.5q59 3 83 -14.5t19 -53.5q-15 -138 -20 -215q-4 -39 -40 -55t-70 -2.5 t-33 45.5q4 101 -63.5 133.5t-264.5 32.5q-101 0 -105 -97q-3 -46 -4.5 -164t2.5 -165q2 -30 13 -46.5t39 -19.5q17 -2 80 -1.5t85 3.5q48 5 68.5 27t20.5 80q0 28 20 43.5t47 15.5q30 0 50.5 -18t19.5 -50q-7 -163 -2 -327q1 -40 -20 -60t-52 -20q-30 0 -50.5 16.5 t-19.5 44.5q5 101 -82 111q-26 3 -85.5 3.5t-79.5 -1.5q-44 -6 -50 -68q-12 -125 7 -327q3 -61 33 -88t104 -27q68 0 112 6q90 7 154 66.5t86 152.5q7 31 26 46.5t44 15.5q37 0 61.5 -31t13.5 -78q-41 -134 -63 -272q-11 -37 -61 -39q-114 0 -309 5t-423 5q-40 0 -118 -5 t-95 -5q-32 -3 -49.5 16.5t-17.5 48.5q0 30 17.5 52t45.5 18q111 -17 123 66q4 25 5 79t0 95l-1 41q0 18 -10.5 29.5t-21.5 13.5q-94 9 -201 8t-176 -8q-46 -3 -86 -43q-41 -51 -115 -162q-21 -36 -27 -59.5t4.5 -41t44 -21t91.5 0.5q32 3 49.5 -16t17.5 -47 q0 -29 -17.5 -50t-47.5 -20q-267 12 -465 0q-32 -3 -51 19t-19 51zM646 612q4 -13 36 -18q88 -13 244 4q38 5 54 19.5t17 48.5q13 283 -4 366q-3 26 -17 29t-36 -23q-49 -59 -133 -173.5t-143 -207.5q-22 -32 -18 -45z" />
<glyph unicode="&#xc7;" horiz-adv-x="1480" d="M90 694q0 159 56.5 292.5t160 229t257 148.5t341.5 53q195 0 337 -46t147 -107q4 -38 -17 -293q-3 -27 -27 -40t-57 -13t-58 12t-26 33q-7 65 -27 118t-56 97.5t-96.5 69t-141.5 24.5q-194 0 -320.5 -148t-126.5 -389q0 -113 31.5 -208t84.5 -160t123.5 -110t147 -66 t156.5 -21q162 0 285 68q33 18 47 18q26 0 42.5 -23t16.5 -55q0 -37 -22 -59q-7 -7 -21.5 -18t-49 -30.5t-75.5 -36t-104.5 -32.5t-132.5 -22q-66 -6 -84 -43q-13 -25 -12 -32.5t22 -10.5q79 -10 110 -37t31 -76q0 -53 -46.5 -95.5t-105.5 -62.5t-110 -20q-22 0 -33.5 18.5 t-11.5 42.5q0 39 20 39q93 6 93 59q0 45 -95 45q-31 0 -47 16.5t-2 51.5q3 13 33 55q16 25 6 39t-39 19q-287 47 -445.5 232t-158.5 474z" />
<glyph unicode="&#xc8;" horiz-adv-x="1308" d="M84 61q0 30 17.5 52t45.5 18q62 -9 90.5 25t30.5 77q8 138 8.5 485.5t-8.5 506.5q-1 30 -32 37.5t-80 -0.5q-29 -3 -46.5 18t-17.5 51q0 27 17 46t47 18q141 -8 443.5 -9.5t473.5 7.5q113 6 103 -68q-17 -160 -21 -215q-3 -30 -26 -45.5t-52 -15.5q-28 0 -46.5 12.5 t-18.5 36.5q4 101 -63.5 133.5t-264.5 32.5q-100 0 -104 -97q-3 -46 -4.5 -164t2.5 -165q2 -30 12.5 -46.5t38.5 -19.5q17 -2 80.5 -1.5t85.5 3.5q47 5 67.5 27t20.5 80q0 28 20 43.5t47 15.5q30 0 50.5 -18t19.5 -50q-7 -163 -2 -327q1 -40 -20 -60t-52 -20 q-29 0 -49.5 16.5t-19.5 44.5q5 101 -82 111q-26 3 -86 3.5t-80 -1.5q-43 -6 -49 -68q-5 -69 -3 -163t9 -164q3 -61 33 -88t104 -27q71 0 111 6q91 7 155 66.5t86 152.5q7 31 26 46.5t44 15.5q37 0 62 -31t14 -78q-43 -142 -64 -272q-11 -37 -63 -39q-113 0 -307 5t-422 5 q-40 0 -118 -5t-95 -5q-32 -3 -50 17t-18 48zM354 1753q0 16 17 27.5t49 11.5h141q72 0 109 -37q139 -134 204 -186q27 -24 27 -41q0 -18 -19.5 -28.5t-43.5 -10.5q-56 0 -82.5 3t-46.5 17q-91 65 -326 203q-29 17 -29 41z" />
<glyph unicode="&#xc9;" horiz-adv-x="1308" d="M84 61q0 30 17.5 52t45.5 18q62 -9 90.5 25t30.5 77q8 138 8.5 485.5t-8.5 506.5q-1 30 -32 37.5t-80 -0.5q-29 -3 -46.5 18t-17.5 51q0 27 17 46t47 18q141 -8 443.5 -9.5t473.5 7.5q113 6 103 -68q-17 -160 -21 -215q-3 -30 -26 -45.5t-52 -15.5q-28 0 -46.5 12.5 t-18.5 36.5q4 101 -63.5 133.5t-264.5 32.5q-100 0 -104 -97q-3 -46 -4.5 -164t2.5 -165q2 -30 12.5 -46.5t38.5 -19.5q17 -2 80.5 -1.5t85.5 3.5q47 5 67.5 27t20.5 80q0 28 20 43.5t47 15.5q30 0 50.5 -18t19.5 -50q-7 -163 -2 -327q1 -40 -20 -60t-52 -20 q-29 0 -49.5 16.5t-19.5 44.5q5 101 -82 111q-26 3 -86 3.5t-80 -1.5q-43 -6 -49 -68q-5 -69 -3 -163t9 -164q3 -61 33 -88t104 -27q71 0 111 6q91 7 155 66.5t86 152.5q7 31 26 46.5t44 15.5q37 0 62 -31t14 -78q-43 -142 -64 -272q-11 -37 -63 -39q-113 0 -307 5t-422 5 q-40 0 -118 -5t-95 -5q-32 -3 -50 17t-18 48zM432 1528q0 17 27 41q97 78 205 186q40 37 110 37h139q32 0 50 -12.5t18 -28.5q0 -20 -29 -39q-240 -141 -325 -203q-34 -22 -90 -22q-6 0 -19 1t-20 1q-24 0 -45 11t-21 28z" />
<glyph unicode="&#xca;" horiz-adv-x="1308" d="M84 61q0 30 17.5 52t45.5 18q62 -9 90.5 25t30.5 77q8 138 8.5 485.5t-8.5 506.5q-1 30 -32 37.5t-80 -0.5q-29 -3 -46.5 18t-17.5 51q0 27 17 46t47 18q141 -8 443.5 -9.5t473.5 7.5q113 6 103 -68q-17 -160 -21 -215q-3 -30 -26 -45.5t-52 -15.5q-28 0 -46.5 12.5 t-18.5 36.5q4 101 -63.5 133.5t-264.5 32.5q-100 0 -104 -97q-3 -46 -4.5 -164t2.5 -165q2 -30 12.5 -46.5t38.5 -19.5q17 -2 80.5 -1.5t85.5 3.5q47 5 67.5 27t20.5 80q0 28 20 43.5t47 15.5q30 0 50.5 -18t19.5 -50q-7 -163 -2 -327q1 -40 -20 -60t-52 -20 q-29 0 -49.5 16.5t-19.5 44.5q5 101 -82 111q-26 3 -86 3.5t-80 -1.5q-43 -6 -49 -68q-5 -69 -3 -163t9 -164q3 -61 33 -88t104 -27q71 0 111 6q91 7 155 66.5t86 152.5q7 31 26 46.5t44 15.5q37 0 62 -31t14 -78q-43 -142 -64 -272q-11 -37 -63 -39q-113 0 -307 5t-422 5 q-40 0 -118 -5t-95 -5q-32 -3 -50 17t-18 48zM319 1534q0 20 19 33q53 45 93 80.5t81.5 74.5t67.5 62q29 26 88 26q64 0 90 -26q17 -15 51.5 -47.5t54 -50t56 -50t79.5 -67.5q17 -14 17 -33q0 -28 -28 -40.5t-64 -12.5q-42 0 -66 18q-70 53 -135 98q-31 17 -51 17 q-25 0 -56 -17q-35 -24 -78 -56t-57 -42q-27 -18 -71 -18q-91 0 -91 51z" />
<glyph unicode="&#xcb;" horiz-adv-x="1308" d="M84 61q0 30 17.5 52t45.5 18q62 -9 90.5 25t30.5 77q8 138 8.5 485.5t-8.5 506.5q-1 30 -32 37.5t-80 -0.5q-29 -3 -46.5 18t-17.5 51q0 27 17 46t47 18q141 -8 443.5 -9.5t473.5 7.5q113 6 103 -68q-17 -160 -21 -215q-3 -30 -26 -45.5t-52 -15.5q-28 0 -46.5 12.5 t-18.5 36.5q4 101 -63.5 133.5t-264.5 32.5q-100 0 -104 -97q-3 -46 -4.5 -164t2.5 -165q2 -30 12.5 -46.5t38.5 -19.5q17 -2 80.5 -1.5t85.5 3.5q47 5 67.5 27t20.5 80q0 28 20 43.5t47 15.5q30 0 50.5 -18t19.5 -50q-7 -163 -2 -327q1 -40 -20 -60t-52 -20 q-29 0 -49.5 16.5t-19.5 44.5q5 101 -82 111q-26 3 -86 3.5t-80 -1.5q-43 -6 -49 -68q-5 -69 -3 -163t9 -164q3 -61 33 -88t104 -27q71 0 111 6q91 7 155 66.5t86 152.5q7 31 26 46.5t44 15.5q37 0 62 -31t14 -78q-43 -142 -64 -272q-11 -37 -63 -39q-113 0 -307 5t-422 5 q-40 0 -118 -5t-95 -5q-32 -3 -50 17t-18 48zM250 1640q0 20 8 42t25.5 45.5t53 39t83.5 15.5q59 0 105 -42t46 -108q0 -62 -44.5 -100.5t-106.5 -38.5q-25 0 -52 7t-54.5 22.5t-45.5 46t-18 71.5zM780 1640q0 19 8.5 41.5t26.5 46t54 39t83 15.5q60 0 104 -42t44 -108 q0 -63 -43 -101t-105 -38q-26 0 -53.5 7t-55.5 23t-45.5 46t-17.5 71z" />
<glyph unicode="&#xcc;" horiz-adv-x="860" d="M76 68q0 28 14.5 46t42.5 17q28 -2 55 -3t48.5 14.5t27.5 47.5q14 91 12 533t-12 485q-6 31 -35.5 48t-74.5 10q-26 -3 -41 15t-15 46q0 29 17 50t47 18q265 -16 518 0q36 0 54 -19.5t18 -46.5t-16 -47.5t-38 -17.5q-55 7 -78.5 -7t-29.5 -51q-9 -32 -8.5 -472t14.5 -541 q6 -40 31.5 -52.5t97.5 -9.5q30 1 46.5 -17.5t16.5 -45.5q0 -29 -17 -51t-46 -21q-327 17 -578 0q-34 -3 -52.5 19t-18.5 53zM115 1753q0 16 16.5 27.5t48.5 11.5h142q71 0 108 -37q134 -129 205 -186q27 -24 27 -41q0 -18 -20 -28.5t-44 -10.5q-56 0 -82.5 3t-46.5 17 q-91 65 -326 203q-28 17 -28 41z" />
<glyph unicode="&#xcd;" horiz-adv-x="860" d="M76 68q0 28 14.5 46t42.5 17q28 -2 55 -3t48.5 14.5t27.5 47.5q14 91 12 533t-12 485q-6 31 -35.5 48t-74.5 10q-26 -3 -41 15t-15 46q0 29 17 50t47 18q265 -16 518 0q36 0 54 -19.5t18 -46.5t-16 -47.5t-38 -17.5q-55 7 -78.5 -7t-29.5 -51q-9 -32 -8.5 -472t14.5 -541 q6 -40 31.5 -52.5t97.5 -9.5q30 1 46.5 -17.5t16.5 -45.5q0 -29 -17 -51t-46 -21q-327 17 -578 0q-34 -3 -52.5 19t-18.5 53zM190 1528q0 17 27 41q97 78 205 186q40 37 110 37h140q32 0 49.5 -12.5t17.5 -28.5q0 -20 -28 -39q-245 -144 -326 -203q-34 -22 -90 -22 q-6 0 -19 1t-20 1q-24 0 -45 11t-21 28z" />
<glyph unicode="&#xce;" horiz-adv-x="860" d="M76 68q0 28 14.5 46t42.5 17q28 -2 55 -3t48.5 14.5t27.5 47.5q14 91 12 533t-12 485q-6 31 -35.5 48t-74.5 10q-26 -3 -41 15t-15 46q0 29 17 50t47 18q265 -16 518 0q36 0 54 -19.5t18 -46.5t-16 -47.5t-38 -17.5q-55 7 -78.5 -7t-29.5 -51q-9 -32 -8.5 -472t14.5 -541 q6 -40 31.5 -52.5t97.5 -9.5q30 1 46.5 -17.5t16.5 -45.5q0 -29 -17 -51t-46 -21q-327 17 -578 0q-34 -3 -52.5 19t-18.5 53zM80 1534q0 21 18 33q53 45 93 80.5t81.5 74.5t67.5 62q29 26 88 26q64 0 90 -26q12 -11 50.5 -47t56 -51.5t55 -48.5t80.5 -68q16 -13 16 -33 q0 -28 -28 -40.5t-64 -12.5q-42 0 -66 18q-70 53 -135 98q-31 17 -51 17q-24 0 -55 -17q-35 -24 -78 -56t-57 -42q-27 -18 -72 -18q-90 0 -90 51z" />
<glyph unicode="&#xcf;" horiz-adv-x="860" d="M8 1640q0 20 8 42t25.5 45.5t53 39t83.5 15.5q59 0 105.5 -42t46.5 -108q0 -62 -44.5 -100.5t-107.5 -38.5q-25 0 -52 7t-54.5 22.5t-45.5 46t-18 71.5zM76 68q0 28 14.5 46t42.5 17q28 -2 55 -3t48.5 14.5t27.5 47.5q14 91 12 533t-12 485q-6 31 -35.5 48t-74.5 10 q-26 -3 -41 15t-15 46q0 29 17 50t47 18q265 -16 518 0q36 0 54 -19.5t18 -46.5t-16 -47.5t-38 -17.5q-55 7 -78.5 -7t-29.5 -51q-9 -32 -8.5 -472t14.5 -541q6 -40 31.5 -52.5t97.5 -9.5q30 1 46.5 -17.5t16.5 -45.5q0 -29 -17 -51t-46 -21q-327 17 -578 0q-34 -3 -52.5 19 t-18.5 53zM539 1640q0 19 8.5 41.5t26.5 46t54 39t83 15.5q60 0 103.5 -41.5t43.5 -108.5q0 -63 -42.5 -101t-104.5 -38q-26 0 -53.5 7t-55.5 23t-45.5 46t-17.5 71z" />
<glyph unicode="&#xd0;" horiz-adv-x="1656" d="M72 66q0 28 17 47.5t46 15.5q55 -6 80.5 9.5t32.5 70.5q20 136 20 375q0 15 -3 23.5t-10 11.5t-11 3.5t-13 0.5l-86 -5q-26 -1 -39.5 18t-13.5 46q0 28 11.5 49t29.5 21h98q9 0 15.5 1.5t14 12t7.5 31.5q0 306 -16 407q-3 22 -8.5 34.5t-18.5 18t-21 7t-31 1.5t-34 1 q-22 0 -34.5 17t-12.5 42q0 27 16 46.5t46 19.5h544q155 0 286.5 -25.5t239 -78.5t182.5 -131.5t116 -189t41 -245.5q0 -342 -209 -532t-633 -189h-582q-33 -1 -50 18t-17 48zM575 590l7 -277q2 -48 12.5 -81.5t27 -53.5t44 -31t55 -14.5t67.5 -3.5q199 0 312.5 142.5 t113.5 404.5q0 96 -14 178t-50 159t-92 130.5t-145.5 86t-205.5 32.5q-69 0 -95.5 -20.5t-31.5 -74.5q-5 -56 -5 -364q0 -24 7 -36t14 -13.5t20 -1.5q52 0 107.5 2t108.5 4.5t69 3.5q22 1 35.5 -20.5t13.5 -49.5q0 -27 -13 -46t-36 -19q-41 -1 -131.5 0.5t-148.5 1.5 q-13 0 -20.5 -1t-16.5 -10.5t-9 -27.5z" />
<glyph unicode="&#xd1;" horiz-adv-x="1644" d="M86 63q0 29 17 49t49 19q24 -1 42.5 4t30.5 12.5t21 24t14 29.5t8.5 39.5t4.5 42.5t3 49q6 210 -4 682q-5 134 -30.5 192t-77.5 54q-29 -3 -47.5 17t-18.5 48t18.5 47.5t51.5 18.5q38 -1 141.5 -1t157.5 1q13 0 25 -3t24.5 -13t21 -16.5t22 -24t18.5 -23.5t19.5 -27 t16.5 -24q232 -333 562 -717q10 -11 22.5 -15t23 4t11.5 29q4 97 1.5 279.5t-7.5 263.5q-6 101 -36 132t-126 30q-28 -1 -44.5 18.5t-16.5 46.5t17.5 45.5t51.5 18.5q251 -8 416 0q37 0 56.5 -18.5t19.5 -45.5q0 -26 -16.5 -45.5t-41.5 -19.5q-61 0 -80 -38t-22 -134 q-15 -521 4 -1076q0 -22 -36.5 -34.5t-84.5 -12.5q-34 0 -62.5 7.5t-37.5 19.5q-144 205 -357.5 487t-334.5 430q-9 11 -23.5 17t-27.5 -2.5t-13 -36.5q0 -114 5.5 -312.5t11.5 -258.5q6 -69 12.5 -102.5t25 -58.5t49 -30t85.5 0q34 4 51.5 -17.5t17.5 -52.5 q0 -28 -14.5 -47t-40.5 -18q-204 15 -492 0q-26 -1 -41.5 19t-15.5 48zM436 1554q0 94 68 166t166 72q59 0 125.5 -25.5t118.5 -51t75 -25.5q27 0 42 9.5t28 39.5q17 28 63 28q32 0 57 -12.5t25 -30.5q0 -93 -67.5 -164t-163.5 -71q-60 0 -127 25.5t-119 51t-74 25.5 q-29 0 -43.5 -9t-27.5 -38q-16 -31 -66 -31q-30 0 -55 12t-25 29z" />
<glyph unicode="&#xd2;" horiz-adv-x="1699" d="M92 709q0 208 94 369t265.5 250t394.5 89q355 0 558.5 -188.5t203.5 -519.5q0 -158 -54 -293.5t-152 -233.5t-241.5 -153.5t-314.5 -55.5q-352 0 -553 200t-201 536zM426 784q0 -147 38 -272t102.5 -209t150.5 -131t182 -47q117 0 203 66t129 179t43 259q0 148 -38 270.5 t-102.5 202t-150.5 123t-182 43.5q-176 0 -275.5 -129.5t-99.5 -354.5zM530 1753q0 16 17 27.5t49 11.5h141q72 0 109 -37q134 -129 205 -186q26 -23 26 -41t-19.5 -28.5t-43.5 -10.5q-56 0 -82.5 3t-46.5 17q-91 65 -326 203q-29 17 -29 41z" />
<glyph unicode="&#xd3;" horiz-adv-x="1699" d="M92 709q0 208 94 369t265.5 250t394.5 89q355 0 558.5 -188.5t203.5 -519.5q0 -158 -54 -293.5t-152 -233.5t-241.5 -153.5t-314.5 -55.5q-352 0 -553 200t-201 536zM426 784q0 -147 38 -272t102.5 -209t150.5 -131t182 -47q117 0 203 66t129 179t43 259q0 148 -38 270.5 t-102.5 202t-150.5 123t-182 43.5q-176 0 -275.5 -129.5t-99.5 -354.5zM606 1528q0 17 27 41q97 78 205 186q40 37 110 37h139q32 0 50 -12.5t18 -28.5q0 -20 -29 -39q-240 -141 -325 -203q-34 -22 -90 -22q-6 0 -19 1t-20 1q-24 0 -45 11t-21 28z" />
<glyph unicode="&#xd4;" horiz-adv-x="1699" d="M92 709q0 208 94 369t265.5 250t394.5 89q355 0 558.5 -188.5t203.5 -519.5q0 -158 -54 -293.5t-152 -233.5t-241.5 -153.5t-314.5 -55.5q-352 0 -553 200t-201 536zM426 784q0 -147 38 -272t102.5 -209t150.5 -131t182 -47q117 0 203 66t129 179t43 259q0 148 -38 270.5 t-102.5 202t-150.5 123t-182 43.5q-176 0 -275.5 -129.5t-99.5 -354.5zM496 1534q0 21 18 33q53 45 93 80.5t81.5 74.5t67.5 62q29 26 88 26q64 0 90 -26q12 -11 50.5 -47t56 -51.5t55 -48.5t80.5 -68q16 -13 16 -33q0 -28 -28 -40.5t-64 -12.5q-42 0 -66 18q-70 53 -135 98 q-31 17 -51 17q-24 0 -55 -17q-36 -24 -80.5 -57t-55.5 -41q-27 -18 -71 -18q-90 0 -90 51z" />
<glyph unicode="&#xd5;" horiz-adv-x="1699" d="M92 709q0 208 94 369t265.5 250t394.5 89q355 0 558.5 -188.5t203.5 -519.5q0 -158 -54 -293.5t-152 -233.5t-241.5 -153.5t-314.5 -55.5q-352 0 -553 200t-201 536zM426 784q0 -147 38 -272t102.5 -209t150.5 -131t182 -47q117 0 203 66t129 179t43 259q0 148 -38 270.5 t-102.5 202t-150.5 123t-182 43.5q-176 0 -275.5 -129.5t-99.5 -354.5zM444 1554q0 94 68 166t166 72q59 0 125.5 -25.5t118.5 -51t75 -25.5q27 0 42 9.5t28 39.5q17 28 63 28q32 0 57 -12.5t25 -30.5q0 -93 -67.5 -164t-163.5 -71q-60 0 -127 25.5t-118.5 51t-73.5 25.5 q-29 0 -44 -9.5t-28 -37.5q-16 -31 -66 -31q-30 0 -55 12t-25 29z" />
<glyph unicode="&#xd6;" horiz-adv-x="1699" d="M92 709q0 208 94 369t265.5 250t394.5 89q355 0 558.5 -188.5t203.5 -519.5q0 -158 -54 -293.5t-152 -233.5t-241.5 -153.5t-314.5 -55.5q-352 0 -553 200t-201 536zM424 1640q0 20 8 42t25.5 45.5t53 39t83.5 15.5q59 0 105 -42t46 -108q0 -62 -44.5 -100.5 t-106.5 -38.5q-25 0 -52 7t-54.5 22.5t-45.5 46t-18 71.5zM426 784q0 -147 38 -272t102.5 -209t150.5 -131t182 -47q117 0 203 66t129 179t43 259q0 148 -38 270.5t-102.5 202t-150.5 123t-182 43.5q-176 0 -275.5 -129.5t-99.5 -354.5zM954 1640q0 19 8.5 41.5t26.5 46 t54 39t83 15.5q60 0 104 -42t44 -108q0 -63 -43 -101t-105 -38q-26 0 -53.5 7t-55.5 23t-45.5 46t-17.5 71z" />
<glyph unicode="&#xd7;" horiz-adv-x="1228" d="M227 870q0 39 33.5 70t69.5 31q22 0 41 -19q23 -28 91.5 -99.5t115.5 -115.5q42 -45 73 -14q122 122 199 221q25 31 59 31q35 0 63.5 -25t28.5 -61q0 -34 -28 -66q-160 -160 -207 -211q-15 -17 -17.5 -28.5t1.5 -18t18 -20.5q180 -174 199 -191q22 -22 22 -53 q0 -37 -30.5 -68.5t-65.5 -31.5q-30 0 -49 22q-19 19 -89.5 91.5t-97.5 99.5q-20 21 -35.5 25t-26 -1.5t-26.5 -21.5q-109 -105 -182 -189q-25 -28 -57 -28q-34 0 -62 30.5t-28 63.5q0 28 16 41q5 6 40 39.5t83.5 81t79.5 80.5q9 9 14.5 16.5t6.5 14.5t2 11t-3 11t-5.5 9 t-9 10t-9.5 11q-18 18 -95.5 92t-105.5 103q-27 27 -27 57z" />
<glyph unicode="&#xd8;" horiz-adv-x="1699" d="M92 709q0 208 94 369t265.5 250t394.5 89q131 0 260 -33q22 -9 44.5 -8t33.5 21l20 35q21 38 78 38q35 0 62.5 -15t27.5 -36q0 -10 -45 -76q-6 -9 -8.5 -17t-1.5 -15t3 -12t7.5 -10.5t9 -8t10 -7t7.5 -5.5q254 -190 254 -559q0 -158 -54 -293.5t-152 -233.5 t-241.5 -153.5t-314.5 -55.5q-217 0 -332 60q-17 6 -30 1t-21 -14l-8 -10q-45 -76 -99 -76q-26 0 -44.5 17.5t-18.5 44.5q0 37 16 57l23 31q22 29 -17 68q-223 198 -223 557zM426 784q0 -183 51 -317q15 -39 35.5 -63.5t38.5 -0.5q199 275 463 711q15 25 15.5 47t-6.5 33.5 t-17 17.5q-101 56 -205 56q-176 0 -275.5 -129.5t-99.5 -354.5zM641 223q104 -98 258 -98q117 0 203 66t129 179t43 259q0 243 -98 407q-8 14 -17 18t-19 -3.5t-14.5 -12.5t-13.5 -16q-330 -473 -467 -711q-32 -63 -4 -88z" />
<glyph unicode="&#xd9;" horiz-adv-x="1599" d="M49 1331q0 27 16 46t44 18q212 -16 546 0q36 0 54 -18.5t18 -45.5q0 -28 -16.5 -48t-42.5 -17q-111 10 -121 -68q-17 -337 -2 -635q5 -96 22.5 -166.5t54.5 -128.5t102.5 -88t158.5 -30q162 0 237.5 99.5t81.5 311.5q5 190 2 551q-2 84 -38 119.5t-134 32.5 q-28 -1 -43.5 19t-15.5 48t16 46.5t47 17.5q199 -15 443 0q37 1 55 -17.5t18 -46.5t-16 -48t-41 -19q-63 1 -88 -38t-29 -108q-4 -120 -4 -315.5v-243.5q-2 -134 -32.5 -237t-96.5 -183.5t-180.5 -123t-273.5 -42.5q-135 0 -237.5 32.5t-178 102.5t-115 186t-39.5 277v625 q0 39 -31.5 58t-80.5 14q-28 -4 -44 15.5t-16 47.5zM530 1753q0 16 17 27.5t49 11.5h141q72 0 109 -37q134 -129 205 -186q26 -23 26 -41t-19.5 -28.5t-43.5 -10.5q-56 0 -82.5 3t-46.5 17q-91 65 -326 203q-29 17 -29 41z" />
<glyph unicode="&#xda;" horiz-adv-x="1599" d="M49 1331q0 27 16 46t44 18q212 -16 546 0q36 0 54 -18.5t18 -45.5q0 -28 -16.5 -48t-42.5 -17q-111 10 -121 -68q-17 -337 -2 -635q5 -96 22.5 -166.5t54.5 -128.5t102.5 -88t158.5 -30q162 0 237.5 99.5t81.5 311.5q5 190 2 551q-2 84 -38 119.5t-134 32.5 q-28 -1 -43.5 19t-15.5 48t16 46.5t47 17.5q199 -15 443 0q37 1 55 -17.5t18 -46.5t-16 -48t-41 -19q-63 1 -88 -38t-29 -108q-4 -120 -4 -315.5v-243.5q-2 -134 -32.5 -237t-96.5 -183.5t-180.5 -123t-273.5 -42.5q-135 0 -237.5 32.5t-178 102.5t-115 186t-39.5 277v625 q0 39 -31.5 58t-80.5 14q-28 -4 -44 15.5t-16 47.5zM606 1528q0 17 27 41q97 78 205 186q40 37 110 37h139q32 0 50 -12.5t18 -28.5q0 -20 -29 -39q-240 -141 -325 -203q-34 -22 -90 -22q-6 0 -19 1t-20 1q-24 0 -45 11t-21 28z" />
<glyph unicode="&#xdb;" horiz-adv-x="1599" d="M49 1331q0 27 16 46t44 18q212 -16 546 0q36 0 54 -18.5t18 -45.5q0 -28 -16.5 -48t-42.5 -17q-111 10 -121 -68q-17 -337 -2 -635q5 -96 22.5 -166.5t54.5 -128.5t102.5 -88t158.5 -30q162 0 237.5 99.5t81.5 311.5q5 190 2 551q-2 84 -38 119.5t-134 32.5 q-28 -1 -43.5 19t-15.5 48t16 46.5t47 17.5q199 -15 443 0q37 1 55 -17.5t18 -46.5t-16 -48t-41 -19q-63 1 -88 -38t-29 -108q-4 -120 -4 -315.5v-243.5q-2 -134 -32.5 -237t-96.5 -183.5t-180.5 -123t-273.5 -42.5q-135 0 -237.5 32.5t-178 102.5t-115 186t-39.5 277v625 q0 39 -31.5 58t-80.5 14q-28 -4 -44 15.5t-16 47.5zM496 1534q0 21 18 33q53 45 93 80.5t81.5 74.5t67.5 62q29 26 88 26q64 0 90 -26q12 -11 50.5 -47t56 -51.5t55 -48.5t80.5 -68q16 -13 16 -33q0 -28 -28 -40.5t-64 -12.5q-42 0 -66 18q-70 53 -135 98q-31 17 -51 17 q-24 0 -55 -17q-36 -24 -80.5 -57t-55.5 -41q-27 -18 -71 -18q-90 0 -90 51z" />
<glyph unicode="&#xdc;" horiz-adv-x="1599" d="M49 1331q0 27 16 46t44 18q212 -16 546 0q36 0 54 -18.5t18 -45.5q0 -28 -16.5 -48t-42.5 -17q-111 10 -121 -68q-17 -337 -2 -635q5 -96 22.5 -166.5t54.5 -128.5t102.5 -88t158.5 -30q162 0 237.5 99.5t81.5 311.5q5 190 2 551q-2 84 -38 119.5t-134 32.5 q-28 -1 -43.5 19t-15.5 48t16 46.5t47 17.5q199 -15 443 0q37 1 55 -17.5t18 -46.5t-16 -48t-41 -19q-63 1 -88 -38t-29 -108q-4 -120 -4 -315.5v-243.5q-2 -134 -32.5 -237t-96.5 -183.5t-180.5 -123t-273.5 -42.5q-135 0 -237.5 32.5t-178 102.5t-115 186t-39.5 277v625 q0 39 -31.5 58t-80.5 14q-28 -4 -44 15.5t-16 47.5zM424 1640q0 20 8 42t25.5 45.5t53 39t83.5 15.5q59 0 105 -42t46 -108q0 -62 -44.5 -100.5t-106.5 -38.5q-25 0 -52 7t-54.5 22.5t-45.5 46t-18 71.5zM954 1640q0 19 8.5 41.5t26.5 46t54 39t83 15.5q60 0 104 -42 t44 -108q0 -63 -43 -101t-105 -38q-26 0 -53.5 7t-55.5 23t-45.5 46t-17.5 71z" />
<glyph unicode="&#xdd;" horiz-adv-x="1396" d="M-10 1333q0 27 16 46t45 16q114 -8 273 -7.5t264 7.5q37 1 56.5 -18t19.5 -46t-16.5 -47.5t-39.5 -19.5q-61 7 -83.5 -24t3.5 -75q89 -164 189 -295q39 -51 80 2q42 52 101 139t93 150q15 30 15.5 56t-26.5 40.5t-79 8.5q-28 -3 -44.5 18t-16.5 49q0 25 15 43.5t42 18.5 q40 -1 121 -3.5t122 -3.5t105 0.5t123 6.5q33 1 50.5 -16t17.5 -44q0 -28 -16.5 -49t-41.5 -20q-41 2 -79.5 -18t-56.5 -39t-40 -48q-78 -90 -194 -265t-134 -237q-12 -38 -12.5 -197.5t10.5 -252.5q9 -92 140 -78q32 3 48.5 -16.5t16.5 -48.5q0 -30 -17.5 -51.5 t-47.5 -18.5q-113 8 -296 7.5t-313 -9.5q-37 -3 -57 19t-20 53q0 28 17 47t46 18q29 0 60 -1t57.5 15t30.5 50q9 76 6 229t-15 192q-30 74 -159 275t-187 278q-32 49 -61 73.5t-70 23.5q-28 -1 -44.5 19t-16.5 48zM500 1528q0 18 26 41q97 78 205 186q40 37 111 37h139 q32 0 50 -12.5t18 -28.5q0 -20 -29 -39q-245 -144 -326 -203q-34 -22 -90 -22q-6 0 -19 1t-20 1q-24 0 -44.5 10.5t-20.5 28.5z" />
<glyph unicode="&#xde;" horiz-adv-x="1280" d="M82 1327q0 29 16.5 50t46.5 18q276 -17 539 0q37 0 55.5 -18.5t18.5 -45.5t-16.5 -47.5t-39.5 -19.5q-14 0 -42 2t-39 2q-21 0 -34.5 -18t-13.5 -44q0 -34 26.5 -48.5t82.5 -14.5q83 0 157.5 -12t146 -41.5t123 -74.5t83 -115.5t31.5 -160.5q0 -97 -28.5 -175t-76 -129 t-113.5 -85t-137 -48.5t-149 -14.5q-30 0 -44.5 12t-17.5 43q-6 52 58 66q196 45 196 294q0 145 -65.5 233t-206.5 81q-43 -1 -57.5 -23t-16.5 -65q-17 -359 10 -727q1 -15 4 -26.5t9 -18.5t10 -11.5t13.5 -7t13.5 -3.5t16.5 -2t15.5 -1q7 -3 27 -1.5t27 1.5q28 0 42.5 -19 t14.5 -46q0 -29 -15.5 -50t-41.5 -20q-296 16 -545 0q-30 -3 -46 17.5t-16 49.5q0 28 15 48.5t41 19.5q7 0 26 -2t29 -1t23 6.5t19.5 22.5t8.5 44q11 189 5 531.5t-23 475.5q-3 30 -34 47.5t-77 10.5q-26 -3 -40.5 15t-14.5 46z" />
<glyph unicode="&#xdf;" horiz-adv-x="1357" d="M61 899q0 30 15 50t41 20q30 0 55 13t41.5 32.5t31 48t22.5 51.5t18 53t16 43q22 52 47.5 94.5t66.5 86t90.5 73t121.5 48t157 18.5q98 0 177.5 -24.5t128 -66t74.5 -92t26 -106.5q0 -62 -29.5 -117t-72 -94.5t-84.5 -75t-71.5 -71.5t-29.5 -70q0 -24 16 -51t51.5 -59 t62 -52.5t75.5 -56.5q97 -68 154 -143.5t57 -174.5q0 -94 -56.5 -165t-139.5 -104.5t-175 -33.5q-127 0 -195.5 43.5t-68.5 118.5q0 41 22 68.5t70 27.5q25 0 44.5 -11.5t31 -27.5t22.5 -32t26 -27.5t34 -11.5q36 0 61 25t25 69q0 14 -3 28t-11 28.5t-15 26.5t-21 27.5 t-23.5 25.5t-28.5 27.5t-28.5 26t-31.5 27.5t-31 27q-99 87 -140.5 145t-41.5 119q0 47 25.5 95t61.5 89.5t72 83.5t61.5 91.5t25.5 99.5q0 85 -53 142.5t-140 57.5q-113 0 -159 -124t-54 -392q-11 -314 11 -690q0 -2 1 -8.5t1.5 -8.5t2 -7t3.5 -7l5.5 -5.5t8.5 -4.5t12 -3 t17 -2.5t22 -0.5q26 0 40 -17t14 -42q0 -28 -15 -51t-39 -23q-18 0 -88.5 4t-107.5 4q-25 0 -107.5 -4t-130.5 -4q-29 0 -45 19.5t-16 47.5q0 27 14 46.5t37 19.5q46 0 67.5 6.5t25.5 16.5t5 33v8q8 209 9.5 279.5t-5.5 287.5q-2 36 -15.5 51.5t-43.5 15.5h-49 q-28 0 -43 19.5t-15 52.5z" />
<glyph unicode="&#xe0;" horiz-adv-x="1089" d="M68 225q0 65 37 115.5t93 78.5t124 51t128.5 36t109.5 30.5t63 36.5q16 27 16 78q0 82 -34 126t-93 44q-47 0 -86 -17.5t-51 -45.5q-4 -14 3 -48.5t7 -47.5q0 -42 -32.5 -71.5t-100.5 -29.5q-69 0 -107.5 36.5t-38.5 90.5q0 74 71.5 139.5t184.5 103.5t234 38 q154 0 235.5 -81t81.5 -224q0 -23 -5 -129t-5 -168q0 -113 8 -143q15 -62 81 -61q13 1 28 3q19 3 32 -16.5t13 -47.5q0 -53 -39 -67q-50 -16 -134.5 -35.5t-129.5 -19.5q-17 0 -39.5 19.5t-40.5 53.5q-12 18 -29 10q-4 -1 -50 -25t-105 -41t-127 -17q-144 0 -223.5 70 t-79.5 175zM298 1451.5q9 21.5 46 21.5q4 0 71.5 1t90.5 1q38 0 57 -39q63 -135 164 -283q22 -31 -28 -51.5t-98 -9.5q-17 4 -26 12q-31 41 -74 91.5t-70.5 81t-70.5 76.5t-45 48q-26 29 -17 50.5zM362 250q0 -44 33.5 -82.5t98.5 -38.5q70 0 105 56t40 139v36t-9 41t-26 15 q-24 -5 -32 -7l-36 -9t-42 -13t-38 -16t-37.5 -21.5t-28.5 -26.5t-21.5 -33.5t-6.5 -39.5z" />
<glyph unicode="&#xe1;" horiz-adv-x="1089" d="M68 225q0 65 37 115.5t93 78.5t124 51t128.5 36t109.5 30.5t63 36.5q16 27 16 78q0 82 -34 126t-93 44q-47 0 -86 -17.5t-51 -45.5q-4 -14 3 -48.5t7 -47.5q0 -42 -32.5 -71.5t-100.5 -29.5q-69 0 -107.5 36.5t-38.5 90.5q0 74 71.5 139.5t184.5 103.5t234 38 q154 0 235.5 -81t81.5 -224q0 -23 -5 -129t-5 -168q0 -113 8 -143q15 -62 81 -61q13 1 28 3q19 3 32 -16.5t13 -47.5q0 -53 -39 -67q-50 -16 -134.5 -35.5t-129.5 -19.5q-17 0 -39.5 19.5t-40.5 53.5q-12 18 -29 10q-4 -1 -50 -25t-105 -41t-127 -17q-144 0 -223.5 70 t-79.5 175zM362 250q0 -44 33.5 -82.5t98.5 -38.5q70 0 105 56t40 139v36t-9 41t-26 15q-24 -5 -32 -7l-36 -9t-42 -13t-38 -16t-37.5 -21.5t-28.5 -26.5t-21.5 -33.5t-6.5 -39.5zM391 1137q0 7 6 16q93 137 166 283q17 39 58 39q22 0 89 -1t70 -1q23 0 36 -8.5t13 -22.5 q0 -18 -20 -41q-9 -10 -61 -66.5t-105 -117t-94 -113.5q-14 -14 -55 -14q-38 0 -70.5 13t-32.5 34z" />
<glyph unicode="&#xe2;" horiz-adv-x="1089" d="M68 225q0 65 37 115.5t93 78.5t124 51t128.5 36t109.5 30.5t63 36.5q16 27 16 78q0 82 -34 126t-93 44q-47 0 -86 -17.5t-51 -45.5q-4 -14 3 -48.5t7 -47.5q0 -42 -32.5 -71.5t-100.5 -29.5q-69 0 -107.5 36.5t-38.5 90.5q0 74 71.5 139.5t184.5 103.5t234 38 q154 0 235.5 -81t81.5 -224q0 -23 -5 -129t-5 -168q0 -113 8 -143q15 -62 81 -61q13 1 28 3q19 3 32 -16.5t13 -47.5q0 -53 -39 -67q-50 -16 -134.5 -35.5t-129.5 -19.5q-17 0 -39.5 19.5t-40.5 53.5q-12 18 -29 10q-4 -1 -50 -25t-105 -41t-127 -17q-144 0 -223.5 70 t-79.5 175zM262 1137q0 11 8 22q67 87 193 293q18 27 82 27q59 0 71 -25q119 -199 191 -295q6 -9 6 -20q0 -21 -26 -36.5t-58 -15.5q-39 0 -53 23q-76 98 -117 137q-10 13 -22 13q-11 0 -21 -13q-67 -71 -123 -141q-16 -19 -49 -19q-31 0 -56.5 14.5t-25.5 35.5zM362 250 q0 -44 33.5 -82.5t98.5 -38.5q70 0 105 56t40 139v36t-9 41t-26 15q-24 -5 -32 -7l-36 -9t-42 -13t-38 -16t-37.5 -21.5t-28.5 -26.5t-21.5 -33.5t-6.5 -39.5z" />
<glyph unicode="&#xe3;" horiz-adv-x="1089" d="M68 225q0 65 37 115.5t93 78.5t124 51t128.5 36t109.5 30.5t63 36.5q16 27 16 78q0 82 -34 126t-93 44q-47 0 -86 -17.5t-51 -45.5q-4 -14 3 -48.5t7 -47.5q0 -42 -32.5 -71.5t-100.5 -29.5q-69 0 -107.5 36.5t-38.5 90.5q0 74 71.5 139.5t184.5 103.5t234 38 q154 0 235.5 -81t81.5 -224q0 -23 -5 -129t-5 -168q0 -113 8 -143q15 -62 81 -61q13 1 28 3q19 3 32 -16.5t13 -47.5q0 -53 -39 -67q-50 -16 -134.5 -35.5t-129.5 -19.5q-17 0 -39.5 19.5t-40.5 53.5q-12 18 -29 10q-4 -1 -50 -25t-105 -41t-127 -17q-144 0 -223.5 70 t-79.5 175zM172 1194q0 89 63 162.5t154 73.5q56 0 117.5 -25t109.5 -50.5t70 -25.5q24 0 38.5 9.5t27.5 37.5q16 31 57 31q29 0 52.5 -13.5t23.5 -31.5q0 -90 -61.5 -162t-153.5 -72q-56 0 -118 25t-110 50.5t-69 25.5q-25 0 -39.5 -9t-28.5 -38q-15 -31 -57 -31 q-28 0 -52 13t-24 30zM362 250q0 -44 33.5 -82.5t98.5 -38.5q70 0 105 56t40 139v36t-9 41t-26 15q-24 -5 -32 -7l-36 -9t-42 -13t-38 -16t-37.5 -21.5t-28.5 -26.5t-21.5 -33.5t-6.5 -39.5z" />
<glyph unicode="&#xe4;" horiz-adv-x="1089" d="M68 225q0 65 37 115.5t93 78.5t124 51t128.5 36t109.5 30.5t63 36.5q16 27 16 78q0 82 -34 126t-93 44q-47 0 -86 -17.5t-51 -45.5q-4 -14 3 -48.5t7 -47.5q0 -42 -32.5 -71.5t-100.5 -29.5q-69 0 -107.5 36.5t-38.5 90.5q0 74 71.5 139.5t184.5 103.5t234 38 q154 0 235.5 -81t81.5 -224q0 -23 -5 -129t-5 -168q0 -113 8 -143q15 -62 81 -61q13 1 28 3q19 3 32 -16.5t13 -47.5q0 -53 -39 -67q-50 -16 -134.5 -35.5t-129.5 -19.5q-17 0 -39.5 19.5t-40.5 53.5q-12 18 -29 10q-4 -1 -50 -25t-105 -41t-127 -17q-144 0 -223.5 70 t-79.5 175zM195 1280q0 17 7 37t23 42.5t48 37t75 14.5q54 0 96.5 -39t42.5 -102q0 -58 -41 -93.5t-98 -35.5q-23 0 -47 6.5t-49 21t-41 43.5t-16 68zM362 250q0 -44 33.5 -82.5t98.5 -38.5q70 0 105 56t40 139v36t-9 41t-26 15q-24 -5 -32 -7l-36 -9t-42 -13t-38 -16 t-37.5 -21.5t-28.5 -26.5t-21.5 -33.5t-6.5 -39.5zM598 1280q0 17 8 37.5t24.5 42.5t49 36.5t74.5 14.5q55 0 95 -39t40 -102q0 -58 -39 -93.5t-96 -35.5q-23 0 -48 6.5t-50.5 21t-41.5 43.5t-16 68z" />
<glyph unicode="&#xe5;" horiz-adv-x="1089" d="M68 225q0 65 37 115.5t93 78.5t124 51t128.5 36t109.5 30.5t63 36.5q16 27 16 78q0 82 -34 126t-93 44q-47 0 -86 -17.5t-51 -45.5q-4 -14 3 -48.5t7 -47.5q0 -42 -32.5 -71.5t-100.5 -29.5q-69 0 -107.5 36.5t-38.5 90.5q0 74 71.5 139.5t184.5 103.5t234 38 q154 0 235.5 -81t81.5 -224q0 -23 -5 -129t-5 -168q0 -113 8 -143q15 -62 81 -61q13 1 28 3q19 3 32 -16.5t13 -47.5q0 -53 -39 -67q-50 -16 -134.5 -35.5t-129.5 -19.5q-17 0 -39.5 19.5t-40.5 53.5q-12 18 -29 10q-4 -1 -50 -25t-105 -41t-127 -17q-144 0 -223.5 70 t-79.5 175zM283 1296q0 100 76.5 163t181.5 63q100 0 175 -63.5t75 -149.5q0 -109 -74 -171.5t-178 -62.5q-111 0 -183.5 60t-72.5 161zM362 250q0 -44 33.5 -82.5t98.5 -38.5q70 0 105 56t40 139v36t-9 41t-26 15q-24 -5 -32 -7l-36 -9t-42 -13t-38 -16t-37.5 -21.5 t-28.5 -26.5t-21.5 -33.5t-6.5 -39.5zM408 1300q0 -54 35 -85t89 -31q58 0 95 32.5t37 90.5q0 43 -37 74.5t-88 31.5q-54 0 -92.5 -32t-38.5 -81z" />
<glyph unicode="&#xe6;" horiz-adv-x="1583" d="M68 225q0 64 37 114.5t93 79t124.5 52t129 37t109 30.5t62.5 35q16 23 16 72q0 86 -33.5 131t-93.5 45q-47 0 -86 -17.5t-51 -45.5q-4 -14 3 -48.5t7 -47.5q0 -42 -32.5 -71.5t-100.5 -29.5q-69 0 -107.5 36.5t-38.5 90.5q0 74 71.5 139.5t184.5 103.5t234 38 q129 0 221 -92q14 -16 23.5 -17.5t27.5 12.5q108 97 277 97q84 0 154.5 -29t115.5 -76.5t69.5 -107t24.5 -121.5q0 -48 -24.5 -83.5t-77.5 -39.5q-45 -3 -218 -9t-220 -9q-61 -3 -58 -70q3 -78 45 -137.5t103.5 -89t130.5 -29.5q119 0 205 78q17 14 35 14q26 0 44.5 -25 t18.5 -55q0 -22 -12 -37q-62 -81 -165 -121t-224 -40q-77 0 -137 10.5t-98.5 30t-59.5 35t-41 36.5q-19 15 -35 4q-2 -2 -28 -22.5t-37 -27.5t-43.5 -23.5t-62 -24t-77 -14t-102.5 -6.5q-144 0 -223.5 70t-79.5 175zM362 250q0 -53 40.5 -87t99.5 -34q61 1 97.5 54t39.5 141 v36t-9 41t-26 15q-24 -5 -32 -7l-36 -9t-42 -13t-38 -16t-37.5 -21.5t-28.5 -26.5t-21.5 -33.5t-6.5 -39.5zM937.5 630.5q7.5 -11.5 33.5 -12.5q120 -5 260 13q49 9 50 59q2 52 -42 95q-41 38 -94 38q-79 0 -133.5 -49.5t-73.5 -105.5q-8 -26 -0.5 -37.5z" />
<glyph unicode="&#xe7;" horiz-adv-x="1028" d="M72 457q0 228 152 370t403 142q91 0 167.5 -22t96.5 -40q33 -24 33 -272q0 -17 -24 -33t-50 -16q-42 0 -53 45q-41 184 -179 184q-102 0 -176.5 -81t-74.5 -220q0 -158 81.5 -251t217.5 -93q65 0 114 24t76 58q19 24 45 24q31 0 50 -31.5t7 -62.5q-36 -75 -107.5 -125 t-164.5 -71q-37 -7 -59.5 -17t-38.5 -32q-17 -23 -14.5 -31.5t24.5 -11.5q79 -10 111 -37t32 -76q0 -62 -75.5 -116.5t-182.5 -61.5q-24 -1 -36.5 18.5t-12.5 44.5q0 37 19 37q94 6 94 59q0 45 -96 45q-33 0 -48 20.5t-2 47.5q1 3 13 21t18 32q13 19 7.5 34t-18.5 24t-38 18 q-144 50 -227.5 173.5t-83.5 279.5z" />
<glyph unicode="&#xe8;" horiz-adv-x="1042" d="M74 451q0 143 62.5 259.5t185 187.5t282.5 71q111 0 196.5 -50t127 -125t41.5 -159q0 -48 -25 -83.5t-78 -39.5q-45 -3 -218 -9t-220 -9q-57 -3 -57 -64q0 -118 84 -190t194 -72q119 0 205 78q17 14 35 14q26 0 44.5 -24.5t18.5 -55.5q0 -22 -12 -37q-62 -81 -165 -121 t-222 -40q-98 0 -178.5 24.5t-135.5 67.5t-92.5 102.5t-55 128t-17.5 146.5zM314.5 1451.5q8.5 21.5 45.5 21.5q4 0 71.5 1t90.5 1q39 0 58 -39q66 -139 163 -283q22 -32 -28 -52t-98 -9q-17 4 -25 12q-31 41 -74 91.5t-70.5 81t-70.5 76.5t-45 48q-26 29 -17.5 50.5z M393 645q0 -27 37 -27q170 0 240.5 14t70.5 62q0 46 -39 87.5t-98 41.5q-86 0 -148.5 -64.5t-62.5 -113.5z" />
<glyph unicode="&#xe9;" horiz-adv-x="1042" d="M74 451q0 143 62.5 259.5t185 187.5t282.5 71q111 0 196.5 -50t127 -125t41.5 -159q0 -48 -25 -83.5t-78 -39.5q-45 -3 -218 -9t-220 -9q-57 -3 -57 -64q0 -118 84 -190t194 -72q119 0 205 78q17 14 35 14q26 0 44.5 -24.5t18.5 -55.5q0 -22 -12 -37q-62 -81 -165 -121 t-222 -40q-98 0 -178.5 24.5t-135.5 67.5t-92.5 102.5t-55 128t-17.5 146.5zM393 645q0 -27 37 -27q170 0 240.5 14t70.5 62q0 46 -39 87.5t-98 41.5q-86 0 -148.5 -64.5t-62.5 -113.5zM422 1137q0 7 6 16q93 137 166 283q10 23 23 31t34 8q22 0 89.5 -1t70.5 -1 q23 0 36 -8.5t13 -22.5q0 -18 -20 -41q-9 -10 -61 -66.5t-105 -117t-94 -113.5q-14 -14 -56 -14q-38 0 -70 13t-32 34z" />
<glyph unicode="&#xea;" horiz-adv-x="1042" d="M74 451q0 143 62.5 259.5t185 187.5t282.5 71q111 0 196.5 -50t127 -125t41.5 -159q0 -48 -25 -83.5t-78 -39.5q-45 -3 -218 -9t-220 -9q-57 -3 -57 -64q0 -118 84 -190t194 -72q119 0 205 78q17 14 35 14q26 0 44.5 -24.5t18.5 -55.5q0 -22 -12 -37q-62 -81 -165 -121 t-222 -40q-98 0 -178.5 24.5t-135.5 67.5t-92.5 102.5t-55 128t-17.5 146.5zM295 1137q0 11 8 22q67 87 193 293q18 27 82 27q58 0 71 -25q119 -199 191 -295q6 -9 6 -20q0 -21 -26 -36.5t-58 -15.5q-39 0 -53 23q-76 98 -117 137q-10 13 -23 13q-10 0 -20 -13 q-67 -71 -123 -141q-16 -19 -49 -19q-31 0 -56.5 14.5t-25.5 35.5zM393 645q0 -27 37 -27q170 0 240.5 14t70.5 62q0 46 -39 87.5t-98 41.5q-86 0 -148.5 -64.5t-62.5 -113.5z" />
<glyph unicode="&#xeb;" horiz-adv-x="1042" d="M74 451q0 143 62.5 259.5t185 187.5t282.5 71q111 0 196.5 -50t127 -125t41.5 -159q0 -48 -25 -83.5t-78 -39.5q-45 -3 -218 -9t-220 -9q-57 -3 -57 -64q0 -118 84 -190t194 -72q119 0 205 78q17 14 35 14q26 0 44.5 -24.5t18.5 -55.5q0 -22 -12 -37q-62 -81 -165 -121 t-222 -40q-98 0 -178.5 24.5t-135.5 67.5t-92.5 102.5t-55 128t-17.5 146.5zM227 1280q0 17 7.5 37.5t23 42.5t48 36.5t75.5 14.5q54 0 96.5 -39t42.5 -102q0 -58 -41 -93.5t-98 -35.5q-23 0 -47 6.5t-49.5 21t-41.5 43.5t-16 68zM393 645q0 -27 37 -27q170 0 240.5 14 t70.5 62q0 46 -39 87.5t-98 41.5q-86 0 -148.5 -64.5t-62.5 -113.5zM631 1280q0 17 7.5 37.5t24 42.5t49 36.5t74.5 14.5q55 0 95.5 -39t40.5 -102q0 -58 -39.5 -93.5t-96.5 -35.5q-23 0 -47.5 6.5t-50 21t-41.5 43.5t-16 68z" />
<glyph unicode="&#xec;" horiz-adv-x="722" d="M63 61q0 28 16 48.5t42 19.5q26 -2 44.5 -2t32 14.5t23.5 48.5q17 61 15 304.5t-15 287.5q-7 24 -23 28t-69 1q-25 -1 -40 19.5t-15 48.5q0 27 14.5 46t40.5 19q220 2 340 29q56 -11 49 -76q-10 -113 -4.5 -366.5t16.5 -335.5q0 -2 1 -7q3 -24 8 -35.5t26.5 -19.5 t63.5 -4q30 3 45.5 -14.5t15.5 -46.5t-16 -51t-43 -21q-280 15 -500 -2q-32 -3 -50 17.5t-18 49.5zM108 1451.5q9 21.5 46 21.5q4 0 71 1t90 1q39 0 58 -39q63 -135 164 -283q22 -31 -28 -51.5t-98 -9.5q-17 4 -26 12q-31 41 -74 91.5t-70.5 81t-70.5 76.5t-45 48 q-26 29 -17 50.5z" />
<glyph unicode="&#xed;" horiz-adv-x="722" d="M63 61q0 28 16 48.5t42 19.5q26 -2 44.5 -2t32 14.5t23.5 48.5q17 61 15 304.5t-15 287.5q-7 24 -23 28t-69 1q-25 -1 -40 19.5t-15 48.5q0 27 14.5 46t40.5 19q220 2 340 29q56 -11 49 -76q-10 -113 -4.5 -366.5t16.5 -335.5q0 -2 1 -7q3 -24 8 -35.5t26.5 -19.5 t63.5 -4q30 3 45.5 -14.5t15.5 -46.5t-16 -51t-43 -21q-280 15 -500 -2q-32 -3 -50 17.5t-18 49.5zM201 1137q0 7 6 16q93 137 166 283q10 23 23 31t34 8q22 0 89.5 -1t70.5 -1q23 0 36 -8.5t13 -22.5q0 -16 -21 -41q-9 -10 -61 -66.5t-105 -117t-94 -113.5q-14 -14 -55 -14 q-38 0 -70 13t-32 34z" />
<glyph unicode="&#xee;" horiz-adv-x="722" d="M63 61q0 28 16 48.5t42 19.5q26 -2 44.5 -2t32 14.5t23.5 48.5q17 61 15 304.5t-15 287.5q-7 24 -23 28t-69 1q-25 -1 -40 19.5t-15 48.5q0 27 14.5 46t40.5 19q220 2 340 29q56 -11 49 -76q-10 -113 -4.5 -366.5t16.5 -335.5q0 -2 1 -7q3 -24 8 -35.5t26.5 -19.5 t63.5 -4q30 3 45.5 -14.5t15.5 -46.5t-16 -51t-43 -21q-280 15 -500 -2q-32 -3 -50 17.5t-18 49.5zM72 1137q0 11 8 22q63 81 192 293q18 27 82 27q60 0 72 -25q123 -205 190 -295q7 -11 7 -20q0 -21 -26 -36.5t-58 -15.5q-40 0 -54 23q-79 102 -116 137q-10 13 -23 13 q-10 0 -20 -13q-67 -71 -123 -141q-16 -19 -49 -19q-31 0 -56.5 14.5t-25.5 35.5z" />
<glyph unicode="&#xef;" horiz-adv-x="722" d="M4 1280q0 17 7.5 37.5t23 42.5t48 36.5t75.5 14.5q54 0 96.5 -39t42.5 -102q0 -58 -41 -93.5t-98 -35.5q-23 0 -47 6.5t-49.5 21t-41.5 43.5t-16 68zM63 61q0 28 16 48.5t42 19.5q26 -2 44.5 -2t32 14.5t23.5 48.5q17 61 15 304.5t-15 287.5q-7 24 -23 28t-69 1 q-25 -1 -40 19.5t-15 48.5q0 27 14.5 46t40.5 19q220 2 340 29q56 -11 49 -76q-10 -113 -4.5 -366.5t16.5 -335.5q0 -2 1 -7q3 -24 8 -35.5t26.5 -19.5t63.5 -4q30 3 45.5 -14.5t15.5 -46.5t-16 -51t-43 -21q-280 15 -500 -2q-32 -3 -50 17.5t-18 49.5zM408 1280 q0 17 7.5 37.5t24 42.5t49 36.5t74.5 14.5q55 0 95 -39t40 -102q0 -58 -39 -93.5t-96 -35.5q-23 0 -47.5 6.5t-50 21t-41.5 43.5t-16 68z" />
<glyph unicode="&#xf0;" horiz-adv-x="1230" d="M74 463q0 106 37 199.5t98.5 157.5t143 101t169.5 37q38 0 72.5 -8t63 -32.5t28.5 -61.5q0 -33 -22 -63.5t-56 -30.5q-30 0 -71.5 18.5t-63.5 18.5q-56 0 -81 -48t-25 -141q0 -225 76 -357t186 -132q82 0 139 86t57 246q0 407 -182 663q-22 35 -59 14q-31 -16 -61.5 -34 t-48 -28.5t-28.5 -14.5q-12 -6 -24 -6q-30 0 -54 26.5t-24 56.5q0 32 29 44q32 13 104 53q20 14 19 30.5t-19 30.5q-8 6 -25.5 18.5t-25.5 18.5q-98 66 -98 119q0 31 22 56.5t53 25.5q30 0 67.5 -12.5t63 -25t72.5 -39t66 -36.5q42 -25 88 -4q21 9 53 26.5t54 30.5l22 13 q16 8 26 8q32 0 60.5 -28.5t28.5 -59.5q0 -32 -31 -45q-11 -5 -34 -15t-39 -18t-34 -18q-32 -16 0 -48q126 -128 201.5 -293t75.5 -358q0 -179 -66 -321t-194.5 -226t-300.5 -84q-222 0 -365 131t-143 359z" />
<glyph unicode="&#xf1;" horiz-adv-x="1357" d="M68 803q0 42 38 55q47 18 151.5 52t121.5 34q40 0 76 -104q19 -55 57 -21q33 29 60.5 49t72 45t98.5 38.5t113 13.5q156 0 242 -96.5t82 -268.5q-1 -57 -5 -198.5t-4 -208.5q0 -35 17.5 -53t71.5 -13q30 3 45.5 -15.5t15.5 -45.5q0 -29 -16 -51t-45 -19q-241 19 -437 0 q-30 -4 -47.5 19.5t-17.5 54.5q0 27 13 43.5t38 13.5q37 -5 53 8.5t19 57.5q8 139 8 397q0 110 -43 158.5t-103 48.5q-91 0 -155 -80.5t-70 -200.5q-9 -195 4 -317q3 -19 6 -30t10 -23t21 -16.5t35 -2.5q28 3 42.5 -14.5t14.5 -44.5q0 -29 -15.5 -50t-41.5 -20 q-302 11 -457 0q-32 -4 -48.5 14t-16.5 47t16.5 50.5t42.5 17.5q97 -11 102 70q6 55 4.5 224.5t-10.5 240.5q-10 61 -33.5 77t-68.5 2q-22 -6 -39.5 14.5t-17.5 47.5zM354 1194q0 89 63 162.5t154 73.5q56 0 117.5 -25t109.5 -50.5t70 -25.5q24 0 38.5 9.5t27.5 37.5 q16 31 57 31q29 0 52.5 -13.5t23.5 -31.5q0 -90 -61.5 -162t-153.5 -72q-56 0 -118 25t-110 50.5t-69 25.5q-25 0 -39.5 -9t-28.5 -38q-15 -31 -57 -31q-28 0 -52 13t-24 30z" />
<glyph unicode="&#xf2;" horiz-adv-x="1191" d="M74 451q0 128 42 228.5t116.5 163t170.5 94.5t209 32q107 0 198 -30.5t160 -89t108.5 -152.5t39.5 -214q0 -238 -147 -374t-385 -136q-145 0 -260 55t-183.5 165t-68.5 258zM369 539q0 -103 32 -195.5t94 -152.5t140 -60q190 0 190 266q0 60 -13.5 127.5t-42 136 t-82.5 113.5t-124 45q-89 0 -141.5 -74t-52.5 -206zM372 1451.5q9 21.5 46 21.5q4 0 71.5 1t90.5 1q38 0 57 -39q63 -135 164 -283q22 -31 -28 -51.5t-98 -9.5q-17 4 -26 12q-31 41 -74 91.5t-70.5 81t-70.5 76.5t-45 48q-26 29 -17 50.5z" />
<glyph unicode="&#xf3;" horiz-adv-x="1191" d="M74 451q0 128 42 228.5t116.5 163t170.5 94.5t209 32q107 0 198 -30.5t160 -89t108.5 -152.5t39.5 -214q0 -238 -147 -374t-385 -136q-145 0 -260 55t-183.5 165t-68.5 258zM369 539q0 -103 32 -195.5t94 -152.5t140 -60q190 0 190 266q0 60 -13.5 127.5t-42 136 t-82.5 113.5t-124 45q-89 0 -141.5 -74t-52.5 -206zM465 1137q0 7 6 16q93 137 166 283q10 23 23 31t34 8q22 0 89.5 -1t70.5 -1q23 0 36 -8.5t13 -22.5q0 -18 -20 -41q-9 -10 -61 -66.5t-105 -117t-94 -113.5q-14 -14 -56 -14q-38 0 -70 13t-32 34z" />
<glyph unicode="&#xf4;" horiz-adv-x="1191" d="M74 451q0 128 42 228.5t116.5 163t170.5 94.5t209 32q107 0 198 -30.5t160 -89t108.5 -152.5t39.5 -214q0 -238 -147 -374t-385 -136q-145 0 -260 55t-183.5 165t-68.5 258zM336 1137q0 11 8 22q67 87 193 293q18 27 81 27q60 0 72 -25q119 -199 191 -295q6 -9 6 -20 q0 -21 -26 -36.5t-58 -15.5q-39 0 -53 23q-76 98 -117 137q-10 13 -23 13q-10 0 -20 -13q-67 -71 -123 -141q-16 -19 -49 -19q-31 0 -56.5 14.5t-25.5 35.5zM369 539q0 -103 32 -195.5t94 -152.5t140 -60q190 0 190 266q0 60 -13.5 127.5t-42 136t-82.5 113.5t-124 45 q-89 0 -141.5 -74t-52.5 -206z" />
<glyph unicode="&#xf5;" horiz-adv-x="1191" d="M74 451q0 128 42 228.5t116.5 163t170.5 94.5t209 32q107 0 198 -30.5t160 -89t108.5 -152.5t39.5 -214q0 -238 -147 -374t-385 -136q-145 0 -260 55t-183.5 165t-68.5 258zM246 1194q0 89 63 162.5t154 73.5q56 0 117.5 -25t109.5 -50.5t70 -25.5q24 0 38 9.5t27 37.5 q15 31 58 31q29 0 52 -13.5t23 -31.5q0 -90 -61.5 -162t-153.5 -72q-56 0 -118 25t-110 50.5t-69 25.5q-25 0 -39 -9t-28 -38q-15 -31 -57 -31q-28 0 -52 13t-24 30zM369 539q0 -103 32 -195.5t94 -152.5t140 -60q190 0 190 266q0 60 -13.5 127.5t-42 136t-82.5 113.5 t-124 45q-89 0 -141.5 -74t-52.5 -206z" />
<glyph unicode="&#xf6;" horiz-adv-x="1191" d="M74 451q0 128 42 228.5t116.5 163t170.5 94.5t209 32q107 0 198 -30.5t160 -89t108.5 -152.5t39.5 -214q0 -238 -147 -374t-385 -136q-145 0 -260 55t-183.5 165t-68.5 258zM268 1280q0 17 7.5 37.5t23 42.5t48 36.5t75.5 14.5q54 0 96.5 -39t42.5 -102q0 -58 -41 -93.5 t-98 -35.5q-23 0 -47 6.5t-49.5 21t-41.5 43.5t-16 68zM369 539q0 -103 32 -195.5t94 -152.5t140 -60q190 0 190 266q0 60 -13.5 127.5t-42 136t-82.5 113.5t-124 45q-89 0 -141.5 -74t-52.5 -206zM672 1280q0 17 7.5 37.5t24 42.5t49 36.5t74.5 14.5q55 0 95.5 -39 t40.5 -102q0 -58 -39.5 -93.5t-96.5 -35.5q-23 0 -47.5 6.5t-50 21t-41.5 43.5t-16 68z" />
<glyph unicode="&#xf7;" horiz-adv-x="1228" d="M162 563q0 33 19.5 59t54.5 27q53 2 191.5 0t321 0.5t236.5 12.5q34 6 58 -24t24 -69q0 -33 -20.5 -55t-63.5 -22q-679 0 -739 -7q-38 -4 -60 19.5t-22 58.5zM451 201q0 71 43 112t112 41q78 0 118 -37t40 -108q0 -68 -41.5 -113t-116.5 -45q-72 0 -113.5 42t-41.5 108z M451 954q0 70 43 110t112 40q158 0 158 -143q0 -68 -41.5 -113t-116.5 -45q-72 0 -113.5 42.5t-41.5 108.5z" />
<glyph unicode="&#xf8;" horiz-adv-x="1191" d="M74 451q0 128 42 228.5t116.5 163t170.5 94.5t209 32q44 0 84 -6q34 -3 51.5 2.5t24.5 27.5l10 25q22 51 80 51q26 0 45 -12.5t19 -32.5q0 -9 -33 -68q-11 -24 1 -42.5t46 -41.5q178 -131 178 -389q0 -238 -147 -374t-385 -136q-37 0 -88 7q-40 6 -57 1t-27 -28 q-16 -38 -35 -56t-51 -18q-66 0 -66 39q0 17 23 55q28 54 -27 97q-184 139 -184 381zM365 475q8 -88 36 -149q9 -18 15.5 -27t17 -8.5t21.5 18.5q10 19 49.5 93.5t63.5 120t51 102.5t36 86q14 38 9 64t-35 36q-24 8 -72 8q-98 -3 -151.5 -95.5t-40.5 -248.5zM528 221 q-21 -52 35 -76q42 -17 80 -14q60 2 100.5 31.5t59.5 78t25 102.5t1 116q-3 78 -32 151q-7 17 -12 25.5t-13.5 14t-18 -2.5t-22.5 -29q-37 -63 -107.5 -201.5t-95.5 -195.5z" />
<glyph unicode="&#xf9;" horiz-adv-x="1296" d="M41 877q0 27 16.5 47t46.5 20q121 -3 291 19q62 9 76 -23q7 -17 8 -53t-1.5 -98.5t-2.5 -92.5q0 -34 -1.5 -123t-1 -153.5t4.5 -110.5q6 -75 36.5 -112t90.5 -37q69 0 131.5 64.5t69.5 174.5q11 205 8 322q-2 58 -21 77t-75 15q-29 -3 -45.5 17t-16.5 49q0 26 16 45.5 t42 19.5q189 0 319 19q18 5 40 -3t26 -28q6 -32 2 -197q-10 -338 -4 -452q5 -76 24.5 -101.5t81.5 -15.5q20 3 33.5 -15.5t13.5 -44.5q0 -51 -43 -73q-31 -15 -135 -34t-125 -19q-18 0 -45.5 27.5t-44.5 82.5q-16 47 -72 6q-139 -114 -313 -116q-146 -1 -215 84t-72 243 q-1 30 1 186.5t1 215.5q-4 66 -15 84q-17 26 -67 20q-29 -4 -46 15.5t-17 48.5zM388.5 1451.5q8.5 21.5 45.5 21.5q4 0 71.5 1t90.5 1q38 0 57 -39q63 -135 164 -283q22 -32 -28 -52t-98 -9q-17 4 -25 12q-31 41 -74 91.5t-70.5 81t-70.5 76.5t-45 48q-26 29 -17.5 50.5z " />
<glyph unicode="&#xfa;" horiz-adv-x="1296" d="M41 877q0 27 16.5 47t46.5 20q121 -3 291 19q62 9 76 -23q7 -17 8 -53t-1.5 -98.5t-2.5 -92.5q0 -34 -1.5 -123t-1 -153.5t4.5 -110.5q6 -75 36.5 -112t90.5 -37q69 0 131.5 64.5t69.5 174.5q11 205 8 322q-2 58 -21 77t-75 15q-29 -3 -45.5 17t-16.5 49q0 26 16 45.5 t42 19.5q189 0 319 19q18 5 40 -3t26 -28q6 -32 2 -197q-10 -338 -4 -452q5 -76 24.5 -101.5t81.5 -15.5q20 3 33.5 -15.5t13.5 -44.5q0 -51 -43 -73q-31 -15 -135 -34t-125 -19q-18 0 -45.5 27.5t-44.5 82.5q-16 47 -72 6q-139 -114 -313 -116q-146 -1 -215 84t-72 243 q-1 30 1 186.5t1 215.5q-4 66 -15 84q-17 26 -67 20q-29 -4 -46 15.5t-17 48.5zM481 1137q0 7 6 16q93 137 166 283q17 39 58 39q22 0 89 -1t70 -1q23 0 36.5 -8.5t13.5 -22.5q0 -16 -21 -41q-9 -10 -61 -66.5t-105 -117t-94 -113.5q-14 -14 -55 -14q-38 0 -70.5 13 t-32.5 34z" />
<glyph unicode="&#xfb;" horiz-adv-x="1296" d="M41 877q0 27 16.5 47t46.5 20q121 -3 291 19q62 9 76 -23q7 -17 8 -53t-1.5 -98.5t-2.5 -92.5q0 -34 -1.5 -123t-1 -153.5t4.5 -110.5q6 -75 36.5 -112t90.5 -37q69 0 131.5 64.5t69.5 174.5q11 205 8 322q-2 58 -21 77t-75 15q-29 -3 -45.5 17t-16.5 49q0 26 16 45.5 t42 19.5q189 0 319 19q18 5 40 -3t26 -28q6 -32 2 -197q-10 -338 -4 -452q5 -76 24.5 -101.5t81.5 -15.5q20 3 33.5 -15.5t13.5 -44.5q0 -51 -43 -73q-31 -15 -135 -34t-125 -19q-18 0 -45.5 27.5t-44.5 82.5q-16 47 -72 6q-139 -114 -313 -116q-146 -1 -215 84t-72 243 q-1 30 1 186.5t1 215.5q-4 66 -15 84q-17 26 -67 20q-29 -4 -46 15.5t-17 48.5zM354 1137q0 11 8 22q67 87 193 293q18 27 82 27q59 0 72 -25q123 -205 190 -295q6 -9 6 -20q0 -21 -26 -36.5t-58 -15.5q-39 0 -53 23q-76 98 -117 137q-10 13 -22 13q-11 0 -21 -13 q-67 -71 -123 -141q-16 -19 -49 -19q-31 0 -56.5 14.5t-25.5 35.5z" />
<glyph unicode="&#xfc;" horiz-adv-x="1296" d="M41 877q0 27 16.5 47t46.5 20q121 -3 291 19q62 9 76 -23q7 -17 8 -53t-1.5 -98.5t-2.5 -92.5q0 -34 -1.5 -123t-1 -153.5t4.5 -110.5q6 -75 36.5 -112t90.5 -37q69 0 131.5 64.5t69.5 174.5q11 205 8 322q-2 58 -21 77t-75 15q-29 -3 -45.5 17t-16.5 49q0 26 16 45.5 t42 19.5q189 0 319 19q18 5 40 -3t26 -28q6 -32 2 -197q-10 -338 -4 -452q5 -76 24.5 -101.5t81.5 -15.5q20 3 33.5 -15.5t13.5 -44.5q0 -51 -43 -73q-31 -15 -135 -34t-125 -19q-18 0 -45.5 27.5t-44.5 82.5q-16 47 -72 6q-139 -114 -313 -116q-146 -1 -215 84t-72 243 q-1 30 1 186.5t1 215.5q-4 66 -15 84q-17 26 -67 20q-29 -4 -46 15.5t-17 48.5zM287 1280q0 17 7 37t23 42.5t48 37t75 14.5q55 0 97.5 -39t42.5 -102q0 -58 -41.5 -93.5t-98.5 -35.5q-23 0 -47 6.5t-49 21t-41 43.5t-16 68zM690 1280q0 17 8 37.5t24.5 42.5t49 36.5 t74.5 14.5q55 0 95 -39t40 -102q0 -58 -39 -93.5t-96 -35.5q-23 0 -48 6.5t-50.5 21t-41.5 43.5t-16 68z" />
<glyph unicode="&#xfd;" horiz-adv-x="1181" d="M-8 887q0 27 15.5 44.5t45.5 16.5q283 -11 461 0q41 1 61.5 -17t20.5 -44t-16.5 -45.5t-40.5 -18.5q-55 4 -66 -18.5t8 -65.5q21 -75 62.5 -166.5t68.5 -134.5q21 -32 50 -31t45 27q48 81 120 293q20 48 9 75t-72 21q-28 -3 -45 17t-17 47q0 25 16.5 43t45.5 18 q239 -5 360 0q32 1 48 -16.5t16 -44.5t-14 -46t-39 -18q-30 1 -53 -6t-41 -26t-27.5 -33t-24.5 -41q-71 -141 -323 -746q-159 -389 -400 -389q-79 0 -123.5 39t-44.5 94q0 22 7 41t16.5 32t28 25.5t32.5 19.5t39 14.5t39 11t41 10t37 8.5q74 17 119 58.5t51 91.5 q-8 78 -127 319t-229 432q-15 28 -39 38.5t-70 8.5q-23 -1 -37 18t-14 44zM500 1137q0 7 6 16q93 137 166 283q10 23 23 31t34 8q22 0 89.5 -1t70.5 -1q23 0 36 -8.5t13 -22.5q0 -18 -20 -41q-10 -11 -61.5 -67t-105 -116.5t-94.5 -113.5q-14 -14 -55 -14q-38 0 -70 13 t-32 34z" />
<glyph unicode="&#xfe;" horiz-adv-x="1183" d="M0 1409q0 25 14 43t39 18q78 1 150 12.5t109 24.5t73 23q57 -23 53 -86q-14 -318 -10 -461q0 -34 5.5 -52t17 -20t20.5 1t23 12q77 45 188 45q182 0 305 -135t123 -340q0 -136 -52.5 -253.5t-157.5 -192.5t-241 -75q-75 0 -112 29t-37 68q0 24 12 39.5t37 15.5 q4 0 19.5 -1t29.5 -1q33 0 54 6q63 16 101 94.5t38 229.5q0 161 -49.5 253.5t-153.5 92.5q-74 0 -114.5 -48.5t-47.5 -121.5q-8 -95 -8 -403.5t8 -418.5q3 -39 23.5 -55.5t89.5 -13.5q28 0 43.5 -21t15.5 -49q0 -30 -15.5 -50t-43.5 -19q-273 15 -479 2q-32 -4 -50 16.5 t-18 50.5q0 28 15.5 48.5t41.5 19.5q43 -3 65.5 13t25.5 69q5 97 5 644t-8 820q-1 42 -20 54t-64 7q-29 -4 -46 16.5t-17 49.5z" />
<glyph unicode="&#xff;" horiz-adv-x="1181" d="M-8 887q0 27 15.5 44.5t45.5 16.5q283 -11 461 0q41 1 61.5 -17t20.5 -44t-16.5 -45.5t-40.5 -18.5q-55 4 -66 -18.5t8 -65.5q21 -75 62.5 -166.5t68.5 -134.5q21 -32 50 -31t45 27q48 81 120 293q20 48 9 75t-72 21q-28 -3 -45 17t-17 47q0 25 16.5 43t45.5 18 q239 -5 360 0q32 1 48 -16.5t16 -44.5t-14 -46t-39 -18q-30 1 -53 -6t-41 -26t-27.5 -33t-24.5 -41q-71 -141 -323 -746q-159 -389 -400 -389q-79 0 -123.5 39t-44.5 94q0 22 7 41t16.5 32t28 25.5t32.5 19.5t39 14.5t39 11t41 10t37 8.5q74 17 119 58.5t51 91.5 q-8 78 -127 319t-229 432q-15 28 -39 38.5t-70 8.5q-23 -1 -37 18t-14 44zM303 1280q0 17 7.5 37.5t23 42.5t48 36.5t75.5 14.5q54 0 96.5 -39t42.5 -102q0 -58 -41 -93.5t-98 -35.5q-23 0 -47 6.5t-49.5 21t-41.5 43.5t-16 68zM707 1280q0 17 7.5 37.5t24 42.5t49 36.5 t74.5 14.5q55 0 95 -39t40 -102q0 -58 -39 -93.5t-96 -35.5q-23 0 -47.5 6.5t-50 21t-41.5 43.5t-16 68z" />
<glyph unicode="&#x152;" horiz-adv-x="2074" d="M92 709q0 207 93 368.5t259 250.5t377 89q56 0 163 -16.5t157 -20.5q185 -15 698 13q59 3 84.5 -15t20.5 -53q-22 -205 -23 -215q-4 -39 -40 -55t-70 -2.5t-33 45.5q4 101 -63.5 133.5t-264.5 32.5q-57 0 -78.5 -27t-23.5 -70q-3 -46 -4.5 -164t2.5 -165q2 -30 12 -46.5 t37 -19.5q19 -2 81.5 -1.5t84.5 3.5q48 5 68 26.5t20 80.5q0 39 35 54t69.5 -3.5t32.5 -59.5q-7 -163 -2 -327q2 -61 -47 -77q-40 -14 -73 11q-23 18 -22 47q5 102 -81 111q-26 3 -86 3.5t-80 -1.5q-41 -5 -47 -68q-5 -69 -3 -163t9 -164q3 -61 32 -88t103 -27q69 0 113 6 q90 7 154.5 66.5t84.5 152.5q14 51 56.5 60t73.5 -24t16 -83q-33 -111 -64 -272q-11 -37 -61 -39q-122 0 -299 5t-363 5q-85 0 -189.5 -16.5t-164.5 -16.5q-352 0 -553 200t-201 536zM426 784q0 -147 38 -272t102.5 -209t150.5 -131t182 -47q72 0 105 51t38 160q5 132 6 339 t-8 394q-4 56 -29 97t-62 62t-73.5 30.5t-74.5 9.5q-176 0 -275.5 -129.5t-99.5 -354.5z" />
<glyph unicode="&#x153;" horiz-adv-x="1806" d="M74 451q0 128 42 228.5t116.5 163t170.5 94.5t209 32q106 0 207.5 -34t167.5 -95q27 -23 47 0q117 129 334 129q113 0 198.5 -50t127 -125t41.5 -159q0 -48 -26 -83.5t-79 -39.5q-44 -3 -217 -9t-219 -9q-60 -3 -57 -70q3 -116 86.5 -186t191.5 -70q116 0 205 78 q17 14 35 14q25 0 43 -24.5t18 -53.5q0 -24 -12 -39q-60 -81 -163 -121t-224 -40q-103 0 -198.5 28t-149.5 74q-12 10 -22 10t-25 -10q-151 -111 -336 -111q-145 0 -260 55t-183.5 165t-68.5 258zM371 537q0 -102 31.5 -194t93 -152t139.5 -60q190 0 190 270q0 45 -8 97 t-28 110t-48.5 104t-74.5 76.5t-101 30.5q-90 0 -142 -74t-52 -208zM1161 668q-6 -27 1 -38t34 -12q116 -5 260 13q49 9 50 59q1 52 -44 94q-40 39 -94 39q-78 0 -133 -50t-74 -105z" />
<glyph unicode="&#x178;" horiz-adv-x="1396" d="M-10 1333q0 27 16 46t45 16q114 -8 273 -7.5t264 7.5q37 1 56.5 -18t19.5 -46t-16.5 -47.5t-39.5 -19.5q-61 7 -83.5 -24t3.5 -75q89 -164 189 -295q39 -51 80 2q42 52 101 139t93 150q15 30 15.5 56t-26.5 40.5t-79 8.5q-28 -3 -44.5 18t-16.5 49q0 25 15 43.5t42 18.5 q40 -1 121 -3.5t122 -3.5t105 0.5t123 6.5q33 1 50.5 -16t17.5 -44q0 -28 -16.5 -49t-41.5 -20q-41 2 -79.5 -18t-56.5 -39t-40 -48q-78 -90 -194 -265t-134 -237q-12 -38 -12.5 -197.5t10.5 -252.5q9 -92 140 -78q32 3 48.5 -16.5t16.5 -48.5q0 -30 -17.5 -51.5 t-47.5 -18.5q-113 8 -296 7.5t-313 -9.5q-37 -3 -57 19t-20 53q0 28 17 47t46 18q29 0 60 -1t57.5 15t30.5 50q9 76 6 229t-15 192q-30 74 -159 275t-187 278q-32 49 -61 73.5t-70 23.5q-28 -1 -44.5 19t-16.5 48zM317 1640q0 20 8 42t25.5 45.5t53 39t83.5 15.5 q59 0 105.5 -42t46.5 -108q0 -62 -44.5 -100.5t-107.5 -38.5q-25 0 -52 7t-54.5 22.5t-45.5 46t-18 71.5zM848 1640q0 19 8.5 41.5t26.5 46t54 39t83 15.5q60 0 103.5 -41.5t43.5 -108.5q0 -63 -42.5 -101t-104.5 -38q-26 0 -53.5 7t-55.5 23t-45.5 46t-17.5 71z" />
<glyph unicode="&#x2c6;" horiz-adv-x="829" d="M141 1137q0 10 9 22q63 81 192 293q18 27 82 27q60 0 72 -25q123 -205 190 -295q6 -9 6 -20q0 -21 -26 -36.5t-58 -15.5q-39 0 -53 23q-76 98 -117 137q-10 13 -22 13q-11 0 -21 -13q-67 -71 -123 -141q-16 -19 -49 -19q-31 0 -56.5 14.5t-25.5 35.5z" />
<glyph unicode="&#x2dc;" horiz-adv-x="960" d="M115 1194q0 89 63 162.5t154 73.5q56 0 117.5 -25t109.5 -50.5t70 -25.5q24 0 38 9.5t27 37.5q16 31 58 31q29 0 52 -13.5t23 -31.5q0 -90 -61.5 -162t-153.5 -72q-56 0 -118 25t-110 50.5t-69 25.5q-25 0 -39 -9t-28 -38q-16 -31 -58 -31q-28 0 -51.5 13t-23.5 30z" />
<glyph unicode="&#x2000;" horiz-adv-x="905" />
<glyph unicode="&#x2001;" horiz-adv-x="1810" />
<glyph unicode="&#x2002;" horiz-adv-x="905" />
<glyph unicode="&#x2003;" horiz-adv-x="1810" />
<glyph unicode="&#x2004;" horiz-adv-x="603" />
<glyph unicode="&#x2005;" horiz-adv-x="452" />
<glyph unicode="&#x2006;" horiz-adv-x="301" />
<glyph unicode="&#x2007;" horiz-adv-x="301" />
<glyph unicode="&#x2008;" horiz-adv-x="226" />
<glyph unicode="&#x2009;" horiz-adv-x="362" />
<glyph unicode="&#x200a;" horiz-adv-x="100" />
<glyph unicode="&#x2010;" horiz-adv-x="841" d="M98 563q0 40 19.5 70t54.5 33q44 2 125.5 0t197 1t169.5 13q34 6 57.5 -26t23.5 -74q0 -41 -24.5 -70t-73.5 -29q-347 6 -467 -8q-39 -4 -60.5 23t-21.5 67z" />
<glyph unicode="&#x2011;" horiz-adv-x="841" d="M98 563q0 40 19.5 70t54.5 33q44 2 125.5 0t197 1t169.5 13q34 6 57.5 -26t23.5 -74q0 -41 -24.5 -70t-73.5 -29q-347 6 -467 -8q-39 -4 -60.5 23t-21.5 67z" />
<glyph unicode="&#x2012;" horiz-adv-x="841" d="M98 563q0 40 19.5 70t54.5 33q44 2 125.5 0t197 1t169.5 13q34 6 57.5 -26t23.5 -74q0 -41 -24.5 -70t-73.5 -29q-347 6 -467 -8q-39 -4 -60.5 23t-21.5 67z" />
<glyph unicode="&#x2013;" horiz-adv-x="1447" d="M102 580q0 40 15 71.5t41 32.5q13 1 274 -3.5t528 -3.5t320 15q28 7 49 -30t21 -84q0 -37 -17 -63t-51 -26q-73 -1 -350 0.5t-506.5 1.5t-263.5 -4q-28 -6 -44 23t-16 70z" />
<glyph unicode="&#x2014;" horiz-adv-x="2088" d="M102 582q0 40 14.5 70.5t39.5 31.5q13 1 436 -3.5t850 -3.5t479 15q28 7 49 -30t21 -84q0 -37 -17 -63t-51 -26q-70 -1 -509.5 0.5t-828.5 1.5t-423 -4q-28 -6 -44 23.5t-16 71.5z" />
<glyph unicode="&#x2018;" horiz-adv-x="524" d="M78 1038q0 104 63.5 214.5t159.5 156.5q8 4 21 4q22 0 41.5 -19.5t19.5 -39.5q0 -17 -7 -27t-28 -22q-63 -34 -103 -88.5t-40 -108.5q0 -72 45 -72q10 0 38 10.5t44 10.5q57 0 87 -47.5t30 -104.5q0 -66 -46 -109.5t-108 -43.5q-109 0 -163 81t-54 205z" />
<glyph unicode="&#x2019;" horiz-adv-x="514" d="M72 1257q0 67 46 111.5t109 44.5q74 0 123.5 -41t70.5 -104t21 -144q0 -104 -63.5 -213t-159.5 -155q-8 -4 -20 -4q-23 0 -42.5 19t-19.5 40q0 15 7.5 25t27.5 22q64 34 103.5 88.5t39.5 108.5q0 71 -45 71q-10 0 -37 -10t-45 -10q-56 0 -86 47t-30 104z" />
<glyph unicode="&#x201a;" horiz-adv-x="565" d="M102 129q0 67 46.5 111.5t111.5 44.5q109 0 163 -82t54 -207q0 -104 -64.5 -213.5t-162.5 -155.5q-6 -4 -19 -4q-21 0 -41 19.5t-20 40.5q0 16 7.5 25.5t29.5 21.5q63 34 103 88t40 108q0 72 -49 72q-9 0 -35.5 -10.5t-42.5 -10.5q-58 0 -89.5 47.5t-31.5 104.5z" />
<glyph unicode="&#x201c;" horiz-adv-x="974" d="M78 1038q0 104 63.5 214.5t159.5 156.5q8 4 21 4q22 0 41.5 -19.5t19.5 -39.5q0 -17 -7 -27t-28 -22q-63 -34 -103 -88.5t-40 -108.5q0 -72 45 -72q10 0 38 10.5t44 10.5q57 0 87 -47.5t30 -104.5q0 -66 -46 -109.5t-108 -43.5q-109 0 -163 81t-54 205zM528 1038 q0 104 64.5 214.5t161.5 156.5q8 4 18 4q22 0 42 -19.5t20 -39.5q0 -18 -7 -27.5t-28 -21.5q-64 -34 -104 -88.5t-40 -108.5q0 -72 45 -72q10 0 38 10.5t44 10.5q57 0 87 -47.5t30 -104.5q0 -66 -45.5 -109.5t-108.5 -43.5q-110 0 -163.5 81t-53.5 205z" />
<glyph unicode="&#x201d;" horiz-adv-x="964" d="M72 1257q0 67 46 111.5t109 44.5q74 0 123.5 -41t70.5 -104t21 -144q0 -104 -63.5 -213t-159.5 -155q-8 -4 -20 -4q-23 0 -42.5 19t-19.5 40q0 15 7.5 25t27.5 22q64 34 103.5 88.5t39.5 108.5q0 71 -45 71q-10 0 -37 -10t-45 -10q-56 0 -86 47t-30 104zM522 1257 q0 67 46.5 111.5t109.5 44.5q108 0 161.5 -82t53.5 -207q0 -104 -63.5 -213t-159.5 -155q-8 -4 -21 -4q-22 0 -41.5 19.5t-19.5 39.5q0 27 37 47q62 34 101.5 88.5t39.5 108.5q0 71 -45 71q-11 0 -38 -10t-44 -10q-55 0 -86 47t-31 104z" />
<glyph unicode="&#x201e;" horiz-adv-x="1013" d="M102 129q0 67 46.5 111.5t109.5 44.5q110 0 163.5 -81.5t53.5 -207.5q0 -104 -64 -213.5t-161 -155.5q-8 -4 -19 -4q-23 0 -43 19.5t-20 40.5q0 27 37 47q64 34 103.5 88t39.5 108q0 72 -47 72q-9 0 -36 -10.5t-44 -10.5q-57 0 -88 47.5t-31 104.5zM555 129 q0 67 46 111.5t108 44.5q109 0 163 -82t54 -207q0 -103 -64.5 -213t-161.5 -156q-6 -4 -18 -4q-23 0 -42 19.5t-19 40.5q0 27 34 47q64 34 104 88t40 108q0 72 -45 72q-11 0 -39 -10.5t-43 -10.5q-57 0 -87 47.5t-30 104.5z" />
<glyph unicode="&#x2022;" horiz-adv-x="808" d="M90 559q0 129 89 207t227 78q149 0 230 -68.5t81 -185.5q0 -136 -82 -222.5t-229 -86.5q-143 0 -229.5 80.5t-86.5 197.5z" />
<glyph unicode="&#x2026;" horiz-adv-x="1605" d="M100 152q0 84 51.5 131t133.5 47q182 0 182 -170q0 -79 -47.5 -132t-134.5 -53t-136 49.5t-49 127.5zM618 152q0 84 50.5 131t132.5 47q182 0 182 -170q0 -79 -47.5 -132t-134.5 -53q-85 0 -134 50t-49 127zM1139 152q0 84 50.5 131t131.5 47q182 0 182 -170 q0 -79 -47.5 -132t-134.5 -53q-85 0 -133.5 49.5t-48.5 127.5z" />
<glyph unicode="&#x202f;" horiz-adv-x="362" />
<glyph unicode="&#x2039;" horiz-adv-x="604" d="M43 481q0 30 67.5 108.5t254.5 270.5q25 25 67 25q31 0 55.5 -16t24.5 -42q0 -17 -16 -43q-53 -83 -80 -126.5t-53.5 -98.5t-26.5 -82q0 -16 7 -37.5t24 -54.5t32.5 -61t45 -80t49.5 -88q6 -12 6 -27q0 -26 -27 -42.5t-61 -16.5q-48 0 -68 26q-301 316 -301 385z" />
<glyph unicode="&#x203a;" horiz-adv-x="604" d="M92 827q0 27 23.5 42.5t56.5 15.5q43 0 68 -25q185 -190 253 -269t68 -110q0 -69 -301 -385q-20 -26 -67 -26q-36 0 -63.5 16.5t-27.5 42.5q0 5 9 27q19 35 49 88t45 80t32 60.5t24 55t7 37.5q0 27 -26 80.5t-55.5 101t-80.5 125.5q-14 22 -14 43z" />
<glyph unicode="&#x205f;" horiz-adv-x="452" />
<glyph unicode="&#x20ac;" horiz-adv-x="1310" d="M53 573q0 36 11 51.5t32 12.5q24 -4 43 -4q18 0 25 7.5t6 27.5v49q0 18 -6 25.5t-23 7.5h-45q-43 0 -43 59q0 37 11.5 54t31.5 14q42 -3 60 -5q19 -1 28.5 11.5t14.5 36.5q20 105 70 193t128.5 157t194 108t256.5 39q149 0 261.5 -46t117.5 -107q3 -36 -16.5 -140 t-36.5 -168q-3 -20 -18 -31.5t-33.5 -11t-36 6.5t-29 21t-10.5 32q12 148 -50 225.5t-182 77.5q-127 0 -210.5 -101.5t-112.5 -263.5q-6 -24 1.5 -32.5t28.5 -10.5q129 -5 391 0q25 1 33 -16.5t8 -44.5t-9 -43.5t-30 -15.5q-177 6 -417 2q-25 -3 -25 -39q0 -33 4 -49 q3 -18 11.5 -25.5t29.5 -7.5h295q39 0 39 -64q0 -25 -10 -41.5t-25 -15.5q-51 2 -272 2q-22 -1 -27.5 -12t2.5 -31q49 -143 149 -222t224 -79q25 0 48.5 2.5t41.5 5.5t37.5 9.5t31 10.5t28.5 13t22.5 12.5t20.5 12.5t16 10q27 18 50 -5t23 -61q0 -31 -20 -57 q-8 -9 -20.5 -21t-46.5 -36t-73.5 -42t-100.5 -32.5t-126 -14.5q-248 0 -409 126t-217 362q-17 49 -54 49h-49q-20 -2 -31.5 13t-11.5 50z" />
<glyph unicode="&#x2122;" horiz-adv-x="1595" d="M66 1104v16q1 15 1.5 36t0.5 44.5t-0.5 44t-1.5 29.5q-1 14 12 25.5t24 9.5q64 -12 278.5 -10t353.5 5.5t198 6.5q25 2 35 -27q50 -156 86 -211q10 -18 25 -17.5t24 21.5q30 58 80 195q13 35 47 37h241q16 0 24.5 -11.5t8.5 -27.5q0 -17 -7.5 -30.5t-16.5 -12.5 q-35 2 -46.5 -2.5t-11.5 -26.5q-5 -119 2 -283q2 -13 9.5 -17.5t35.5 -4.5q13 0 20 -12.5t7 -28.5q0 -14 -6 -24t-16 -9q-26 3 -115 4t-164 -4q-11 -1 -19 10.5t-8 26.5q0 13 7 24t20 11q33 0 41 8.5t10 36.5q4 70 5 113t0 51l-1 8q0 25 -11.5 25t-18.5 -23l-115 -287 q-3 -7 -62.5 -7t-60.5 7q-90 181 -131 287q-10 23 -21.5 21.5t-11.5 -23.5q-2 -106 2 -186q1 -24 10 -28.5t52 -4.5q10 0 16 -12t6 -27q0 -31 -18 -31q-5 0 -53.5 2.5t-100 2.5t-88.5 -5q-10 -1 -16 9.5t-6 25.5t6 26t16 11q22 0 32 1t19.5 8.5t10.5 23.5q7 136 0 241 q-3 17 -5 26t-10 17t-22 9q-52 3 -142 -3q-39 -2 -43 -55q-10 -134 2 -237q3 -29 64 -29q22 0 22 -35q0 -15 -6 -27t-16 -12q-51 6 -149.5 7t-168.5 -7q-10 0 -16 11t-6 26q0 34 18 37h23.5t32 3t12.5 11q2 12 3.5 40.5t1.5 63.5v65.5t-0.5 57.5t-0.5 29q0 49 -33 49h-63 q-26 0 -38.5 -17.5t-13.5 -39.5t-5.5 -42t-16.5 -23q-24 -3 -43.5 0.5t-19.5 13.5z" />
<glyph unicode="&#x25fc;" horiz-adv-x="952" d="M0 0v952h952v-952h-952z" />
<glyph unicode="&#xfb03;" horiz-adv-x="2230" d="M66 63q0 28 15 48.5t40 19.5t45 -1t33.5 18t15.5 57q5 83 5.5 172.5t-1.5 205.5t-2 177q0 28 -11 36.5t-34 8.5h-33q-27 -1 -42 19.5t-15 49.5q0 27 13.5 45.5t39.5 18.5q23 0 39.5 9t26 20.5t17 35t10.5 38t8 44.5q32 185 167 285t383 100q163 0 279 -55q54 -24 94 6 q66 50 171.5 77.5t205.5 27.5q94 0 179 -23.5t142.5 -73t57.5 -114.5q0 -49 -33.5 -83t-97.5 -34q-41 0 -71.5 22.5t-51.5 54t-44 63.5t-62 54.5t-93 22.5q-114 0 -166.5 -93t-52.5 -323q0 -36 9.5 -46.5t39.5 -12.5q89 -3 248 0q126 1 264 12.5t178 20.5q57 -11 50 -76 q-10 -113 -4.5 -366.5t16.5 -335.5q6 -40 15 -51q18 -22 83 -15q30 3 46 -15t16 -46q0 -29 -16.5 -51t-43.5 -21q-279 15 -499 -2q-32 -3 -50 17.5t-18 49.5q0 28 15.5 48.5t41.5 19.5q26 -2 44.5 -2t33 14.5t23.5 48.5q17 63 16 303t-12 277q-8 27 -22.5 34.5t-63.5 8.5 q-233 10 -371 -2q-24 -1 -31.5 -12t-7.5 -39q0 -379 12 -555q3 -44 33.5 -65t106.5 -9q29 3 45 -16.5t16 -48.5t-16 -50t-43 -20q-97 4 -256 4t-262 -4q-29 -1 -45.5 19t-16.5 48t15 48.5t40 19.5t45.5 -1t34 18t15.5 57q5 83 5.5 172.5t-1.5 205.5t-2 177q0 15 -3 24 t-10 13t-13 5.5t-19 2.5q-51 5 -210.5 6.5t-183.5 -0.5q-23 0 -30.5 -11.5t-7.5 -39.5q0 -379 12 -555q3 -45 33 -65.5t106 -8.5q29 3 44 -16.5t15 -48.5t-16 -50t-43 -20q-97 4 -255 4t-261 -4q-29 -1 -45 18.5t-16 48.5zM487 1008q0 -36 12 -50.5t42 -17.5q24 -3 79.5 -4 t106.5 -0.5t103 1.5t57 1q53 0 73.5 39.5t26.5 107.5q7 71 17 115v8q0 54 -45 89.5t-102 48t-122 12.5q-106 0 -177 -87.5t-71 -262.5z" />
<glyph unicode="&#xfb04;" horiz-adv-x="2224" d="M66 63q0 28 15 48.5t40 19.5t45 -1t33.5 18t15.5 57q5 83 5.5 172.5t-1.5 205.5t-2 177q0 28 -11 36.5t-34 8.5h-33q-27 -1 -42 19.5t-15 49.5q0 27 13.5 45.5t39.5 18.5q23 0 39.5 9t26 20.5t17 35t10.5 38t8 44.5q32 185 167 285t383 100q73 0 153 -16.5t126 -38.5 q54 -24 94 6q67 51 166.5 80t190.5 29q110 0 211.5 -16.5t121.5 -16.5q43 0 84 16.5t56 16.5q39 0 36 -86q-13 -358 -10.5 -753.5t13.5 -485.5q2 -19 2.5 -24.5t6.5 -20.5t15 -19.5t27.5 -8.5t44.5 -1q29 3 45 -16t16 -47q0 -30 -16.5 -51.5t-44.5 -20.5q-247 13 -488 0 q-30 -1 -46.5 18.5t-16.5 48.5t16 50t45 18q92 -7 97 68q4 60 6 167.5t2.5 230.5t0.5 226t-0.5 201t-0.5 109q0 58 -15.5 107t-48.5 90.5t-91.5 65t-137.5 23.5q-53 0 -87 -16t-61 -60.5t-39 -127t-12 -211.5q0 -37 10 -50.5t39 -13.5q45 0 144 6q33 1 49 -18.5t16 -48.5 q0 -28 -13.5 -48t-37.5 -20q-90 4 -168 0q-24 0 -31.5 -11.5t-7.5 -39.5q0 -364 13 -555q3 -45 33 -65.5t106 -8.5q28 3 43.5 -16t15.5 -47q0 -30 -16.5 -51.5t-44.5 -20.5q-97 4 -256 4t-262 -4q-29 -1 -45.5 19t-16.5 48t15 48.5t40 19.5t45.5 -1t34 18t15.5 57 q5 83 5.5 172.5t-1.5 205.5t-2 177q0 15 -3 24t-10 13t-13 5.5t-19 2.5q-51 5 -210.5 6.5t-183.5 -0.5q-23 0 -30.5 -11.5t-7.5 -39.5q0 -379 12 -555q3 -45 33 -65.5t106 -8.5q29 3 44 -16.5t15 -48.5t-16 -50t-43 -20q-97 4 -255 4t-261 -4q-29 -1 -45 18.5t-16 48.5z M487 1008q0 -36 12 -50.5t42 -17.5q24 -3 79.5 -4t106.5 -0.5t103 1.5t57 1q53 0 73.5 39.5t26.5 107.5q7 71 17 115v8q0 54 -45 89.5t-102 48t-122 12.5q-106 0 -177 -87.5t-71 -262.5z" />
</font>
</defs>
</svg>
